<svg version="1.1" xmlns="http://www.w3.org/2000/svg" viewBox="0 0 1030 671.4285714285716" width="1030" height="671.4285714285716">
  <!-- svg-source:excalidraw -->
  
  <defs>
    <style>
      @font-face {
        font-family: "Virgil";
        src: url("https://excalidraw.com/Virgil.woff2");
      }
      @font-face {
        font-family: "Cascadia";
        src: url("https://excalidraw.com/Cascadia.woff2");
      }
    </style>
  </defs>
  <rect x="0" y="0" width="1030" height="671.4285714285716" fill="#ffffff"/><g transform="translate(49.00396825396774 503.65079365079396) rotate(0 68.5 13)"><text x="0" y="18" font-family="Virgil, Segoe UI Emoji" font-size="20px" fill="#000000" text-anchor="start" style="white-space: pre;" direction="ltr">Metaforecast</text></g><g stroke-linecap="round" transform="translate(25.714285714285552 432.85714285714266) rotate(0 86.42857142857139 83.57142857142856)"><path d="M86.82 -1.99 C112.57 25.51, 141.68 54.68, 173.75 82.13 M87.67 0.27 C116.42 27.55, 143.49 55.01, 172.37 84.01 M172.93 85.16 C140.2 112.33, 110.11 143.25, 87.23 168.82 M172.69 84.26 C143.36 112.58, 113.23 142.7, 86.02 167.01 M85.12 165.57 C57.16 138.48, 22.95 105.64, -1.42 82.66 M87.56 167.76 C64.04 144.31, 40.78 122.81, -0.83 84.29 M0.91 82.57 C25.59 58.7, 52.97 32.36, 86.62 -0.59 M-0.13 84.13 C27.09 60.47, 51.25 33.96, 86.84 -0.45" stroke="#000000" stroke-width="1" fill="none"/></g><g stroke-linecap="round" transform="translate(10 412.8571428571431) rotate(0 102.85714285714289 100.71428571428567)"><path d="M103.61 1.54 C136.94 35.17, 169.18 68.28, 204.38 102.2 M102.16 -0.72 C130.47 25.85, 156.8 53, 205.46 101.27 M206.62 99.44 C181.71 124.04, 157.15 148.6, 103.53 202.17 M206.47 100.76 C168.74 136.12, 131.84 173.83, 102.62 202.2 M102.61 201.81 C79.15 177.32, 56.07 153, 1.77 99.56 M103.95 201.55 C79.52 178.26, 55.45 155.47, 0.07 101.11 M-0.03 99.02 C29.82 71.4, 59.55 43.95, 101.27 1.01 M0.16 100.17 C22.14 79, 44.99 56.11, 102.44 0.51" stroke="#000000" stroke-width="1" fill="none"/></g><g stroke-linecap="round"><g transform="translate(166.34528235555229 462.04642230647846) rotate(0 42.42282208098152 -43.136340292977025)"><path d="M-0.08 -0.58 C14.33 -14.73, 72.17 -71.88, 86.43 -86.11 M-1.59 1.73 C12.66 -12.69, 70.54 -73.05, 85.44 -88" stroke="#000000" stroke-width="1" fill="none"/></g><g transform="translate(166.34528235555229 462.04642230647846) rotate(0 42.42282208098152 -43.136340292977025)"><path d="M72.13 -60.79 C77.8 -70.54, 81.75 -78.59, 84.95 -88.08 M73.23 -61.12 C76.63 -69.76, 81.64 -78.83, 85.05 -88.96" stroke="#000000" stroke-width="1" fill="none"/></g><g transform="translate(166.34528235555229 462.04642230647846) rotate(0 42.42282208098152 -43.136340292977025)"><path d="M57.44 -75.12 C67.35 -80.58, 75.69 -84.35, 84.95 -88.08 M58.54 -75.45 C66.46 -79.46, 76.11 -84, 85.05 -88.96" stroke="#000000" stroke-width="1" fill="none"/></g></g><g stroke-linecap="round"><g transform="translate(212.8571428571429 517.1428571428571) rotate(0 65.9597434884164 -1.3724467591516714)"><path d="M0.43 -0.42 C22.37 -0.64, 108.54 -2.06, 130.5 -2.32 M-0.81 -1.69 C21.61 -1.69, 110.63 -1.38, 132.73 -1.25" stroke="#000000" stroke-width="1" fill="none"/></g><g transform="translate(212.8571428571429 517.1428571428571) rotate(0 65.9597434884164 -1.3724467591516714)"><path d="M103.79 7.34 C108.84 7.95, 115.18 3.68, 131.04 -0.78 M105.47 8.66 C111.62 5.8, 118.45 4.69, 131.87 -0.76" stroke="#000000" stroke-width="1" fill="none"/></g><g transform="translate(212.8571428571429 517.1428571428571) rotate(0 65.9597434884164 -1.3724467591516714)"><path d="M103.88 -13.18 C108.74 -8.38, 115.06 -8.47, 131.04 -0.78 M105.56 -11.86 C111.64 -9.63, 118.44 -5.66, 131.87 -0.76" stroke="#000000" stroke-width="1" fill="none"/></g></g><g stroke-linecap="round" transform="translate(341.42857142857156 487.1428571428571) rotate(0 135.71428571428567 33.571428571428555)"><path d="M1.49 -0.97 C109.54 -1.28, 215.81 -1.4, 272.54 -0.37 M0.73 -0.73 C77.79 0.73, 154.64 1.8, 270.82 -0.69 M271.04 1.9 C272.41 13.69, 272.38 28.89, 272.17 67.74 M270.71 0.37 C270.72 17.15, 270.38 33.99, 270.97 66.21 M272.84 67.31 C195.39 65.89, 118.39 66.15, -0.24 68.33 M272.11 67.92 C192.99 68.77, 115.45 69.82, 0.37 66.97 M1.4 66.83 C-1.9 44.52, -1.76 21.8, 1.36 -1.22 M-0.25 67.2 C1.14 53.21, 0.38 37.79, 0.27 0.31" stroke="#000000" stroke-width="1" fill="none"/></g><g transform="translate(354.28571428571445 496.7142857142858) rotate(0 119 26)"><text x="0" y="18" font-family="Virgil, Segoe UI Emoji" font-size="20px" fill="#000000" text-anchor="start" style="white-space: pre;" direction="ltr">Search is better than </text><text x="0" y="44" font-family="Virgil, Segoe UI Emoji" font-size="20px" fill="#000000" text-anchor="start" style="white-space: pre;" direction="ltr">platform-specific options</text></g><g stroke-linecap="round" transform="translate(258.57142857142844 325.714285714286) rotate(0 122.85714285714278 41.42857142857133)"><path d="M-0.93 -0.51 C62.8 2.04, 124.45 0.67, 244.07 0.15 M-0.3 -0.15 C64.15 0.57, 126.92 0.69, 246.44 -0.41 M245.06 1.4 C247.69 27.82, 246.55 59.38, 247.43 82.82 M245.95 -0.02 C245.6 22.61, 245.97 45.65, 245.82 82.54 M245.52 81.69 C148.61 82.78, 54.19 84.99, 1.07 83.48 M246.09 83.31 C194.79 84.04, 145.13 83.49, -0.38 83.12 M1.67 83.19 C2.11 57.35, -0.64 29.37, -0.48 1.06 M-0.11 82.95 C0.1 59.95, 0.97 35.37, -0.58 -0.28" stroke="#000000" stroke-width="1" fill="none"/></g><g transform="translate(271.42857142857133 341) rotate(0 111 26)"><text x="0" y="18" font-family="Virgil, Segoe UI Emoji" font-size="20px" fill="#000000" text-anchor="start" style="white-space: pre;" direction="ltr">Search many platforms</text><text x="0" y="44" font-family="Virgil, Segoe UI Emoji" font-size="20px" fill="#000000" text-anchor="start" style="white-space: pre;" direction="ltr">at once.</text></g><g stroke-linecap="round"><g transform="translate(114.28571428571422 409.6479568960349) rotate(0 0.5526216811163067 -62.170186049487484)"><path d="M-0.48 -1.1 C-0.15 -21.9, 1.16 -103.13, 1.13 -123.6 M1.47 0.93 C1.81 -19.68, 1.32 -104.11, 0.78 -125.27" stroke="#000000" stroke-width="1" fill="none"/></g><g transform="translate(114.28571428571422 409.6479568960349) rotate(0 0.5526216811163067 -62.170186049487484)"><path d="M9.59 -95.33 C10.15 -104.8, 7.1 -109.93, 1.41 -124.39 M11.81 -97.59 C9.58 -104.76, 5.68 -111.53, 0.46 -124.52" stroke="#000000" stroke-width="1" fill="none"/></g><g transform="translate(114.28571428571422 409.6479568960349) rotate(0 0.5526216811163067 -62.170186049487484)"><path d="M-10.93 -95.05 C-5.63 -104.5, -3.94 -109.7, 1.41 -124.39 M-8.71 -97.31 C-6 -104.74, -4.98 -111.57, 0.46 -124.52" stroke="#000000" stroke-width="1" fill="none"/></g></g><g stroke-linecap="round" transform="translate(22.85714285714289 182.85714285714312) rotate(0 109.99999999999989 47.857142857142776)"><path d="M-0.64 -1.43 C59.5 2.6, 121.25 0.19, 220.05 0.72 M-0.72 0.68 C74.21 0.69, 148.16 0.61, 220.27 -0.71 M221.26 -0.23 C220.4 38.59, 218.05 74.34, 221.1 95.29 M219.84 -0.22 C219.8 37.77, 220.13 75.73, 220.11 95.94 M220.38 96.54 C162.61 92.93, 109.66 95.59, 1.25 97.32 M219.34 96.24 C169.66 97.24, 117.55 96.65, -0.15 95.29 M-1.29 93.77 C0.55 64, 1.24 27.48, -0.51 1.68 M0.98 95 C-0.07 72.19, 0.39 46.15, 0.06 0.4" stroke="#000000" stroke-width="1" fill="none"/></g><g transform="translate(37.142857142857 191) rotate(0 98.5 39)"><text x="0" y="18" font-family="Virgil, Segoe UI Emoji" font-size="20px" fill="#000000" text-anchor="start" style="white-space: pre;" direction="ltr">Quality ratings and</text><text x="0" y="44" font-family="Virgil, Segoe UI Emoji" font-size="20px" fill="#000000" text-anchor="start" style="white-space: pre;" direction="ltr">indicators previously</text><text x="0" y="70" font-family="Virgil, Segoe UI Emoji" font-size="20px" fill="#000000" text-anchor="start" style="white-space: pre;" direction="ltr">non-existent</text></g><g stroke-linecap="round"><g transform="translate(248.57142857142844 227.1428571428571) rotate(0 79.60042436048388 -62.45855222525336)"><path d="M-0.92 -0.27 C25.78 -21.15, 133.36 -103.88, 160.12 -124.65 M0.79 -1.45 C27.35 -22.22, 132.93 -102.91, 159.24 -123.3" stroke="#000000" stroke-width="1" fill="none"/></g><g transform="translate(248.57142857142844 227.1428571428571) rotate(0 79.60042436048388 -62.45855222525336)"><path d="M142.71 -97.77 C147.13 -105.88, 151.5 -113.48, 160.11 -124.16 M142.48 -97.62 C150.06 -107.3, 155.46 -116.72, 159.8 -123.28" stroke="#000000" stroke-width="1" fill="none"/></g><g transform="translate(248.57142857142844 227.1428571428571) rotate(0 79.60042436048388 -62.45855222525336)"><path d="M130.2 -114.04 C138.37 -117.28, 146.41 -120.11, 160.11 -124.16 M129.97 -113.89 C142.25 -117.25, 152.51 -120.37, 159.8 -123.28" stroke="#000000" stroke-width="1" fill="none"/></g></g><g stroke-linecap="round"><g transform="translate(585.7142857142858 481.42857142857133) rotate(0 -56.04939683068483 -189.0593649930094)"><path d="M1.13 -1.04 C-17.44 -63.79, -93.33 -314.77, -111.99 -377.56 M0.26 1.03 C-18.46 -61.94, -94.64 -315.7, -113.23 -379.15" stroke="#000000" stroke-width="1" fill="none"/></g><g transform="translate(585.7142857142858 481.42857142857133) rotate(0 -56.04939683068483 -189.0593649930094)"><path d="M-97.09 -355.98 C-97.93 -359.9, -102.72 -368.07, -113.03 -379.18 M-96.22 -355.76 C-101.58 -364.38, -108.27 -372.98, -113.95 -378.37" stroke="#000000" stroke-width="1" fill="none"/></g><g transform="translate(585.7142857142858 481.42857142857133) rotate(0 -56.04939683068483 -189.0593649930094)"><path d="M-116.76 -350.13 C-112.63 -355.7, -112.51 -365.33, -113.03 -379.18 M-115.89 -349.92 C-113.58 -360.91, -112.61 -371.78, -113.95 -378.37" stroke="#000000" stroke-width="1" fill="none"/></g></g><g stroke-linecap="round"><g transform="translate(430 321.42857142857133) rotate(0 3.1408580468522587 -109.9669927506427)"><path d="M-0.6 -0.88 C0.04 -37.47, 3.83 -182.76, 4.7 -219.4 M1.29 1.28 C2.21 -35.68, 5.94 -184.37, 6.88 -221.21" stroke="#000000" stroke-width="1" fill="none"/></g><g transform="translate(430 321.42857142857133) rotate(0 3.1408580468522587 -109.9669927506427)"><path d="M14.96 -194.46 C13.83 -205.24, 8.06 -212.33, 7.8 -222.4 M16.62 -193.24 C12.12 -203.26, 9.45 -215.25, 6.1 -221.15" stroke="#000000" stroke-width="1" fill="none"/></g><g transform="translate(430 321.42857142857133) rotate(0 3.1408580468522587 -109.9669927506427)"><path d="M-5.55 -194.98 C0.95 -205.46, 2.82 -212.36, 7.8 -222.4 M-3.89 -193.76 C-0.49 -203.58, 4.75 -215.38, 6.1 -221.15" stroke="#000000" stroke-width="1" fill="none"/></g></g><g stroke-linecap="round" transform="translate(331.42857142857133 10) rotate(0 101.42857142857144 44.285714285714334)"><path d="M0.54 0.66 C47.9 1.45, 100.05 -1.06, 204.36 1.73 M0.12 0.2 C45.6 -0.97, 92.22 -0.65, 202.37 -0.6 M203.36 0.27 C201.19 25.49, 201.33 52.18, 201.36 90.31 M202.39 0.23 C204.39 28.91, 203.26 57.48, 202.65 88 M202.88 86.87 C129.16 86.11, 53.46 88.64, 0.32 89.26 M202.05 88.39 C160.05 87.79, 116.31 87.56, -0.23 88.12 M-0.97 87.94 C-2.16 60.83, -0.04 30.9, -1 0.6 M-0.88 87.86 C1.09 68.98, 0.04 49.31, -0.1 0.97" stroke="#000000" stroke-width="1" fill="none"/></g><g transform="translate(345.71428571428555 16.714285714285666) rotate(0 91.5 39)"><text x="0" y="18" font-family="Virgil, Segoe UI Emoji" font-size="20px" fill="#000000" text-anchor="start" style="white-space: pre;" direction="ltr">More possible and </text><text x="0" y="44" font-family="Virgil, Segoe UI Emoji" font-size="20px" fill="#000000" text-anchor="start" style="white-space: pre;" direction="ltr">convenient to find</text><text x="0" y="70" font-family="Virgil, Segoe UI Emoji" font-size="20px" fill="#000000" text-anchor="start" style="white-space: pre;" direction="ltr">forecasts</text></g><g stroke-linecap="round"><g transform="translate(534.9250585480095 54.305337120589456) rotate(0 59.99110468179924 -0.14635458065492912)"><path d="M-0.97 -0.29 C18.61 0.09, 98.52 1.14, 118.55 1.19 M0.72 -1.49 C20.62 -1.4, 101.32 -1.18, 120.95 -0.79" stroke="#000000" stroke-width="1" fill="none"/></g><g transform="translate(534.9250585480095 54.305337120589456) rotate(0 59.99110468179924 -0.14635458065492912)"><path d="M92.18 8.21 C104.14 5.7, 113.12 2.34, 122.48 0.38 M91.7 8.73 C98.57 7.89, 105.35 5.09, 121.23 -0.11" stroke="#000000" stroke-width="1" fill="none"/></g><g transform="translate(534.9250585480095 54.305337120589456) rotate(0 59.99110468179924 -0.14635458065492912)"><path d="M92.38 -12.31 C104.08 -6.88, 112.98 -2.31, 122.48 0.38 M91.9 -11.79 C98.68 -8, 105.41 -6.16, 121.23 -0.11" stroke="#000000" stroke-width="1" fill="none"/></g></g><g stroke-linecap="round" transform="translate(659.9999999999998 11.428571428571445) rotate(0 180.0000000000001 48.57142857142861)"><path d="M0.11 -1.26 C129.25 -1.17, 256.39 -0.23, 360.3 1.05 M-0.44 0.23 C79.71 -1.03, 159.42 -0.48, 359.78 0.32 M361.39 -1.74 C359.97 25.31, 361.17 52.46, 359.41 95.52 M359.09 0.31 C359.8 37.83, 359.91 76.76, 360.84 96.74 M360.52 97.83 C277.28 94.82, 196.66 96.09, -0.41 96.29 M360.08 97.57 C244.96 95.38, 130.12 96.19, -0.34 97.51 M-0.12 95.17 C1.9 63.3, 0.68 30.49, -1.05 -0.9 M-0.89 97.11 C-1.65 75.22, -0.95 53.62, 0.8 -0.28" stroke="#000000" stroke-width="1" fill="none"/></g><g transform="translate(671.4285714285713 25.285714285714334) rotate(0 166 39)"><text x="0" y="18" font-family="Virgil, Segoe UI Emoji" font-size="20px" fill="#000000" text-anchor="start" style="white-space: pre;" direction="ltr">People improve their models of</text><text x="0" y="44" font-family="Virgil, Segoe UI Emoji" font-size="20px" fill="#000000" text-anchor="start" style="white-space: pre;" direction="ltr">the wold and change decisions</text><text x="0" y="70" font-family="Virgil, Segoe UI Emoji" font-size="20px" fill="#000000" text-anchor="start" style="white-space: pre;" direction="ltr">based on the forecasts they find</text></g><g stroke-linecap="round" transform="translate(707.1428571428571 291.42857142857156) rotate(0 82.85714285714289 80.71428571428578)"><path d="M104.47 1.99 C115.46 3.67, 126.11 10.96, 135.16 18.42 C144.21 25.88, 153.59 36.34, 158.79 46.74 C163.98 57.14, 166.31 69.61, 166.3 80.81 C166.3 92.01, 163.67 103.79, 158.76 113.94 C153.84 124.09, 145.97 134.22, 136.84 141.72 C127.7 149.23, 115.29 155.87, 103.95 158.96 C92.6 162.06, 80.18 162.39, 68.76 160.31 C57.33 158.23, 44.94 152.86, 35.41 146.49 C25.88 140.13, 17.37 131.72, 11.58 122.11 C5.78 112.49, 1.88 100.13, 0.64 88.81 C-0.61 77.48, 0.12 64.93, 4.12 54.13 C8.12 43.33, 16.43 32.16, 24.64 24.02 C32.84 15.88, 42.47 9.25, 53.36 5.31 C64.25 1.36, 80.17 0.38, 89.96 0.35 C99.76 0.33, 107.11 3.49, 112.13 5.13 C117.14 6.78, 120.46 8.89, 120.04 10.23 M57.87 5.05 C67.97 0.52, 82.33 -1.01, 93.8 0.14 C105.28 1.3, 116.89 5.71, 126.72 11.97 C136.55 18.22, 146.45 27.74, 152.8 37.68 C159.15 47.62, 163.36 60.38, 164.83 71.63 C166.29 82.89, 164.92 94.49, 161.6 105.2 C158.27 115.92, 152.5 127.51, 144.87 135.9 C137.25 144.29, 126.65 151.15, 115.82 155.54 C105 159.94, 91.65 163, 79.91 162.29 C68.18 161.58, 55.62 156.86, 45.42 151.3 C35.23 145.74, 25.86 137.58, 18.75 128.92 C11.63 120.26, 5.65 110.37, 2.73 99.35 C-0.19 88.33, -1.34 74.13, 1.22 62.81 C3.78 51.49, 10.84 40.41, 18.09 31.45 C25.34 22.49, 38.11 13.55, 44.73 9.06 C51.35 4.56, 55.75 5.09, 57.83 4.51 C59.91 3.92, 56.94 4.47, 57.22 5.54" stroke="#000000" stroke-width="1" fill="none"/></g><g transform="translate(737.1428571428564 332.4285714285718) rotate(0 57.5 39)"><text x="0" y="18" font-family="Virgil, Segoe UI Emoji" font-size="20px" fill="#000000" text-anchor="start" style="white-space: pre;" direction="ltr">Good things</text><text x="0" y="44" font-family="Virgil, Segoe UI Emoji" font-size="20px" fill="#000000" text-anchor="start" style="white-space: pre;" direction="ltr">happen in</text><text x="0" y="70" font-family="Virgil, Segoe UI Emoji" font-size="20px" fill="#000000" text-anchor="start" style="white-space: pre;" direction="ltr">the world</text></g><g stroke-linecap="round" transform="translate(722.8571428571427 305.71428571428555) rotate(0 67.85714285714289 66.42857142857144)"><path d="M94.97 5.67 C104.3 8.67, 113.73 16.93, 120.17 24.98 C126.61 33.04, 131.54 43.82, 133.62 54 C135.69 64.18, 135.64 76.18, 132.63 86.07 C129.62 95.97, 122.83 106.01, 115.58 113.35 C108.33 120.69, 98.94 127.03, 89.14 130.11 C79.33 133.19, 67.18 133.56, 56.75 131.83 C46.31 130.1, 34.83 125.93, 26.52 119.73 C18.21 113.52, 11.24 103.92, 6.89 94.6 C2.54 85.29, 0.23 73.97, 0.42 63.86 C0.62 53.75, 3.11 42.85, 8.05 33.95 C12.99 25.05, 21.09 16.07, 30.06 10.45 C39.02 4.84, 51.12 1.33, 61.84 0.24 C72.56 -0.85, 87.94 2.62, 94.37 3.93 C100.8 5.23, 98.49 6.56, 100.43 8.08 C102.37 9.59, 106.34 12.07, 105.99 13.01 M79.13 -0.32 C88.78 -0.05, 98.53 5.93, 106.86 12.22 C115.19 18.52, 124.37 28.33, 129.11 37.47 C133.85 46.61, 135.7 56.98, 135.3 67.07 C134.9 77.15, 131.87 88.98, 126.71 98 C121.55 107.02, 113.12 115.18, 104.36 121.17 C95.59 127.15, 84.49 132.75, 74.12 133.92 C63.76 135.09, 51.87 132, 42.16 128.21 C32.45 124.41, 22.6 118.72, 15.86 111.13 C9.13 103.55, 4.28 92.58, 1.75 82.7 C-0.79 72.82, -1.64 61.97, 0.65 51.85 C2.93 41.73, 8.12 30.07, 15.45 21.98 C22.79 13.89, 34.45 6.75, 44.65 3.32 C54.85 -0.11, 71.15 1.71, 76.64 1.42 C82.13 1.14, 77.57 1.33, 77.59 1.61 C77.6 1.89, 76.64 2.39, 76.73 3.11" stroke="#000000" stroke-width="1" fill="none"/></g><g stroke-linecap="round"><g transform="translate(787.7027275183564 211.195502909962) rotate(0 0.2008308110289363 46.39745515725406)"><path d="M0.03 1.08 C0.2 16.47, 1.45 77.25, 1.82 92.2 M-1.42 0.6 C-1.5 15.68, 0.22 75.39, 0.72 90.6" stroke="#000000" stroke-width="1" fill="none"/></g><g transform="translate(787.7027275183564 211.195502909962) rotate(0 0.2008308110289363 46.39745515725406)"><path d="M-8.58 62.25 C-4.67 73.25, -3.01 84.4, 0.92 88.81 M-9.74 63.41 C-7.53 71.14, -3.78 77.05, -0.01 90.25" stroke="#000000" stroke-width="1" fill="none"/></g><g transform="translate(787.7027275183564 211.195502909962) rotate(0 0.2008308110289363 46.39745515725406)"><path d="M11.93 61.64 C8.3 72.86, 2.42 84.24, 0.92 88.81 M10.78 62.79 C7.5 70.69, 5.77 76.76, -0.01 90.25" stroke="#000000" stroke-width="1" fill="none"/></g></g><g stroke-linecap="round"><g transform="translate(533.8462212768529 54.04871310581052) rotate(0 43.63121015658339 60.01759651013208)"><path d="M0.67 -0.24 C15.38 20.11, 73.21 101.39, 87.7 121.44 M-0.44 -1.41 C14.21 18.62, 72.44 99.15, 87.02 119.53" stroke="#000000" stroke-width="1" fill="none"/></g><g transform="translate(533.8462212768529 54.04871310581052) rotate(0 43.63121015658339 60.01759651013208)"><path d="M61.83 103.51 C69.06 107.49, 73.02 110.18, 86.77 117.58 M63.12 103.11 C72.18 108.2, 79.72 115.43, 86.51 118.9" stroke="#000000" stroke-width="1" fill="none"/></g><g transform="translate(533.8462212768529 54.04871310581052) rotate(0 43.63121015658339 60.01759651013208)"><path d="M78.48 91.52 C81.45 98.61, 81.22 104.33, 86.77 117.58 M79.77 91.12 C82.95 100.46, 84.51 112.01, 86.51 118.9" stroke="#000000" stroke-width="1" fill="none"/></g></g><g stroke-linecap="round" transform="translate(567.1428571428571 175.71428571428578) rotate(0 62.85714285714289 19.999999999999886)"><path d="M1.38 0.12 C31.35 -0.36, 59.16 0.27, 125.45 0.17 M-0.13 -0.02 C47.63 -0.52, 94.15 -0.98, 125.45 0.33 M124.54 -1.12 C127.52 8.91, 124.36 18.34, 126.22 39.91 M124.84 0.18 C125.62 11.51, 125.85 24.57, 125.46 39.46 M125.06 40.06 C94.55 38.98, 59.46 40.36, 1.48 39.41 M125.87 39.99 C87.28 41.52, 49.01 40.14, 0.84 39.72 M0.7 38.03 C-0.35 28.69, 1.02 19.05, -0.47 -1.75 M0.52 39.97 C0.27 27.09, -0.99 11.59, -0.79 0.34" stroke="#000000" stroke-width="1" fill="none"/></g><g transform="translate(575.7142857142858 183.8571428571429) rotate(0 48 13)"><text x="0" y="18" font-family="Virgil, Segoe UI Emoji" font-size="20px" fill="#000000" text-anchor="start" style="white-space: pre;" direction="ltr">Save time</text></g><g stroke-linecap="round"><g transform="translate(644.2845138916323 219.14188243177728) rotate(0 42.13741871068089 58.49104858898818)"><path d="M0.99 0.12 C14.82 19.84, 68.18 98.33, 81.87 117.84 M0.05 -0.86 C14.37 18.55, 70.46 96.19, 84.23 116.09" stroke="#000000" stroke-width="1" fill="none"/></g><g transform="translate(644.2845138916323 219.14188243177728) rotate(0 42.13741871068089 58.49104858898818)"><path d="M59.75 97.91 C65.72 103.32, 69.66 105.03, 85.06 115.47 M58.72 98.06 C69.31 105.07, 76.19 112.15, 85.09 116.1" stroke="#000000" stroke-width="1" fill="none"/></g><g transform="translate(644.2845138916323 219.14188243177728) rotate(0 42.13741871068089 58.49104858898818)"><path d="M76.48 86.04 C78.98 94.02, 79.48 98.17, 85.06 115.47 M75.46 86.18 C80.15 97.34, 81.1 108.64, 85.09 116.1" stroke="#000000" stroke-width="1" fill="none"/></g></g><g stroke-linecap="round"><g transform="translate(112.85714285714289 614.2857142857144) rotate(0 299.63390519544475 -0.11457933152962596)"><path d="M-1.07 -0.55 C98.89 -0.77, 499.99 -2.02, 600.34 -2 M0.56 1.77 C100.36 1.77, 499.53 -0.1, 599.57 -0.76" stroke="#000000" stroke-width="1" fill="none"/></g><g transform="translate(112.85714285714289 614.2857142857144) rotate(0 299.63390519544475 -0.11457933152962596)"><path d="M570.52 10.22 C580.24 8.08, 592.58 3.21, 601.43 -1.08 M571.91 10.61 C581.43 5.28, 590.3 1.38, 598.8 0.08" stroke="#000000" stroke-width="1" fill="none"/></g><g transform="translate(112.85714285714289 614.2857142857144) rotate(0 299.63390519544475 -0.11457933152962596)"><path d="M570.41 -10.3 C580.05 -5.37, 592.43 -3.17, 601.43 -1.08 M571.8 -9.91 C581.56 -8.11, 590.47 -4.89, 598.8 0.08" stroke="#000000" stroke-width="1" fill="none"/></g></g><g stroke-linecap="round" transform="translate(714.2857142857142 572.8571428571429) rotate(0 105.71428571428578 44.285714285714334)"><path d="M-0.11 1.19 C58.84 -0.2, 115.76 -2.22, 211.62 -0.9 M0.22 -0.43 C44.52 -0.69, 88.04 -1.04, 210.73 -0.39 M210.45 0.11 C210.54 19.84, 213.07 40.36, 211.52 88.75 M210.8 0.54 C210.62 26.64, 211.22 52.63, 211.68 88.08 M212.16 87.17 C158.87 88.04, 103.15 88.58, 0.31 88.85 M210.76 89.19 C160.05 89.71, 109.87 89.65, 0.42 89.15 M1.61 90.3 C-1.53 66.85, 1.32 43.31, 0.67 1.77 M0.07 88.64 C0.34 64.68, -1.09 39.97, 0.63 -0.12" stroke="#000000" stroke-width="1" fill="none"/></g><g transform="translate(722.8571428571429 593.8571428571429) rotate(0 92 26)"><text x="0" y="18" font-family="Virgil, Segoe UI Emoji" font-size="20px" fill="#000000" text-anchor="start" style="white-space: pre;" direction="ltr">Legible programming</text><text x="0" y="44" font-family="Virgil, Segoe UI Emoji" font-size="20px" fill="#000000" text-anchor="start" style="white-space: pre;" direction="ltr">experience</text></g><g stroke-linecap="round"><g transform="translate(789.5714285714284 569.9999999999998) rotate(0 -1.5765955576055148 -21.48626895318057)"><path d="M-0.74 1.12 C-1.31 -6.07, -3.58 -36.71, -4.23 -44.09 M1.07 0.66 C0.97 -6.23, -1.31 -34.89, -1.88 -42.5" stroke="#000000" stroke-width="1" fill="none"/></g><g transform="translate(789.5714285714284 569.9999999999998) rotate(0 -1.5765955576055148 -21.48626895318057)"><path d="M9.13 -23.45 C5.47 -28.86, 4.86 -30.91, -1.7 -44.24 M7.44 -22.57 C5.66 -25.68, 3.61 -30.21, -2.03 -42.94" stroke="#000000" stroke-width="1" fill="none"/></g><g transform="translate(789.5714285714284 569.9999999999998) rotate(0 -1.5765955576055148 -21.48626895318057)"><path d="M-5.99 -22.3 C-6.13 -27.89, -3.24 -30.2, -1.7 -44.24 M-7.68 -21.42 C-6.24 -24.67, -5.07 -29.45, -2.03 -42.94" stroke="#000000" stroke-width="1" fill="none"/></g></g><g stroke-opacity="0.7" fill-opacity="0.7" stroke-linecap="round" transform="translate(754.2857142857142 490) rotate(0 38.571428571428555 15.714285714285666)"><path d="M-1.77 -0.43 C19.06 1.67, 33.94 1.49, 77.1 0.29 M0.63 -0.26 C23.25 1.44, 46.62 0.22, 76.27 0.12 M76.09 -1.51 C79.39 6.18, 78.71 11.22, 75.44 31.97 M76.34 0.76 C77.94 11.49, 77.95 22.21, 76.84 31.47 M79.1 32.86 C57.32 33.34, 35.52 29.84, 0.04 31.93 M76.8 30.97 C59 30.45, 42.79 30.54, 0.66 31.79 M-1.52 30.57 C1.11 24.78, 0.93 14.68, -0.36 1.97 M-0.73 30.93 C-0.55 23.51, -0.88 14.26, 0.92 -0.76" stroke="#000000" stroke-width="1" fill="none"/></g><g stroke-opacity="0.7" fill-opacity="0.7" stroke-linecap="round" transform="translate(750 177.14285714285688) rotate(0 38.571428571428555 15.714285714285666)"><path d="M-0.89 1.98 C19.86 1.68, 39.75 0.07, 75.28 -1.24 M-0.97 0.56 C21.83 0.4, 42.85 -1.23, 77.81 -0.78 M76.13 1.3 C78.77 11.3, 75.73 23.16, 78.25 29.69 M77.07 -0.7 C77.75 6.67, 77.93 14.25, 77.1 31.43 M78.67 31.18 C52.41 33.17, 31.05 30.23, -1.31 32.53 M77.77 30.6 C56.16 31.25, 33.74 30.83, -0.93 30.93 M1.04 30.72 C-1.46 25.95, 1.23 17.54, 1.16 1.99 M-0.96 31.13 C-0.84 22.85, 0.64 16.01, -0.79 0.1" stroke="#000000" stroke-width="1" fill="none"/></g><g stroke-opacity="0.7" fill-opacity="0.7" transform="translate(784.8571428571427 492.71428571428555) rotate(0 8 13)"><text x="8" y="18" font-family="Virgil, Segoe UI Emoji" font-size="20px" fill="#000000" text-anchor="middle" style="white-space: pre;" direction="ltr">...</text></g><g stroke-opacity="0.7" fill-opacity="0.7" transform="translate(780.5714285714284 179.85714285714243) rotate(0 8 13)"><text x="8" y="18" font-family="Virgil, Segoe UI Emoji" font-size="20px" fill="#000000" text-anchor="middle" style="white-space: pre;" direction="ltr">...</text></g><g stroke-linecap="round"><g transform="translate(785.7142857142858 490.0000000000002) rotate(0 0.5275999099760611 -22.50337642335603)"><path d="M-0.59 0.87 C-0.53 -6.42, -0.85 -36.7, -0.51 -44.21 M1.3 0.28 C1.81 -7.3, 1.72 -38.15, 1.71 -45.88" stroke="#000000" stroke-width="1" fill="none"/></g><g transform="translate(785.7142857142858 490.0000000000002) rotate(0 0.5275999099760611 -22.50337642335603)"><path d="M10.89 -26.26 C9.24 -27.73, 7.49 -33.3, 1.12 -47.48 M10.38 -24.24 C6.93 -31.63, 4.93 -36.7, 1.8 -46.48" stroke="#000000" stroke-width="1" fill="none"/></g><g transform="translate(785.7142857142858 490.0000000000002) rotate(0 0.5275999099760611 -22.50337642335603)"><path d="M-4.53 -26.24 C-2.72 -27.65, -1.01 -33.21, 1.12 -47.48 M-5.03 -24.23 C-4.07 -31.61, -1.64 -36.69, 1.8 -46.48" stroke="#000000" stroke-width="1" fill="none"/></g></g><g stroke-linecap="round"><g stroke-opacity="0.7" fill-opacity="0.7" transform="translate(785.7142857142856 110.00000000000011) rotate(0 0.4205417589419085 32.92848918731056)"><path d="M-0.59 0.38 C-0.24 11.14, 0.93 54.41, 1.43 65.1 M1.3 -0.47 C1.55 10.4, 0.34 55.37, 0.49 66.32" stroke="#000000" stroke-width="1" fill="none"/></g><g stroke-opacity="0.7" fill-opacity="0.7" transform="translate(785.7142857142856 110.00000000000011) rotate(0 0.4205417589419085 32.92848918731056)"><path d="M-8.88 38.04 C-7.97 46.62, -6.45 51.87, 2.4 64.45 M-9.55 38.84 C-6.61 46.59, -3.02 54.14, 0.98 66.27" stroke="#000000" stroke-width="1" fill="none"/></g><g stroke-opacity="0.7" fill-opacity="0.7" transform="translate(785.7142857142856 110.00000000000011) rotate(0 0.4205417589419085 32.92848918731056)"><path d="M11.64 38.23 C7.55 46.66, 4.07 51.87, 2.4 64.45 M10.97 39.03 C7.94 46.9, 5.57 54.4, 0.98 66.27" stroke="#000000" stroke-width="1" fill="none"/></g></g></svg>