<svg version="1.1" xmlns="http://www.w3.org/2000/svg" viewBox="0 0 1189.735067372937 819.2857142857132" width="1189.735067372937" height="819.2857142857132">
  <!-- svg-source:excalidraw -->
  
  <defs>
    <style>
      @font-face {
        font-family: "Virgil";
        src: url("https://excalidraw.com/Virgil.woff2");
      }
      @font-face {
        font-family: "Cascadia";
        src: url("https://excalidraw.com/Cascadia.woff2");
      }
    </style>
  </defs>
  <rect x="0" y="0" width="1189.735067372937" height="819.2857142857132" fill="#ffffff"></rect><g transform="translate(49.00396825396774 651.5079365079356) rotate(0 68.5 13)"><text x="0" y="18" font-family="Virgil, Segoe UI Emoji" font-size="20px" fill="#862e9c" text-anchor="start" style="white-space: pre;" direction="ltr">Metaforecast</text></g><g stroke-linecap="round" transform="translate(25.714285714285552 580.7142857142843) rotate(0 86.42857142857139 83.57142857142856)"><path d="M86.82 -1.99 C112.57 25.51, 141.68 54.68, 173.75 82.13 M87.67 0.27 C116.42 27.55, 143.49 55.01, 172.37 84.01 M172.93 85.16 C140.2 112.33, 110.11 143.25, 87.23 168.82 M172.69 84.26 C143.36 112.58, 113.23 142.7, 86.02 167.01 M85.12 165.57 C57.16 138.48, 22.95 105.64, -1.42 82.66 M87.56 167.76 C64.04 144.31, 40.78 122.81, -0.83 84.29 M0.91 82.57 C25.59 58.7, 52.97 32.36, 86.62 -0.59 M-0.13 84.13 C27.09 60.47, 51.25 33.96, 86.84 -0.45" stroke="#862e9c" stroke-width="4" fill="none"></path></g><g stroke-linecap="round" transform="translate(10 560.7142857142848) rotate(0 102.85714285714289 100.71428571428567)"><path d="M103.61 1.54 C136.94 35.17, 169.18 68.28, 204.38 102.2 M102.16 -0.72 C130.47 25.85, 156.8 53, 205.46 101.27 M206.62 99.44 C181.71 124.04, 157.15 148.6, 103.53 202.17 M206.47 100.76 C168.74 136.12, 131.84 173.83, 102.62 202.2 M102.61 201.81 C79.15 177.32, 56.07 153, 1.77 99.56 M103.95 201.55 C79.52 178.26, 55.45 155.47, 0.07 101.11 M-0.03 99.02 C29.82 71.4, 59.55 43.95, 101.27 1.01 M0.16 100.17 C22.14 79, 44.99 56.11, 102.44 0.51" stroke="#862e9c" stroke-width="4" fill="none"></path></g><g stroke-linecap="round"><g transform="translate(164.30134429776012 607.9022091486987) rotate(0 30.9447911098776 -34.02579594300494)"><path d="M-0.08 -0.58 C10.5 -11.7, 53.04 -56.7, 63.48 -67.89 M-1.59 1.73 C8.83 -9.65, 51.41 -57.87, 62.49 -69.78" stroke="#364fc7" stroke-width="4" fill="none"></path></g><g transform="translate(164.30134429776012 607.9022091486987) rotate(0 30.9447911098776 -34.02579594300494)"><path d="M50.23 -42.12 C55.58 -52, 59.22 -60.18, 61.99 -69.86 M51.33 -42.45 C54.4 -51.24, 59.08 -60.45, 62.09 -70.74" stroke="#364fc7" stroke-width="4" fill="none"></path></g><g transform="translate(164.30134429776012 607.9022091486987) rotate(0 30.9447911098776 -34.02579594300494)"><path d="M35.01 -55.87 C44.77 -61.64, 52.95 -65.71, 61.99 -69.86 M36.1 -56.2 C43.87 -60.54, 53.36 -65.4, 62.09 -70.74" stroke="#364fc7" stroke-width="4" fill="none"></path></g></g><g stroke-linecap="round"><g transform="translate(214.03531213629617 664.4721260929408) rotate(0 67.03732551550638 -1.71386710318518)"><path d="M0.43 -0.42 C22.73 -0.76, 110.34 -2.63, 132.66 -3 M-0.81 -1.69 C21.97 -1.81, 112.42 -1.95, 134.88 -1.94" stroke="#000000" stroke-width="1" fill="none"></path></g><g transform="translate(214.03531213629617 664.4721260929408) rotate(0 67.03732551550638 -1.71386710318518)"><path d="M105.99 6.8 C111.04 7.39, 117.37 3.08, 133.19 -1.47 M107.67 8.12 C113.82 5.23, 120.63 4.08, 134.03 -1.45" stroke="#000000" stroke-width="1" fill="none"></path></g><g transform="translate(214.03531213629617 664.4721260929408) rotate(0 67.03732551550638 -1.71386710318518)"><path d="M105.98 -13.72 C110.86 -8.95, 117.19 -9.07, 133.19 -1.47 M107.66 -12.4 C113.76 -10.21, 120.57 -6.27, 134.03 -1.45" stroke="#000000" stroke-width="1" fill="none"></path></g></g><g stroke-linecap="round" transform="translate(341.42857142857156 634.9999999999987) rotate(0 135.71428571428567 33.571428571428555)"><path d="M1.49 -0.97 C109.54 -1.28, 215.81 -1.4, 272.54 -0.37 M0.73 -0.73 C77.79 0.73, 154.64 1.8, 270.82 -0.69 M271.04 1.9 C272.41 13.69, 272.38 28.89, 272.17 67.74 M270.71 0.37 C270.72 17.15, 270.38 33.99, 270.97 66.21 M272.84 67.31 C195.39 65.89, 118.39 66.15, -0.24 68.33 M272.11 67.92 C192.99 68.77, 115.45 69.82, 0.37 66.97 M1.4 66.83 C-1.9 44.52, -1.76 21.8, 1.36 -1.22 M-0.25 67.2 C1.14 53.21, 0.38 37.79, 0.27 0.31" stroke="#000000" stroke-width="1" fill="none"></path></g><g transform="translate(357.6190476190477 642.9047619047609) rotate(0 119 26)"><text x="0" y="18" font-family="Virgil, Segoe UI Emoji" font-size="20px" fill="#000000" text-anchor="start" style="white-space: pre;" direction="ltr">Search is better than </text><text x="0" y="44" font-family="Virgil, Segoe UI Emoji" font-size="20px" fill="#000000" text-anchor="start" style="white-space: pre;" direction="ltr">platform-specific options</text></g><g stroke-linecap="round" transform="translate(233.57142857142844 486.90476190476113) rotate(0 122.85714285714278 41.42857142857133)"><path d="M-0.93 -0.51 C62.8 2.04, 124.45 0.67, 244.07 0.15 M-0.3 -0.15 C64.15 0.57, 126.92 0.69, 246.44 -0.41 M245.06 1.4 C247.69 27.82, 246.55 59.38, 247.43 82.82 M245.95 -0.02 C245.6 22.61, 245.97 45.65, 245.82 82.54 M245.52 81.69 C148.61 82.78, 54.19 84.99, 1.07 83.48 M246.09 83.31 C194.79 84.04, 145.13 83.49, -0.38 83.12 M1.67 83.19 C2.11 57.35, -0.64 29.37, -0.48 1.06 M-0.11 82.95 C0.1 59.95, 0.97 35.37, -0.58 -0.28" stroke="#364fc7" stroke-width="4" fill="none"></path></g><g transform="translate(246.42857142857133 492.1904761904749) rotate(0 89.5 39)"><text x="0" y="18" font-family="Virgil, Segoe UI Emoji" font-size="20px" fill="#364fc7" text-anchor="start" style="white-space: pre;" direction="ltr">Searching many </text><text x="0" y="44" font-family="Virgil, Segoe UI Emoji" font-size="20px" fill="#364fc7" text-anchor="start" style="white-space: pre;" direction="ltr">platforms at once</text><text x="0" y="70" font-family="Virgil, Segoe UI Emoji" font-size="20px" fill="#364fc7" text-anchor="start" style="white-space: pre;" direction="ltr">is now possible</text></g><g stroke-linecap="round"><g transform="translate(114.28571428571422 556.6500738732681) rotate(0 0.5526216811163067 -50.16221333941826)"><path d="M-0.48 -1.1 C-0.15 -17.89, 1.16 -83.12, 1.13 -99.59 M1.47 0.93 C1.81 -15.68, 1.32 -84.1, 0.78 -101.25" stroke="#000000" stroke-width="1" fill="none"></path></g><g transform="translate(114.28571428571422 556.6500738732681) rotate(0 0.5526216811163067 -50.16221333941826)"><path d="M9.68 -71.35 C10.22 -80.81, 7.15 -85.93, 1.41 -100.38 M11.9 -73.61 C9.65 -80.77, 5.72 -87.53, 0.46 -100.51" stroke="#000000" stroke-width="1" fill="none"></path></g><g transform="translate(114.28571428571422 556.6500738732681) rotate(0 0.5526216811163067 -50.16221333941826)"><path d="M-10.84 -71 C-5.56 -80.46, -3.89 -85.66, 1.41 -100.38 M-8.61 -73.26 C-5.93 -80.7, -4.93 -87.54, 0.46 -100.51" stroke="#000000" stroke-width="1" fill="none"></path></g></g><g stroke-linecap="round" transform="translate(22.85714285714289 330.71428571428476) rotate(0 109.99999999999989 58.69047619047615)"><path d="M-0.64 -1.43 C59.5 2.6, 121.25 0.19, 220.05 0.72 M-0.72 0.68 C74.21 0.69, 148.16 0.61, 220.27 -0.71 M221.26 -0.23 C220.38 47.03, 218.03 91.22, 221.1 116.95 M219.84 -0.22 C219.85 46.3, 220.18 92.8, 220.11 117.61 M220.38 118.21 C162.61 114.59, 109.66 117.26, 1.25 118.99 M219.34 117.91 C169.66 118.9, 117.55 118.32, -0.15 116.95 M-1.29 115.44 C0.69 78.07, 1.38 33.96, -0.51 1.68 M0.98 116.67 C-0.04 88.36, 0.42 56.82, 0.06 0.4" stroke="#000000" stroke-width="1" fill="none"></path></g><g transform="translate(30.476190476190254 340.52380952380815) rotate(0 100.5 51.5)"><text x="0" y="18.75" font-family="Virgil, Segoe UI Emoji" font-size="20px" fill="#000000" text-anchor="start" style="white-space: pre;" direction="ltr">Quality ratings and</text><text x="0" y="44.5" font-family="Virgil, Segoe UI Emoji" font-size="20px" fill="#000000" text-anchor="start" style="white-space: pre;" direction="ltr">indicators previously</text><text x="0" y="70.25" font-family="Virgil, Segoe UI Emoji" font-size="20px" fill="#000000" text-anchor="start" style="white-space: pre;" direction="ltr">non-existent or hard</text><text x="0" y="96" font-family="Virgil, Segoe UI Emoji" font-size="20px" fill="#000000" text-anchor="start" style="white-space: pre;" direction="ltr">to find</text></g><g stroke-linecap="round"><g transform="translate(245.9047619047618 394.60718733016745) rotate(0 83.30768359495795 -72.2621458903377)"><path d="M-0.92 -0.27 C27.01 -24.42, 139.54 -120.22, 167.54 -144.26 M0.79 -1.45 C28.59 -25.49, 139.11 -119.24, 166.66 -142.91" stroke="#000000" stroke-width="1" fill="none"></path></g><g transform="translate(245.9047619047618 394.60718733016745) rotate(0 83.30768359495795 -72.2621458903377)"><path d="M151.42 -116.6 C155.46 -124.95, 159.45 -132.78, 167.53 -143.77 M151.2 -116.45 C158.27 -126.43, 163.18 -136.16, 167.22 -142.88" stroke="#000000" stroke-width="1" fill="none"></path></g><g transform="translate(245.9047619047618 394.60718733016745) rotate(0 83.30768359495795 -72.2621458903377)"><path d="M138.1 -132.21 C146.13 -135.88, 154.03 -139.13, 167.53 -143.77 M137.88 -132.06 C149.98 -135.98, 160.04 -139.65, 167.22 -142.88" stroke="#000000" stroke-width="1" fill="none"></path></g></g><g stroke-linecap="round"><g transform="translate(588.921995121962 627.6190476190465) rotate(0 -57.41431966452183 -188.22603165967615)"><path d="M1.13 -1.04 C-17.89 -63.51, -95.6 -313.38, -114.72 -375.89 M0.26 1.03 C-18.91 -61.67, -96.91 -314.31, -115.96 -377.49" stroke="#000000" stroke-width="1" fill="none"></path></g><g transform="translate(588.921995121962 627.6190476190465) rotate(0 -57.41431966452183 -188.22603165967615)"><path d="M-99.63 -354.45 C-100.52 -358.34, -105.36 -366.47, -115.76 -377.52 M-98.76 -354.23 C-104.2 -362.8, -110.96 -371.34, -116.68 -376.7" stroke="#000000" stroke-width="1" fill="none"></path></g><g transform="translate(588.921995121962 627.6190476190465) rotate(0 -57.41431966452183 -188.22603165967615)"><path d="M-119.26 -348.45 C-115.19 -354.02, -115.12 -363.65, -115.76 -377.52 M-118.38 -348.24 C-116.16 -359.23, -115.29 -370.11, -116.68 -376.7" stroke="#000000" stroke-width="1" fill="none"></path></g></g><g stroke-linecap="round"><g transform="translate(409.40707281220534 483.86904761904646) rotate(0 11.77490064588585 -116.63365941730939)"><path d="M-0.6 -0.88 C2.92 -39.69, 18.22 -193.87, 21.97 -232.74 M1.29 1.28 C5.09 -37.91, 20.33 -195.48, 24.15 -234.54" stroke="#364fc7" stroke-width="4" fill="none"></path></g><g transform="translate(409.40707281220534 483.86904761904646) rotate(0 11.77490064588585 -116.63365941730939)"><path d="M30.17 -207.18 C29.8 -218.18, 24.8 -225.5, 25.06 -235.73 M31.83 -205.96 C28.12 -216.22, 26.24 -228.44, 23.37 -234.48" stroke="#364fc7" stroke-width="4" fill="none"></path></g><g transform="translate(409.40707281220534 483.86904761904646) rotate(0 11.77490064588585 -116.63365941730939)"><path d="M9.75 -209.17 C16.99 -219.32, 19.59 -225.91, 25.06 -235.73 M11.41 -207.95 C15.58 -217.45, 21.57 -228.91, 23.37 -234.48" stroke="#364fc7" stroke-width="4" fill="none"></path></g></g><g stroke-linecap="round" transform="translate(333.42857142857133 157.85714285714164) rotate(0 101.42857142857144 44.285714285714334)"><path d="M0.54 0.66 C47.9 1.45, 100.05 -1.06, 204.36 1.73 M0.12 0.2 C45.6 -0.97, 92.22 -0.65, 202.37 -0.6 M203.36 0.27 C201.19 25.49, 201.33 52.18, 201.36 90.31 M202.39 0.23 C204.39 28.91, 203.26 57.48, 202.65 88 M202.88 86.87 C129.16 86.11, 53.46 88.64, 0.32 89.26 M202.05 88.39 C160.05 87.79, 116.31 87.56, -0.23 88.12 M-0.97 87.94 C-2.16 60.83, -0.04 30.9, -1 0.6 M-0.88 87.86 C1.09 68.98, 0.04 49.31, -0.1 0.97" stroke="#364fc7" stroke-width="4" fill="none"></path></g><g transform="translate(345.71428571428555 164.5714285714273) rotate(0 91.5 39)"><text x="0" y="18" font-family="Virgil, Segoe UI Emoji" font-size="20px" fill="#364fc7" text-anchor="start" style="white-space: pre;" direction="ltr">More possible and </text><text x="0" y="44" font-family="Virgil, Segoe UI Emoji" font-size="20px" fill="#364fc7" text-anchor="start" style="white-space: pre;" direction="ltr">convenient to find</text><text x="0" y="70" font-family="Virgil, Segoe UI Emoji" font-size="20px" fill="#364fc7" text-anchor="start" style="white-space: pre;" direction="ltr">forecasts</text></g><g stroke-linecap="round"><g transform="translate(534.9250585480095 202.35764626770617) rotate(0 59.99110468179913 -0.1958061668588016)"><path d="M-0.97 -0.29 C18.61 0.07, 98.52 1.06, 118.55 1.09 M0.72 -1.49 C20.62 -1.42, 101.32 -1.26, 120.95 -0.89" stroke="#364fc7" stroke-width="4" fill="none"></path></g><g transform="translate(534.9250585480095 202.35764626770617) rotate(0 59.99110468179913 -0.1958061668588016)"><path d="M92.19 8.14 C104.14 5.62, 113.12 2.24, 122.48 0.28 M91.71 8.65 C98.58 7.81, 105.35 5.01, 121.23 -0.21" stroke="#364fc7" stroke-width="4" fill="none"></path></g><g transform="translate(534.9250585480095 202.35764626770617) rotate(0 59.99110468179913 -0.1958061668588016)"><path d="M92.37 -12.38 C104.08 -6.97, 112.98 -2.4, 122.48 0.28 M91.9 -11.87 C98.67 -8.08, 105.41 -6.25, 121.23 -0.21" stroke="#364fc7" stroke-width="4" fill="none"></path></g></g><g stroke-linecap="round" transform="translate(659.9999999999998 159.28571428571308) rotate(0 188.33333333333348 48.57142857142861)"><path d="M0.1 -1.2 C135.13 -1.13, 268.24 -0.23, 376.95 1.01 M-0.42 0.22 C83.38 -1.03, 166.78 -0.51, 376.45 0.31 M378.06 -1.74 C376.64 25.31, 377.83 52.46, 376.08 95.52 M375.75 0.31 C376.47 37.83, 376.57 76.76, 377.51 96.74 M377.17 97.8 C290.19 94.85, 205.72 96.07, -0.39 96.32 M376.74 97.56 C256.29 95.39, 136.12 96.16, -0.33 97.5 M-0.12 95.17 C1.9 63.3, 0.68 30.49, -1.05 -0.9 M-0.89 97.11 C-1.65 75.22, -0.95 53.62, 0.8 -0.28" stroke="#364fc7" stroke-width="4" fill="none"></path></g><g transform="translate(671.4285714285713 173.14285714285597) rotate(0 178.5 39)"><text x="0" y="18" font-family="Virgil, Segoe UI Emoji" font-size="20px" fill="#364fc7" text-anchor="start" style="white-space: pre;" direction="ltr">People improve their models of</text><text x="0" y="44" font-family="Virgil, Segoe UI Emoji" font-size="20px" fill="#364fc7" text-anchor="start" style="white-space: pre;" direction="ltr">the world and change their decisions</text><text x="0" y="70" font-family="Virgil, Segoe UI Emoji" font-size="20px" fill="#364fc7" text-anchor="start" style="white-space: pre;" direction="ltr">based on the forecasts they find</text></g><g stroke-linecap="round" transform="translate(707.1428571428571 439.2857142857132) rotate(0 82.85714285714289 80.71428571428578)"><path d="M104.47 1.99 C115.46 3.67, 126.11 10.96, 135.16 18.42 C144.21 25.88, 153.59 36.34, 158.79 46.74 C163.98 57.14, 166.31 69.61, 166.3 80.81 C166.3 92.01, 163.67 103.79, 158.76 113.94 C153.84 124.09, 145.97 134.22, 136.84 141.72 C127.7 149.23, 115.29 155.87, 103.95 158.96 C92.6 162.06, 80.18 162.39, 68.76 160.31 C57.33 158.23, 44.94 152.86, 35.41 146.49 C25.88 140.13, 17.37 131.72, 11.58 122.11 C5.78 112.49, 1.88 100.13, 0.64 88.81 C-0.61 77.48, 0.12 64.93, 4.12 54.13 C8.12 43.33, 16.43 32.16, 24.64 24.02 C32.84 15.88, 42.47 9.25, 53.36 5.31 C64.25 1.36, 80.17 0.38, 89.96 0.35 C99.76 0.33, 107.11 3.49, 112.13 5.13 C117.14 6.78, 120.46 8.89, 120.04 10.23 M57.87 5.05 C67.97 0.52, 82.33 -1.01, 93.8 0.14 C105.28 1.3, 116.89 5.71, 126.72 11.97 C136.55 18.22, 146.45 27.74, 152.8 37.68 C159.15 47.62, 163.36 60.38, 164.83 71.63 C166.29 82.89, 164.92 94.49, 161.6 105.2 C158.27 115.92, 152.5 127.51, 144.87 135.9 C137.25 144.29, 126.65 151.15, 115.82 155.54 C105 159.94, 91.65 163, 79.91 162.29 C68.18 161.58, 55.62 156.86, 45.42 151.3 C35.23 145.74, 25.86 137.58, 18.75 128.92 C11.63 120.26, 5.65 110.37, 2.73 99.35 C-0.19 88.33, -1.34 74.13, 1.22 62.81 C3.78 51.49, 10.84 40.41, 18.09 31.45 C25.34 22.49, 38.11 13.55, 44.73 9.06 C51.35 4.56, 55.75 5.09, 57.83 4.51 C59.91 3.92, 56.94 4.47, 57.22 5.54" stroke="#5c940d" stroke-width="4" fill="none"></path></g><g transform="translate(737.1428571428564 480.2857142857134) rotate(0 57.5 39)"><text x="0" y="18" font-family="Virgil, Segoe UI Emoji" font-size="20px" fill="#5c940d" text-anchor="start" style="white-space: pre;" direction="ltr">Good things</text><text x="0" y="44" font-family="Virgil, Segoe UI Emoji" font-size="20px" fill="#5c940d" text-anchor="start" style="white-space: pre;" direction="ltr">happen in</text><text x="0" y="70" font-family="Virgil, Segoe UI Emoji" font-size="20px" fill="#5c940d" text-anchor="start" style="white-space: pre;" direction="ltr">the world</text></g><g stroke-linecap="round" transform="translate(722.8571428571427 453.5714285714272) rotate(0 67.85714285714289 66.42857142857144)"><path d="M94.97 5.67 C104.3 8.67, 113.73 16.93, 120.17 24.98 C126.61 33.04, 131.54 43.82, 133.62 54 C135.69 64.18, 135.64 76.18, 132.63 86.07 C129.62 95.97, 122.83 106.01, 115.58 113.35 C108.33 120.69, 98.94 127.03, 89.14 130.11 C79.33 133.19, 67.18 133.56, 56.75 131.83 C46.31 130.1, 34.83 125.93, 26.52 119.73 C18.21 113.52, 11.24 103.92, 6.89 94.6 C2.54 85.29, 0.23 73.97, 0.42 63.86 C0.62 53.75, 3.11 42.85, 8.05 33.95 C12.99 25.05, 21.09 16.07, 30.06 10.45 C39.02 4.84, 51.12 1.33, 61.84 0.24 C72.56 -0.85, 87.94 2.62, 94.37 3.93 C100.8 5.23, 98.49 6.56, 100.43 8.08 C102.37 9.59, 106.34 12.07, 105.99 13.01 M79.13 -0.32 C88.78 -0.05, 98.53 5.93, 106.86 12.22 C115.19 18.52, 124.37 28.33, 129.11 37.47 C133.85 46.61, 135.7 56.98, 135.3 67.07 C134.9 77.15, 131.87 88.98, 126.71 98 C121.55 107.02, 113.12 115.18, 104.36 121.17 C95.59 127.15, 84.49 132.75, 74.12 133.92 C63.76 135.09, 51.87 132, 42.16 128.21 C32.45 124.41, 22.6 118.72, 15.86 111.13 C9.13 103.55, 4.28 92.58, 1.75 82.7 C-0.79 72.82, -1.64 61.97, 0.65 51.85 C2.93 41.73, 8.12 30.07, 15.45 21.98 C22.79 13.89, 34.45 6.75, 44.65 3.32 C54.85 -0.11, 71.15 1.71, 76.64 1.42 C82.13 1.14, 77.57 1.33, 77.59 1.61 C77.6 1.89, 76.64 2.39, 76.73 3.11" stroke="#5c940d" stroke-width="4" fill="none"></path></g><g stroke-linecap="round"><g transform="translate(788.9527275183564 359.0526457671036) rotate(0 0.05936486138921282 39.39460010035725)"><path d="M0.03 1.08 C0.15 14.13, 1.21 65.58, 1.54 78.19 M-1.42 0.6 C-1.55 13.35, -0.01 63.72, 0.44 76.59" stroke="#364fc7" stroke-width="4" fill="none"></path></g><g transform="translate(788.9527275183564 359.0526457671036) rotate(0 0.05936486138921282 39.39460010035725)"><path d="M-8.92 48.27 C-4.99 59.25, -3.31 70.4, 0.64 74.8 M-10.07 49.42 C-7.85 57.15, -4.09 63.05, -0.3 76.24" stroke="#364fc7" stroke-width="4" fill="none"></path></g><g transform="translate(788.9527275183564 359.0526457671036) rotate(0 0.05936486138921282 39.39460010035725)"><path d="M11.59 47.62 C7.98 58.84, 2.12 70.23, 0.64 74.8 M10.44 48.77 C7.18 56.67, 5.47 62.75, -0.3 76.24" stroke="#364fc7" stroke-width="4" fill="none"></path></g></g><g stroke-linecap="round"><g transform="translate(533.8462212768529 201.90585596295216) rotate(0 43.63121015658339 60.01759651013208)"><path d="M0.67 -0.24 C15.38 20.11, 73.21 101.39, 87.7 121.44 M-0.44 -1.41 C14.21 18.62, 72.44 99.15, 87.02 119.53" stroke="#000000" stroke-width="1" fill="none"></path></g><g transform="translate(533.8462212768529 201.90585596295216) rotate(0 43.63121015658339 60.01759651013208)"><path d="M61.83 103.51 C69.06 107.49, 73.02 110.18, 86.77 117.58 M63.12 103.11 C72.18 108.2, 79.72 115.43, 86.51 118.9" stroke="#000000" stroke-width="1" fill="none"></path></g><g transform="translate(533.8462212768529 201.90585596295216) rotate(0 43.63121015658339 60.01759651013208)"><path d="M78.48 91.52 C81.45 98.61, 81.22 104.33, 86.77 117.58 M79.77 91.12 C82.95 100.46, 84.51 112.01, 86.51 118.9" stroke="#000000" stroke-width="1" fill="none"></path></g></g><g stroke-linecap="round" transform="translate(567.1428571428571 323.5714285714274) rotate(0 62.85714285714289 19.999999999999886)"><path d="M1.38 0.12 C31.35 -0.36, 59.16 0.27, 125.45 0.17 M-0.13 -0.02 C47.63 -0.52, 94.15 -0.98, 125.45 0.33 M124.54 -1.12 C127.52 8.91, 124.36 18.34, 126.22 39.91 M124.84 0.18 C125.62 11.51, 125.85 24.57, 125.46 39.46 M125.06 40.06 C94.55 38.98, 59.46 40.36, 1.48 39.41 M125.87 39.99 C87.28 41.52, 49.01 40.14, 0.84 39.72 M0.7 38.03 C-0.35 28.69, 1.02 19.05, -0.47 -1.75 M0.52 39.97 C0.27 27.09, -0.99 11.59, -0.79 0.34" stroke="#000000" stroke-width="1" fill="none"></path></g><g transform="translate(575.7142857142858 331.71428571428453) rotate(0 48 13)"><text x="0" y="18" font-family="Virgil, Segoe UI Emoji" font-size="20px" fill="#000000" text-anchor="start" style="white-space: pre;" direction="ltr">Save time</text></g><g stroke-linecap="round"><g transform="translate(644.2845138916323 366.9990252889189) rotate(0 38.60585086915012 54.46687405930163)"><path d="M0.99 0.12 C13.64 18.5, 62.29 91.63, 74.81 109.79 M0.05 -0.86 C13.2 17.21, 64.57 89.49, 77.16 108.04" stroke="#000000" stroke-width="1" fill="none"></path></g><g transform="translate(644.2845138916323 366.9990252889189) rotate(0 38.60585086915012 54.46687405930163)"><path d="M52.83 89.66 C58.77 95.11, 62.68 96.86, 78 107.42 M51.8 89.8 C62.34 96.89, 69.17 104.04, 78.03 108.05" stroke="#000000" stroke-width="1" fill="none"></path></g><g transform="translate(644.2845138916323 366.9990252889189) rotate(0 38.60585086915012 54.46687405930163)"><path d="M69.66 77.92 C72.1 85.92, 72.55 90.08, 78 107.42 M68.63 78.07 C73.24 89.25, 74.1 100.57, 78.03 108.05" stroke="#000000" stroke-width="1" fill="none"></path></g></g><g stroke-linecap="round"><g transform="translate(112.85714285714289 762.1428571428561) rotate(0 299.63390519544475 -0.11457933152962596)"><path d="M-1.07 -0.55 C98.89 -0.77, 499.99 -2.02, 600.34 -2 M0.56 1.77 C100.36 1.77, 499.53 -0.1, 599.57 -0.76" stroke="#000000" stroke-width="1" fill="none"></path></g><g transform="translate(112.85714285714289 762.1428571428561) rotate(0 299.63390519544475 -0.11457933152962596)"><path d="M570.52 10.22 C580.24 8.08, 592.58 3.21, 601.43 -1.08 M571.91 10.61 C581.43 5.28, 590.3 1.38, 598.8 0.08" stroke="#000000" stroke-width="1" fill="none"></path></g><g transform="translate(112.85714285714289 762.1428571428561) rotate(0 299.63390519544475 -0.11457933152962596)"><path d="M570.41 -10.3 C580.05 -5.37, 592.43 -3.17, 601.43 -1.08 M571.8 -9.91 C581.56 -8.11, 590.47 -4.89, 598.8 0.08" stroke="#000000" stroke-width="1" fill="none"></path></g></g><g stroke-linecap="round" transform="translate(714.2857142857142 720.7142857142845) rotate(0 105.71428571428578 44.285714285714334)"><path d="M-0.11 1.19 C58.84 -0.2, 115.76 -2.22, 211.62 -0.9 M0.22 -0.43 C44.52 -0.69, 88.04 -1.04, 210.73 -0.39 M210.45 0.11 C210.54 19.84, 213.07 40.36, 211.52 88.75 M210.8 0.54 C210.62 26.64, 211.22 52.63, 211.68 88.08 M212.16 87.17 C158.87 88.04, 103.15 88.58, 0.31 88.85 M210.76 89.19 C160.05 89.71, 109.87 89.65, 0.42 89.15 M1.61 90.3 C-1.53 66.85, 1.32 43.31, 0.67 1.77 M0.07 88.64 C0.34 64.68, -1.09 39.97, 0.63 -0.12" stroke="#000000" stroke-width="1" fill="none"></path></g><g transform="translate(722.8571428571429 741.7142857142845) rotate(0 92 26)"><text x="0" y="18" font-family="Virgil, Segoe UI Emoji" font-size="20px" fill="#000000" text-anchor="start" style="white-space: pre;" direction="ltr">Legible programming</text><text x="0" y="44" font-family="Virgil, Segoe UI Emoji" font-size="20px" fill="#000000" text-anchor="start" style="white-space: pre;" direction="ltr">experience</text></g><g stroke-linecap="round"><g transform="translate(790.9628441709879 717.8571428571414) rotate(0 -0.5132092671755117 -15.23626895318057)"><path d="M-0.74 1.12 C-0.96 -3.98, -1.84 -26.29, -2.14 -31.59 M1.07 0.66 C1.32 -4.14, 0.43 -24.47, 0.21 -30" stroke="#000000" stroke-width="1" fill="none"></path></g><g transform="translate(790.9628441709879 717.8571428571414) rotate(0 -0.5132092671755117 -15.23626895318057)"><path d="M7.71 -16.23 C5.08 -20.21, 4.88 -21.52, 0.35 -31.38 M6.37 -15.53 C5.22 -17.71, 3.86 -21.02, 0.08 -30.35" stroke="#000000" stroke-width="1" fill="none"></path></g><g transform="translate(790.9628441709879 717.8571428571414) rotate(0 -0.5132092671755117 -15.23626895318057)"><path d="M-3.13 -15.8 C-3.24 -19.81, -0.93 -21.22, 0.35 -31.38 M-4.47 -15.1 C-3.31 -17.29, -2.37 -20.69, 0.08 -30.35" stroke="#000000" stroke-width="1" fill="none"></path></g></g><g stroke-opacity="0.7" fill-opacity="0.7" stroke-linecap="round" transform="translate(758.0357142857142 650.3571428571416) rotate(0 38.571428571428555 15.714285714285666)"><path d="M-1.77 -0.43 C19.06 1.67, 33.94 1.49, 77.1 0.29 M0.63 -0.26 C23.25 1.44, 46.62 0.22, 76.27 0.12 M76.09 -1.51 C79.39 6.18, 78.71 11.22, 75.44 31.97 M76.34 0.76 C77.94 11.49, 77.95 22.21, 76.84 31.47 M79.1 32.86 C57.32 33.34, 35.52 29.84, 0.04 31.93 M76.8 30.97 C59 30.45, 42.79 30.54, 0.66 31.79 M-1.52 30.57 C1.11 24.78, 0.93 14.68, -0.36 1.97 M-0.73 30.93 C-0.55 23.51, -0.88 14.26, 0.92 -0.76" stroke="#000000" stroke-width="1" fill="none"></path></g><g stroke-opacity="0.7" fill-opacity="0.7" stroke-linecap="round" transform="translate(752 324.9999999999985) rotate(0 38.571428571428555 15.714285714285666)"><path d="M-0.89 1.98 C19.86 1.68, 39.75 0.07, 75.28 -1.24 M-0.97 0.56 C21.83 0.4, 42.85 -1.23, 77.81 -0.78 M76.13 1.3 C78.77 11.3, 75.73 23.16, 78.25 29.69 M77.07 -0.7 C77.75 6.67, 77.93 14.25, 77.1 31.43 M78.67 31.18 C52.41 33.17, 31.05 30.23, -1.31 32.53 M77.77 30.6 C56.16 31.25, 33.74 30.83, -0.93 30.93 M1.04 30.72 C-1.46 25.95, 1.23 17.54, 1.16 1.99 M-0.96 31.13 C-0.84 22.85, 0.64 16.01, -0.79 0.1" stroke="#364fc7" stroke-width="4" fill="none"></path></g><g stroke-opacity="0.7" fill-opacity="0.7" transform="translate(788.6071428571427 653.0714285714272) rotate(0 8 13)"><text x="8" y="18" font-family="Virgil, Segoe UI Emoji" font-size="20px" fill="#000000" text-anchor="middle" style="white-space: pre;" direction="ltr">...</text></g><g stroke-opacity="0.7" fill-opacity="0.7" transform="translate(780.5714285714284 327.7142857142841) rotate(0 8 13)"><text x="8" y="18" font-family="Virgil, Segoe UI Emoji" font-size="20px" fill="#364fc7" text-anchor="middle" style="white-space: pre;" direction="ltr">...</text></g><g stroke-linecap="round"><g transform="translate(788.7333832314339 650.3571428571419) rotate(0 -0.8402089425223949 -23.476253490883437)"><path d="M-0.59 0.87 C-0.94 -6.75, -2.91 -38.32, -2.98 -46.16 M1.3 0.28 C1.4 -7.63, -0.34 -39.77, -0.76 -47.82" stroke="#000000" stroke-width="1" fill="none"></path></g><g transform="translate(788.7333832314339 650.3571428571419) rotate(0 -0.8402089425223949 -23.476253490883437)"><path d="M9.88 -27.71 C7.9 -29.31, 5.83 -34.98, -1.35 -49.42 M9.37 -25.69 C5.51 -33.23, 3.09 -38.44, -0.67 -48.42" stroke="#000000" stroke-width="1" fill="none"></path></g><g transform="translate(788.7333832314339 650.3571428571419) rotate(0 -0.8402089425223949 -23.476253490883437)"><path d="M-6.2 -26.87 C-4.57 -28.58, -3.03 -34.44, -1.35 -49.42 M-6.7 -24.86 C-5.95 -32.62, -3.76 -38.07, -0.67 -48.42" stroke="#000000" stroke-width="1" fill="none"></path></g></g><g stroke-linecap="round"><g stroke-opacity="0.7" fill-opacity="0.7" transform="translate(790.8650774480702 257.85714285714187) rotate(0 -1.1623526979781218 32.928489187310504)"><path d="M-0.59 0.38 C-0.92 11.14, -2.49 54.41, -2.68 65.1 M1.3 -0.47 C0.87 10.4, -3.08 55.37, -3.62 66.32" stroke="#364fc7" stroke-width="4" fill="none"></path></g><g stroke-opacity="0.7" fill-opacity="0.7" transform="translate(790.8650774480702 257.85714285714187) rotate(0 -1.1623526979781218 32.928489187310504)"><path d="M-11.23 37.48 C-10.75 46.18, -9.66 51.58, -1.71 64.45 M-11.9 38.28 C-9.47 46.2, -6.39 53.92, -3.13 66.27" stroke="#364fc7" stroke-width="4" fill="none"></path></g><g stroke-opacity="0.7" fill-opacity="0.7" transform="translate(790.8650774480702 257.85714285714187) rotate(0 -1.1623526979781218 32.928489187310504)"><path d="M9.24 38.94 C4.73 47.18, 0.84 52.22, -1.71 64.45 M8.57 39.73 C5.04 47.41, 2.17 54.71, -3.13 66.27" stroke="#364fc7" stroke-width="4" fill="none"></path></g></g><g stroke-linecap="round"><g transform="translate(538.2857142857154 198.33333333333326) rotate(0 106.53244766357034 -72.9761970985619)"><path d="M-0.39 1.07 C35.12 -23.01, 177.96 -121.07, 213.46 -145.51 M1.6 0.59 C36.94 -23.71, 176.99 -122.36, 212.57 -147.02" stroke="#364fc7" stroke-width="4" fill="none"></path></g><g transform="translate(538.2857142857154 198.33333333333326) rotate(0 106.53244766357034 -72.9761970985619)"><path d="M197.14 -122.25 C203.18 -131.71, 208.74 -138.6, 211.19 -145.32 M194.63 -123.02 C199.36 -128.41, 204.62 -135.12, 212.43 -146.14" stroke="#364fc7" stroke-width="4" fill="none"></path></g><g transform="translate(538.2857142857154 198.33333333333326) rotate(0 106.53244766357034 -72.9761970985619)"><path d="M185.38 -139.07 C195.16 -142.94, 204.6 -144.27, 211.19 -145.32 M182.87 -139.84 C190.61 -140.99, 198.86 -143.42, 212.43 -146.14" stroke="#364fc7" stroke-width="4" fill="none"></path></g></g><g stroke-linecap="round" transform="translate(749.9523809523821 10) rotate(0 122.5 39.166666666666686)"><path d="M-0.83 -0.82 C70.82 0.55, 142.23 1.25, 244.4 -0.25 M-0.34 -0.32 C69.83 -0.79, 139.92 -0.22, 245 0.72 M245.67 1.25 C243.45 25.15, 245.4 51.8, 246.27 77.34 M244.77 0.84 C245.38 24.05, 244.56 47.74, 244.8 78.5 M245.1 77.2 C168.5 77.54, 95.84 80.47, 0.81 77.49 M244.95 78.86 C155.2 77.71, 64.87 77.32, -0.08 79.14 M1.99 77.14 C-1.84 46.23, 1.36 15.45, -0.86 1.38 M0.37 78 C0.9 57.17, 0.25 36.27, -0.32 -0.44" stroke="#364fc7" stroke-width="4" fill="none"></path></g><g transform="translate(774.9523809523819 24.333333333333258) rotate(0 103 26)"><text x="0" y="18" font-family="Virgil, Segoe UI Emoji" font-size="20px" fill="#364fc7" text-anchor="start" style="white-space: pre;" direction="ltr">Forecasting is easier</text><text x="0" y="44" font-family="Virgil, Segoe UI Emoji" font-size="20px" fill="#364fc7" text-anchor="start" style="white-space: pre;" direction="ltr">to popularize</text></g><g stroke-linecap="round"><g transform="translate(1001.9523809523821 44.999999999999886) rotate(0 88.54047587012246 75.73818817426962)"><path d="M-0.7 0.17 C26.24 0.38, 134.65 -24.1, 161.03 0.67 C187.4 25.45, 177.04 122.81, 157.57 148.82 C138.09 174.83, 63.03 155.31, 44.18 156.75 M1.13 -0.79 C28.49 -0.88, 137.32 -26.24, 163.23 -1.1 C189.13 24.04, 176.39 123.66, 156.57 150.04 C136.76 176.43, 63.26 155.97, 44.34 157.23" stroke="#364fc7" stroke-width="4" fill="none"></path></g><g transform="translate(1001.9523809523821 44.999999999999886) rotate(0 88.54047587012246 75.73818817426962)"><path d="M73.69 148.2 C67.24 150.77, 58.56 153.09, 42.35 157.47 M72.76 148.95 C65.9 151.56, 59.22 153.91, 43.74 156.94" stroke="#364fc7" stroke-width="4" fill="none"></path></g><g transform="translate(1001.9523809523821 44.999999999999886) rotate(0 88.54047587012246 75.73818817426962)"><path d="M71.65 168.62 C65.81 166.11, 57.64 163.32, 42.35 157.47 M70.72 169.37 C64.47 166.71, 58.31 163.78, 43.74 156.94" stroke="#364fc7" stroke-width="4" fill="none"></path></g></g></svg>