<svg version="1.1" xmlns="http://www.w3.org/2000/svg" viewBox="0 0 1126.8000000000002 520.6428571428571" width="1126.8000000000002" height="520.6428571428571">
  <!-- svg-source:excalidraw -->
  
  <defs>
    <style>
      @font-face {
        font-family: "Virgil";
        src: url("https://excalidraw.com/Virgil.woff2");
      }
      @font-face {
        font-family: "Cascadia";
        src: url("https://excalidraw.com/Cascadia.woff2");
      }
    </style>
  </defs>
  <rect x="0" y="0" width="1126.8000000000002" height="520.6428571428571" fill="#ffffff"/><g stroke-linecap="round" transform="translate(10 158.6428571428571) rotate(0 67 74)"><path d="M69.14 -0.36 C82.74 17.98, 97.93 35.6, 132.91 72.46 M67.38 0.16 C91.18 24.64, 113.57 50.15, 133.23 74.27 M133.64 73.51 C113.33 97.53, 92.51 117.76, 66.71 149.92 M133.21 74.03 C116.04 92.68, 99.96 112.81, 68.21 148.81 M68.36 148.35 C52.19 129.75, 38.64 114.16, -1.39 73.16 M68.2 147.73 C43.26 121.49, 19.14 93.95, -0.2 74.1 M0.97 75.36 C14.32 58.88, 27.83 42.98, 69.87 -0.95 M-0.55 73.95 C23.48 48.18, 46.48 23.42, 68.17 0.08" stroke="#000000" stroke-width="1" fill="none"/></g><g transform="translate(40 215.6428571428571) rotate(0 33.5 13)"><text x="0" y="18" font-family="Virgil, Segoe UI Emoji" font-size="20px" fill="#000000" text-anchor="start" style="white-space: pre;" direction="ltr">Funding</text></g><g stroke-linecap="round" transform="translate(226 378.6428571428571) rotate(0 70 66)"><path d="M70.31 0.76 C86.04 16.21, 100.37 27.36, 140.68 67.61 M71.53 0.13 C94.49 22.84, 115.91 44.24, 140.05 65.83 M139.62 66.59 C114.7 87.14, 90.31 113.94, 70.13 131.28 M139.25 65.29 C114.78 90.18, 90.05 114.31, 70.16 131.95 M69.87 130.32 C55.51 116.55, 38.7 102.66, 1.14 64.67 M70.03 132.14 C51.28 113.37, 33.12 97.01, -0.96 65.53 M0.08 65.54 C16.07 48.76, 34.91 33.56, 71.81 1.55 M0.91 65.52 C23.98 44.73, 46.23 23.64, 70.05 -0.57" stroke="#000000" stroke-width="1" fill="none"/></g><g transform="translate(248 427.6428571428571) rotate(0 49 13)"><text x="0" y="18" font-family="Virgil, Segoe UI Emoji" font-size="20px" fill="#000000" text-anchor="start" style="white-space: pre;" direction="ltr">Man-hours</text></g><g stroke-linecap="round" transform="translate(250 186.1165413533838) rotate(0 48 49.26315789473688)"><path d="M-0.38 1.7 C25.97 -1.91, 54.81 1.25, 96.68 -1.24 M0.85 0.91 C29.6 0.14, 60.8 -0.3, 96.5 -0.18 M94.96 -1.78 C94.52 29.08, 94.95 53.59, 97.19 96.94 M96.12 0.42 C95.46 30.63, 94.42 59.58, 95.17 98.7 M96.02 97.27 C64.13 96.88, 36.16 96.39, -0.71 98.93 M95.18 97.53 C69.57 98.76, 42.58 98.18, -0.65 99.01 M-0.29 97.28 C1.83 61.31, 0.77 27.55, 0.44 -1.09 M0.77 98.46 C-0.72 69.55, -1.84 39.84, -0.65 0.81" stroke="#000000" stroke-width="1" fill="none"/></g><g transform="translate(264 218.22180451127815) rotate(0 33.47368421052636 16.42105263157896)"><text x="33.473684210526336" y="22.84210526315791" font-family="Virgil, Segoe UI Emoji" font-size="25.26315789473685px" fill="#000000" text-anchor="middle" style="white-space: pre;" direction="ltr">QURI</text></g><g stroke-linecap="round"><g transform="translate(144.64666360493288 236.98126324769964) rotate(0 53.39294369035463 0.8814355994024936)"><path d="M1.02 -0.65 C18.35 -0.21, 86.91 1.91, 104.47 2.42 M0.09 1.62 C17.76 1.71, 89.03 0.73, 106.69 0.51" stroke="#000000" stroke-width="1" fill="none"/></g><g transform="translate(144.64666360493288 236.98126324769964) rotate(0 53.39294369035463 0.8814355994024936)"><path d="M77.54 9.59 C88.82 8.92, 98.3 2.47, 107.02 1.57 M77.87 11.4 C87.38 7.38, 96.61 4.05, 106.45 0.32" stroke="#000000" stroke-width="1" fill="none"/></g><g transform="translate(144.64666360493288 236.98126324769964) rotate(0 53.39294369035463 0.8814355994024936)"><path d="M77.28 -10.93 C88.61 -4.67, 98.18 -4.18, 107.02 1.57 M77.6 -9.12 C87.37 -6.72, 96.68 -3.63, 106.45 0.32" stroke="#000000" stroke-width="1" fill="none"/></g></g><g stroke-linecap="round"><g transform="translate(299.7495233585803 371.6452897537213) rotate(0 0.4593236279758912 -43.4901048968203)"><path d="M-0.65 -0.92 C-0.36 -15.52, 1.2 -72.01, 1.57 -86.57 M1.2 1.21 C1.4 -13.19, 0.87 -73.43, 0.84 -88.19" stroke="#000000" stroke-width="1" fill="none"/></g><g transform="translate(299.7495233585803 371.6452897537213) rotate(0 0.4593236279758912 -43.4901048968203)"><path d="M9.72 -59.37 C9.7 -67.34, 3.92 -75.61, 1.9 -87.93 M11.52 -60 C6.82 -70.48, 2.79 -82.06, 0.65 -87.89" stroke="#000000" stroke-width="1" fill="none"/></g><g transform="translate(299.7495233585803 371.6452897537213) rotate(0 0.4593236279758912 -43.4901048968203)"><path d="M-10.8 -59.25 C-5.05 -67.15, -5.06 -75.44, 1.9 -87.93 M-9 -59.88 C-5.8 -70.25, -1.91 -81.88, 0.65 -87.89" stroke="#000000" stroke-width="1" fill="none"/></g></g><g stroke-linecap="round"><g transform="translate(298.0000000000001 182) rotate(0 -0.5130298063338614 -48.196422655144715)"><path d="M0.69 -1.03 C0.57 -17.11, -0.17 -79.58, -0.48 -95.55 M-0.4 1.05 C-0.75 -15.48, -1.93 -81.26, -1.68 -97.44" stroke="#000000" stroke-width="1" fill="none"/></g><g transform="translate(298.0000000000001 182) rotate(0 -0.5130298063338614 -48.196422655144715)"><path d="M6.97 -70.09 C5.87 -80.26, 0.34 -88.03, -1.27 -96.91 M8.37 -69.79 C5.2 -78.33, 2.22 -86.64, -1.65 -97.71" stroke="#000000" stroke-width="1" fill="none"/></g><g transform="translate(298.0000000000001 182) rotate(0 -0.5130298063338614 -48.196422655144715)"><path d="M-13.55 -70.01 C-8.03 -80.33, -6.94 -88.12, -1.27 -96.91 M-12.15 -69.71 C-8.65 -78.39, -4.97 -86.73, -1.65 -97.71" stroke="#000000" stroke-width="1" fill="none"/></g></g><g stroke-linecap="round"><g transform="translate(347.65853658536594 241.0193602429897) rotate(0 55.405220459142754 0.23656536864427835)"><path d="M0.04 -0.33 C18.69 -0.17, 93.47 1.54, 112.2 2.01 M-1.39 -1.54 C17.14 -1.21, 92.75 -0.12, 111.69 0.27" stroke="#000000" stroke-width="1" fill="none"/></g><g transform="translate(347.65853658536594 241.0193602429897) rotate(0 55.405220459142754 0.23656536864427835)"><path d="M82.79 11.44 C93.75 8.65, 103.87 1.97, 110.17 1.46 M84.11 9.81 C90.32 7.07, 99.05 4.92, 111.67 0.49" stroke="#000000" stroke-width="1" fill="none"/></g><g transform="translate(347.65853658536594 241.0193602429897) rotate(0 55.405220459142754 0.23656536864427835)"><path d="M83.14 -9.08 C94.17 -5.13, 104.17 -5.07, 110.17 1.46 M84.46 -10.7 C90.5 -8.06, 99.14 -4.82, 111.67 0.49" stroke="#000000" stroke-width="1" fill="none"/></g></g><g stroke-linecap="round"><g transform="translate(344.0000000000001 182) rotate(0 38.90188233554363 -32.50670533136463)"><path d="M-0.91 -0.52 C12.34 -11.21, 65.52 -54.38, 78.71 -65.16 M0.81 1.83 C14.04 -9.11, 65.34 -55.34, 78.14 -66.84" stroke="#000000" stroke-width="1" fill="none"/></g><g transform="translate(344.0000000000001 182) rotate(0 38.90188233554363 -32.50670533136463)"><path d="M63.17 -39.18 C68.94 -46.02, 72.11 -54.13, 77.71 -66.97 M63.56 -39.93 C67.36 -49.03, 72.07 -57.22, 78.08 -66.81" stroke="#000000" stroke-width="1" fill="none"/></g><g transform="translate(344.0000000000001 182) rotate(0 38.90188233554363 -32.50670533136463)"><path d="M49.45 -54.44 C58.28 -57.63, 64.65 -62.19, 77.71 -66.97 M49.84 -55.19 C57.84 -59.7, 66.68 -63.3, 78.08 -66.81" stroke="#000000" stroke-width="1" fill="none"/></g></g><g stroke-linecap="round"><g transform="translate(344.0000000000001 286) rotate(0 41.02674567401408 48.002566912612)"><path d="M-0.46 -0.22 C13.16 15.88, 68.78 80.03, 82.51 95.9 M1.5 -1.38 C14.94 14.98, 68.56 81.19, 81.83 97.38" stroke="#000000" stroke-width="1" fill="none"/></g><g transform="translate(344.0000000000001 286) rotate(0 41.02674567401408 48.002566912612)"><path d="M55.71 82.85 C65.26 87.6, 73.18 94.52, 81.84 95.67 M55.6 82.63 C61.17 86.6, 68.43 89.43, 81.72 97.09" stroke="#000000" stroke-width="1" fill="none"/></g><g transform="translate(344.0000000000001 286) rotate(0 41.02674567401408 48.002566912612)"><path d="M71.63 69.89 C75.26 79.33, 77.35 91.01, 81.84 95.67 M71.51 69.68 C73.48 76.38, 77.19 82.1, 81.72 97.09" stroke="#000000" stroke-width="1" fill="none"/></g></g><g stroke-linecap="round" transform="translate(436.0000000000001 350) rotate(0 87 38)"><path d="M-0.32 -0.23 C55.87 1.07, 108.74 -1.34, 175.19 0.63 M-0.98 0.01 C55.33 -0.22, 111.1 0.8, 174.16 0.31 M173.91 0.11 C172.14 17.41, 174.82 30.19, 175.94 75.12 M174.94 0.36 C174.18 24.03, 173.61 47.81, 173.66 76.77 M175.26 77.06 C131.25 75.59, 87.04 75.94, -2 75.71 M174.75 75.32 C119.4 77.59, 67.34 77.04, -0.16 76.89 M1.2 75 C2.68 47.37, -0.56 23.07, -1.56 -1.53 M-0.87 75.45 C-1.17 59.11, -0.12 43.18, -0.53 -0.48" stroke="#000000" stroke-width="1" fill="none"/></g><g transform="translate(456.0000000000001 373) rotate(0 44 13)"><text x="0" y="18" font-family="Virgil, Segoe UI Emoji" font-size="20px" fill="#000000" text-anchor="start" style="white-space: pre;" direction="ltr">Research</text></g><g stroke-linecap="round" transform="translate(464.0000000000001 220) rotate(0 92 34)"><path d="M-1.22 -1.26 C68.17 -3.38, 131.03 -3.56, 185.69 -0.94 M-0.71 0.53 C38.7 0.45, 77.86 0.24, 184.19 -0.12 M184.19 -0.96 C183.72 27.42, 183.47 51.14, 183.12 68.36 M183.82 -0.82 C184.61 16.05, 184.55 32.78, 183.7 68.11 M182.44 69.82 C115.76 69.67, 43.62 68.97, 0.92 69.54 M184.46 67.05 C142.22 68.8, 100.66 68.07, 0.1 67.62 M-1.3 67.64 C-0.03 45.06, 1.98 18.49, 0.94 -0.75 M0.12 67.16 C0.13 42.23, -0.06 17.71, 0.1 -0.73" stroke="#000000" stroke-width="1" fill="none"/></g><g transform="translate(476.0000000000001 231) rotate(0 57 13)"><text x="0" y="18" font-family="Virgil, Segoe UI Emoji" font-size="20px" fill="#000000" text-anchor="start" style="white-space: pre;" direction="ltr">Evaluations</text></g><g stroke-linecap="round" transform="translate(420.0000000000001 86) rotate(0 104 39)"><path d="M-0.31 0.9 C60.69 1.1, 125.07 -0.27, 207.39 -0.23 M-0.87 0.39 C49.79 -2.21, 97.68 -1.72, 207.7 -0.72 M207.29 1.24 C206.65 16.63, 208.01 36.21, 207.05 76.95 M208 -0.4 C208.85 17.27, 208.14 33.95, 207.92 78.3 M207.32 77.16 C128.87 77.53, 48.71 76.85, 1.63 79.49 M207.46 78.46 C163.24 80.26, 119.14 78.76, 0.54 78.46 M-0.99 79.77 C-0.46 60.92, 1.26 44.99, 0.8 0.93 M0.35 78.8 C-0.28 61.13, 0.65 44.33, -0.05 0.71" stroke="#000000" stroke-width="1" fill="none"/></g><g transform="translate(444.0000000000001 115) rotate(0 44.5 13)"><text x="0" y="18" font-family="Virgil, Segoe UI Emoji" font-size="20px" fill="#000000" text-anchor="start" style="white-space: pre;" direction="ltr">Software</text></g><g stroke-linecap="round" transform="translate(236.0000000000001 18) rotate(0 80 34)"><path d="M1.33 0.8 C48.25 -3.02, 94.01 -0.67, 160.69 1.6 M-0.26 -0.05 C40.39 -0.92, 78.89 -1.29, 160.32 -0.24 M160.73 0.03 C160.24 14.72, 159.74 31.81, 159.3 67.54 M160.65 -0.44 C159.3 24.24, 159.09 47.79, 160.54 68.37 M159.24 67.06 C118.62 70.34, 76.33 68.56, -1.02 69.48 M160.73 68.23 C117.36 67.62, 73.33 67.09, 0.36 67.82 M-1.67 69.38 C-0.9 49.36, 0.6 31.52, -1.59 -1.52 M0.63 67.63 C-1.19 47.31, -0.58 25.11, -0.02 -0.12" stroke="#000000" stroke-width="1" fill="none"/></g><g transform="translate(254.0000000000001 35) rotate(0 55.5 13)"><text x="0" y="18" font-family="Virgil, Segoe UI Emoji" font-size="20px" fill="#000000" text-anchor="start" style="white-space: pre;" direction="ltr">Forecasting</text></g><g stroke-linecap="round" transform="translate(993.5999999999999 24.399999999999864) rotate(0 55.20000000000016 58.400000000000205)"><path d="M28.43 7.42 C35.71 2, 46.6 -0.75, 55.85 -0.71 C65.1 -0.66, 76.06 2.53, 83.95 7.68 C91.84 12.84, 98.69 21.72, 103.17 30.25 C107.66 38.78, 110.82 49.16, 110.86 58.85 C110.9 68.55, 108.3 79.85, 103.4 88.41 C98.51 96.96, 89.68 105.39, 81.48 110.18 C73.28 114.97, 63.38 117.38, 54.22 117.12 C45.06 116.85, 34.26 113.75, 26.52 108.59 C18.78 103.43, 12.07 94.55, 7.78 86.14 C3.48 77.74, 0.57 67.92, 0.73 58.16 C0.9 48.4, 4.2 36.1, 8.79 27.58 C13.38 19.05, 23.85 10.97, 28.27 7.02 C32.69 3.06, 32.77 4.48, 35.3 3.85 C37.83 3.23, 43.03 2.21, 43.44 3.27 M45.96 -0.48 C54.41 -2.89, 65.69 0.49, 74.55 4.1 C83.41 7.71, 93.1 13.74, 99.11 21.16 C105.13 28.58, 109.2 38.93, 110.64 48.63 C112.08 58.34, 111.13 70.1, 107.75 79.39 C104.37 88.67, 97.6 98.29, 90.35 104.34 C83.11 110.38, 73.35 114.27, 64.3 115.67 C55.25 117.07, 44.65 116.18, 36.05 112.74 C27.46 109.29, 18.42 102.8, 12.73 95.01 C7.05 87.22, 3.56 75.82, 1.93 66.01 C0.31 56.2, -0.03 45, 2.98 36.13 C5.98 27.27, 12.82 18.92, 19.97 12.83 C27.12 6.74, 41.38 1.54, 45.87 -0.4 C50.36 -2.35, 46.56 0.77, 46.91 1.17 C47.27 1.57, 47.75 1.09, 48.01 2" stroke="#000000" stroke-width="1" fill="none"/></g><g transform="translate(1012.7999999999997 66.80000000000064) rotate(0 39.753846153846325 15.200000000000045)"><text x="0" y="20.400000000000095" font-family="Virgil, Segoe UI Emoji" font-size="23.384615384615437px" fill="#000000" text-anchor="start" style="white-space: pre;" direction="ltr">Impact</text></g><g stroke-linecap="round" transform="translate(984 10) rotate(0 66.4000000000002 72.00000000000023)"><path d="M96.94 7.78 C105.93 11.53, 115.14 21, 120.94 30.09 C126.74 39.17, 130.32 51.44, 131.74 62.29 C133.16 73.13, 132.59 84.87, 129.47 95.16 C126.35 105.45, 120.49 116.29, 113.02 124.05 C105.55 131.81, 94.5 138.57, 84.67 141.74 C74.83 144.9, 63.88 145.18, 53.99 143.04 C44.11 140.91, 33.16 135.8, 25.34 128.92 C17.51 122.04, 11.12 111.58, 7.03 101.75 C2.93 91.92, 0.37 80.92, 0.78 69.94 C1.19 58.96, 4.66 45.6, 9.48 35.88 C14.3 26.16, 21.48 17.5, 29.69 11.6 C37.9 5.7, 48.6 1.53, 58.75 0.46 C68.9 -0.61, 83.71 3.49, 90.58 5.18 C97.45 6.88, 98.28 9.52, 99.94 10.63 C101.61 11.74, 101.03 11.07, 100.59 11.83 M43.21 3.97 C52.09 -0.95, 64.1 -1.9, 74.2 -0.65 C84.31 0.59, 95.41 5.21, 103.82 11.43 C112.23 17.64, 119.74 27.16, 124.67 36.63 C129.6 46.1, 132.91 57.39, 133.4 68.24 C133.9 79.08, 131.83 91.68, 127.62 101.71 C123.41 111.73, 115.97 121.79, 108.14 128.36 C100.32 134.93, 90.75 139.2, 80.66 141.12 C70.57 143.05, 57.6 142.69, 47.61 139.91 C37.62 137.14, 28.09 131.89, 20.73 124.47 C13.36 117.05, 6.83 105.56, 3.42 95.41 C0.02 85.25, -1.17 74.17, 0.3 63.54 C1.77 52.91, 6.45 40.74, 12.26 31.64 C18.07 22.55, 30.03 13.64, 35.16 8.97 C40.28 4.3, 41.56 4.01, 43.02 3.63 C44.49 3.25, 43.66 5.52, 43.95 6.69" stroke="#000000" stroke-width="1" fill="none"/></g><g stroke-linecap="round"><g transform="translate(394.0000000000001 54) rotate(0 171.39185160845523 1.9243213505184258)"><path d="M-0.76 -0.94 C56.32 -0.21, 286.4 4.19, 343.54 4.79 M1.04 1.18 C57.94 1.57, 286.35 2.88, 343 3.27" stroke="#000000" stroke-width="1" fill="none"/></g><g transform="translate(394.0000000000001 54) rotate(0 171.39185160845523 1.9243213505184258)"><path d="M313.18 14.64 C327.53 8.49, 334.93 6.7, 344.91 2.92 M314.14 12.86 C320.68 11.64, 327.38 7.62, 343.7 2.7" stroke="#000000" stroke-width="1" fill="none"/></g><g transform="translate(394.0000000000001 54) rotate(0 171.39185160845523 1.9243213505184258)"><path d="M313.3 -5.88 C327.68 -4.1, 335.03 2.03, 344.91 2.92 M314.27 -7.66 C320.78 -4.06, 327.45 -3.26, 343.7 2.7" stroke="#000000" stroke-width="1" fill="none"/></g></g><g stroke-linecap="round" transform="translate(740.0000000000001 26) rotate(0 27 24)"><path d="M-1.78 1.22 C14.95 0.02, 26.16 0.74, 53.19 -0.01 M-0.99 -0.28 C20.92 -0.33, 41.9 -0.47, 54.75 0.63 M54.06 0.25 C52.46 14.51, 53.88 32.07, 55.03 49.88 M53.37 0.71 C53.72 16.48, 52.9 31.75, 53.6 48.42 M52.54 46.74 C38.7 47.36, 25.12 47.88, -1.72 47.41 M54.04 48.89 C39.69 47.57, 24.66 48.08, -0.87 47.24 M0.58 48.89 C-2.18 32.27, -1.95 13.65, 1.95 -0.06 M-0.16 48.06 C0.69 33.56, 0.76 19.68, 0 -0.57" stroke="#000000" stroke-width="1" fill="none"/></g><g transform="translate(759.0000000000001 37) rotate(0 8 13)"><text x="8" y="18" font-family="Virgil, Segoe UI Emoji" font-size="20px" fill="#000000" text-anchor="middle" style="white-space: pre;" direction="ltr">...</text></g><g stroke-linecap="round" transform="translate(780 106) rotate(0 27 24)"><path d="M-0.73 -0.87 C19.75 -2.05, 35.32 0.22, 55.81 -1.78 M-0.45 0.04 C20.97 -1.01, 39.13 -0.61, 54.15 -0.74 M55.13 0.54 C55.55 15.83, 51.84 27.89, 52.78 49.62 M53.13 0.15 C53.71 11.33, 54.15 22.98, 54.22 47.28 M54.55 48.67 C36.57 48.11, 23.82 49.67, 1.87 48.62 M53.32 47.37 C40.4 47.8, 26.12 48.07, -0.08 47.98 M-1.53 48.82 C2 35.01, 0.64 24.6, 1.7 -0.44 M-0.08 47.61 C0.91 37.23, 0.63 27.42, 0.33 -0.4" stroke="#000000" stroke-width="1" fill="none"/></g><g transform="translate(799 117) rotate(0 8 13)"><text x="8" y="18" font-family="Virgil, Segoe UI Emoji" font-size="20px" fill="#000000" text-anchor="middle" style="white-space: pre;" direction="ltr">...</text></g><g stroke-linecap="round" transform="translate(744.0000000000001 226) rotate(0 26.999999999999943 24)"><path d="M-0.79 1.41 C17.73 0.88, 33.28 -1.97, 54.68 1.18 M-0.36 0.45 C18.74 1.11, 36.87 -0.13, 53.05 -0.51 M52.08 0.88 C53.48 12.83, 53.36 21.33, 54.96 46.23 M54.77 -0.43 C54.46 11.75, 53.96 24.88, 53.05 48.56 M53.14 48.71 C36.62 49.37, 18.59 48.33, 0.14 46.86 M54.79 48.77 C42.82 47.82, 31.63 47.18, 0.61 48.37 M1.24 46.77 C-0.18 37.04, 2.06 22.17, -0.24 -1 M0.27 47.9 C-0.03 35.71, -0.5 23.2, -0.87 -0.39" stroke="#000000" stroke-width="1" fill="none"/></g><g transform="translate(763.0000000000001 237) rotate(0 8 13)"><text x="8" y="18" font-family="Virgil, Segoe UI Emoji" font-size="20px" fill="#000000" text-anchor="middle" style="white-space: pre;" direction="ltr">...</text></g><g stroke-linecap="round" transform="translate(774 356) rotate(0 27 24)"><path d="M1.06 -1.34 C12.28 0.56, 29.31 0.64, 55.46 -0.8 M0.89 0.44 C13.91 -1.23, 28.01 -0.91, 54.43 0.51 M55.44 -0.85 C52.75 10.75, 52.44 18.58, 52.25 49.08 M53.79 0.38 C54.74 17.15, 54.35 36.47, 53.16 47.75 M55.5 47.8 C40.59 48.2, 25.11 46.1, -1.83 47.37 M53.99 47.46 C32.9 48.47, 13.48 47.55, -0.64 47.8 M1.99 49.75 C0.36 30.38, -0.7 12.59, 1.53 -1.12 M0.53 47.87 C0.89 31.43, -0.34 17.09, 0.15 -0.84" stroke="#000000" stroke-width="1" fill="none"/></g><g transform="translate(793 367) rotate(0 8 13)"><text x="8" y="18" font-family="Virgil, Segoe UI Emoji" font-size="20px" fill="#000000" text-anchor="middle" style="white-space: pre;" direction="ltr">...</text></g><g stroke-linecap="round"><g transform="translate(650.0000000000001 252) rotate(0 46.53465969176028 0.06798096223735683)"><path d="M0.77 -0.82 C16.15 -0.68, 75.9 0.38, 91.11 0.59 M-0.28 1.36 C15.57 1.17, 78.09 -0.71, 93.35 -1.23" stroke="#000000" stroke-width="1" fill="none"/></g><g transform="translate(650.0000000000001 252) rotate(0 46.53465969176028 0.06798096223735683)"><path d="M64.12 8.42 C72.21 7.5, 77.63 5.09, 94.69 0.09 M65.72 10.22 C72.03 7.27, 78.41 4.94, 93.41 -1.58" stroke="#000000" stroke-width="1" fill="none"/></g><g transform="translate(650.0000000000001 252) rotate(0 46.53465969176028 0.06798096223735683)"><path d="M63.48 -12.09 C71.66 -8.8, 77.21 -7.01, 94.69 0.09 M65.08 -10.29 C71.34 -8.53, 77.87 -6.17, 93.41 -1.58" stroke="#000000" stroke-width="1" fill="none"/></g></g><g stroke-linecap="round"><g transform="translate(612.0000000000001 385.2268458124197) rotate(0 78.31974783787041 0.27299146946120345)"><path d="M-0.08 -0.99 C25.81 -0.85, 129.89 -0.14, 156.06 -0.05 M-1.58 1.1 C24.6 1.53, 131.95 1.58, 158.22 1.52" stroke="#000000" stroke-width="1" fill="none"/></g><g transform="translate(612.0000000000001 385.2268458124197) rotate(0 78.31974783787041 0.27299146946120345)"><path d="M128.39 10.04 C140.33 7.81, 149.87 6.16, 157.54 3.16 M129.76 11.68 C138.29 9.4, 145.83 5.19, 158.48 0.77" stroke="#000000" stroke-width="1" fill="none"/></g><g transform="translate(612.0000000000001 385.2268458124197) rotate(0 78.31974783787041 0.27299146946120345)"><path d="M128.38 -10.48 C140.18 -5.33, 149.72 0.41, 157.54 3.16 M129.75 -8.84 C138.47 -5, 146.02 -3.09, 158.48 0.77" stroke="#000000" stroke-width="1" fill="none"/></g></g><g stroke-linecap="round"><g transform="translate(632.0000000000001 132) rotate(0 73.10827309787271 -0.6009756739484828)"><path d="M-0.81 -0.61 C23.65 -1.09, 122.7 -2.7, 147.03 -2.89 M0.96 1.69 C25.33 1.34, 122.17 -1.49, 146.62 -1.82" stroke="#000000" stroke-width="1" fill="none"/></g><g transform="translate(632.0000000000001 132) rotate(0 73.10827309787271 -0.6009756739484828)"><path d="M117.65 10.77 C126.23 4.34, 137.2 3.2, 147.79 -1.09 M119.49 8.78 C125.13 5.82, 131.12 4.31, 147.41 -1.64" stroke="#000000" stroke-width="1" fill="none"/></g><g transform="translate(632.0000000000001 132) rotate(0 73.10827309787271 -0.6009756739484828)"><path d="M117.2 -9.74 C125.92 -9.53, 137.03 -4.02, 147.79 -1.09 M119.03 -11.74 C124.7 -10.36, 130.79 -7.54, 147.41 -1.64" stroke="#000000" stroke-width="1" fill="none"/></g></g><g stroke-linecap="round"><g transform="translate(796.0000000000001 54) rotate(0 99.56894480884534 14.224899161746748)"><path d="M0.93 -0.35 C34.2 4.55, 166.47 23.91, 199.18 29.01 M-0.04 -1.58 C33.21 3.48, 165.56 24.48, 198.86 30.03" stroke="#000000" stroke-width="1" fill="none"/></g><g transform="translate(796.0000000000001 54) rotate(0 99.56894480884534 14.224899161746748)"><path d="M168.8 37.62 C175.49 32.67, 185.31 31.01, 199.11 29.25 M169.68 35.53 C177.51 34.25, 187.6 32.81, 198.21 30.27" stroke="#000000" stroke-width="1" fill="none"/></g><g transform="translate(796.0000000000001 54) rotate(0 99.56894480884534 14.224899161746748)"><path d="M172.08 17.37 C177.84 17.75, 186.8 21.4, 199.11 29.25 M172.96 15.28 C179.82 20.05, 188.92 24.67, 198.21 30.27" stroke="#000000" stroke-width="1" fill="none"/></g></g><g stroke-linecap="round"><g transform="translate(840 128) rotate(0 76.88719375431538 -10.670285442471481)"><path d="M-0.58 0.87 C25.21 -2.77, 128.63 -18.38, 154.36 -22.21 M1.31 0.28 C27.01 -3.15, 128.34 -17.26, 153.59 -20.78" stroke="#000000" stroke-width="1" fill="none"/></g><g transform="translate(840 128) rotate(0 76.88719375431538 -10.670285442471481)"><path d="M128.54 -6.14 C133.92 -10.81, 141.24 -15.65, 153.05 -19.24 M126.51 -6.18 C136.41 -11.59, 145.31 -17.7, 153.59 -21.7" stroke="#000000" stroke-width="1" fill="none"/></g><g transform="translate(840 128) rotate(0 76.88719375431538 -10.670285442471481)"><path d="M125.71 -26.46 C131.8 -25.65, 139.87 -25, 153.05 -19.24 M123.68 -26.51 C134.68 -24.54, 144.6 -23.29, 153.59 -21.7" stroke="#000000" stroke-width="1" fill="none"/></g></g><g stroke-linecap="round"><g transform="translate(800 252) rotate(0 99.73516414463518 -63.19874017626978)"><path d="M-0.52 -0.86 C32.68 -21.78, 166.5 -104.79, 199.99 -125.72 M1.41 1.3 C34.38 -19.98, 165.95 -106.59, 199.04 -127.7" stroke="#000000" stroke-width="1" fill="none"/></g><g transform="translate(800 252) rotate(0 99.73516414463518 -63.19874017626978)"><path d="M179.54 -103.76 C188.13 -111.73, 193.61 -122.99, 198.75 -127.61 M181.91 -103.23 C185.25 -108.66, 189.14 -115.3, 198.1 -128.48" stroke="#000000" stroke-width="1" fill="none"/></g><g transform="translate(800 252) rotate(0 99.73516414463518 -63.19874017626978)"><path d="M168.37 -120.97 C181.04 -122.57, 190.62 -127.49, 198.75 -127.61 M170.73 -120.44 C176.51 -121.85, 182.96 -124.55, 198.1 -128.48" stroke="#000000" stroke-width="1" fill="none"/></g></g><g stroke-linecap="round"><g transform="translate(830 378) rotate(0 92.55639450967772 -123.84604981243615)"><path d="M1.07 0.76 C31.91 -40.59, 154.29 -207.09, 184.93 -248.45 M0.18 0.11 C30.95 -41.05, 153.73 -205.56, 184.48 -247.14" stroke="#000000" stroke-width="1" fill="none"/></g><g transform="translate(830 378) rotate(0 92.55639450967772 -123.84604981243615)"><path d="M177.15 -216.84 C177.73 -225.31, 182 -233.5, 183.85 -249.05 M175.26 -218.51 C179.98 -229.06, 182.23 -241.97, 185.37 -246.36" stroke="#000000" stroke-width="1" fill="none"/></g><g transform="translate(830 378) rotate(0 92.55639450967772 -123.84604981243615)"><path d="M160.68 -229.09 C166.02 -234.13, 175.09 -238.76, 183.85 -249.05 M158.79 -230.76 C170.05 -236.51, 178.77 -244.61, 185.37 -246.36" stroke="#000000" stroke-width="1" fill="none"/></g></g></svg>