<svg version="1.1" xmlns="http://www.w3.org/2000/svg" viewBox="0 0 1538 1866.642857142857" width="1538" height="1866.642857142857">
  <!-- svg-source:excalidraw -->
  
  <defs>
    <style>
      @font-face {
        font-family: "Virgil";
        src: url("https://excalidraw.com/Virgil.woff2");
      }
      @font-face {
        font-family: "Cascadia";
        src: url("https://excalidraw.com/Cascadia.woff2");
      }
    </style>
  </defs>
  <rect x="0" y="0" width="1538" height="1866.642857142857" fill="#ffffff"/><g stroke-linecap="round" transform="translate(118 500.6428571428571) rotate(0 67 73.99999999999997)"><path d="M68.05 1.58 C82.66 16.31, 95.68 31.4, 135.55 72.73 M68.18 0.16 C90.95 25.43, 113.43 50.59, 134.75 74.88 M133.93 73.16 C119.48 91.17, 100.18 109.39, 69.47 147.2 M133.92 73.94 C110.43 99.18, 86.84 125.75, 67.39 147.47 M66.06 146.85 C54.4 131.04, 41.47 118.51, -1.84 73.71 M67.18 148.12 C52.45 132.07, 36.34 114.56, 0.11 73.01 M-0.15 74.49 C22.85 48.96, 47.8 18.55, 68.67 1.19 M0.04 74.82 C26.34 46.34, 51.58 19.2, 67.27 0.95" stroke="#000000" stroke-width="1" fill="none"/></g><g stroke-linecap="round" transform="translate(202 1504.642857142857) rotate(0 67 74)"><path d="M69.14 -0.36 C82.74 17.98, 97.93 35.6, 132.91 72.46 M67.38 0.16 C91.18 24.64, 113.57 50.15, 133.23 74.27 M133.64 73.51 C113.33 97.53, 92.51 117.76, 66.71 149.92 M133.21 74.03 C116.04 92.68, 99.96 112.81, 68.21 148.81 M68.36 148.35 C52.19 129.75, 38.64 114.16, -1.39 73.16 M68.2 147.73 C43.26 121.49, 19.14 93.95, -0.2 74.1 M0.97 75.36 C14.32 58.88, 27.83 42.98, 69.87 -0.95 M-0.55 73.95 C23.48 48.18, 46.48 23.42, 68.17 0.08" stroke="#000000" stroke-width="1" fill="none"/></g><g transform="translate(148 557.6428571428571) rotate(0 33.5 13)"><text x="0" y="18" font-family="Virgil, Segoe UI Emoji" font-size="20px" fill="#000000" text-anchor="start" style="white-space: pre;" direction="ltr">Funding</text></g><g transform="translate(232 1561.642857142857) rotate(0 33.5 13)"><text x="0" y="18" font-family="Virgil, Segoe UI Emoji" font-size="20px" fill="#000000" text-anchor="start" style="white-space: pre;" direction="ltr">Funding</text></g><g stroke-linecap="round" transform="translate(334 720.6428571428571) rotate(0 70 66)"><path d="M70.58 -1.43 C95.75 20.69, 118.39 45.63, 138.25 67.58 M71.69 -0.24 C95.24 22.32, 118.69 44.27, 139.6 65.38 M138.18 65.21 C125.85 82.45, 109.76 96.13, 72.71 133.3 M139.12 66.71 C121.1 84.46, 100.35 102.11, 71.02 131.55 M70.34 130.65 C49.96 115.44, 31.57 97.19, 0.24 65.74 M71.41 132.22 C50.41 112.62, 27.81 91.9, 0.86 65.82 M-1.52 64.73 C15.81 50.91, 35.73 32.31, 71.91 -0.16 M-0.36 65.41 C19.54 46.3, 42.11 26.14, 70.49 0.65" stroke="#000000" stroke-width="1" fill="none"/></g><g stroke-linecap="round" transform="translate(418 1724.642857142857) rotate(0 70 66)"><path d="M70.31 0.76 C86.04 16.21, 100.37 27.36, 140.68 67.61 M71.53 0.13 C94.49 22.84, 115.91 44.24, 140.05 65.83 M139.62 66.59 C114.7 87.14, 90.31 113.94, 70.13 131.28 M139.25 65.29 C114.78 90.18, 90.05 114.31, 70.16 131.95 M69.87 130.32 C55.51 116.55, 38.7 102.66, 1.14 64.67 M70.03 132.14 C51.28 113.37, 33.12 97.01, -0.96 65.53 M0.08 65.54 C16.07 48.76, 34.91 33.56, 71.81 1.55 M0.91 65.52 C23.98 44.73, 46.23 23.64, 70.05 -0.57" stroke="#000000" stroke-width="1" fill="none"/></g><g transform="translate(356 769.6428571428571) rotate(0 49 13)"><text x="0" y="18" font-family="Virgil, Segoe UI Emoji" font-size="20px" fill="#000000" text-anchor="start" style="white-space: pre;" direction="ltr">Man-hours</text></g><g transform="translate(440 1773.642857142857) rotate(0 49 13)"><text x="0" y="18" font-family="Virgil, Segoe UI Emoji" font-size="20px" fill="#000000" text-anchor="start" style="white-space: pre;" direction="ltr">Man-hours</text></g><g stroke-linecap="round" transform="translate(358 528.1165413533837) rotate(0 48 49.26315789473685)"><path d="M1.58 -1.55 C22.43 0.25, 43.45 0.95, 97 0.38 M-0.67 0.83 C32.09 0.9, 63.37 -0.7, 96.75 -0.6 M94.82 0.54 C94.05 26.39, 96.19 48.36, 95.51 97.28 M95.02 0.81 C95.95 22.17, 95 43.5, 96.47 99.13 M94.23 96.59 C59.8 98.79, 18.17 97.42, 1.13 97.82 M96.4 99.2 C74.02 99.2, 51.25 98.56, -0.72 98.65 M-1.95 97.17 C0.02 68.06, 0.82 33.43, -0.32 1.33 M-0.25 97.88 C0.08 70.53, 0.34 42.19, -0.42 -0.82" stroke="#000000" stroke-width="1" fill="none"/></g><g stroke-linecap="round" transform="translate(442 1532.1165413533838) rotate(0 48 49.26315789473688)"><path d="M-0.38 1.7 C25.97 -1.91, 54.81 1.25, 96.68 -1.24 M0.85 0.91 C29.6 0.14, 60.8 -0.3, 96.5 -0.18 M94.96 -1.78 C94.52 29.08, 94.95 53.59, 97.19 96.94 M96.12 0.42 C95.46 30.63, 94.42 59.58, 95.17 98.7 M96.02 97.27 C64.13 96.88, 36.16 96.39, -0.71 98.93 M95.18 97.53 C69.57 98.76, 42.58 98.18, -0.65 99.01 M-0.29 97.28 C1.83 61.31, 0.77 27.55, 0.44 -1.09 M0.77 98.46 C-0.72 69.55, -1.84 39.84, -0.65 0.81" stroke="#000000" stroke-width="1" fill="none"/></g><g transform="translate(372 560.2218045112782) rotate(0 33.47368421052633 16.42105263157896)"><text x="33.473684210526336" y="22.84210526315791" font-family="Virgil, Segoe UI Emoji" font-size="25.26315789473685px" fill="#000000" text-anchor="middle" style="white-space: pre;" direction="ltr">QURI</text></g><g transform="translate(456 1564.2218045112782) rotate(0 33.47368421052636 16.42105263157896)"><text x="33.473684210526336" y="22.84210526315791" font-family="Virgil, Segoe UI Emoji" font-size="25.26315789473685px" fill="#000000" text-anchor="middle" style="white-space: pre;" direction="ltr">QURI</text></g><g stroke-linecap="round"><g transform="translate(252.64666360493288 578.9812632476995) rotate(0 52.228132370189456 1.0550192204778739)"><path d="M-0.96 0.23 C16.42 0.53, 87.88 1.38, 105.41 1.52 M0.74 -0.69 C17.87 -0.21, 86.85 2.37, 104.48 2.8" stroke="#000000" stroke-width="1" fill="none"/></g><g transform="translate(252.64666360493288 578.9812632476995) rotate(0 52.228132370189456 1.0550192204778739)"><path d="M76.36 12.2 C86.43 6.76, 96.96 6.82, 105.92 3.97 M75.92 11.49 C86.76 8.21, 96.93 4.3, 103.84 2.42" stroke="#000000" stroke-width="1" fill="none"/></g><g transform="translate(252.64666360493288 578.9812632476995) rotate(0 52.228132370189456 1.0550192204778739)"><path d="M77.01 -8.31 C86.78 -5.66, 97.05 2.49, 105.92 3.97 M76.57 -9.02 C87.27 -4.59, 97.2 -0.79, 103.84 2.42" stroke="#000000" stroke-width="1" fill="none"/></g></g><g stroke-linecap="round"><g transform="translate(336.6466636049329 1582.9812632476996) rotate(0 53.39294369035463 0.8814355994024936)"><path d="M1.02 -0.65 C18.35 -0.21, 86.91 1.91, 104.47 2.42 M0.09 1.62 C17.76 1.71, 89.03 0.73, 106.69 0.51" stroke="#000000" stroke-width="1" fill="none"/></g><g transform="translate(336.6466636049329 1582.9812632476996) rotate(0 53.39294369035463 0.8814355994024936)"><path d="M77.54 9.59 C88.82 8.92, 98.3 2.47, 107.02 1.57 M77.87 11.4 C87.38 7.38, 96.61 4.05, 106.45 0.32" stroke="#000000" stroke-width="1" fill="none"/></g><g transform="translate(336.6466636049329 1582.9812632476996) rotate(0 53.39294369035463 0.8814355994024936)"><path d="M77.28 -10.93 C88.61 -4.67, 98.18 -4.18, 107.02 1.57 M77.6 -9.12 C87.37 -6.72, 96.68 -3.63, 106.45 0.32" stroke="#000000" stroke-width="1" fill="none"/></g></g><g stroke-linecap="round"><g transform="translate(407.74952335858023 713.6452897537213) rotate(0 0.6639418839235702 -43.45772386157245)"><path d="M-1.09 1.16 C-1.12 -13.59, -0.35 -73.17, 0.21 -88.07 M0.54 0.72 C0.84 -13.91, 2.16 -72.14, 2.41 -86.82" stroke="#000000" stroke-width="1" fill="none"/></g><g transform="translate(407.74952335858023 713.6452897537213) rotate(0 0.6639418839235702 -43.45772386157245)"><path d="M14.03 -60.02 C7.86 -66.2, 4.28 -77.04, 1.12 -86.29 M11.13 -57.87 C8.71 -68.78, 4.42 -78.85, 2.12 -87.02" stroke="#000000" stroke-width="1" fill="none"/></g><g transform="translate(407.74952335858023 713.6452897537213) rotate(0 0.6639418839235702 -43.45772386157245)"><path d="M-6.49 -60.44 C-5.77 -66.29, -2.47 -76.99, 1.12 -86.29 M-9.39 -58.29 C-4.28 -68.97, -1.05 -78.9, 2.12 -87.02" stroke="#000000" stroke-width="1" fill="none"/></g></g><g stroke-linecap="round"><g transform="translate(491.7495233585803 1717.6452897537213) rotate(0 0.4593236279758912 -43.4901048968203)"><path d="M-0.65 -0.92 C-0.36 -15.52, 1.2 -72.01, 1.57 -86.57 M1.2 1.21 C1.4 -13.19, 0.87 -73.43, 0.84 -88.19" stroke="#000000" stroke-width="1" fill="none"/></g><g transform="translate(491.7495233585803 1717.6452897537213) rotate(0 0.4593236279758912 -43.4901048968203)"><path d="M9.72 -59.37 C9.7 -67.34, 3.92 -75.61, 1.9 -87.93 M11.52 -60 C6.82 -70.48, 2.79 -82.06, 0.65 -87.89" stroke="#000000" stroke-width="1" fill="none"/></g><g transform="translate(491.7495233585803 1717.6452897537213) rotate(0 0.4593236279758912 -43.4901048968203)"><path d="M-10.8 -59.25 C-5.05 -67.15, -5.06 -75.44, 1.9 -87.93 M-9 -59.88 C-5.8 -70.25, -1.91 -81.88, 0.65 -87.89" stroke="#000000" stroke-width="1" fill="none"/></g></g><g stroke-linecap="round"><g transform="translate(408 522.6428571428571) rotate(0 -0.5588339741481434 -50.26256268322467)"><path d="M0.59 0.39 C0.49 -16.48, -0.7 -84.01, -1.19 -100.92 M-0.55 -0.45 C-0.7 -17.22, -1.26 -83.22, -1.71 -99.86" stroke="#000000" stroke-width="1" fill="none"/></g><g transform="translate(408 522.6428571428571) rotate(0 -0.5588339741481434 -50.26256268322467)"><path d="M9.67 -70.49 C4.68 -79.48, 1.73 -84.99, -1.23 -98.78 M8.99 -71.25 C6.02 -80.05, 2.46 -86.66, -1.01 -100.06" stroke="#000000" stroke-width="1" fill="none"/></g><g transform="translate(408 522.6428571428571) rotate(0 -0.5588339741481434 -50.26256268322467)"><path d="M-10.85 -70.15 C-10.62 -79.33, -8.34 -84.93, -1.23 -98.78 M-11.52 -70.91 C-9.02 -79.82, -7.09 -86.53, -1.01 -100.06" stroke="#000000" stroke-width="1" fill="none"/></g></g><g stroke-linecap="round" transform="translate(334 322.6428571428571) rotate(0 69 48)"><path d="M-1.16 1.8 C54.69 -1.43, 106.44 0.06, 137.59 0.68 M-0.45 0.54 C29.75 -0.46, 59.02 0.89, 138.31 0.17 M137.92 0.46 C136.63 32.7, 137.05 63.55, 139.85 94.72 M137.92 -0.98 C138.08 36.11, 138.14 72.77, 137.66 96.15 M136.64 96.84 C108.29 95.13, 76.1 95.36, -0.49 97.44 M138.27 96.92 C107.79 96.17, 78.65 96.8, -0.49 96.39 M1.54 95.3 C1.21 63.83, -0.95 27.69, 0.7 -1.18 M0.27 95.36 C-0.34 70.33, 0.33 43.72, 0.6 -0.71" stroke="#000000" stroke-width="1" fill="none"/></g><g transform="translate(358 345.6428571428571) rotate(0 45 26)"><text x="0" y="18" font-family="Virgil, Segoe UI Emoji" font-size="20px" fill="#000000" text-anchor="start" style="white-space: pre;" direction="ltr">Nuts and</text><text x="0" y="44" font-family="Virgil, Segoe UI Emoji" font-size="20px" fill="#000000" text-anchor="start" style="white-space: pre;" direction="ltr">bolts</text></g><g stroke-linecap="round"><g transform="translate(454 572.6428571428571) rotate(0 47.21245991886127 0.8827433527214623)"><path d="M1 0.34 C16.83 0.55, 78.94 1.96, 94.36 2.3 M0.07 -0.53 C15.83 -0.18, 78.19 0.2, 93.6 0.33" stroke="#000000" stroke-width="1" fill="none"/></g><g transform="translate(454 572.6428571428571) rotate(0 47.21245991886127 0.8827433527214623)"><path d="M65.9 10.98 C72.73 6.85, 79.84 6.6, 91.82 -1.3 M64.72 11.08 C70.52 7.55, 77.93 6.63, 92.84 -0.23" stroke="#000000" stroke-width="1" fill="none"/></g><g transform="translate(454 572.6428571428571) rotate(0 47.21245991886127 0.8827433527214623)"><path d="M66.05 -9.54 C73.02 -8.6, 80.09 -3.77, 91.82 -1.3 M64.87 -9.44 C70.5 -8.55, 77.87 -5.05, 92.84 -0.23" stroke="#000000" stroke-width="1" fill="none"/></g></g><g stroke-linecap="round" transform="translate(556 532.6428571428571) rotate(0 78 42.99999999999997)"><path d="M0.99 1.43 C41.09 0.28, 86.39 1.07, 154.08 -0.42 M-0.21 0.2 C51.33 1.98, 103.6 1.78, 156.34 0.24 M154.08 -1.89 C157.09 23.28, 158.18 45.78, 157.13 87.95 M155.76 0.59 C154.96 19.57, 156.44 37.57, 156.46 85.31 M155.69 87.59 C111.14 84.78, 65.12 86.99, 1.5 85.53 M155.64 85.4 C110.07 86.89, 64.46 87.94, 0.24 86.14 M-1.83 84.91 C2.45 62.89, 0.18 40.88, -1.9 0.02 M0.93 85.6 C-0.56 52.22, 0.36 18.24, -0.24 -0.5" stroke="#000000" stroke-width="1" fill="none"/></g><g transform="translate(568 549.6428571428571) rotate(0 51.5 26)"><text x="0" y="18" font-family="Virgil, Segoe UI Emoji" font-size="20px" fill="#000000" text-anchor="start" style="white-space: pre;" direction="ltr">Paving the</text><text x="0" y="44" font-family="Virgil, Segoe UI Emoji" font-size="20px" fill="#000000" text-anchor="start" style="white-space: pre;" direction="ltr">way</text></g><g stroke-linecap="round"><g transform="translate(353.19965845584863 321.27030812324927) rotate(0 -33.236731703479734 -33.93220963428419)"><path d="M0.1 1.14 C-10.75 -10.37, -54.57 -57.51, -65.61 -69 M-1.3 0.69 C-12.28 -10.64, -55.58 -55.89, -66.58 -67.62" stroke="#000000" stroke-width="1" fill="none"/></g><g transform="translate(353.19965845584863 321.27030812324927) rotate(0 -33.236731703479734 -33.93220963428419)"><path d="M-37.83 -54.28 C-47.2 -58.69, -52.19 -61.17, -67 -66.31 M-38.81 -53.72 C-45.33 -57.19, -53.53 -60.96, -66.78 -67.32" stroke="#000000" stroke-width="1" fill="none"/></g><g transform="translate(353.19965845584863 321.27030812324927) rotate(0 -33.236731703479734 -33.93220963428419)"><path d="M-52.72 -40.15 C-58.22 -48.25, -59.33 -54.41, -67 -66.31 M-53.7 -39.6 C-56.45 -46.6, -60.99 -53.84, -66.78 -67.32" stroke="#000000" stroke-width="1" fill="none"/></g></g><g stroke-linecap="round" transform="translate(126 178.6428571428571) rotate(0 113 35)"><path d="M1.6 0.04 C65.52 -2.72, 132.67 -2.45, 224.81 0.13 M0.36 0.12 C57.63 0.99, 115.48 1.39, 226.53 -0.42 M227.91 -0.75 C225.12 23.68, 224.19 51.61, 224.25 68.73 M225.21 -0.38 C226.55 19.95, 226.1 40.41, 225.07 70.96 M224.77 68.87 C143.78 71.79, 63.06 71.05, -0.41 69.32 M226.67 70.38 C140.34 68.77, 53.27 68.88, -0.02 70.06 M-0.89 70.54 C-1 52.53, -0.97 31.74, -0.13 -1.63 M-0.36 70.17 C-0.43 47.6, 0.92 23.94, 0.87 0.97" stroke="#000000" stroke-width="1" fill="none"/></g><g transform="translate(140 201.6428571428571) rotate(0 96.5 13)"><text x="0" y="18" font-family="Virgil, Segoe UI Emoji" font-size="20px" fill="#000000" text-anchor="start" style="white-space: pre;" direction="ltr">Specific evaluations</text></g><g stroke-linecap="round"><g transform="translate(716 573.0821367151626) rotate(0 49.20581288874615 -71.62220274521476)"><path d="M-0.09 0.94 C16.72 -22.59, 83.39 -118.49, 100 -142.34 M-1.59 0.38 C15.13 -23.4, 82.36 -120.08, 99.06 -144.18" stroke="#000000" stroke-width="1" fill="none"/></g><g transform="translate(716 573.0821367151626) rotate(0 49.20581288874615 -71.62220274521476)"><path d="M92.97 -115.17 C94.36 -122.54, 96.33 -127.48, 98 -146.11 M91.45 -114.9 C94.42 -125.01, 95.36 -134.36, 99.68 -143.22" stroke="#000000" stroke-width="1" fill="none"/></g><g transform="translate(716 573.0821367151626) rotate(0 49.20581288874615 -71.62220274521476)"><path d="M76.11 -126.87 C81.27 -131.54, 87.12 -133.79, 98 -146.11 M74.59 -126.6 C82.85 -133.17, 89.11 -138.82, 99.68 -143.22" stroke="#000000" stroke-width="1" fill="none"/></g></g><g stroke-linecap="round" transform="translate(820 388.6428571428571) rotate(0 131 46.99999999999997)"><path d="M0.98 0.09 C53.61 -1.82, 105.27 -1.57, 262.45 -1.48 M0.47 -0.14 C98.97 0.86, 198.6 1.92, 262.69 -0.57 M261.95 0.81 C263.52 31.63, 261.46 63.06, 263.25 93.93 M262.15 -0.43 C261.95 32.58, 263.11 63.74, 262.56 93.78 M263.05 95.06 C171.65 94.41, 79.63 92.92, -0.04 94.3 M261.34 94.28 C202.57 94.98, 143.88 94.75, -0.26 93.95 M1.73 95.67 C-1.18 72.97, -0.69 48.42, 1.62 -1.84 M0.63 93.19 C-1.26 66.93, -1.44 40.77, 0.78 -0.44" stroke="#000000" stroke-width="1" fill="none"/></g><g transform="translate(834 415.6428571428571) rotate(0 113.5 26)"><text x="0" y="18" font-family="Virgil, Segoe UI Emoji" font-size="20px" fill="#000000" text-anchor="start" style="white-space: pre;" direction="ltr">Shapley values now</text><text x="0" y="44" font-family="Virgil, Segoe UI Emoji" font-size="20px" fill="#000000" text-anchor="start" style="white-space: pre;" direction="ltr">mainstream EA concept</text></g><g stroke-linecap="round"><g transform="translate(713.4651162790698 581.163015449996) rotate(0 45.77687357476867 0.5109662812512568)"><path d="M0.41 0.81 C15.51 0.9, 74.93 -0.08, 90.16 -0.03 M-0.84 0.19 C14.67 0.46, 77.01 0.66, 92.39 1.05" stroke="#000000" stroke-width="1" fill="none"/></g><g transform="translate(713.4651162790698 581.163015449996) rotate(0 45.77687357476867 0.5109662812512568)"><path d="M65.43 9.43 C70.12 9.49, 79.42 4.21, 90.75 0.64 M63.15 10.99 C70.32 7.84, 78.37 6.59, 92.47 1.37" stroke="#000000" stroke-width="1" fill="none"/></g><g transform="translate(713.4651162790698 581.163015449996) rotate(0 45.77687357476867 0.5109662812512568)"><path d="M65.69 -11.09 C70.22 -5.63, 79.45 -5.52, 90.75 0.64 M63.41 -9.53 C70.47 -7.52, 78.45 -3.62, 92.47 1.37" stroke="#000000" stroke-width="1" fill="none"/></g></g><g stroke-linecap="round" transform="translate(806 524.6428571428571) rotate(0 125 62.99999999999997)"><path d="M1.18 0.07 C85.89 0.64, 171.26 0.61, 250.23 -0.18 M0.2 -0.18 C93.56 -0.57, 187.67 -1, 250.21 -0.32 M248.22 1 C250.99 40.45, 248.23 82.78, 250.91 125.53 M250.82 0.15 C249.99 35.67, 251.33 71.01, 250.35 125.1 M250.75 126.34 C180.32 126.28, 109.01 125.86, -0.2 126.53 M249.85 126.24 C187.69 125.91, 127.22 124.66, -0.28 125.45 M0.85 127 C-1.17 91.78, 1.48 54.61, -0.69 -0.58 M0.49 126.8 C-1 95.29, -0.02 62.16, -0.05 -0.06" stroke="#000000" stroke-width="1" fill="none"/></g><g transform="translate(824 535.6428571428571) rotate(0 105.5 52)"><text x="0" y="18" font-family="Virgil, Segoe UI Emoji" font-size="20px" fill="#000000" text-anchor="start" style="white-space: pre;" direction="ltr">After the first</text><text x="0" y="44" font-family="Virgil, Segoe UI Emoji" font-size="20px" fill="#000000" text-anchor="start" style="white-space: pre;" direction="ltr">few evaluations,</text><text x="0" y="70" font-family="Virgil, Segoe UI Emoji" font-size="20px" fill="#000000" text-anchor="start" style="white-space: pre;" direction="ltr">demand for </text><text x="0" y="96" font-family="Virgil, Segoe UI Emoji" font-size="20px" fill="#000000" text-anchor="start" style="white-space: pre;" direction="ltr">evaluations increases</text></g><g stroke-linecap="round"><g transform="translate(306.2463151214067 172.6428571428571) rotate(0 50.486030021431844 -41.59705389954616)"><path d="M-0.71 -0.06 C16.05 -13.69, 84.42 -67.51, 101.68 -81.35 M1.12 -1.14 C17.62 -15.15, 83.77 -69.6, 100.7 -83.13" stroke="#000000" stroke-width="1" fill="none"/></g><g transform="translate(306.2463151214067 172.6428571428571) rotate(0 50.486030021431844 -41.59705389954616)"><path d="M85.2 -57.5 C92.31 -65.5, 95.45 -75.79, 100.6 -84.49 M86.23 -57.87 C88.08 -63.66, 93.33 -71.16, 100.59 -82.48" stroke="#000000" stroke-width="1" fill="none"/></g><g transform="translate(306.2463151214067 172.6428571428571) rotate(0 50.486030021431844 -41.59705389954616)"><path d="M72.25 -73.42 C84.48 -75.12, 92.68 -79.19, 100.6 -84.49 M73.28 -73.79 C78.5 -75.46, 87 -78.95, 100.59 -82.48" stroke="#000000" stroke-width="1" fill="none"/></g></g><g stroke-linecap="round" transform="translate(270 22.64285714285711) rotate(0 127 35)"><path d="M0.93 0.42 C60.66 -1.09, 122.93 -0.86, 253.99 -1.31 M0.13 -0.53 C79.41 2.65, 159.75 1.78, 253.42 -0.79 M255.06 -1.51 C254.02 17.31, 255.06 37.31, 255.03 68.68 M253.38 -0.87 C253.88 22.76, 253.87 47.52, 254.23 69.95 M253.27 69.91 C173.73 69.89, 97.41 70.87, 0.8 70.85 M253.83 69.5 C200.1 71.87, 145.97 72.53, 0.38 69.36 M-1.02 70.63 C-1.11 48.7, -1.47 26.6, 0.68 -0.44 M0.55 69.3 C-0.7 53.25, 0.24 35.97, 0.52 -0.99" stroke="#000000" stroke-width="1" fill="none"/></g><g transform="translate(276 45.64285714285711) rotate(0 117 13)"><text x="0" y="18" font-family="Virgil, Segoe UI Emoji" font-size="20px" fill="#000000" text-anchor="start" style="white-space: pre;" direction="ltr">Project-specific effects</text></g><g stroke-linecap="round"><g transform="translate(460.4957516133786 320.86149657920265) rotate(0 41.845073291659304 -37.763446075180546)"><path d="M-0.75 -0.99 C13.19 -13.39, 70.03 -62.51, 84.44 -74.74 M1.05 1.11 C14.73 -11.63, 69.24 -63.74, 83.31 -76.64" stroke="#000000" stroke-width="1" fill="none"/></g><g transform="translate(460.4957516133786 320.86149657920265) rotate(0 41.845073291659304 -37.763446075180546)"><path d="M68.13 -50.45 C75.53 -58.06, 81.17 -67.87, 81.6 -77.05 M70.6 -49.94 C73.93 -55.67, 76.14 -61.96, 83.38 -77.56" stroke="#000000" stroke-width="1" fill="none"/></g><g transform="translate(460.4957516133786 320.86149657920265) rotate(0 41.845073291659304 -37.763446075180546)"><path d="M54.09 -65.42 C66.6 -67.44, 77.39 -71.76, 81.6 -77.05 M56.55 -64.91 C63.39 -66.88, 69.05 -69.5, 83.38 -77.56" stroke="#000000" stroke-width="1" fill="none"/></g></g><g stroke-linecap="round" transform="translate(458 174.6428571428571) rotate(0 122 35)"><path d="M1.6 1.63 C61.19 1.16, 121.11 0.21, 243.39 -1.04 M0.08 -0.64 C65.92 2.12, 132.93 1.08, 244.35 -0.29 M244.6 1.63 C242.77 19.64, 241.53 43.77, 245.49 68.21 M243.84 0.68 C243.96 27.31, 245.15 53.37, 243.13 70.95 M243.94 68.55 C165.56 72.83, 89.03 70.97, -1.22 71.37 M244.56 69.29 C146.98 69.13, 49.96 69.01, -0.19 69.31 M-1.92 71.62 C-1.49 50.6, 1.69 27.11, -0.24 0.45 M-0.58 70.65 C-1.44 51.77, -0.93 32.75, -0.31 -0.62" stroke="#000000" stroke-width="1" fill="none"/></g><g transform="translate(488 185.6428571428571) rotate(0 95.5 26)"><text x="0" y="18" font-family="Virgil, Segoe UI Emoji" font-size="20px" fill="#000000" text-anchor="start" style="white-space: pre;" direction="ltr">Specific forecasting</text><text x="0" y="44" font-family="Virgil, Segoe UI Emoji" font-size="20px" fill="#000000" text-anchor="start" style="white-space: pre;" direction="ltr">systems</text></g><g stroke-linecap="round"><g transform="translate(544.7691820593504 167.41562121169903) rotate(0 -60.76399983073239 -36.24137256869696)"><path d="M0.13 0.39 C-20.01 -11.93, -100.64 -60.78, -121.05 -72.87 M-1.25 -0.46 C-21.48 -12.1, -101.29 -59.93, -121.66 -71.65" stroke="#000000" stroke-width="1" fill="none"/></g><g transform="translate(544.7691820593504 167.41562121169903) rotate(0 -60.76399983073239 -36.24137256869696)"><path d="M-91.52 -65.11 C-101.59 -68.82, -108.74 -70.74, -120.9 -73.15 M-92.51 -66.43 C-102.41 -68.94, -111.49 -70.69, -120.86 -72.02" stroke="#000000" stroke-width="1" fill="none"/></g><g transform="translate(544.7691820593504 167.41562121169903) rotate(0 -60.76399983073239 -36.24137256869696)"><path d="M-101.93 -47.43 C-109.19 -56.16, -113.4 -63.11, -120.9 -73.15 M-102.91 -48.75 C-109.39 -57.07, -114.99 -64.73, -120.86 -72.02" stroke="#000000" stroke-width="1" fill="none"/></g></g><g stroke-linecap="round"><g transform="translate(328 372.59749180869045) rotate(0 -63.63933735921049 -2.5829580038179643)"><path d="M-0.13 0.07 C-21.3 -0.32, -105.01 -2.7, -125.99 -3.27 M-1.65 -0.94 C-23.11 -1.62, -106.26 -5.07, -127.15 -5.24" stroke="#000000" stroke-width="1" fill="none"/></g><g transform="translate(328 372.59749180869045) rotate(0 -63.63933735921049 -2.5829580038179643)"><path d="M-98.58 -15.42 C-109.25 -11.8, -120.37 -7.98, -126.05 -3.53 M-98.62 -15.28 C-105.64 -12.62, -113.76 -10.29, -127.88 -5.52" stroke="#000000" stroke-width="1" fill="none"/></g><g transform="translate(328 372.59749180869045) rotate(0 -63.63933735921049 -2.5829580038179643)"><path d="M-99.13 5.1 C-109.43 0.8, -120.33 -3.29, -126.05 -3.53 M-99.18 5.24 C-106.02 2.65, -114 -0.27, -127.88 -5.52" stroke="#000000" stroke-width="1" fill="none"/></g></g><g stroke-linecap="round" transform="translate(10 320.6428571428571) rotate(0 93 46)"><path d="M1.33 -0.3 C45.08 1.92, 84.91 0.04, 185.95 0.42 M0 -0.29 C67 -0.44, 134.72 0.39, 186.26 -0.95 M185.18 1.34 C183.64 19.99, 186.78 41.33, 184.81 93.72 M185.89 0.19 C185.05 21.77, 184.8 43.51, 186.71 92.05 M185.15 91.95 C139.47 92.48, 94.82 92.07, 1.4 92.59 M185.95 91.69 C118.03 90.8, 47.25 91.56, 0.15 91.81 M1.89 91.27 C2.35 68.5, 1.63 45.46, 0.94 -0.55 M-0.98 91.36 C0.39 72.92, 0.61 52.85, -0.98 0.29" stroke="#000000" stroke-width="1" fill="none"/></g><g transform="translate(20 333.6428571428571) rotate(0 71 26)"><text x="0" y="18" font-family="Virgil, Segoe UI Emoji" font-size="20px" fill="#000000" text-anchor="start" style="white-space: pre;" direction="ltr">Scoring system</text><text x="0" y="44" font-family="Virgil, Segoe UI Emoji" font-size="20px" fill="#000000" text-anchor="start" style="white-space: pre;" direction="ltr">improvements</text></g><g stroke-linecap="round"><g transform="translate(716 586.6428571428571) rotate(0 43.42794320390095 74.92060830295085)"><path d="M-0.39 -1.06 C13.66 24.28, 70.72 125.54, 85.04 150.9 M1.61 0.99 C15.96 26.11, 73.42 124.53, 87.24 149.25" stroke="#000000" stroke-width="1" fill="none"/></g><g transform="translate(716 586.6428571428571) rotate(0 43.42794320390095 74.92060830295085)"><path d="M62.55 128.29 C73.96 136.22, 82.62 142.74, 87.12 149.58 M64 129.29 C71.24 136.72, 80.08 142.96, 88.03 148.72" stroke="#000000" stroke-width="1" fill="none"/></g><g transform="translate(716 586.6428571428571) rotate(0 43.42794320390095 74.92060830295085)"><path d="M80.36 118.09 C85.2 129.66, 87.39 139.89, 87.12 149.58 M81.81 119.08 C83.3 129.66, 86.38 139.2, 88.03 148.72" stroke="#000000" stroke-width="1" fill="none"/></g></g><g stroke-linecap="round"><g transform="translate(30 314.6428571428571) rotate(0 119.40873490841129 -127.44036478363444)"><path d="M0.6 -0.21 C5.38 -37.57, -10.98 -182.77, 28.42 -224.89 C67.82 -267, 202.15 -248.17, 236.99 -252.91 M-0.54 -1.36 C4.14 -38.54, -12.29 -181.6, 27.69 -223.81 C67.67 -266.03, 204.41 -249.39, 239.36 -254.67" stroke="#000000" stroke-width="1" fill="none"/></g><g transform="translate(30 314.6428571428571) rotate(0 119.40873490841129 -127.44036478363444)"><path d="M211.03 -243.18 C217.74 -248.7, 228.83 -250.93, 240.49 -254.38 M211.47 -243.71 C217.97 -246.6, 224.53 -249.13, 238.84 -255.32" stroke="#000000" stroke-width="1" fill="none"/></g><g transform="translate(30 314.6428571428571) rotate(0 119.40873490841129 -127.44036478363444)"><path d="M210.64 -263.7 C217.34 -263.51, 228.54 -260.03, 240.49 -254.38 M211.08 -264.22 C217.85 -262.28, 224.5 -259.97, 238.84 -255.32" stroke="#000000" stroke-width="1" fill="none"/></g></g><g stroke-linecap="round" transform="translate(806 698.6428571428571) rotate(0 132 48)"><path d="M1.46 0.72 C98.03 2.23, 199.4 3.36, 263.58 0.93 M-0.76 0.48 C100.25 0.02, 199.63 -0.23, 264.76 -0.45 M264.5 -1.91 C264.52 32.37, 262.85 62.72, 265.28 97.25 M263.62 0.41 C264.37 28.44, 264.14 57.8, 264.56 95.46 M262.72 94.47 C186.77 92.97, 110.84 95.36, -0.37 96.84 M263.6 96.47 C160.47 94.96, 57.47 94.6, 0.21 95.43 M-1.75 95.07 C1.05 65.15, -2.08 36.58, -1.82 -1.58 M0.68 95.45 C1.7 73.66, 1.14 51.72, -0.37 -0.74" stroke="#000000" stroke-width="1" fill="none"/></g><g transform="translate(822.0000000000001 715) rotate(0 115.99999999999994 26)"><text x="0" y="18" font-family="Virgil, Segoe UI Emoji" font-size="20px" fill="#000000" text-anchor="start" style="white-space: pre;" direction="ltr">Monte-Carlo simulations</text><text x="0" y="44" font-family="Virgil, Segoe UI Emoji" font-size="20px" fill="#000000" text-anchor="start" style="white-space: pre;" direction="ltr">now commonly used</text></g><g stroke-linecap="round"><g transform="translate(713 580.0232335029375) rotate(0 47.47034132384232 154.65012441492067)"><path d="M-0.15 -0.58 C15.96 50.61, 80.22 256.83, 96.63 308.27 M-1.69 1.73 C14.23 53.64, 78.78 258.62, 95.42 309.88" stroke="#000000" stroke-width="1" fill="none"/></g><g transform="translate(713 580.0232335029375) rotate(0 47.47034132384232 154.65012441492067)"><path d="M76.11 285.32 C82.97 295.13, 87.99 300.27, 96.65 309.11 M77.49 286.96 C82.25 292.49, 86.36 298.8, 96.06 309.98" stroke="#000000" stroke-width="1" fill="none"/></g><g transform="translate(713 580.0232335029375) rotate(0 47.47034132384232 154.65012441492067)"><path d="M95.67 279.08 C96.81 290.72, 96.06 297.69, 96.65 309.11 M97.04 280.72 C96.67 287.78, 95.65 295.73, 96.06 309.98" stroke="#000000" stroke-width="1" fill="none"/></g></g><g stroke-linecap="round" transform="translate(814.0000000000001 868) rotate(0 117.99999999999994 31)"><path d="M-0.49 0.83 C62.53 -1.53, 120.93 -0.15, 234.34 0.48 M-0.64 -0.35 C78.69 0.82, 155.45 0.39, 236.46 0.2 M236.57 0.98 C235.95 23.51, 237.22 47.05, 236 62.46 M235.11 -0.41 C235.96 23.01, 236.3 48.17, 235.09 62.34 M234.48 62.91 C171.74 61.22, 107.36 61.47, 0.81 62.54 M236.38 62.32 C144.07 61.97, 51.67 63.21, 0.02 62.23 M1.07 60.03 C-1.12 47.87, 0.76 35.44, -0.12 0.38 M-0.97 62.26 C-0.93 47.84, -0.88 33.46, 0.14 0.94" stroke="#000000" stroke-width="1" fill="none"/></g><g transform="translate(828.0000000000001 883) rotate(0 102.49999999999994 13)"><text x="0" y="18" font-family="Virgil, Segoe UI Emoji" font-size="20px" fill="#000000" text-anchor="start" style="white-space: pre;" direction="ltr">Theoretical research</text></g><g stroke-linecap="round"><g transform="translate(1052 894) rotate(0 39.71489714883728 0.31475127263922786)"><path d="M-0.07 0.33 C13.35 0.28, 67.47 -0.13, 80.99 -0.24 M-1.56 -0.53 C11.74 -0.41, 66.84 0.94, 80.57 1.16" stroke="#000000" stroke-width="1" fill="none"/></g><g transform="translate(1052 894) rotate(0 39.71489714883728 0.31475127263922786)"><path d="M52.73 12.49 C61.41 9.31, 70.91 4.76, 79.44 1.59 M51.2 10.21 C60.89 7.12, 68.28 4.71, 79.65 0.77" stroke="#000000" stroke-width="1" fill="none"/></g><g transform="translate(1052 894) rotate(0 39.71489714883728 0.31475127263922786)"><path d="M53.15 -8.02 C61.7 -4.24, 71.06 -1.81, 79.44 1.59 M51.62 -10.3 C61.18 -7.58, 68.44 -4.19, 79.65 0.77" stroke="#000000" stroke-width="1" fill="none"/></g></g><g stroke-linecap="round" transform="translate(1134 870) rotate(0 122 38)"><path d="M-0.85 1.14 C51.44 -1.05, 101.42 -2.49, 243.24 -0.77 M0.3 0.62 C96.86 1.13, 193.7 1.13, 244.15 -0.38 M242.79 1.35 C243.46 19.6, 243.35 40.37, 243.57 74.98 M243.31 -0.26 C243.89 15.19, 244.43 31.57, 244.79 76.08 M244.64 77.07 C182.26 75.9, 124.09 75.41, -0.99 75.99 M243.61 76.19 C166.57 75.31, 91.02 76.79, -0.6 76.31 M1.79 76.25 C-1.11 59.62, -0.67 44.62, 1.21 0.79 M-1 76.49 C-0.4 48.64, 0.97 20.38, -0.29 0.96" stroke="#000000" stroke-width="1" fill="none"/></g><g transform="translate(1156 887) rotate(0 80.5 13)"><text x="0" y="18" font-family="Virgil, Segoe UI Emoji" font-size="20px" fill="#000000" text-anchor="start" style="white-space: pre;" direction="ltr">Better concepts</text></g><g stroke-linecap="round"><g transform="translate(1260 949.135135135135) rotate(0 0.26409436867106706 43.20414851591943)"><path d="M0.58 1.12 C0.61 15.58, -0.59 71.8, -0.86 85.75 M-0.58 0.66 C-0.07 14.85, 1.08 69.65, 1.39 83.86" stroke="#000000" stroke-width="1" fill="none"/></g><g transform="translate(1260 949.135135135135) rotate(0 0.26409436867106706 43.20414851591943)"><path d="M-7.62 54.46 C-6.68 59.98, -5.92 69.45, 3.19 84.12 M-8.98 56.51 C-6.61 63.08, -4.87 68.61, 0.4 84.36" stroke="#000000" stroke-width="1" fill="none"/></g><g transform="translate(1260 949.135135135135) rotate(0 0.26409436867106706 43.20414851591943)"><path d="M12.9 54.02 C9.52 59.72, 5.98 69.29, 3.19 84.12 M11.53 56.06 C9.19 62.64, 6.21 68.27, 0.4 84.36" stroke="#000000" stroke-width="1" fill="none"/></g></g><g stroke-linecap="round" transform="translate(1138 1036) rotate(0 108 29)"><path d="M1.05 -0.5 C51.89 0.07, 101.01 -2.48, 215.27 -1.73 M-0.48 0.09 C78.98 1.8, 158.11 2, 216.33 -0.43 M215.06 1.13 C215.22 13.51, 216.44 26.01, 215.15 56.72 M215.75 -0.69 C216.89 15.25, 215.18 32.57, 216.68 57.24 M214.76 58.79 C168.97 54.73, 121.97 55.15, 1.29 56.48 M216.86 58.55 C142.85 57.66, 70.57 57.39, -0.8 58.77 M0.36 57.79 C0.84 44.64, 2.52 30.51, -0.16 -0.16 M0.9 57.69 C-0.69 39.88, -0.2 22.98, 0.69 -0.91" stroke="#000000" stroke-width="1" fill="none"/></g><g transform="translate(1154 1051) rotate(0 90.5 13)"><text x="0" y="18" font-family="Virgil, Segoe UI Emoji" font-size="20px" fill="#000000" text-anchor="start" style="white-space: pre;" direction="ltr">Clarity of thought</text></g><g stroke-linecap="round"><g transform="translate(490.0000000000001 1528) rotate(0 -0.5130298063338614 -48.196422655144715)"><path d="M0.69 -1.03 C0.57 -17.11, -0.17 -79.58, -0.48 -95.55 M-0.4 1.05 C-0.75 -15.48, -1.93 -81.26, -1.68 -97.44" stroke="#000000" stroke-width="1" fill="none"/></g><g transform="translate(490.0000000000001 1528) rotate(0 -0.5130298063338614 -48.196422655144715)"><path d="M6.97 -70.09 C5.87 -80.26, 0.34 -88.03, -1.27 -96.91 M8.37 -69.79 C5.2 -78.33, 2.22 -86.64, -1.65 -97.71" stroke="#000000" stroke-width="1" fill="none"/></g><g transform="translate(490.0000000000001 1528) rotate(0 -0.5130298063338614 -48.196422655144715)"><path d="M-13.55 -70.01 C-8.03 -80.33, -6.94 -88.12, -1.27 -96.91 M-12.15 -69.71 C-8.65 -78.39, -4.97 -86.73, -1.65 -97.71" stroke="#000000" stroke-width="1" fill="none"/></g></g><g stroke-linecap="round"><g transform="translate(539.6585365853659 1587.0193602429897) rotate(0 55.405220459142754 0.23656536864427835)"><path d="M0.04 -0.33 C18.69 -0.17, 93.47 1.54, 112.2 2.01 M-1.39 -1.54 C17.14 -1.21, 92.75 -0.12, 111.69 0.27" stroke="#000000" stroke-width="1" fill="none"/></g><g transform="translate(539.6585365853659 1587.0193602429897) rotate(0 55.405220459142754 0.23656536864427835)"><path d="M82.79 11.44 C93.75 8.65, 103.87 1.97, 110.17 1.46 M84.11 9.81 C90.32 7.07, 99.05 4.92, 111.67 0.49" stroke="#000000" stroke-width="1" fill="none"/></g><g transform="translate(539.6585365853659 1587.0193602429897) rotate(0 55.405220459142754 0.23656536864427835)"><path d="M83.14 -9.08 C94.17 -5.13, 104.17 -5.07, 110.17 1.46 M84.46 -10.7 C90.5 -8.06, 99.14 -4.82, 111.67 0.49" stroke="#000000" stroke-width="1" fill="none"/></g></g><g stroke-linecap="round"><g transform="translate(536.0000000000001 1528) rotate(0 38.90188233554363 -32.50670533136463)"><path d="M-0.91 -0.52 C12.34 -11.21, 65.52 -54.38, 78.71 -65.16 M0.81 1.83 C14.04 -9.11, 65.34 -55.34, 78.14 -66.84" stroke="#000000" stroke-width="1" fill="none"/></g><g transform="translate(536.0000000000001 1528) rotate(0 38.90188233554363 -32.50670533136463)"><path d="M63.17 -39.18 C68.94 -46.02, 72.11 -54.13, 77.71 -66.97 M63.56 -39.93 C67.36 -49.03, 72.07 -57.22, 78.08 -66.81" stroke="#000000" stroke-width="1" fill="none"/></g><g transform="translate(536.0000000000001 1528) rotate(0 38.90188233554363 -32.50670533136463)"><path d="M49.45 -54.44 C58.28 -57.63, 64.65 -62.19, 77.71 -66.97 M49.84 -55.19 C57.84 -59.7, 66.68 -63.3, 78.08 -66.81" stroke="#000000" stroke-width="1" fill="none"/></g></g><g stroke-linecap="round"><g transform="translate(536.0000000000001 1632) rotate(0 41.02674567401408 48.002566912612)"><path d="M-0.46 -0.22 C13.16 15.88, 68.78 80.03, 82.51 95.9 M1.5 -1.38 C14.94 14.98, 68.56 81.19, 81.83 97.38" stroke="#000000" stroke-width="1" fill="none"/></g><g transform="translate(536.0000000000001 1632) rotate(0 41.02674567401408 48.002566912612)"><path d="M55.71 82.85 C65.26 87.6, 73.18 94.52, 81.84 95.67 M55.6 82.63 C61.17 86.6, 68.43 89.43, 81.72 97.09" stroke="#000000" stroke-width="1" fill="none"/></g><g transform="translate(536.0000000000001 1632) rotate(0 41.02674567401408 48.002566912612)"><path d="M71.63 69.89 C75.26 79.33, 77.35 91.01, 81.84 95.67 M71.51 69.68 C73.48 76.38, 77.19 82.1, 81.72 97.09" stroke="#000000" stroke-width="1" fill="none"/></g></g><g stroke-linecap="round" transform="translate(628.0000000000001 1696) rotate(0 87 38)"><path d="M-0.32 -0.23 C55.87 1.07, 108.74 -1.34, 175.19 0.63 M-0.98 0.01 C55.33 -0.22, 111.1 0.8, 174.16 0.31 M173.91 0.11 C172.14 17.41, 174.82 30.19, 175.94 75.12 M174.94 0.36 C174.18 24.03, 173.61 47.81, 173.66 76.77 M175.26 77.06 C131.25 75.59, 87.04 75.94, -2 75.71 M174.75 75.32 C119.4 77.59, 67.34 77.04, -0.16 76.89 M1.2 75 C2.68 47.37, -0.56 23.07, -1.56 -1.53 M-0.87 75.45 C-1.17 59.11, -0.12 43.18, -0.53 -0.48" stroke="#000000" stroke-width="1" fill="none"/></g><g transform="translate(648.0000000000001 1719) rotate(0 44 13)"><text x="0" y="18" font-family="Virgil, Segoe UI Emoji" font-size="20px" fill="#000000" text-anchor="start" style="white-space: pre;" direction="ltr">Research</text></g><g stroke-linecap="round" transform="translate(656.0000000000001 1566) rotate(0 92 34)"><path d="M-1.22 -1.26 C68.17 -3.38, 131.03 -3.56, 185.69 -0.94 M-0.71 0.53 C38.7 0.45, 77.86 0.24, 184.19 -0.12 M184.19 -0.96 C183.72 27.42, 183.47 51.14, 183.12 68.36 M183.82 -0.82 C184.61 16.05, 184.55 32.78, 183.7 68.11 M182.44 69.82 C115.76 69.67, 43.62 68.97, 0.92 69.54 M184.46 67.05 C142.22 68.8, 100.66 68.07, 0.1 67.62 M-1.3 67.64 C-0.03 45.06, 1.98 18.49, 0.94 -0.75 M0.12 67.16 C0.13 42.23, -0.06 17.71, 0.1 -0.73" stroke="#000000" stroke-width="1" fill="none"/></g><g transform="translate(668.0000000000001 1577) rotate(0 57 13)"><text x="0" y="18" font-family="Virgil, Segoe UI Emoji" font-size="20px" fill="#000000" text-anchor="start" style="white-space: pre;" direction="ltr">Evaluations</text></g><g stroke-linecap="round" transform="translate(612.0000000000001 1432) rotate(0 104 39)"><path d="M-0.31 0.9 C60.69 1.1, 125.07 -0.27, 207.39 -0.23 M-0.87 0.39 C49.79 -2.21, 97.68 -1.72, 207.7 -0.72 M207.29 1.24 C206.65 16.63, 208.01 36.21, 207.05 76.95 M208 -0.4 C208.85 17.27, 208.14 33.95, 207.92 78.3 M207.32 77.16 C128.87 77.53, 48.71 76.85, 1.63 79.49 M207.46 78.46 C163.24 80.26, 119.14 78.76, 0.54 78.46 M-0.99 79.77 C-0.46 60.92, 1.26 44.99, 0.8 0.93 M0.35 78.8 C-0.28 61.13, 0.65 44.33, -0.05 0.71" stroke="#000000" stroke-width="1" fill="none"/></g><g transform="translate(636.0000000000001 1461) rotate(0 44.5 13)"><text x="0" y="18" font-family="Virgil, Segoe UI Emoji" font-size="20px" fill="#000000" text-anchor="start" style="white-space: pre;" direction="ltr">Software</text></g><g stroke-linecap="round" transform="translate(428.0000000000001 1364) rotate(0 80 34)"><path d="M1.33 0.8 C48.25 -3.02, 94.01 -0.67, 160.69 1.6 M-0.26 -0.05 C40.39 -0.92, 78.89 -1.29, 160.32 -0.24 M160.73 0.03 C160.24 14.72, 159.74 31.81, 159.3 67.54 M160.65 -0.44 C159.3 24.24, 159.09 47.79, 160.54 68.37 M159.24 67.06 C118.62 70.34, 76.33 68.56, -1.02 69.48 M160.73 68.23 C117.36 67.62, 73.33 67.09, 0.36 67.82 M-1.67 69.38 C-0.9 49.36, 0.6 31.52, -1.59 -1.52 M0.63 67.63 C-1.19 47.31, -0.58 25.11, -0.02 -0.12" stroke="#000000" stroke-width="1" fill="none"/></g><g transform="translate(446.0000000000001 1381) rotate(0 55.5 13)"><text x="0" y="18" font-family="Virgil, Segoe UI Emoji" font-size="20px" fill="#000000" text-anchor="start" style="white-space: pre;" direction="ltr">Forecasting</text></g><g stroke-linecap="round"><g transform="translate(528 65.70341507789131) rotate(0 370.6618721080073 18.81752697247363)"><path d="M0.7 -0.7 C123.93 5.61, 615.96 30.92, 739.35 37.37 M-0.39 1.55 C123.24 8.02, 618.18 32.08, 741.71 38.34" stroke="#000000" stroke-width="1" fill="none"/></g><g transform="translate(528 65.70341507789131) rotate(0 370.6618721080073 18.81752697247363)"><path d="M711.88 46.09 C719.79 46.07, 729.36 43.03, 739.75 36.47 M712.08 47.69 C720.12 45.12, 728.19 42.51, 741.71 38.38" stroke="#000000" stroke-width="1" fill="none"/></g><g transform="translate(528 65.70341507789131) rotate(0 370.6618721080073 18.81752697247363)"><path d="M712.89 25.59 C720.42 31.67, 729.68 34.72, 739.75 36.47 M713.09 27.2 C720.76 29.98, 728.57 32.73, 741.71 38.38" stroke="#000000" stroke-width="1" fill="none"/></g></g><g stroke-linecap="round" transform="translate(1270 28) rotate(0 69 73)"><path d="M96.54 7.11 C106.15 10.21, 116.62 18.24, 123.11 26.57 C129.61 34.89, 133.36 46.15, 135.49 57.05 C137.62 67.96, 138.22 81.36, 135.89 92 C133.55 102.64, 128.28 112.88, 121.48 120.89 C114.69 128.9, 104.8 135.98, 95.12 140.05 C85.44 144.13, 73.89 145.97, 63.4 145.32 C52.92 144.67, 41.11 141.85, 32.21 136.15 C23.31 130.45, 15.52 120.69, 10.03 111.11 C4.54 101.53, 0.27 89.64, -0.72 78.67 C-1.72 67.71, 0.2 55.54, 4.04 45.33 C7.89 35.12, 14.5 24.51, 22.34 17.42 C30.18 10.32, 40.87 5.55, 51.1 2.77 C61.33 -0.01, 74.26 -1.02, 83.74 0.75 C93.22 2.52, 102.55 9.7, 107.96 13.37 C113.38 17.03, 116.74 21.81, 116.21 22.76 M100.18 8.69 C109.15 12.29, 117.52 20.19, 123.5 28.86 C129.49 37.54, 134.34 49.61, 136.07 60.73 C137.79 71.85, 136.88 84.99, 133.86 95.59 C130.84 106.18, 124.72 116.4, 117.93 124.3 C111.14 132.21, 102.74 139.3, 93.13 143.01 C83.53 146.72, 70.51 148.15, 60.28 146.57 C50.06 144.98, 40.49 140.05, 31.78 133.52 C23.07 126.99, 13.51 116.77, 8.04 107.4 C2.57 98.03, -0.84 88.06, -1.03 77.3 C-1.23 66.55, 2.55 53.26, 6.87 42.85 C11.2 32.44, 17.02 21.52, 24.92 14.84 C32.82 8.17, 44.12 4.8, 54.29 2.83 C64.47 0.86, 78.17 1.97, 85.98 3.02 C93.79 4.07, 98.86 8.21, 101.16 9.15 C103.46 10.09, 100.68 7.99, 99.78 8.66" stroke="#000000" stroke-width="1" fill="none"/></g><g stroke-linecap="round" transform="translate(1185.6 1370.3999999999999) rotate(0 55.20000000000016 58.400000000000205)"><path d="M28.43 7.42 C35.71 2, 46.6 -0.75, 55.85 -0.71 C65.1 -0.66, 76.06 2.53, 83.95 7.68 C91.84 12.84, 98.69 21.72, 103.17 30.25 C107.66 38.78, 110.82 49.16, 110.86 58.85 C110.9 68.55, 108.3 79.85, 103.4 88.41 C98.51 96.96, 89.68 105.39, 81.48 110.18 C73.28 114.97, 63.38 117.38, 54.22 117.12 C45.06 116.85, 34.26 113.75, 26.52 108.59 C18.78 103.43, 12.07 94.55, 7.78 86.14 C3.48 77.74, 0.57 67.92, 0.73 58.16 C0.9 48.4, 4.2 36.1, 8.79 27.58 C13.38 19.05, 23.85 10.97, 28.27 7.02 C32.69 3.06, 32.77 4.48, 35.3 3.85 C37.83 3.23, 43.03 2.21, 43.44 3.27 M45.96 -0.48 C54.41 -2.89, 65.69 0.49, 74.55 4.1 C83.41 7.71, 93.1 13.74, 99.11 21.16 C105.13 28.58, 109.2 38.93, 110.64 48.63 C112.08 58.34, 111.13 70.1, 107.75 79.39 C104.37 88.67, 97.6 98.29, 90.35 104.34 C83.11 110.38, 73.35 114.27, 64.3 115.67 C55.25 117.07, 44.65 116.18, 36.05 112.74 C27.46 109.29, 18.42 102.8, 12.73 95.01 C7.05 87.22, 3.56 75.82, 1.93 66.01 C0.31 56.2, -0.03 45, 2.98 36.13 C5.98 27.27, 12.82 18.92, 19.97 12.83 C27.12 6.74, 41.38 1.54, 45.87 -0.4 C50.36 -2.35, 46.56 0.77, 46.91 1.17 C47.27 1.57, 47.75 1.09, 48.01 2" stroke="#000000" stroke-width="1" fill="none"/></g><g stroke-linecap="round"><g transform="translate(480.0000000000001 374.00923265559646) rotate(0 65.1087478083465 -1.322224898017268)"><path d="M-0.55 -0.9 C20.68 -1.29, 106.76 -1.92, 128.51 -2.33 M1.37 1.25 C22.86 0.53, 109.42 -3.35, 130.76 -3.89" stroke="#000000" stroke-width="1" fill="none"/></g><g transform="translate(480.0000000000001 374.00923265559646) rotate(0 65.1087478083465 -1.322224898017268)"><path d="M101.47 5.93 C115.79 3.94, 125.16 -2.61, 129.1 -4.36 M103.76 8.31 C113.92 2.7, 123.52 -2.06, 131.19 -4" stroke="#000000" stroke-width="1" fill="none"/></g><g transform="translate(480.0000000000001 374.00923265559646) rotate(0 65.1087478083465 -1.322224898017268)"><path d="M100.72 -14.57 C115.35 -8.4, 125.02 -6.79, 129.1 -4.36 M103.01 -12.2 C113.38 -9.98, 123.26 -6.9, 131.19 -4" stroke="#000000" stroke-width="1" fill="none"/></g></g><g stroke-linecap="round" transform="translate(624.0000000000001 294) rotate(0 60 52)"><path d="M0.13 -0.5 C44.48 -1.12, 90.46 -1.71, 120.94 1.96 M-0.43 -0.51 C29.41 -1.42, 57.45 -1.01, 119.63 -0.01 M118.07 1.01 C121.2 25.53, 121.14 50.53, 120.2 105.38 M120.93 -0.37 C120.18 21.54, 119.57 41.71, 120.85 104.24 M121.43 103.12 C77.92 103.05, 34.86 104.24, 1.27 103.91 M120.39 104.17 C87.3 104.16, 52.47 105.21, -0.48 103.37 M1.25 102.52 C-2.13 69.49, -0.86 35.88, -0.11 -1.68 M0.94 103.04 C0.93 66.93, -0.65 30.51, 0.42 -0.83" stroke="#000000" stroke-width="1" fill="none"/></g><g transform="translate(644.0000000000001 325) rotate(0 44.5 26)"><text x="0" y="18" font-family="Virgil, Segoe UI Emoji" font-size="20px" fill="#000000" text-anchor="start" style="white-space: pre;" direction="ltr">Software</text><text x="0" y="44" font-family="Virgil, Segoe UI Emoji" font-size="20px" fill="#000000" text-anchor="start" style="white-space: pre;" direction="ltr">tools</text></g><g stroke-linecap="round"><g transform="translate(472.0000000000001 420) rotate(0 39.439265037183674 52.11260989196133)"><path d="M-0.18 0.23 C13.33 17.61, 67.3 87.47, 80.62 104.92 M-1.74 -0.7 C11.71 16.3, 66.57 85.99, 79.99 103.28" stroke="#000000" stroke-width="1" fill="none"/></g><g transform="translate(472.0000000000001 420) rotate(0 39.439265037183674 52.11260989196133)"><path d="M54.92 88.44 C62.85 91.13, 69.56 94.24, 81.19 101.94 M55.06 87.53 C59.78 90.82, 65.47 94.03, 79.88 103.81" stroke="#000000" stroke-width="1" fill="none"/></g><g transform="translate(472.0000000000001 420) rotate(0 39.439265037183674 52.11260989196133)"><path d="M71.08 75.79 C74.83 81.79, 77.3 88.21, 81.19 101.94 M71.22 74.88 C72.46 81.1, 74.61 87.08, 79.88 103.81" stroke="#000000" stroke-width="1" fill="none"/></g></g><g stroke-linecap="round"><g transform="translate(1352 1072) rotate(0 49.33532983364046 -41.049467645441155)"><path d="M0.61 -0.6 C15.72 -2.04, 74.7 5, 90.61 -8.86 C106.53 -22.73, 95.36 -71.26, 96.1 -83.79 M-0.53 1.69 C14.49 -0.03, 74 3.62, 89.98 -10.39 C105.97 -24.4, 94.58 -70.27, 95.39 -82.37" stroke="#000000" stroke-width="1" fill="none"/></g><g transform="translate(1352 1072) rotate(0 49.33532983364046 -41.049467645441155)"><path d="M106.92 -54.09 C106.21 -62.85, 100.99 -72.54, 95.32 -81.3 M107.46 -54.54 C105.44 -61.17, 102.98 -65.87, 94.48 -82.66" stroke="#000000" stroke-width="1" fill="none"/></g><g transform="translate(1352 1072) rotate(0 49.33532983364046 -41.049467645441155)"><path d="M86.46 -52.41 C91.74 -61.77, 92.51 -71.95, 95.32 -81.3 M87.01 -52.86 C89.38 -59.81, 91.31 -64.88, 94.48 -82.66" stroke="#000000" stroke-width="1" fill="none"/></g></g><g stroke-linecap="round" transform="translate(1420 936) rotate(0 54 25)"><path d="M0.1 0.18 C27.21 -1.95, 53.36 -1.19, 107.34 0.48 M-0.9 -0.16 C34.34 -0.83, 68.09 -0.46, 107.64 0.47 M106.16 1.16 C108.85 14.53, 106.94 26.29, 109.93 48.71 M108.71 -0.08 C107.58 14.2, 108.48 27.28, 108.81 49.76 M106.51 50.3 C81.78 49.74, 55.91 51.86, -1.14 50.24 M108.55 50.54 C78.59 51.21, 49.12 49.72, 0.32 50.55 M-1.27 49.39 C1.7 39.34, -1.28 23.84, -1.73 -0.44 M-0.51 49.31 C-1.19 30.18, -0.86 11.5, -0.37 0.27" stroke="#000000" stroke-width="1" fill="none"/></g><g transform="translate(1440 947) rotate(0 8 13)"><text x="0" y="18" font-family="Virgil, Segoe UI Emoji" font-size="20px" fill="#000000" text-anchor="start" style="white-space: pre;" direction="ltr">...</text></g><g stroke-linecap="round"><g transform="translate(1481.0250804623884 930) rotate(0 -59.67866238864701 -378.0097954702626)"><path d="M0.23 0.22 C-19.69 -125.41, -99.72 -628.52, -119.59 -754.62 M-1.11 -0.72 C-20.64 -126.59, -97.54 -630.44, -117.34 -756.24" stroke="#000000" stroke-width="1" fill="none"/></g><g transform="translate(1481.0250804623884 930) rotate(0 -59.67866238864701 -378.0097954702626)"><path d="M-102.53 -731.42 C-105.31 -738.08, -112.47 -743.49, -117.42 -757.73 M-103.7 -728.99 C-107.88 -738.12, -112.16 -746.05, -116.75 -755.68" stroke="#000000" stroke-width="1" fill="none"/></g><g transform="translate(1481.0250804623884 930) rotate(0 -59.67866238864701 -378.0097954702626)"><path d="M-122.81 -728.28 C-119.64 -735.9, -120.88 -742.22, -117.42 -757.73 M-123.98 -725.86 C-121.76 -735.94, -119.65 -744.87, -116.75 -755.68" stroke="#000000" stroke-width="1" fill="none"/></g></g><g stroke-linecap="round"><g transform="translate(1245.5603087939953 868) rotate(0 51.679677256280456 -343.54464341196245)"><path d="M-0.61 -0.83 C16.26 -115.73, 84.7 -573.96, 101.84 -688.44 M1.27 1.35 C18.44 -113.49, 86.72 -572.61, 103.97 -687.22" stroke="#000000" stroke-width="1" fill="none"/></g><g transform="translate(1245.5603087939953 868) rotate(0 51.679677256280456 -343.54464341196245)"><path d="M108.56 -659.68 C106.58 -669.4, 105.71 -679.27, 104.51 -688.8 M108.97 -657.68 C109.05 -666.37, 105.69 -676.46, 104.19 -688.21" stroke="#000000" stroke-width="1" fill="none"/></g><g transform="translate(1245.5603087939953 868) rotate(0 51.679677256280456 -343.54464341196245)"><path d="M88.27 -662.71 C93.44 -671.27, 99.72 -680.07, 104.51 -688.8 M88.68 -660.72 C95.21 -668.42, 98.32 -677.54, 104.19 -688.21" stroke="#000000" stroke-width="1" fill="none"/></g></g><g stroke-linecap="round"><g transform="translate(1078 746.1914341089634) rotate(0 115.92879937177474 -287.07173884882576)"><path d="M0.1 1.12 C38.58 -94.67, 192.46 -479.19, 230.95 -575.27 M-1.31 0.66 C37.54 -94.96, 194.03 -478.4, 233.17 -574.27" stroke="#000000" stroke-width="1" fill="none"/></g><g transform="translate(1078 746.1914341089634) rotate(0 115.92879937177474 -287.07173884882576)"><path d="M233.89 -545.86 C230.79 -554.76, 231.06 -560.83, 232.71 -575.2 M231.32 -544.31 C231.95 -552.23, 233.46 -558.62, 234.05 -575.06" stroke="#000000" stroke-width="1" fill="none"/></g><g transform="translate(1078 746.1914341089634) rotate(0 115.92879937177474 -287.07173884882576)"><path d="M214.89 -553.62 C217.5 -560.19, 223.51 -563.91, 232.71 -575.2 M212.32 -552.07 C217.35 -558.28, 223.33 -562.85, 234.05 -575.06" stroke="#000000" stroke-width="1" fill="none"/></g></g><g stroke-linecap="round"><g transform="translate(1064 584) rotate(0 112.447199037671 -214.72950491764115)"><path d="M-0.73 -0.42 C36.74 -71.82, 187.94 -356.05, 225.62 -427.29 M1.09 -1.69 C38.29 -72.92, 187.27 -358.24, 224.48 -429.04" stroke="#000000" stroke-width="1" fill="none"/></g><g transform="translate(1064 584) rotate(0 112.447199037671 -214.72950491764115)"><path d="M219.78 -399.93 C222.88 -411.31, 223.39 -419.31, 223.79 -429.25 M220.37 -399.98 C220.95 -410.02, 222.22 -419.94, 224 -428.06" stroke="#000000" stroke-width="1" fill="none"/></g><g transform="translate(1064 584) rotate(0 112.447199037671 -214.72950491764115)"><path d="M201.6 -409.45 C211.51 -417.19, 218.75 -421.67, 223.79 -429.25 M202.19 -409.5 C209.28 -416.29, 216.98 -422.84, 224 -428.06" stroke="#000000" stroke-width="1" fill="none"/></g></g><g stroke-linecap="round"><g transform="translate(890.9106742594972 377.07397468881004) rotate(0 190.61246995764515 -126.0167213040677)"><path d="M0.67 0.87 C64.21 -41.36, 318.36 -210.79, 381.66 -252.91 M-0.43 0.28 C62.97 -41.84, 317.74 -209.31, 381.04 -251.67" stroke="#000000" stroke-width="1" fill="none"/></g><g transform="translate(890.9106742594972 377.07397468881004) rotate(0 190.61246995764515 -126.0167213040677)"><path d="M364.66 -226.49 C368.12 -236.68, 375.87 -244.15, 379.81 -251.66 M362.3 -227.91 C367.41 -233.55, 372.41 -239.73, 380.33 -252.46" stroke="#000000" stroke-width="1" fill="none"/></g><g transform="translate(890.9106742594972 377.07397468881004) rotate(0 190.61246995764515 -126.0167213040677)"><path d="M353.33 -243.59 C360.65 -248.12, 372.2 -249.86, 379.81 -251.66 M350.97 -245.02 C358.96 -246.32, 366.82 -248.18, 380.33 -252.46" stroke="#000000" stroke-width="1" fill="none"/></g></g><g transform="translate(1294 81.00000000000006) rotate(0 49.692307692307736 18.999999999999996)"><text x="0" y="26.999999999999993" font-family="Virgil, Segoe UI Emoji" font-size="29.23076923076922px" fill="#000000" text-anchor="start" style="white-space: pre;" direction="ltr">Impact</text></g><g transform="translate(1204.7999999999997 1412.8000000000006) rotate(0 39.753846153846325 15.200000000000045)"><text x="0" y="20.400000000000095" font-family="Virgil, Segoe UI Emoji" font-size="23.384615384615437px" fill="#000000" text-anchor="start" style="white-space: pre;" direction="ltr">Impact</text></g><g stroke-linecap="round" transform="translate(1258 10) rotate(0 83 90)"><path d="M68.24 0.73 C78.36 -2.69, 91.88 -0.89, 102.91 2.4 C113.95 5.7, 125.54 12.62, 134.47 20.5 C143.39 28.39, 151.31 38.7, 156.46 49.73 C161.61 60.77, 164.7 74.39, 165.37 86.71 C166.04 99.02, 164.46 112.38, 160.48 123.62 C156.49 134.86, 149.63 145.53, 141.44 154.15 C133.25 162.77, 122.02 171.14, 111.33 175.34 C100.65 179.55, 88.72 180.44, 77.32 179.37 C65.93 178.29, 53.12 174.78, 42.96 168.88 C32.81 162.97, 23.13 153.68, 16.39 143.93 C9.65 134.18, 5.01 122.39, 2.53 110.39 C0.05 98.39, -0.64 84.05, 1.52 71.93 C3.67 59.81, 8.77 47.69, 15.48 37.68 C22.2 27.66, 31.73 17.92, 41.8 11.84 C51.87 5.76, 69.07 3.02, 75.9 1.19 C82.73 -0.63, 82.75 -0.44, 82.79 0.88 M62.94 1.95 C72.87 -2.03, 86.84 -1.38, 97.92 1.2 C109.01 3.79, 119.99 10.62, 129.44 17.45 C138.89 24.27, 148.43 31.75, 154.63 42.17 C160.83 52.58, 165.33 67.28, 166.63 79.96 C167.93 92.64, 166.14 106.36, 162.44 118.26 C158.74 130.16, 151.77 142.5, 144.41 151.34 C137.05 160.19, 128.72 166.54, 118.26 171.34 C107.8 176.15, 93.3 180.22, 81.67 180.18 C70.05 180.15, 58.48 176.34, 48.53 171.14 C38.58 165.93, 29.49 158.05, 21.98 148.93 C14.48 139.81, 7.31 128.11, 3.51 116.39 C-0.3 104.67, -2.12 90.71, -0.83 78.6 C0.45 66.49, 5.05 54.37, 11.2 43.74 C17.35 33.11, 27.35 21.5, 36.06 14.81 C44.78 8.12, 59.06 5.55, 63.48 3.6 C67.89 1.65, 62.21 1.67, 62.55 3.11" stroke="#000000" stroke-width="1" fill="none"/></g><g stroke-linecap="round" transform="translate(1176 1356) rotate(0 66.4000000000002 72.00000000000023)"><path d="M96.94 7.78 C105.93 11.53, 115.14 21, 120.94 30.09 C126.74 39.17, 130.32 51.44, 131.74 62.29 C133.16 73.13, 132.59 84.87, 129.47 95.16 C126.35 105.45, 120.49 116.29, 113.02 124.05 C105.55 131.81, 94.5 138.57, 84.67 141.74 C74.83 144.9, 63.88 145.18, 53.99 143.04 C44.11 140.91, 33.16 135.8, 25.34 128.92 C17.51 122.04, 11.12 111.58, 7.03 101.75 C2.93 91.92, 0.37 80.92, 0.78 69.94 C1.19 58.96, 4.66 45.6, 9.48 35.88 C14.3 26.16, 21.48 17.5, 29.69 11.6 C37.9 5.7, 48.6 1.53, 58.75 0.46 C68.9 -0.61, 83.71 3.49, 90.58 5.18 C97.45 6.88, 98.28 9.52, 99.94 10.63 C101.61 11.74, 101.03 11.07, 100.59 11.83 M43.21 3.97 C52.09 -0.95, 64.1 -1.9, 74.2 -0.65 C84.31 0.59, 95.41 5.21, 103.82 11.43 C112.23 17.64, 119.74 27.16, 124.67 36.63 C129.6 46.1, 132.91 57.39, 133.4 68.24 C133.9 79.08, 131.83 91.68, 127.62 101.71 C123.41 111.73, 115.97 121.79, 108.14 128.36 C100.32 134.93, 90.75 139.2, 80.66 141.12 C70.57 143.05, 57.6 142.69, 47.61 139.91 C37.62 137.14, 28.09 131.89, 20.73 124.47 C13.36 117.05, 6.83 105.56, 3.42 95.41 C0.02 85.25, -1.17 74.17, 0.3 63.54 C1.77 52.91, 6.45 40.74, 12.26 31.64 C18.07 22.55, 30.03 13.64, 35.16 8.97 C40.28 4.3, 41.56 4.01, 43.02 3.63 C44.49 3.25, 43.66 5.52, 43.95 6.69" stroke="#000000" stroke-width="1" fill="none"/></g><g stroke-linecap="round"><g transform="translate(586.0000000000001 1400) rotate(0 171.39185160845523 1.9243213505184258)"><path d="M-0.76 -0.94 C56.32 -0.21, 286.4 4.19, 343.54 4.79 M1.04 1.18 C57.94 1.57, 286.35 2.88, 343 3.27" stroke="#000000" stroke-width="1" fill="none"/></g><g transform="translate(586.0000000000001 1400) rotate(0 171.39185160845523 1.9243213505184258)"><path d="M313.18 14.64 C327.53 8.49, 334.93 6.7, 344.91 2.92 M314.14 12.86 C320.68 11.64, 327.38 7.62, 343.7 2.7" stroke="#000000" stroke-width="1" fill="none"/></g><g transform="translate(586.0000000000001 1400) rotate(0 171.39185160845523 1.9243213505184258)"><path d="M313.3 -5.88 C327.68 -4.1, 335.03 2.03, 344.91 2.92 M314.27 -7.66 C320.78 -4.06, 327.45 -3.26, 343.7 2.7" stroke="#000000" stroke-width="1" fill="none"/></g></g><g stroke-linecap="round" transform="translate(932.0000000000001 1372) rotate(0 27 24)"><path d="M-1.78 1.22 C14.95 0.02, 26.16 0.74, 53.19 -0.01 M-0.99 -0.28 C20.92 -0.33, 41.9 -0.47, 54.75 0.63 M54.06 0.25 C52.46 14.51, 53.88 32.07, 55.03 49.88 M53.37 0.71 C53.72 16.48, 52.9 31.75, 53.6 48.42 M52.54 46.74 C38.7 47.36, 25.12 47.88, -1.72 47.41 M54.04 48.89 C39.69 47.57, 24.66 48.08, -0.87 47.24 M0.58 48.89 C-2.18 32.27, -1.95 13.65, 1.95 -0.06 M-0.16 48.06 C0.69 33.56, 0.76 19.68, 0 -0.57" stroke="#000000" stroke-width="1" fill="none"/></g><g transform="translate(951.0000000000001 1383) rotate(0 8 13)"><text x="8" y="18" font-family="Virgil, Segoe UI Emoji" font-size="20px" fill="#000000" text-anchor="middle" style="white-space: pre;" direction="ltr">...</text></g><g stroke-linecap="round" transform="translate(972 1452) rotate(0 27 24)"><path d="M-0.73 -0.87 C19.75 -2.05, 35.32 0.22, 55.81 -1.78 M-0.45 0.04 C20.97 -1.01, 39.13 -0.61, 54.15 -0.74 M55.13 0.54 C55.55 15.83, 51.84 27.89, 52.78 49.62 M53.13 0.15 C53.71 11.33, 54.15 22.98, 54.22 47.28 M54.55 48.67 C36.57 48.11, 23.82 49.67, 1.87 48.62 M53.32 47.37 C40.4 47.8, 26.12 48.07, -0.08 47.98 M-1.53 48.82 C2 35.01, 0.64 24.6, 1.7 -0.44 M-0.08 47.61 C0.91 37.23, 0.63 27.42, 0.33 -0.4" stroke="#000000" stroke-width="1" fill="none"/></g><g transform="translate(991 1463) rotate(0 8 13)"><text x="8" y="18" font-family="Virgil, Segoe UI Emoji" font-size="20px" fill="#000000" text-anchor="middle" style="white-space: pre;" direction="ltr">...</text></g><g stroke-linecap="round" transform="translate(936.0000000000001 1572) rotate(0 26.999999999999943 24)"><path d="M-0.79 1.41 C17.73 0.88, 33.28 -1.97, 54.68 1.18 M-0.36 0.45 C18.74 1.11, 36.87 -0.13, 53.05 -0.51 M52.08 0.88 C53.48 12.83, 53.36 21.33, 54.96 46.23 M54.77 -0.43 C54.46 11.75, 53.96 24.88, 53.05 48.56 M53.14 48.71 C36.62 49.37, 18.59 48.33, 0.14 46.86 M54.79 48.77 C42.82 47.82, 31.63 47.18, 0.61 48.37 M1.24 46.77 C-0.18 37.04, 2.06 22.17, -0.24 -1 M0.27 47.9 C-0.03 35.71, -0.5 23.2, -0.87 -0.39" stroke="#000000" stroke-width="1" fill="none"/></g><g transform="translate(955.0000000000001 1583) rotate(0 8 13)"><text x="8" y="18" font-family="Virgil, Segoe UI Emoji" font-size="20px" fill="#000000" text-anchor="middle" style="white-space: pre;" direction="ltr">...</text></g><g stroke-linecap="round" transform="translate(966 1702) rotate(0 27 24)"><path d="M1.06 -1.34 C12.28 0.56, 29.31 0.64, 55.46 -0.8 M0.89 0.44 C13.91 -1.23, 28.01 -0.91, 54.43 0.51 M55.44 -0.85 C52.75 10.75, 52.44 18.58, 52.25 49.08 M53.79 0.38 C54.74 17.15, 54.35 36.47, 53.16 47.75 M55.5 47.8 C40.59 48.2, 25.11 46.1, -1.83 47.37 M53.99 47.46 C32.9 48.47, 13.48 47.55, -0.64 47.8 M1.99 49.75 C0.36 30.38, -0.7 12.59, 1.53 -1.12 M0.53 47.87 C0.89 31.43, -0.34 17.09, 0.15 -0.84" stroke="#000000" stroke-width="1" fill="none"/></g><g transform="translate(985 1713) rotate(0 8 13)"><text x="8" y="18" font-family="Virgil, Segoe UI Emoji" font-size="20px" fill="#000000" text-anchor="middle" style="white-space: pre;" direction="ltr">...</text></g><g stroke-linecap="round"><g transform="translate(842.0000000000001 1598) rotate(0 46.53465969176028 0.06798096223735683)"><path d="M0.77 -0.82 C16.15 -0.68, 75.9 0.38, 91.11 0.59 M-0.28 1.36 C15.57 1.17, 78.09 -0.71, 93.35 -1.23" stroke="#000000" stroke-width="1" fill="none"/></g><g transform="translate(842.0000000000001 1598) rotate(0 46.53465969176028 0.06798096223735683)"><path d="M64.12 8.42 C72.21 7.5, 77.63 5.09, 94.69 0.09 M65.72 10.22 C72.03 7.27, 78.41 4.94, 93.41 -1.58" stroke="#000000" stroke-width="1" fill="none"/></g><g transform="translate(842.0000000000001 1598) rotate(0 46.53465969176028 0.06798096223735683)"><path d="M63.48 -12.09 C71.66 -8.8, 77.21 -7.01, 94.69 0.09 M65.08 -10.29 C71.34 -8.53, 77.87 -6.17, 93.41 -1.58" stroke="#000000" stroke-width="1" fill="none"/></g></g><g stroke-linecap="round"><g transform="translate(804.0000000000001 1731.2268458124197) rotate(0 78.31974783787041 0.27299146946120345)"><path d="M-0.08 -0.99 C25.81 -0.85, 129.89 -0.14, 156.06 -0.05 M-1.58 1.1 C24.6 1.53, 131.95 1.58, 158.22 1.52" stroke="#000000" stroke-width="1" fill="none"/></g><g transform="translate(804.0000000000001 1731.2268458124197) rotate(0 78.31974783787041 0.27299146946120345)"><path d="M128.39 10.04 C140.33 7.81, 149.87 6.16, 157.54 3.16 M129.76 11.68 C138.29 9.4, 145.83 5.19, 158.48 0.77" stroke="#000000" stroke-width="1" fill="none"/></g><g transform="translate(804.0000000000001 1731.2268458124197) rotate(0 78.31974783787041 0.27299146946120345)"><path d="M128.38 -10.48 C140.18 -5.33, 149.72 0.41, 157.54 3.16 M129.75 -8.84 C138.47 -5, 146.02 -3.09, 158.48 0.77" stroke="#000000" stroke-width="1" fill="none"/></g></g><g stroke-linecap="round"><g transform="translate(824.0000000000001 1478) rotate(0 73.10827309787271 -0.6009756739484828)"><path d="M-0.81 -0.61 C23.65 -1.09, 122.7 -2.7, 147.03 -2.89 M0.96 1.69 C25.33 1.34, 122.17 -1.49, 146.62 -1.82" stroke="#000000" stroke-width="1" fill="none"/></g><g transform="translate(824.0000000000001 1478) rotate(0 73.10827309787271 -0.6009756739484828)"><path d="M117.65 10.77 C126.23 4.34, 137.2 3.2, 147.79 -1.09 M119.49 8.78 C125.13 5.82, 131.12 4.31, 147.41 -1.64" stroke="#000000" stroke-width="1" fill="none"/></g><g transform="translate(824.0000000000001 1478) rotate(0 73.10827309787271 -0.6009756739484828)"><path d="M117.2 -9.74 C125.92 -9.53, 137.03 -4.02, 147.79 -1.09 M119.03 -11.74 C124.7 -10.36, 130.79 -7.54, 147.41 -1.64" stroke="#000000" stroke-width="1" fill="none"/></g></g><g stroke-linecap="round"><g transform="translate(988.0000000000001 1400) rotate(0 99.56894480884534 14.224899161746748)"><path d="M0.93 -0.35 C34.2 4.55, 166.47 23.91, 199.18 29.01 M-0.04 -1.58 C33.21 3.48, 165.56 24.48, 198.86 30.03" stroke="#000000" stroke-width="1" fill="none"/></g><g transform="translate(988.0000000000001 1400) rotate(0 99.56894480884534 14.224899161746748)"><path d="M168.8 37.62 C175.49 32.67, 185.31 31.01, 199.11 29.25 M169.68 35.53 C177.51 34.25, 187.6 32.81, 198.21 30.27" stroke="#000000" stroke-width="1" fill="none"/></g><g transform="translate(988.0000000000001 1400) rotate(0 99.56894480884534 14.224899161746748)"><path d="M172.08 17.37 C177.84 17.75, 186.8 21.4, 199.11 29.25 M172.96 15.28 C179.82 20.05, 188.92 24.67, 198.21 30.27" stroke="#000000" stroke-width="1" fill="none"/></g></g><g stroke-linecap="round"><g transform="translate(1032 1474) rotate(0 76.88719375431538 -10.670285442471481)"><path d="M-0.58 0.87 C25.21 -2.77, 128.63 -18.38, 154.36 -22.21 M1.31 0.28 C27.01 -3.15, 128.34 -17.26, 153.59 -20.78" stroke="#000000" stroke-width="1" fill="none"/></g><g transform="translate(1032 1474) rotate(0 76.88719375431538 -10.670285442471481)"><path d="M128.54 -6.14 C133.92 -10.81, 141.24 -15.65, 153.05 -19.24 M126.51 -6.18 C136.41 -11.59, 145.31 -17.7, 153.59 -21.7" stroke="#000000" stroke-width="1" fill="none"/></g><g transform="translate(1032 1474) rotate(0 76.88719375431538 -10.670285442471481)"><path d="M125.71 -26.46 C131.8 -25.65, 139.87 -25, 153.05 -19.24 M123.68 -26.51 C134.68 -24.54, 144.6 -23.29, 153.59 -21.7" stroke="#000000" stroke-width="1" fill="none"/></g></g><g stroke-linecap="round"><g transform="translate(992 1598) rotate(0 99.73516414463518 -63.19874017626978)"><path d="M-0.52 -0.86 C32.68 -21.78, 166.5 -104.79, 199.99 -125.72 M1.41 1.3 C34.38 -19.98, 165.95 -106.59, 199.04 -127.7" stroke="#000000" stroke-width="1" fill="none"/></g><g transform="translate(992 1598) rotate(0 99.73516414463518 -63.19874017626978)"><path d="M179.54 -103.76 C188.13 -111.73, 193.61 -122.99, 198.75 -127.61 M181.91 -103.23 C185.25 -108.66, 189.14 -115.3, 198.1 -128.48" stroke="#000000" stroke-width="1" fill="none"/></g><g transform="translate(992 1598) rotate(0 99.73516414463518 -63.19874017626978)"><path d="M168.37 -120.97 C181.04 -122.57, 190.62 -127.49, 198.75 -127.61 M170.73 -120.44 C176.51 -121.85, 182.96 -124.55, 198.1 -128.48" stroke="#000000" stroke-width="1" fill="none"/></g></g><g stroke-linecap="round"><g transform="translate(1022 1724) rotate(0 92.55639450967772 -123.84604981243615)"><path d="M1.07 0.76 C31.91 -40.59, 154.29 -207.09, 184.93 -248.45 M0.18 0.11 C30.95 -41.05, 153.73 -205.56, 184.48 -247.14" stroke="#000000" stroke-width="1" fill="none"/></g><g transform="translate(1022 1724) rotate(0 92.55639450967772 -123.84604981243615)"><path d="M177.15 -216.84 C177.73 -225.31, 182 -233.5, 183.85 -249.05 M175.26 -218.51 C179.98 -229.06, 182.23 -241.97, 185.37 -246.36" stroke="#000000" stroke-width="1" fill="none"/></g><g transform="translate(1022 1724) rotate(0 92.55639450967772 -123.84604981243615)"><path d="M160.68 -229.09 C166.02 -234.13, 175.09 -238.76, 183.85 -249.05 M158.79 -230.76 C170.05 -236.51, 178.77 -244.61, 185.37 -246.36" stroke="#000000" stroke-width="1" fill="none"/></g></g></svg>