<svg version="1.1" xmlns="http://www.w3.org/2000/svg" viewBox="0 0 2713.1907982998105 1614.9884599353254" width="2713.1907982998105" height="1614.9884599353254">
  <!-- svg-source:excalidraw -->
  
  <defs>
    <style>
      @font-face {
        font-family: "Virgil";
        src: url("https://excalidraw.com/Virgil.woff2");
      }
      @font-face {
        font-family: "Cascadia";
        src: url("https://excalidraw.com/Cascadia.woff2");
      }
    </style>
  </defs>
  <rect x="0" y="0" width="2713.1907982998105" height="1614.9884599353254" fill="#ffffff"></rect><g stroke-linecap="round" transform="translate(747.40873015873 769.9963964432617) rotate(0 83 53)"><path d="M81.28 1.08 C102.41 12.6, 122.54 25.11, 165.41 54.39 M82.03 -0.51 C115.11 19.99, 147.12 39.82, 166.48 53.29 M164.57 53.06 C143.9 67.7, 121.65 83.14, 81.01 105.07 M166.28 53.21 C137.62 71.33, 108.31 90.46, 83.65 105.69 M83.67 104.81 C54.08 87.96, 27.03 67.98, 1.53 52.56 M82.66 105.64 C62.81 92.92, 44.4 81.52, 0.6 53 M1.67 54.79 C27.83 34.06, 59.6 15.84, 83.84 -0.18 M0.24 52.35 C27.54 34.41, 55.28 17, 83.89 0.18" stroke="#862e9c" stroke-width="4" fill="none"></path></g><g transform="translate(774.40873015873 809.9963964432617) rotate(0 57 13)"><text x="0" y="18" font-family="Virgil, Segoe UI Emoji" font-size="20px" fill="#862e9c" text-anchor="start" style="white-space: pre;" direction="ltr">Evaluations</text></g><g stroke-linecap="round"><g transform="translate(931.5081104094722 820.5670778673234) rotate(0 30.677124934270182 -73.04866168369203)"><path d="M0.76 0.59 C10.6 -23.86, 49.67 -122.2, 59.52 -146.69 M-0.3 -0.14 C9.86 -24.47, 51.22 -121.45, 61.66 -145.64" stroke="#000000" stroke-width="1" fill="none"></path></g><g transform="translate(931.5081104094722 820.5670778673234) rotate(0 30.677124934270182 -73.04866168369203)"><path d="M60.98 -117.51 C59 -127.08, 60.18 -134.4, 63.51 -144.67 M59.04 -115.2 C60.89 -126.72, 62.28 -139.38, 61.58 -144.92" stroke="#000000" stroke-width="1" fill="none"></path></g><g transform="translate(931.5081104094722 820.5670778673234) rotate(0 30.677124934270182 -73.04866168369203)"><path d="M42.11 -125.59 C46.5 -132.55, 54.04 -137.15, 63.51 -144.67 M40.18 -123.28 C49.32 -131.77, 58.02 -141.31, 61.58 -144.92" stroke="#000000" stroke-width="1" fill="none"></path></g></g><g stroke-linecap="round"><g transform="translate(931.9486371030969 821.4793804484352) rotate(0 30.199440519320433 -27.383843305508094)"><path d="M0.1 -0.94 C9.94 -10.17, 49.48 -45.29, 59.33 -54.24 M-1.3 1.19 C8.9 -7.88, 51.19 -46.29, 61.7 -55.95" stroke="#000000" stroke-width="1" fill="none"></path></g><g transform="translate(931.9486371030969 821.4793804484352) rotate(0 30.199440519320433 -27.383843305508094)"><path d="M46.24 -30.46 C53.37 -39.31, 57.24 -46.2, 61.17 -55.45 M47.64 -30.33 C53.31 -38.34, 58.15 -49.04, 61.23 -55.23" stroke="#000000" stroke-width="1" fill="none"></path></g><g transform="translate(931.9486371030969 821.4793804484352) rotate(0 30.199440519320433 -27.383843305508094)"><path d="M32.4 -45.62 C44.19 -49.54, 52.58 -51.47, 61.17 -55.45 M33.81 -45.48 C44.38 -48.1, 54.22 -53.31, 61.23 -55.23" stroke="#000000" stroke-width="1" fill="none"></path></g></g><g stroke-linecap="round"><g transform="translate(933.0005279545154 824.8221012868627) rotate(0 104.15073206092728 178.37067201487417)"><path d="M-0.2 -0.79 C34.54 58.68, 173.2 296.65, 207.86 356.45 M-1.76 1.41 C33.4 61.04, 174.75 298.44, 210.06 357.53" stroke="#364fc7" stroke-width="4" fill="none"></path></g><g transform="translate(933.0005279545154 824.8221012868627) rotate(0 104.15073206092728 178.37067201487417)"><path d="M185.5 336.96 C191.14 341.59, 199.5 347.23, 209.33 355.88 M186.19 337.57 C195.09 344.74, 201.61 351.26, 210.41 357.72" stroke="#364fc7" stroke-width="4" fill="none"></path></g><g transform="translate(933.0005279545154 824.8221012868627) rotate(0 104.15073206092728 178.37067201487417)"><path d="M203.13 326.45 C204.32 333.68, 208.27 341.96, 209.33 355.88 M203.82 327.07 C207 337.77, 207.87 347.66, 210.41 357.72" stroke="#364fc7" stroke-width="4" fill="none"></path></g></g><g stroke-linecap="round"><g transform="translate(830.3046257670785 756.9480356822703) rotate(0 -97.48540572900811 -189.2168518801451)"><path d="M0.03 0.35 C-32.54 -62.82, -162.53 -315.53, -195.01 -378.78 M-1.41 -0.51 C-33.62 -63.49, -160.26 -314.29, -192.66 -377.2" stroke="#000000" stroke-width="2" fill="none"></path></g><g transform="translate(830.3046257670785 756.9480356822703) rotate(0 -97.48540572900811 -189.2168518801451)"><path d="M-170.15 -357.92 C-177.97 -364.43, -185.95 -369.36, -191.62 -378.28 M-171.31 -356.61 C-177.11 -364.33, -185.18 -369.47, -193.14 -376.86" stroke="#000000" stroke-width="2" fill="none"></path></g><g transform="translate(830.3046257670785 756.9480356822703) rotate(0 -97.48540572900811 -189.2168518801451)"><path d="M-188.43 -348.6 C-190.16 -358.23, -192.02 -366.28, -191.62 -378.28 M-189.59 -347.29 C-189.52 -357.92, -191.63 -366.1, -193.14 -376.86" stroke="#000000" stroke-width="2" fill="none"></path></g></g><g stroke-linecap="round" transform="translate(996.40873015873 747.9963964432617) rotate(0 99.5 23.5)"><path d="M0.51 0.35 C56.24 0.68, 111.73 2.64, 198.57 -1.97 M0.97 0.75 C56.65 -1.48, 113.21 -1.91, 198.34 0.12 M199.47 0.98 C200.31 14.03, 197.04 28.7, 198.93 47.2 M198.48 -0.93 C198.83 15.46, 200.2 31.16, 199.37 46.56 M198.73 46.3 C142.44 47.79, 82.18 46.87, -0.93 47.74 M198.77 46.23 C154.69 45.9, 110.89 44.5, -0.35 46.21 M0.77 47.44 C-0.29 31.55, -1.92 13.57, 1.25 1.24 M-0.78 46.49 C-1.26 33.21, -1.3 20.7, 0.06 0.73" stroke="#000000" stroke-width="1" fill="none"></path></g><g transform="translate(1007.40873015873 760.9963964432617) rotate(0 85 13)"><text x="0" y="18" font-family="Virgil, Segoe UI Emoji" font-size="20px" fill="#000000" text-anchor="start" style="white-space: pre;" direction="ltr">Better incentives</text></g><g stroke-linecap="round" transform="translate(1117.2420634920632 1006.1630631099284) rotate(0 115.83333333333337 34.5)"><path d="M-1.66 -1.58 C53.05 -0.43, 107.41 0.18, 230.51 0.38 M-0.66 -0.38 C74.52 -1.19, 150.52 0.31, 232.44 -0.08 M230.19 -0.48 C231.9 20.75, 233.74 46.46, 233.15 69.73 M231.74 -0.65 C232.88 13.96, 231.77 28.34, 231.61 69.4 M230.93 69.28 C182.73 68.3, 135.83 67.47, 1.43 68.7 M231.38 69.74 C161.02 70.33, 90.08 69.11, -0.58 69.71 M-0.95 70.4 C0.85 49.46, -0.8 27.27, 0.92 1.32 M0.7 69.96 C0.47 48.71, 0.86 27.64, 0.13 0.8" stroke="#000000" stroke-width="1" fill="none"></path></g><g transform="translate(1169.7420634920632 1151.6630631099283) rotate(0 126.5 26)"><text x="0" y="18" font-family="Virgil, Segoe UI Emoji" font-size="20px" fill="#364fc7" text-anchor="start" style="white-space: pre;" direction="ltr">Previously intuitive</text><text x="0" y="44" font-family="Virgil, Segoe UI Emoji" font-size="20px" fill="#364fc7" text-anchor="start" style="white-space: pre;" direction="ltr">decisions now more robust</text></g><g stroke-linecap="round" transform="translate(995.5714285714284 626.9646504115157) rotate(0 90.00000000000011 50.625)"><path d="M-0.47 1.21 C72.64 0.79, 142.81 0.55, 179.41 1.75 M0.57 -0.64 C58.33 0.8, 114.02 -0.42, 180.77 0.48 M178.08 -1.7 C179.28 34.25, 177.78 66.18, 179.64 99.26 M180.96 0.72 C180.88 36.75, 180.85 73.77, 180.38 100.98 M180.32 102.28 C114.6 98.98, 52.25 100.94, 0.33 102.81 M179.67 101.87 C108.73 100.55, 38.88 100.07, 0.52 100.29 M-0.6 101.37 C0.64 79.07, 1.42 54.48, -1.13 1.12 M0.15 100.41 C0.26 61.95, 1.11 22.44, 0.88 -0.86" stroke="#000000" stroke-width="1" fill="none"></path></g><g transform="translate(1466.154761904762 662.7146504115157) rotate(0 102 13)"><text x="0" y="18" font-family="Virgil, Segoe UI Emoji" font-size="20px" fill="#000000" text-anchor="start" style="white-space: pre;" direction="ltr">More rapid execution</text></g><g stroke-linecap="round" transform="translate(1146.4047619047615 1141.547983744849) rotate(0 139.375 37.49999999999994)"><path d="M1.44 0.31 C61.53 -1.77, 119.26 -0.89, 280.27 -1.48 M-0.57 0.4 C96.53 0.37, 192.68 0.17, 279.17 0.28 M277.27 0.63 C279.78 19.09, 280.09 40.75, 280.28 74.27 M278.36 -0.35 C277.5 26.17, 278.26 51.31, 278.88 74.63 M278.75 74.6 C187.02 77.72, 94.11 77.12, -0.23 75.39 M278.27 74.36 C210.11 76.97, 141.63 75.89, -0.31 74.45 M0.18 74.88 C0.47 46.13, 0.36 21.77, 0.34 0.5 M0.07 75.73 C-0.25 47.66, -0.85 18.93, -0.92 -0.54" stroke="#364fc7" stroke-width="4" fill="none"></path></g><g transform="translate(1136.8214285714284 1015.047983744849) rotate(0 77 26)"><text x="0" y="18" font-family="Virgil, Segoe UI Emoji" font-size="20px" fill="#000000" text-anchor="start" style="white-space: pre;" direction="ltr">Better common </text><text x="0" y="44" font-family="Virgil, Segoe UI Emoji" font-size="20px" fill="#000000" text-anchor="start" style="white-space: pre;" direction="ltr">knowledge</text></g><g stroke-linecap="round"><g transform="translate(1193.6018557947468 772.5209942875083) rotate(0 55.28398110121509 -0.6420853459563887)"><path d="M0.91 -1.18 C19.5 -1.24, 92.25 -0.53, 110.63 -0.45 M-0.06 0.81 C18.5 0.44, 91.46 -1.51, 109.98 -2.1" stroke="#000000" stroke-width="1" fill="none"></path></g><g transform="translate(1193.6018557947468 772.5209942875083) rotate(0 55.28398110121509 -0.6420853459563887)"><path d="M80.13 9.91 C89.87 8.22, 95.69 4.4, 110.85 -2.7 M82.21 8.1 C88.39 6.95, 96.46 3.23, 109.09 -2.52" stroke="#000000" stroke-width="1" fill="none"></path></g><g transform="translate(1193.6018557947468 772.5209942875083) rotate(0 55.28398110121509 -0.6420853459563887)"><path d="M79.54 -10.6 C89.4 -7.69, 95.35 -6.91, 110.85 -2.7 M81.62 -12.41 C87.81 -8.49, 96.02 -7.14, 109.09 -2.52" stroke="#000000" stroke-width="1" fill="none"></path></g></g><g stroke-linecap="round" transform="translate(1437.8333333333335 646.4884599353252) rotate(0 142.5 27.5)"><path d="M1.43 -0.23 C109.62 2.38, 215.65 1.5, 284.11 0.35 M0.34 -0.7 C62.3 -0.13, 123.92 1.06, 284.28 0.12 M284.94 -1.87 C286.1 14.04, 283.26 23.93, 285.17 56.81 M285.74 0.59 C285.26 15.02, 283.94 31.21, 284.8 55.73 M285.43 55.95 C193.74 53.32, 100.85 54.34, -1.46 53.48 M284.67 55.06 C213.78 56.84, 144.75 56.56, 0.23 55.68 M0.73 54.67 C-1.41 40.23, 0.49 23.04, -0.73 0.15 M-0.95 54.04 C-0.09 33.7, -0.12 13.06, 0.17 -0.43" stroke="#000000" stroke-width="1" fill="none"></path></g><g transform="translate(1010.3333333333333 649.9884599353252) rotate(0 72 26)"><text x="0" y="18" font-family="Virgil, Segoe UI Emoji" font-size="20px" fill="#000000" text-anchor="start" style="white-space: pre;" direction="ltr">Faster/Earlier</text><text x="0" y="44" font-family="Virgil, Segoe UI Emoji" font-size="20px" fill="#000000" text-anchor="start" style="white-space: pre;" direction="ltr">feedback loops</text></g><g stroke-linecap="round"><g transform="translate(1172.6622691826828 673.7638693719265) rotate(0 133.0971487012647 -0.8169992095426579)"><path d="M0.31 -1.18 C44.96 -1.66, 222.61 -2.4, 267.17 -2.45 M-0.98 0.82 C43.63 0.47, 221.81 -0.41, 266.57 -1.14" stroke="#000000" stroke-width="1" fill="none"></path></g><g transform="translate(1172.6622691826828 673.7638693719265) rotate(0 133.0971487012647 -0.8169992095426579)"><path d="M236.52 10.49 C244.46 8.77, 252.77 4.29, 266.18 -1.22 M237.72 10.25 C246.31 5.92, 255.49 4.08, 267.29 -1.81" stroke="#000000" stroke-width="1" fill="none"></path></g><g transform="translate(1172.6622691826828 673.7638693719265) rotate(0 133.0971487012647 -0.8169992095426579)"><path d="M236.32 -10.03 C244.38 -6.84, 252.74 -6.41, 266.18 -1.22 M237.52 -10.27 C246.04 -8.32, 255.28 -3.88, 267.29 -1.81" stroke="#000000" stroke-width="1" fill="none"></path></g></g><g stroke-linecap="round" transform="translate(1303.666666666667 743.9884599353252) rotate(0 138.33333333333326 29.16666666666667)"><path d="M-1.33 -0.74 C104.64 1.98, 208.31 3.01, 276.49 -1.47 M0.72 0.77 C98.2 0.15, 196 0.47, 276.43 0.67 M276.58 1.17 C274.47 14.49, 277.24 28.43, 277.46 56.36 M276.99 -0.91 C276.42 16.28, 277.4 30.5, 276.57 57.87 M277.14 56.96 C193.89 57.79, 113.48 56.86, 0.38 58.12 M276.57 58.91 C175.36 58.07, 72.92 58.22, -0.24 57.7 M-1.08 60 C-0.81 43.42, 0.2 24.99, -0.1 1.94 M-0.37 58.83 C-0.86 40.71, -0.8 22.41, -0.51 -0.93" stroke="#000000" stroke-width="1" fill="none"></path></g><g transform="translate(1320.3333333333335 763.3217932686584) rotate(0 122.5 13)"><text x="0" y="18" font-family="Virgil, Segoe UI Emoji" font-size="20px" fill="#000000" text-anchor="start" style="white-space: pre;" direction="ltr">More aligned optimization</text></g><g stroke-linecap="round"><g transform="translate(1354.181428235992 1029.6784005849095) rotate(0 14.73671816412741 -34.31183568604499)"><path d="M0.97 -0.86 C5.9 -12.41, 24.84 -57.08, 29.46 -68.39 M0.02 1.31 C4.84 -10.64, 24.12 -57.94, 28.74 -69.93" stroke="#000000" stroke-width="1" fill="none"></path></g><g transform="translate(1354.181428235992 1029.6784005849095) rotate(0 14.73671816412741 -34.31183568604499)"><path d="M26.42 -39.22 C29.7 -49.16, 29.41 -58.78, 29.44 -69.55 M28.82 -40.53 C27.72 -47.02, 27.94 -53.42, 28.11 -70.03" stroke="#000000" stroke-width="1" fill="none"></path></g><g transform="translate(1354.181428235992 1029.6784005849095) rotate(0 14.73671816412741 -34.31183568604499)"><path d="M7.35 -46.8 C16.18 -54.71, 21.39 -62.15, 29.44 -69.55 M9.75 -48.12 C12.72 -52.9, 16.96 -57.69, 28.11 -70.03" stroke="#000000" stroke-width="1" fill="none"></path></g></g><g stroke-linecap="round" transform="translate(1388.6666666666665 892.3217932686584) rotate(0 121.66666666666686 50.83333333333334)"><path d="M-0.54 0.91 C89.35 0.74, 175.37 -0.86, 243.06 -1.49 M0.4 -0.09 C91.78 -0.52, 184.14 -0.16, 242.85 0.74 M241.81 0.26 C241.13 21.27, 243.12 47.67, 242.47 102.34 M244.2 0.85 C242.34 23.69, 244.21 46.78, 242.4 100.94 M242.73 102.25 C170 101.96, 101.2 100.91, -0.64 103.23 M243.98 101.71 C187.39 101.23, 132.28 100.14, 0.8 102.49 M0.63 101.17 C-1.1 82.41, 1.79 59.82, 1.37 -1.78 M-0.93 101.86 C1.7 77.54, 0.26 53.63, 0.37 -0.5" stroke="#364fc7" stroke-width="4" fill="none"></path></g><g transform="translate(1403.6666666666665 904.9884599353252) rotate(0 107 39)"><text x="0" y="18" font-family="Virgil, Segoe UI Emoji" font-size="20px" fill="#364fc7" text-anchor="start" style="white-space: pre;" direction="ltr">Better execution</text><text x="0" y="44" font-family="Virgil, Segoe UI Emoji" font-size="20px" fill="#364fc7" text-anchor="start" style="white-space: pre;" direction="ltr">(doing what you are</text><text x="0" y="70" font-family="Virgil, Segoe UI Emoji" font-size="20px" fill="#364fc7" text-anchor="start" style="white-space: pre;" direction="ltr">already doing, better)</text></g><g stroke-linecap="round"><g transform="translate(1437.2382392822906 1176.8349744604452) rotate(0 35.44903936032301 -30.347570432582074)"><path d="M-0.24 -0.02 C11.33 -10.18, 57.46 -50.54, 69.01 -60.67 M1.83 -1.08 C13.8 -11.05, 59.55 -49.37, 71.14 -59.12" stroke="#364fc7" stroke-width="4" fill="none"></path></g><g transform="translate(1437.2382392822906 1176.8349744604452) rotate(0 35.44903936032301 -30.347570432582074)"><path d="M56.1 -34.98 C60.06 -41.71, 63.73 -45.36, 70.84 -59.03 M55.95 -33.25 C61.83 -42.75, 67.55 -51.08, 71.15 -59.14" stroke="#364fc7" stroke-width="4" fill="none"></path></g><g transform="translate(1437.2382392822906 1176.8349744604452) rotate(0 35.44903936032301 -30.347570432582074)"><path d="M42.91 -50.7 C50.36 -53.29, 57.48 -52.83, 70.84 -59.03 M42.76 -48.97 C53.22 -52.97, 63.67 -55.67, 71.15 -59.14" stroke="#364fc7" stroke-width="4" fill="none"></path></g></g><g stroke-linecap="round" transform="translate(571.1666666666666 298.9884599353251) rotate(0 52.5 36.666666666666686)"><path d="M1.44 0.77 C29.57 -0.74, 58.69 -0.86, 104.6 1.88 M-0.74 -0.69 C21.73 -1.09, 45.09 -0.08, 105.2 0.28 M104.24 0.7 C105.02 27.25, 103.3 53.99, 106.42 73.22 M105.83 0.05 C105.11 29.02, 104.47 57.35, 105.49 73.76 M106.44 74.78 C83.13 73.56, 58.3 71.71, 1.48 74.09 M105.49 73.61 C74.95 74.42, 45.35 74.04, 0.78 72.46 M-1.5 75.22 C0.13 52.54, -1.67 29.6, 1.53 -1.63 M-0.75 73.08 C-0.34 46.24, 0.42 21.3, 0.83 0.26" stroke="#000000" stroke-width="2" fill="none"></path></g><g stroke-linecap="round" transform="translate(977.8333333333333 285.6551266019918) rotate(0 52.5 36.666666666666686)"><path d="M1.1 0.22 C41.5 1.85, 81.18 -0.32, 104.59 -0.38 M0.51 0.47 C30.15 -0.78, 61.55 0.3, 105.28 -0.9 M105.86 0.31 C106.61 23.01, 106.52 46, 104.58 74.05 M105.73 -0.21 C104.07 20.98, 104.08 43.39, 104.81 73.17 M103.07 71.68 C78.76 75.36, 48.77 75.02, -0.63 73.58 M105.68 73.5 C67.1 72.15, 29.56 73.18, 0.61 72.69 M0.77 73.77 C0.62 46.04, -0.03 19.99, 0.43 0.67 M-0.44 72.47 C0.67 54.22, 1.5 36.58, -0.39 0.04" stroke="#000000" stroke-width="2" fill="none"></path></g><g transform="translate(616.9999999999999 319.1551266019918) rotate(0 8 13)"><text x="0" y="18" font-family="Virgil, Segoe UI Emoji" font-size="20px" fill="#000000" text-anchor="start" style="white-space: pre;" direction="ltr">...</text></g><g transform="translate(1023.6666666666665 305.8217932686585) rotate(0 8 13)"><text x="0" y="18" font-family="Virgil, Segoe UI Emoji" font-size="20px" fill="#000000" text-anchor="start" style="white-space: pre;" direction="ltr">...</text></g><g stroke-linecap="round" transform="translate(1507 1048.155126601992) rotate(0 183.33333333333348 54.166666666666686)"><path d="M0.31 0.86 C89.33 -2.82, 178.34 -2.72, 366.48 1.22 M-0.6 -0.6 C106.8 2.44, 213.19 2.02, 366.54 0.61 M367.57 1.28 C365.44 36.67, 364.68 70.56, 365 107.38 M367.44 -0.65 C368.01 27.62, 367.7 55.63, 367.66 108.89 M367.47 107.3 C224.65 109.25, 82.41 109.13, -0.03 108.96 M367.25 108.54 C270.64 109.6, 175.26 109.89, -0.18 108.59 M-0.02 106.84 C1.41 84.43, 0 55.26, -0.14 -1.45 M0.04 109.23 C-0.25 80.44, -0.64 54.81, -0.39 -0.55" stroke="#364fc7" stroke-width="4" fill="none"></path></g><g transform="translate(1518.6666666666665 1065.8217932686587) rotate(0 171.5 39)"><text x="0" y="18" font-family="Virgil, Segoe UI Emoji" font-size="20px" fill="#364fc7" text-anchor="start" style="white-space: pre;" direction="ltr">Better prioritization</text><text x="0" y="44" font-family="Virgil, Segoe UI Emoji" font-size="20px" fill="#364fc7" text-anchor="start" style="white-space: pre;" direction="ltr">(deciding where to allocate</text><text x="0" y="70" font-family="Virgil, Segoe UI Emoji" font-size="20px" fill="#364fc7" text-anchor="start" style="white-space: pre;" direction="ltr">funding, time, attention, resources)</text></g><g stroke-linecap="round"><g transform="translate(1353.1388038466375 1037.221255219748) rotate(0 76.55001898358285 32.94935384517163)"><path d="M-0.53 0.33 C25.17 11.4, 128.11 54.43, 153.63 65.46 M1.4 -0.54 C26.97 10.73, 127.06 55.03, 152.66 66.44" stroke="#000000" stroke-width="1" fill="none"></path></g><g transform="translate(1353.1388038466375 1037.221255219748) rotate(0 76.55001898358285 32.94935384517163)"><path d="M123.28 64.3 C128.55 63.25, 138.01 64.64, 150.73 66.86 M122.52 63.72 C129.73 65.09, 138.32 65.59, 153.18 66.6" stroke="#000000" stroke-width="1" fill="none"></path></g><g transform="translate(1353.1388038466375 1037.221255219748) rotate(0 76.55001898358285 32.94935384517163)"><path d="M131.61 45.54 C134.6 49.25, 141.93 55.42, 150.73 66.86 M130.84 44.96 C135.98 51.37, 142.36 56.86, 153.18 66.6" stroke="#000000" stroke-width="1" fill="none"></path></g></g><g stroke-linecap="round"><g transform="translate(1431.10742365352 1178.2797200684831) rotate(0 38.99988793963996 -87.04101849395576)"><path d="M0.52 0.86 C13.62 -28.45, 65.87 -145.76, 78.66 -174.94 M-0.66 0.26 C12.32 -29, 64.59 -144.99, 77.99 -173.88" stroke="#364fc7" stroke-width="4" fill="none"></path></g><g transform="translate(1431.10742365352 1178.2797200684831) rotate(0 38.99988793963996 -87.04101849395576)"><path d="M77.06 -143.1 C74.61 -154.55, 76.51 -161.49, 77.24 -174.74 M74.85 -143.94 C76.11 -151.27, 75.92 -156.91, 78.79 -174.63" stroke="#364fc7" stroke-width="4" fill="none"></path></g><g transform="translate(1431.10742365352 1178.2797200684831) rotate(0 38.99988793963996 -87.04101849395576)"><path d="M58.39 -151.61 C61.71 -160.55, 69.3 -164.88, 77.24 -174.74 M56.18 -152.46 C61.56 -157.97, 65.54 -161.71, 78.79 -174.63" stroke="#364fc7" stroke-width="4" fill="none"></path></g></g><g stroke-linecap="round" transform="translate(729.4999999999999 969.6134599353252) rotate(0 88.33333333333331 36.666666666666686)"><path d="M0.83 0.63 C53.26 -1.8, 109.49 -3.3, 175.06 1.11 M-0.07 -0.58 C37.02 -0.26, 73.11 -1.52, 176.46 -0.19 M177.13 -1.42 C174.8 18.54, 175.95 33.88, 178.18 73.33 M176.44 -0.8 C176.58 24.14, 177.41 47.52, 176.54 73.73 M175.75 71.35 C122.19 72.87, 68.46 72.69, 0.92 73.85 M175.83 72.53 C115.87 70.85, 55.2 72.49, 0.56 72.8 M1.43 72.53 C1.37 48.71, -2.17 22.44, 1.82 0.21 M-0.47 72.35 C0 57.36, -1.16 40.29, 0.69 0.35" stroke="#000000" stroke-width="1" fill="none"></path></g><g transform="translate(744.4999999999999 973.5301266019919) rotate(0 73.5 26)"><text x="0" y="18" font-family="Virgil, Segoe UI Emoji" font-size="20px" fill="#000000" text-anchor="start" style="white-space: pre;" direction="ltr">Experience &amp;</text><text x="0" y="44" font-family="Virgil, Segoe UI Emoji" font-size="20px" fill="#000000" text-anchor="start" style="white-space: pre;" direction="ltr">efficiency gains</text></g><g stroke-linecap="round"><g transform="translate(818.9617492910521 961.13543550341) rotate(0 -1.3847306259938819 -39.703716142902266)"><path d="M-0.22 -0.94 C-0.59 -14.44, -1.55 -67.58, -1.78 -80.59 M-1.8 1.18 C-2.32 -12.21, -2.49 -65.77, -2.55 -79.44" stroke="#000000" stroke-width="1" fill="none"></path></g><g transform="translate(818.9617492910521 961.13543550341) rotate(0 -1.3847306259938819 -39.703716142902266)"><path d="M6.26 -50.72 C3.03 -59.88, 2.27 -71.54, -1.31 -78.14 M8.72 -51.81 C6.3 -59.47, 3.03 -66.8, -2.46 -79.28" stroke="#000000" stroke-width="1" fill="none"></path></g><g transform="translate(818.9617492910521 961.13543550341) rotate(0 -1.3847306259938819 -39.703716142902266)"><path d="M-14.26 -50.63 C-10.64 -59.78, -4.56 -71.47, -1.31 -78.14 M-11.8 -51.73 C-8.9 -59.23, -6.84 -66.58, -2.46 -79.28" stroke="#000000" stroke-width="1" fill="none"></path></g></g><g stroke-linecap="round"><g transform="translate(839.0463262738316 886.6605685852635) rotate(0 0.8630753766773296 39.34666448111918)"><path d="M-0.84 -0.35 C-0.89 13.01, -0.11 66.76, 0.42 80.28 M0.92 -1.59 C1.17 11.39, 2.38 64.88, 2.57 78.27" stroke="#000000" stroke-width="1" fill="none"></path></g><g transform="translate(839.0463262738316 886.6605685852635) rotate(0 0.8630753766773296 39.34666448111918)"><path d="M-8.82 48.48 C-3.98 61.83, 0.67 72.08, 2.38 78.84 M-7.27 50.01 C-4.9 60.46, 0.9 71.37, 1.77 77.43" stroke="#000000" stroke-width="1" fill="none"></path></g><g transform="translate(839.0463262738316 886.6605685852635) rotate(0 0.8630753766773296 39.34666448111918)"><path d="M11.7 48.09 C9.19 61.44, 6.5 71.82, 2.38 78.84 M13.25 49.62 C7.62 60.16, 5.41 71.23, 1.77 77.43" stroke="#000000" stroke-width="1" fill="none"></path></g></g><g stroke-linecap="round"><g transform="translate(729.5069502525794 822.7651559598571) rotate(0 -34.63114564689431 -64.42065861935953)"><path d="M-0.34 1.02 C-12.14 -20.77, -58.44 -108.16, -70.42 -129.86 M1.68 0.51 C-10.23 -21.23, -59.02 -107.32, -70.94 -128.72" stroke="#364fc7" stroke-width="4" fill="none"></path></g><g transform="translate(729.5069502525794 822.7651559598571) rotate(0 -34.63114564689431 -64.42065861935953)"><path d="M-46.48 -107.83 C-57.09 -117.33, -63.47 -123.26, -70.76 -129.51 M-47.7 -109.51 C-52.93 -113.14, -59.29 -119.88, -70.01 -127.98" stroke="#364fc7" stroke-width="4" fill="none"></path></g><g transform="translate(729.5069502525794 822.7651559598571) rotate(0 -34.63114564689431 -64.42065861935953)"><path d="M-64.37 -97.77 C-69.16 -110.54, -69.63 -119.79, -70.76 -129.51 M-65.59 -99.45 C-66.21 -105.73, -68.01 -115.03, -70.01 -127.98" stroke="#364fc7" stroke-width="4" fill="none"></path></g></g><g stroke-linecap="round"><g transform="translate(730.0024768204146 823.920936065344) rotate(0 -27.874354437881095 -1.9703954580016898)"><path d="M-1.05 -0.44 C-10.32 -0.88, -46.57 -3.19, -55.82 -3.5 M0.6 -1.71 C-8.74 -1.88, -46.71 -1.59, -56.35 -1.98" stroke="#364fc7" stroke-width="4" fill="none"></path></g><g transform="translate(730.0024768204146 823.920936065344) rotate(0 -27.874354437881095 -1.9703954580016898)"><path d="M-30.31 -10 C-37.31 -8.77, -42.96 -6.46, -55.5 -3.22 M-29.2 -10.69 C-36.86 -8.66, -43.91 -6.48, -55.38 -1.92" stroke="#364fc7" stroke-width="4" fill="none"></path></g><g transform="translate(730.0024768204146 823.920936065344) rotate(0 -27.874354437881095 -1.9703954580016898)"><path d="M-30.56 9.4 C-37.36 5.1, -42.93 1.87, -55.5 -3.22 M-29.45 8.71 C-37.1 5.73, -44.08 2.89, -55.38 -1.92" stroke="#364fc7" stroke-width="4" fill="none"></path></g></g><g stroke-linecap="round" transform="translate(507.83333333333326 664.8217932686584) rotate(0 75 38.33333333333333)"><path d="M-1.7 0.06 C41.35 0.33, 83.76 -0.61, 150.19 0.79 M-0.37 0.18 C59.56 0.33, 119.4 1.35, 149.9 0.37 M148.88 -0.27 C149.08 22.56, 151.4 47.16, 150.35 76.88 M150.68 -0.61 C149.36 28.67, 149.68 55.39, 150.58 76.32 M151.43 76.6 C119.14 75.82, 89.2 74.25, 0.74 75.52 M149.42 77.44 C117.21 74.67, 84.23 76.26, 0.78 77.52 M0.89 74.9 C1.82 50.99, -0.51 21.06, -0.19 0.57 M-0.59 76.71 C-0.92 61.14, -1.05 44.96, -0.04 0.93" stroke="#364fc7" stroke-width="4" fill="none"></path></g><g transform="translate(517.8333333333333 677.4884599353252) rotate(0 65.5 26)"><text x="0" y="18" font-family="Virgil, Segoe UI Emoji" font-size="20px" fill="#364fc7" text-anchor="start" style="white-space: pre;" direction="ltr">Pissing people</text><text x="0" y="44" font-family="Virgil, Segoe UI Emoji" font-size="20px" fill="#364fc7" text-anchor="start" style="white-space: pre;" direction="ltr">off</text></g><g stroke-linecap="round" transform="translate(481.1666666666664 792.3217932686584) rotate(0 93.33333333333337 35.83333333333334)"><path d="M-1.08 -0.1 C43.05 0.31, 84.35 2.08, 185.64 1.26 M-0.42 0.45 C43.25 -0.24, 89.41 -0.15, 185.91 -0.36 M188.25 0.7 C187.81 20.03, 187.99 39.32, 185.04 71.98 M186.41 -0.8 C186.48 16.54, 187 34.53, 186.87 71.03 M185.91 71.41 C126.49 72.8, 68.69 73.14, -0.41 69.89 M185.99 70.88 C128.75 72.71, 71.08 73.96, -0.73 72.57 M0.58 72.87 C0.56 42.86, -1.55 18.41, 1.57 -0.87 M-0.53 72.01 C-1.46 54.59, -0.88 36.84, 0.82 -0.24" stroke="#364fc7" stroke-width="4" fill="none"></path></g><g stroke-linecap="round"><g transform="translate(1442.5 802.4884599353252) rotate(0 0.19967470273832078 43.617575885872355)"><path d="M-0.17 0.32 C0.26 14.95, 1.81 73.45, 2.11 87.79 M-1.71 -0.55 C-1.44 13.7, -0.01 71.22, 0.96 85.82" stroke="#000000" stroke-width="1" fill="none"></path></g><g transform="translate(1442.5 802.4884599353252) rotate(0 0.19967470273832078 43.617575885872355)"><path d="M-9.95 57.44 C-6.97 64.04, -6.36 72.52, 2.36 85.17 M-10.76 58.54 C-6.17 66.73, -4.4 75.51, 1.66 86.19" stroke="#000000" stroke-width="1" fill="none"></path></g><g transform="translate(1442.5 802.4884599353252) rotate(0 0.19967470273832078 43.617575885872355)"><path d="M10.55 56.57 C8.09 63.38, 3.27 72.08, 2.36 85.17 M9.75 57.67 C8.2 66.14, 3.82 75.19, 1.66 86.19" stroke="#000000" stroke-width="1" fill="none"></path></g></g><g stroke-linecap="round"><g transform="translate(1606.9762444971398 706.6006441111742) rotate(0 -0.9134640185053513 91.55583772427869)"><path d="M0.38 -0.89 C0.04 29.59, -1.46 151.89, -1.81 182.78 M-0.87 1.26 C-1.31 31.89, -2.04 153.76, -2.21 184" stroke="#000000" stroke-width="1" fill="none"></path></g><g transform="translate(1606.9762444971398 706.6006441111742) rotate(0 -0.9134640185053513 91.55583772427869)"><path d="M-13.78 157.49 C-10.08 166.71, -4.04 175.05, -0.97 185.82 M-12.36 156.37 C-9.36 165.63, -4.25 176.49, -2.92 184.47" stroke="#000000" stroke-width="1" fill="none"></path></g><g transform="translate(1606.9762444971398 706.6006441111742) rotate(0 -0.9134640185053513 91.55583772427869)"><path d="M6.74 157.61 C3.83 166.86, 3.26 175.16, -0.97 185.82 M8.16 156.49 C3.82 165.52, 1.6 176.33, -2.92 184.47" stroke="#000000" stroke-width="1" fill="none"></path></g></g><g stroke-linecap="round"><g transform="translate(1635 942.5477682705266) rotate(0 163.40551778843985 23.185096061760788)"><path d="M-0.28 0.14 C54.19 8.1, 272.44 39.55, 327.09 47.2 M1.77 -0.83 C56.07 6.82, 271.98 37.36, 326.22 45.35" stroke="#364fc7" stroke-width="4" fill="none"></path></g><g transform="translate(1635 942.5477682705266) rotate(0 163.40551778843985 23.185096061760788)"><path d="M297.08 51.71 C307.22 50.66, 314.85 46.1, 324.82 44.62 M297.13 51.63 C306.74 48.25, 318.34 47.14, 326.93 45.15" stroke="#364fc7" stroke-width="4" fill="none"></path></g><g transform="translate(1635 942.5477682705266) rotate(0 163.40551778843985 23.185096061760788)"><path d="M300.01 31.4 C309.1 36.91, 315.79 38.93, 324.82 44.62 M300.06 31.32 C308.72 35.19, 319.28 41.32, 326.93 45.15" stroke="#364fc7" stroke-width="4" fill="none"></path></g></g><g stroke-linecap="round"><g transform="translate(1876.666666666667 1077.5793265361904) rotate(0 43.87161592148243 -23.572643508847023)"><path d="M0.11 0.9 C14.75 -6.67, 74.32 -38.28, 89.03 -46.5 M-1.29 0.32 C13.05 -7.46, 72.52 -40.06, 87.85 -48.04" stroke="#000000" stroke-width="1" fill="none"></path></g><g transform="translate(1876.666666666667 1077.5793265361904) rotate(0 43.87161592148243 -23.572643508847023)"><path d="M69.35 -26.43 C77.87 -36.41, 82.58 -45.14, 88.38 -48.05 M68.84 -26.13 C76.03 -33.92, 81.59 -41.69, 88.81 -48.2" stroke="#000000" stroke-width="1" fill="none"></path></g><g transform="translate(1876.666666666667 1077.5793265361904) rotate(0 43.87161592148243 -23.572643508847023)"><path d="M59.65 -44.51 C71.86 -47.31, 80.43 -48.85, 88.38 -48.05 M59.14 -44.22 C69.73 -45.4, 78.8 -46.61, 88.81 -48.2" stroke="#000000" stroke-width="1" fill="none"></path></g></g><g stroke-linecap="round" transform="translate(125 794.9884599353252) rotate(0 58.75 57.5)"><path d="M71.63 0.76 C80.93 1.9, 91.6 8.08, 98.74 14.53 C105.88 20.99, 111.54 30.3, 114.46 39.49 C117.38 48.67, 118.24 60.47, 116.26 69.66 C114.28 78.84, 109.1 87.69, 102.6 94.58 C96.1 101.48, 86.25 107.7, 77.28 111.03 C68.31 114.36, 58.19 116.01, 48.79 114.57 C39.39 113.13, 28.55 108.61, 20.86 102.39 C13.18 96.17, 5.95 86.25, 2.68 77.24 C-0.59 68.23, -0.39 57.64, 1.26 48.32 C2.9 39.01, 6.51 28.69, 12.56 21.38 C18.6 14.06, 28.41 8.04, 37.51 4.45 C46.6 0.86, 61.01 0.13, 67.11 -0.16 C73.21 -0.45, 72.62 1.88, 74.12 2.71 C75.62 3.55, 76.34 3.95, 76.1 4.85 M37.25 4.39 C45.56 -0.23, 56.19 -1.93, 65.62 -0.6 C75.05 0.72, 86.1 6.71, 93.84 12.34 C101.59 17.98, 108.31 24.71, 112.1 33.21 C115.9 41.71, 117.37 53.82, 116.6 63.34 C115.83 72.86, 113.12 82.81, 107.49 90.33 C101.86 97.86, 91.5 104.38, 82.83 108.47 C74.16 112.56, 64.76 115.42, 55.49 114.9 C46.23 114.37, 35.27 110.51, 27.24 105.32 C19.22 100.13, 11.68 92.43, 7.34 83.75 C3.01 75.07, 0.99 62.74, 1.24 53.23 C1.49 43.72, 3.6 34.33, 8.86 26.69 C14.11 19.04, 28.3 11.18, 32.78 7.37 C37.26 3.57, 35.1 3.99, 35.72 3.86 C36.35 3.73, 35.93 5.67, 36.53 6.58" stroke="#c92a2a" stroke-width="2" fill="none"></path></g><g transform="translate(147.5 812.6551266019917) rotate(0 40.5 39)"><text x="0" y="18" font-family="Virgil, Segoe UI Emoji" font-size="20px" fill="#c92a2a" text-anchor="start" style="white-space: pre;" direction="ltr">Zero or</text><text x="0" y="44" font-family="Virgil, Segoe UI Emoji" font-size="20px" fill="#c92a2a" text-anchor="start" style="white-space: pre;" direction="ltr">negative</text><text x="0" y="70" font-family="Virgil, Segoe UI Emoji" font-size="20px" fill="#c92a2a" text-anchor="start" style="white-space: pre;" direction="ltr">impact</text></g><g stroke-linecap="round" transform="translate(115 779.9884599353252) rotate(0 70 72.5)"><path d="M82.67 1.75 C92.46 2.42, 103.62 7.54, 112.07 14 C120.51 20.47, 128.67 30.59, 133.34 40.53 C138.02 50.48, 140.24 62.63, 140.13 73.65 C140.01 84.67, 137.37 96.99, 132.64 106.63 C127.91 116.27, 120.46 125.14, 111.74 131.49 C103.02 137.83, 90.93 142.83, 80.32 144.68 C69.71 146.52, 57.81 145.97, 48.08 142.54 C38.34 139.12, 29.23 132, 21.92 124.12 C14.61 116.25, 7.65 105.61, 4.21 95.29 C0.77 84.97, -0.07 73.05, 1.29 62.22 C2.65 51.39, 6.39 39.19, 12.39 30.32 C18.39 21.45, 27.93 13.97, 37.29 8.99 C46.65 4, 60.07 1.43, 68.57 0.41 C77.07 -0.62, 84.02 1.75, 88.29 2.86 C92.57 3.97, 94.36 6.02, 94.2 7.05 M83.33 2.02 C93.34 3.04, 104.77 9.02, 112.84 15.27 C120.9 21.51, 126.97 29.64, 131.71 39.49 C136.46 49.35, 141.22 63.54, 141.3 74.4 C141.38 85.26, 137.08 95.22, 132.19 104.65 C127.31 114.08, 120.47 124.37, 111.97 130.98 C103.47 137.59, 91.88 142.55, 81.18 144.3 C70.49 146.06, 57.96 144.61, 47.8 141.51 C37.63 138.41, 27.64 133.17, 20.18 125.68 C12.72 118.2, 6.48 107.29, 3.01 96.61 C-0.45 85.93, -2.34 72.57, -0.61 61.62 C1.12 50.67, 7.4 39.56, 13.39 30.9 C19.39 22.25, 26.46 14.94, 35.35 9.66 C44.23 4.38, 58.6 0.45, 66.69 -0.78 C74.78 -2, 81.03 1.58, 83.87 2.32 C86.72 3.06, 84.38 2.77, 83.75 3.66" stroke="#c92a2a" stroke-width="2" fill="none"></path></g><g stroke-linecap="round"><g transform="translate(502.84715874088613 694.4199958097593) rotate(0 -124.54903380131616 63.17217889856691)"><path d="M-0.64 -0.7 C-42.01 20.42, -207.83 104.79, -249.1 126.06 M1.23 1.54 C-40.28 22.83, -208.64 105.95, -250.32 127.05" stroke="#364fc7" stroke-width="4" fill="none"></path></g><g transform="translate(502.84715874088613 694.4199958097593) rotate(0 -124.54903380131616 63.17217889856691)"><path d="M-230.86 104.41 C-236.27 110.66, -239.54 114.94, -252.27 128.69 M-228.99 104.87 C-236.01 112.34, -242.2 117.7, -249.47 128.03" stroke="#364fc7" stroke-width="4" fill="none"></path></g><g transform="translate(502.84715874088613 694.4199958097593) rotate(0 -124.54903380131616 63.17217889856691)"><path d="M-221.69 122.77 C-229.09 124.78, -234.46 124.87, -252.27 128.69 M-219.83 123.23 C-229.56 125.06, -238.57 124.78, -249.47 128.03" stroke="#364fc7" stroke-width="4" fill="none"></path></g></g><g stroke-linecap="round"><g transform="translate(475.42094254283035 836.7062905092375) rotate(0 -108.72323578242423 7.372444015889414)"><path d="M0.92 -0.23 C-35.46 2.38, -182.09 13.56, -218.36 16.14 M-0.06 -1.39 C-36.03 0.8, -179.84 11.28, -215.99 14.22" stroke="#364fc7" stroke-width="4" fill="none"></path></g><g transform="translate(475.42094254283035 836.7062905092375) rotate(0 -108.72323578242423 7.372444015889414)"><path d="M-189.04 0.78 C-195.9 7.37, -205.37 10.15, -215.36 15.61 M-189.58 2.18 C-198.84 6.27, -207.26 11.04, -216.06 13.24" stroke="#364fc7" stroke-width="4" fill="none"></path></g><g transform="translate(475.42094254283035 836.7062905092375) rotate(0 -108.72323578242423 7.372444015889414)"><path d="M-187.48 21.24 C-194.87 21.89, -204.8 18.73, -215.36 15.61 M-188.02 22.64 C-197.64 19.93, -206.58 17.89, -216.06 13.24" stroke="#364fc7" stroke-width="4" fill="none"></path></g></g><g stroke-linecap="round"><g transform="translate(729.9069089695371 824.1461432750383) rotate(0 -48.32684900278667 126.32551075477105)"><path d="M-0.74 -0.31 C-17.02 41.87, -81.71 210.46, -97.73 252.88 M1.08 -1.52 C-14.81 40.85, -78.9 211.87, -95.33 254.17" stroke="#000000" stroke-width="1" fill="none"></path></g><g transform="translate(729.9069089695371 824.1461432750383) rotate(0 -48.32684900278667 126.32551075477105)"><path d="M-95.41 223.21 C-95.85 233.61, -93.81 243.28, -96.94 255.29 M-94.29 224.47 C-95.65 234.34, -95.22 245.3, -95.99 255.11" stroke="#000000" stroke-width="1" fill="none"></path></g><g transform="translate(729.9069089695371 824.1461432750383) rotate(0 -48.32684900278667 126.32551075477105)"><path d="M-76.23 230.51 C-82.39 238.61, -86.09 246.09, -96.94 255.29 M-75.11 231.77 C-83.2 238.98, -89.42 247.4, -95.99 255.11" stroke="#000000" stroke-width="1" fill="none"></path></g></g><g stroke-linecap="round" transform="translate(434.16666666666663 1038.3217932686584) rotate(0 98.75 36.25)"><path d="M-1.72 -1.38 C46.42 0.59, 90.37 0.02, 197.21 -0.36 M0.11 -0.17 C61.48 2.05, 124.4 0.51, 196.68 0.91 M195.84 1.06 C196.88 14.57, 198.51 30.67, 198.03 71.47 M196.59 -0.33 C197.42 15.32, 196.54 29.85, 198.2 71.73 M196.14 71.71 C158.87 73.45, 117.06 73.67, -0.22 71.5 M196.96 72.01 C143.04 71.3, 89.39 71.48, -0.76 71.78 M0.86 70.51 C-1.04 48.83, 0.5 24.65, -1.11 -0.86 M-0.49 71.7 C-0.35 54.28, 0.19 36.87, -0.43 -0.71" stroke="#000000" stroke-width="1" fill="none"></path></g><g transform="translate(446.66666666666663 1044.3217932686584) rotate(0 71 26)"><text x="0" y="18" font-family="Virgil, Segoe UI Emoji" font-size="20px" fill="#000000" text-anchor="start" style="white-space: pre;" direction="ltr">Opportunity</text><text x="0" y="44" font-family="Virgil, Segoe UI Emoji" font-size="20px" fill="#000000" text-anchor="start" style="white-space: pre;" direction="ltr">costs too high</text></g><g stroke-linecap="round"><g transform="translate(426.66666666666663 1056.5217181428065) rotate(0 -93.07629264694866 -77.20072548442434)"><path d="M-0.64 0.25 C-31.68 -25.44, -155.56 -128.89, -186.93 -154.65 M1.23 -0.67 C-29.83 -26.16, -156.1 -128.02, -187.38 -153.42" stroke="#000000" stroke-width="1" fill="none"></path></g><g transform="translate(426.66666666666663 1056.5217181428065) rotate(0 -93.07629264694866 -77.20072548442434)"><path d="M-158.6 -142.09 C-166.89 -147.81, -173.25 -149.23, -186.71 -153.09 M-158.9 -144.41 C-166.32 -145.61, -173.62 -149.39, -186.42 -153.89" stroke="#000000" stroke-width="1" fill="none"></path></g><g transform="translate(426.66666666666663 1056.5217181428065) rotate(0 -93.07629264694866 -77.20072548442434)"><path d="M-171.51 -126.13 C-176.58 -135.69, -179.78 -141.01, -186.71 -153.09 M-171.81 -128.46 C-175.8 -133.67, -179.79 -141.54, -186.42 -153.89" stroke="#000000" stroke-width="1" fill="none"></path></g></g><g stroke-linecap="round"><g transform="translate(1090.8333333333333 322.131748551169) rotate(0 469.78816277529194 289.7116046589929)"><path d="M-0.36 0.24 C129.64 7.95, 622.83 -52.66, 779.54 45.95 C936.26 144.55, 913.18 501.08, 939.94 591.87 M1.65 -0.68 C131.57 6.69, 622.47 -54.34, 778.79 44.06 C935.11 142.47, 912.56 498.52, 939.56 589.74" stroke="#000000" stroke-width="1" fill="none"></path></g><g transform="translate(1090.8333333333333 322.131748551169) rotate(0 469.78816277529194 289.7116046589929)"><path d="M926.35 563.63 C930.18 571.25, 933.65 578.46, 938.24 588.69 M926.02 563.06 C930.93 571.16, 933.65 579.12, 939.81 590.69" stroke="#000000" stroke-width="1" fill="none"></path></g><g transform="translate(1090.8333333333333 322.131748551169) rotate(0 469.78816277529194 289.7116046589929)"><path d="M946.72 561.14 C945.23 569.35, 943.39 577.21, 938.24 588.69 M946.39 560.56 C945.06 569.61, 941.54 578.34, 939.81 590.69" stroke="#000000" stroke-width="1" fill="none"></path></g></g><g stroke-linecap="round"><g transform="translate(570.1666666666667 328.88935769564284) rotate(0 -175.50143136428588 230.40974825597493)"><path d="M-0.6 0.2 C-30.49 10.93, -120.29 -11.84, -178.75 65.05 C-237.21 141.94, -322.82 395.7, -351.35 461.56 M1.29 -0.74 C-28.77 10.13, -120.5 -10.21, -179.43 66.49 C-238.36 143.19, -323.4 393.73, -352.29 459.46" stroke="#000000" stroke-width="1" fill="none"></path></g><g transform="translate(570.1666666666667 328.88935769564284) rotate(0 -175.50143136428588 230.40974825597493)"><path d="M-351.23 430.34 C-351.96 439.45, -351.15 452.38, -353.75 461.41 M-351.1 429.74 C-352.38 440.61, -351.67 451.03, -353.05 460.23" stroke="#000000" stroke-width="1" fill="none"></path></g><g transform="translate(570.1666666666667 328.88935769564284) rotate(0 -175.50143136428588 230.40974825597493)"><path d="M-332.12 437.83 C-339.63 444.21, -345.54 454.5, -353.75 461.41 M-332 437.23 C-339.94 445.53, -345.85 453.35, -353.05 460.23" stroke="#000000" stroke-width="1" fill="none"></path></g></g><g stroke-linecap="round"><g transform="translate(930.6682479685041 824.1058659078815) rotate(0 39.063560421492014 22.99026011526294)"><path d="M-0.88 -1.06 C12.19 6.43, 65.81 37.51, 79.01 45.45 M0.86 1 C13.81 8.66, 65.82 39.73, 78.63 47.04" stroke="#364fc7" stroke-width="4" fill="none"></path></g><g transform="translate(930.6682479685041 824.1058659078815) rotate(0 39.063560421492014 22.99026011526294)"><path d="M47.36 43.45 C59.6 44.37, 71.71 47.29, 80.54 47.99 M49.23 42.22 C58.53 43.27, 68.82 45.85, 77.9 46.62" stroke="#364fc7" stroke-width="4" fill="none"></path></g><g transform="translate(930.6682479685041 824.1058659078815) rotate(0 39.063560421492014 22.99026011526294)"><path d="M57.73 25.75 C66.44 32.76, 74.93 41.85, 80.54 47.99 M59.6 24.51 C65.56 31.35, 72.46 39.71, 77.9 46.62" stroke="#364fc7" stroke-width="4" fill="none"></path></g></g><g stroke-linecap="round" transform="translate(1012.5 834.9884599353252) rotate(0 126.24999999999994 37.5)"><path d="M-1.23 -0.49 C79.48 0.24, 161.78 2.01, 251.48 -0.6 M0.58 0.61 C69.67 1.52, 138.79 2.26, 252.52 -0.19 M252.82 -0.17 C254.96 17.28, 252.48 33.26, 252.36 76.05 M252.81 -0.25 C251.55 21.09, 251.97 42.84, 251.59 74.27 M252.6 75.14 C184.28 76.13, 118.32 75.64, 0.01 75.88 M252.72 74.8 C179.51 76.9, 107 77.01, 0.07 74.55 M-1.16 75.32 C-0.29 54.57, 1.55 33.46, -1.58 -0.74 M-0.37 75.73 C0.72 56.51, 0.52 38.98, -0.74 -0.09" stroke="#364fc7" stroke-width="4" fill="none"></path></g><g transform="translate(1022.5 860.9884599353252) rotate(0 111.49999999999994 13)"><text x="0" y="18" font-family="Virgil, Segoe UI Emoji" font-size="20px" fill="#364fc7" text-anchor="start" style="white-space: pre;" direction="ltr">Useful criticisms found</text></g><g stroke-linecap="round"><g transform="translate(1266.68686517179 865.4207490986697) rotate(0 60.27881663739686 35.61259394329247)"><path d="M-0.81 1.17 C19.54 12.8, 100.99 57.8, 121.37 69.18 M0.96 0.74 C21.24 12.59, 100.58 58.83, 120.57 70.49" stroke="#364fc7" stroke-width="4" fill="none"></path></g><g transform="translate(1266.68686517179 865.4207490986697) rotate(0 60.27881663739686 35.61259394329247)"><path d="M93 65.62 C97.32 67.25, 104.84 67.8, 120.66 69.47 M90.89 65.06 C102.79 67.6, 112.34 69.76, 120.73 70.16" stroke="#364fc7" stroke-width="4" fill="none"></path></g><g transform="translate(1266.68686517179 865.4207490986697) rotate(0 60.27881663739686 35.61259394329247)"><path d="M103.33 47.89 C105.1 53.68, 110.15 58.46, 120.66 69.47 M101.23 47.33 C109.48 56.49, 115.23 65.18, 120.73 70.16" stroke="#364fc7" stroke-width="4" fill="none"></path></g></g><g stroke-linecap="round" transform="translate(732.5 757.4884599353252) rotate(0 98.75 64.99999999999997)"><path d="M99.1 0.02 C117.51 13.98, 138.49 27.41, 197.77 65.99 M99.66 0.26 C135.98 23.9, 174.79 50.2, 197.64 65.51 M197.13 64.97 C172.9 80.57, 152.34 97.22, 98.28 130.76 M196.53 65.35 C167.71 85.7, 137.23 105.29, 98.56 130.15 M99.45 128.96 C66.39 105.08, 32.87 83.95, -0.38 65.97 M99.1 130.56 C69.3 110.64, 39.89 90.03, -0.62 64.56 M0.04 65.53 C25.88 47.31, 50.62 31.12, 98.27 -1.56 M0.94 65.87 C32.68 43.93, 65.67 21.66, 99.04 0.43" stroke="#862e9c" stroke-width="4" fill="none"></path></g><g stroke-linecap="round"><g transform="translate(728.4415268425221 824.4751197607989) rotate(0 -58.091611049020685 188.9095505129841)"><path d="M1.1 -0.73 C-18.18 62.24, -96.8 314.32, -116.14 377.49 M0.21 1.5 C-19.22 64.63, -98.04 315.54, -117.28 378.55" stroke="#000000" stroke-width="2" fill="none"></path></g><g transform="translate(728.4415268425221 824.4751197607989) rotate(0 -58.091611049020685 188.9095505129841)"><path d="M-119.94 347.98 C-119.94 357.83, -118.24 363.03, -118.41 377.81 M-119.69 349.06 C-118.56 355.66, -118.74 363.6, -117.53 377.67" stroke="#000000" stroke-width="2" fill="none"></path></g><g transform="translate(728.4415268425221 824.4751197607989) rotate(0 -58.091611049020685 188.9095505129841)"><path d="M-100.34 354.06 C-105.45 362.5, -108.87 366.11, -118.41 377.81 M-100.09 355.15 C-103.96 360.17, -109.17 366.55, -117.53 377.67" stroke="#000000" stroke-width="2" fill="none"></path></g></g><g stroke-linecap="round"><g transform="translate(730.6916317372779 822.6860253821744) rotate(0 -35.26116703930819 -118.74879362809438)"><path d="M-0.02 0.1 C-11.65 -39.51, -58.1 -197.97, -69.95 -237.6 M-1.49 -0.89 C-13.2 -40.29, -58.74 -196.76, -70.5 -236.02" stroke="#000000" stroke-width="1" fill="none"></path></g><g transform="translate(730.6916317372779 822.6860253821744) rotate(0 -35.26116703930819 -118.74879362809438)"><path d="M-52.51 -210.64 C-57.64 -219.45, -62.91 -224.24, -70.04 -234.35 M-52.61 -211.28 C-57.59 -219.17, -63.86 -225.71, -71.32 -235.96" stroke="#000000" stroke-width="1" fill="none"></path></g><g transform="translate(730.6916317372779 822.6860253821744) rotate(0 -35.26116703930819 -118.74879362809438)"><path d="M-72.2 -204.83 C-71.69 -215.3, -71.33 -221.76, -70.04 -234.35 M-72.3 -205.48 C-71.63 -215.22, -72.22 -223.43, -71.32 -235.96" stroke="#000000" stroke-width="1" fill="none"></path></g></g><g stroke-linecap="round" transform="translate(502.5 537.4884599353252) rotate(0 78.75 47.5)"><path d="M-1.6 1.75 C41.33 -2.23, 84.42 0.36, 159.41 0.41 M-0.79 0.99 C47.01 -1.59, 94.43 -1.46, 158.09 0.72 M155.97 -0.27 C159.15 31.58, 158.17 64.11, 156.47 96.08 M157.89 -0.02 C157.66 37.25, 158.48 74.44, 156.94 94.01 M156.69 94.85 C123.7 94.12, 86.64 94.24, 1.58 95.2 M157.32 95.39 C117.43 95.32, 78.85 96.27, 0.43 95.27 M0.53 95.91 C1.14 65.5, -1.08 38.71, -0.29 0.33 M0.93 95.92 C-0.11 66.06, -0.92 37.96, -0.37 -0.28" stroke="#000000" stroke-width="1" fill="none"></path></g><g transform="translate(520 558.4884599353252) rotate(0 52.5 26)"><text x="0" y="18" font-family="Virgil, Segoe UI Emoji" font-size="20px" fill="#000000" text-anchor="start" style="white-space: pre;" direction="ltr">Regulatory</text><text x="0" y="44" font-family="Virgil, Segoe UI Emoji" font-size="20px" fill="#000000" text-anchor="start" style="white-space: pre;" direction="ltr">capture</text></g><g stroke-linecap="round"><g transform="translate(500 577.4884599353252) rotate(0 -128.9446546717888 114.48213852892323)"><path d="M0.12 -0.62 C-42.62 37.49, -214.36 191.24, -257.44 229.58 M-1.28 1.67 C-44.02 39.34, -215.01 190.18, -258.01 227.79" stroke="#000000" stroke-width="1" fill="none"></path></g><g transform="translate(500 577.4884599353252) rotate(0 -128.9446546717888 114.48213852892323)"><path d="M-244.64 202.68 C-245.47 206.8, -248.85 210.97, -259.01 227 M-243.66 202.13 C-248.7 210.86, -252.98 220.56, -258.76 227.56" stroke="#000000" stroke-width="1" fill="none"></path></g><g transform="translate(500 577.4884599353252) rotate(0 -128.9446546717888 114.48213852892323)"><path d="M-231.09 218.1 C-234.97 218.9, -241.28 219.74, -259.01 227 M-230.11 217.55 C-239.89 220.99, -248.85 225.37, -258.76 227.56" stroke="#000000" stroke-width="1" fill="none"></path></g></g><g stroke-linecap="round" transform="translate(439.99999999999994 1148.3217932686584) rotate(0 82.5 52.5)"><path d="M-0.07 0.38 C50.86 -0.94, 106.06 0.18, 164.81 0.09 M0.19 -0.86 C55.08 1.49, 108.37 2.25, 165.07 0.91 M166.74 1.39 C163.23 27.73, 166.01 58.55, 165.54 103.2 M164.89 -0.52 C163.12 21.19, 163.87 42.46, 164.2 104.48 M166.76 106.83 C109.53 106.42, 58.81 107.71, -0.3 106.44 M165.68 105.58 C113.07 106.93, 60.55 105.9, -0.86 104.06 M1.82 104.23 C1.74 74.2, -0.58 47.45, -1.6 -1.71 M0.88 104.9 C-1.22 75.63, -0.11 44.84, 0.96 -0.76" stroke="#000000" stroke-width="2" fill="none"></path></g><g transform="translate(460.83333333333326 1159.3217932686584) rotate(0 56.5 39)"><text x="0" y="18" font-family="Virgil, Segoe UI Emoji" font-size="20px" fill="#000000" text-anchor="start" style="white-space: pre;" direction="ltr">Lack of </text><text x="0" y="44" font-family="Virgil, Segoe UI Emoji" font-size="20px" fill="#000000" text-anchor="start" style="white-space: pre;" direction="ltr">stakeholder</text><text x="0" y="70" font-family="Virgil, Segoe UI Emoji" font-size="20px" fill="#000000" text-anchor="start" style="white-space: pre;" direction="ltr">buy-in</text></g><g stroke-linecap="round"><g transform="translate(441.7110382090011 1203.907268377131) rotate(0 -110.42652083995682 -144.6738415833239)"><path d="M0.04 1.06 C-36.57 -47.4, -183.34 -242.05, -219.88 -290.41 M-1.39 0.57 C-38.16 -47.81, -184.52 -241.41, -220.9 -289.45" stroke="#000000" stroke-width="2" fill="none"></path></g><g transform="translate(441.7110382090011 1203.907268377131) rotate(0 -110.42652083995682 -144.6738415833239)"><path d="M-193.94 -273.37 C-204.75 -276.83, -209.69 -283.36, -218.98 -290.96 M-195.5 -273.82 C-202.96 -278.43, -209.5 -283.25, -220.45 -290.26" stroke="#000000" stroke-width="2" fill="none"></path></g><g transform="translate(441.7110382090011 1203.907268377131) rotate(0 -110.42652083995682 -144.6738415833239)"><path d="M-210.31 -260.99 C-216.5 -267.97, -216.79 -278.02, -218.98 -290.96 M-211.87 -261.44 C-214.74 -269.38, -216.69 -277.66, -220.45 -290.26" stroke="#000000" stroke-width="2" fill="none"></path></g></g><g stroke-linecap="round"><g transform="translate(1180 669.9884599353252) rotate(0 122.20751787171224 -54.50481457390357)"><path d="M-0.17 -0.87 C40.74 -19.23, 205.09 -92.2, 246.13 -110.3 M-1.71 1.29 C39.07 -16.89, 204.51 -90.11, 245.77 -108.91" stroke="#000000" stroke-width="1" fill="none"></path></g><g transform="translate(1180 669.9884599353252) rotate(0 122.20751787171224 -54.50481457390357)"><path d="M222.79 -86.14 C231.51 -93.7, 240.63 -103.01, 244.14 -109.11 M223.78 -87.13 C231.18 -95.66, 237.41 -101.41, 245.89 -108.46" stroke="#000000" stroke-width="1" fill="none"></path></g><g transform="translate(1180 669.9884599353252) rotate(0 122.20751787171224 -54.50481457390357)"><path d="M214.4 -104.87 C226.11 -105.68, 238.25 -108.28, 244.14 -109.11 M215.39 -105.86 C225.47 -108.39, 234.39 -108.14, 245.89 -108.46" stroke="#000000" stroke-width="1" fill="none"></path></g></g><g stroke-linecap="round" transform="translate(1432.5 537.4884599353252) rotate(0 137.5 33.74999999999999)"><path d="M0.76 -0.96 C106.35 0.97, 214.66 0.6, 274.52 -1.39 M-0.36 -0.34 C67.68 1.88, 135.84 1.37, 274.6 -0.62 M276.79 0.97 C275.44 17.64, 274.58 36.9, 273.19 68.7 M275.72 0.74 C275.49 17.41, 274.67 35.2, 274.81 66.77 M276.1 68.95 C187.38 68.03, 101.74 69.33, -1.11 66.62 M274.98 67.31 C191.76 68.93, 108.56 68.06, -0.45 68.01 M-0.06 69.18 C0.93 48.65, -2.32 29.97, 1.58 0.14 M0.94 67.87 C-0.76 54.4, -0.4 39.22, -0.89 -0.86" stroke="#000000" stroke-width="1" fill="none"></path></g><g transform="translate(1455 548.4884599353252) rotate(0 121 26)"><text x="0" y="18" font-family="Virgil, Segoe UI Emoji" font-size="20px" fill="#000000" text-anchor="start" style="white-space: pre;" direction="ltr">Speculative interventions</text><text x="0" y="44" font-family="Virgil, Segoe UI Emoji" font-size="20px" fill="#000000" text-anchor="start" style="white-space: pre;" direction="ltr">now easier/more solid?</text></g><g stroke-linecap="round"><g transform="translate(1712.5 572.6685087856009) rotate(0 132.9883279883676 188.11900260263639)"><path d="M0.45 -0.49 C44.49 62.57, 220.17 315.21, 264.35 378.04 M-0.78 -1.8 C43.65 60.93, 222.44 312.97, 266.76 376.13" stroke="#000000" stroke-width="1" fill="none"></path></g><g transform="translate(1712.5 572.6685087856009) rotate(0 132.9883279883676 188.11900260263639)"><path d="M241.29 358.04 C250.35 365.23, 255.32 369.1, 265.03 375.12 M242.56 359.67 C251 364.51, 258.14 370.38, 265.77 375.87" stroke="#000000" stroke-width="1" fill="none"></path></g><g transform="translate(1712.5 572.6685087856009) rotate(0 132.9883279883676 188.11900260263639)"><path d="M258.06 346.2 C261.9 357.11, 261.69 364.64, 265.03 375.12 M259.32 347.84 C262.02 356.77, 263.47 366.66, 265.77 375.87" stroke="#000000" stroke-width="1" fill="none"></path></g></g><g stroke-linecap="round"><g transform="translate(730.1950746517273 823.2081134461604) rotate(0 -47.844393385634845 299.5280624594902)"><path d="M0.82 0.35 C-15.28 100.19, -79.69 498.43, -95.55 598.43 M-0.21 -0.51 C-16.56 99.52, -80.8 499.72, -96.51 599.57" stroke="#000000" stroke-width="1" fill="none"></path></g><g transform="translate(730.1950746517273 823.2081134461604) rotate(0 -47.844393385634845 299.5280624594902)"><path d="M-101.62 570.09 C-101.41 583.46, -96.03 594.06, -95.54 600.84 M-102.81 569.69 C-99.63 580.13, -98.47 588.76, -97.06 599.16" stroke="#000000" stroke-width="1" fill="none"></path></g><g transform="translate(730.1950746517273 823.2081134461604) rotate(0 -47.844393385634845 299.5280624594902)"><path d="M-81.36 573.31 C-88.97 585.58, -91.42 594.93, -95.54 600.84 M-82.55 572.92 C-86.07 582.18, -91.61 589.75, -97.06 599.16" stroke="#000000" stroke-width="1" fill="none"></path></g></g><g stroke-linecap="round" transform="translate(377.5 1384.155126601992) rotate(0 127.5 56.24999999999994)"><path d="M-1.03 1.07 C80.77 -0.23, 162.46 1.96, 254.95 1.28 M0.58 -0.33 C98.95 -1.92, 200.1 -1.96, 254.4 -0.47 M254.67 -1.13 C254.35 37.42, 254.22 76.59, 253.98 110.94 M254.72 0.05 C255.18 33.18, 255.14 67.98, 255.78 111.58 M256.19 111.45 C201.92 112.53, 151.55 113.44, 1.53 113.54 M254.75 112.2 C175.68 113.98, 97.43 113.76, 0.31 112.07 M-1.54 111.26 C-2.32 77.9, -1.86 39.91, -0.03 0.85 M-0.81 111.71 C-0.1 74.71, -0.83 36.8, -0.28 -0.54" stroke="#000000" stroke-width="1" fill="none"></path></g><g transform="translate(402.5 1415.155126601992) rotate(0 101 26)"><text x="0" y="18" font-family="Virgil, Segoe UI Emoji" font-size="20px" fill="#000000" text-anchor="start" style="white-space: pre;" direction="ltr">Increased complexity</text><text x="0" y="44" font-family="Virgil, Segoe UI Emoji" font-size="20px" fill="#000000" text-anchor="start" style="white-space: pre;" direction="ltr">&amp; bureaucratization</text></g><g stroke-linecap="round"><g transform="translate(375.4538880112953 1433.9192284101387) rotate(0 -54.48816528477238 -36.43091935131446)"><path d="M-0.47 0.96 C-19.08 -11.15, -92.15 -60.05, -110.45 -72.23 M1.48 0.42 C-16.86 -12.04, -90.05 -61.44, -108.27 -73.83" stroke="#000000" stroke-width="1" fill="none"></path></g><g transform="translate(375.4538880112953 1433.9192284101387) rotate(0 -54.48816528477238 -36.43091935131446)"><path d="M-77.56 -68.18 C-89.06 -70.89, -100.42 -70.57, -107.36 -74.23 M-79.41 -65.84 C-86.91 -69.72, -97.45 -70.38, -107.35 -74.42" stroke="#000000" stroke-width="1" fill="none"></path></g><g transform="translate(375.4538880112953 1433.9192284101387) rotate(0 -54.48816528477238 -36.43091935131446)"><path d="M-89.07 -51.19 C-96.06 -60.59, -102.86 -67.02, -107.36 -74.23 M-90.92 -48.85 C-95.07 -57.72, -102.18 -63.44, -107.35 -74.42" stroke="#000000" stroke-width="1" fill="none"></path></g></g><g stroke-linecap="round"><g transform="translate(374 1433.626937398888) rotate(0 -90.30284928477833 1.5538075177685755)"><path d="M0.94 -1.01 C-29.19 -0.17, -150.6 3.49, -180.91 4.12 M-0.03 1.08 C-30.25 1.63, -151.33 1.87, -181.54 2.3" stroke="#000000" stroke-width="1" fill="none"></path></g><g transform="translate(374 1433.626937398888) rotate(0 -90.30284928477833 1.5538075177685755)"><path d="M-155.11 -7.18 C-160.63 -3.9, -171.01 -0.79, -182.05 2.88 M-153.86 -9.15 C-161.92 -5.44, -169.17 -2.42, -181.17 1.96" stroke="#000000" stroke-width="1" fill="none"></path></g><g transform="translate(374 1433.626937398888) rotate(0 -90.30284928477833 1.5538075177685755)"><path d="M-154.96 13.34 C-160.36 10.73, -170.79 7.94, -182.05 2.88 M-153.71 11.37 C-161.62 9.03, -168.91 5.98, -181.17 1.96" stroke="#000000" stroke-width="1" fill="none"></path></g></g><g stroke-linecap="round" transform="translate(10 1404.155126601992) rotate(0 90 46.25)"><path d="M1.64 1.46 C59.45 -0.06, 121.31 0.41, 179.12 1.59 M-0.77 -0.17 C56.93 -0.25, 111.67 -0.15, 180.29 -0.95 M178.81 -1.51 C181.06 24.91, 180.96 47.7, 179.12 90.63 M180.13 -0.01 C179.14 19.93, 180.2 38.83, 179.8 92.49 M179.45 91.74 C137.94 90.59, 96.37 89.78, -1.44 93.14 M179.34 91.53 C113.86 92, 46.03 92.41, -0.51 93.41 M0.1 91.46 C1.03 67.81, -0.7 45.34, 1.95 -1.89 M-0.46 92.46 C-1.44 72.26, -0.41 50.93, -0.35 0.3" stroke="#000000" stroke-width="1" fill="none"></path></g><g transform="translate(37.5 1415.155126601992) rotate(0 70.5 39)"><text x="0" y="18" font-family="Virgil, Segoe UI Emoji" font-size="20px" fill="#000000" text-anchor="start" style="white-space: pre;" direction="ltr">Bad in so</text><text x="0" y="44" font-family="Virgil, Segoe UI Emoji" font-size="20px" fill="#000000" text-anchor="start" style="white-space: pre;" direction="ltr">many different</text><text x="0" y="70" font-family="Virgil, Segoe UI Emoji" font-size="20px" fill="#000000" text-anchor="start" style="white-space: pre;" direction="ltr">ways</text></g><g stroke-linecap="round" transform="translate(160 1286.655126601992) rotate(0 96.25 37.5)"><path d="M1.02 -0.28 C75.61 1.43, 151.13 2.03, 192.62 -1.15 M0.15 0.86 C52.04 -1.02, 101.75 -0.76, 192.58 0.65 M192.02 1.06 C192.38 21.44, 192.45 43.13, 193.69 75.14 M191.72 -0.3 C191.95 23.02, 191.2 47.72, 192.99 75.54 M194.12 73.94 C147.63 73.71, 102.31 76.04, -0.9 73.65 M192.93 76 C140.44 74.16, 86.45 75.36, 0.27 74.65 M-1.83 76.85 C-2.6 45.31, -0.2 15.88, -0.06 1.87 M-0.4 75.71 C-0.16 58.29, 0.21 42.16, -0.02 0.06" stroke="#000000" stroke-width="1" fill="none"></path></g><g transform="translate(182.5 1300.155126601992) rotate(0 81.5 26)"><text x="0" y="18" font-family="Virgil, Segoe UI Emoji" font-size="20px" fill="#000000" text-anchor="start" style="white-space: pre;" direction="ltr">Increased</text><text x="0" y="44" font-family="Virgil, Segoe UI Emoji" font-size="20px" fill="#000000" text-anchor="start" style="white-space: pre;" direction="ltr">activation costs</text></g><g stroke-linecap="round"><g transform="translate(96.18077553232007 1401.655126601992) rotate(0 33.568575715154495 -238.72843899081153)"><path d="M0.43 0.43 C11.73 -79.2, 56.69 -398.53, 67.95 -477.89 M-0.81 -0.39 C10.37 -79.89, 55.93 -397.37, 67.32 -476.89" stroke="#000000" stroke-width="1" fill="none"></path></g><g transform="translate(96.18077553232007 1401.655126601992) rotate(0 33.568575715154495 -238.72843899081153)"><path d="M74.19 -446.51 C69.87 -455.61, 71.54 -464.72, 68.02 -475.55 M73.24 -447.03 C71.73 -457.08, 69.32 -466.77, 67.74 -476.22" stroke="#000000" stroke-width="1" fill="none"></path></g><g transform="translate(96.18077553232007 1401.655126601992) rotate(0 33.568575715154495 -238.72843899081153)"><path d="M53.88 -449.42 C55.89 -457.68, 63.9 -465.88, 68.02 -475.55 M52.93 -449.94 C57.86 -458.98, 61.86 -467.76, 67.74 -476.22" stroke="#000000" stroke-width="1" fill="none"></path></g></g><g stroke-linecap="round"><g transform="translate(246.3429456867724 1289.155126601992) rotate(0 -24.73239342199531 -179.7345748594568)"><path d="M-0.56 -0.29 C-8.93 -59.76, -41.52 -297.99, -49.87 -357.62 M1.35 -1.49 C-7.21 -61.2, -42.57 -299.41, -50.82 -359.18" stroke="#000000" stroke-width="1" fill="none"></path></g><g transform="translate(246.3429456867724 1289.155126601992) rotate(0 -24.73239342199531 -179.7345748594568)"><path d="M-37.13 -332.74 C-39.37 -342.79, -44.8 -350.69, -50.57 -360.03 M-36.56 -332.56 C-39.23 -337.56, -42.5 -345.08, -49.93 -359.81" stroke="#000000" stroke-width="1" fill="none"></path></g><g transform="translate(246.3429456867724 1289.155126601992) rotate(0 -24.73239342199531 -179.7345748594568)"><path d="M-57.44 -329.82 C-52.96 -340.74, -51.69 -349.6, -50.57 -360.03 M-56.87 -329.64 C-55.17 -335.09, -54.11 -343.23, -49.93 -359.81" stroke="#000000" stroke-width="1" fill="none"></path></g></g><g stroke-linecap="round"><g transform="translate(931.7828428074333 824.6406776345134) rotate(0 -5.324941365416976 360.1171292357516)"><path d="M0.86 0.04 C-0.94 119.98, -8.83 600.02, -10.98 720.18 M-0.14 -0.99 C-2.02 119.03, -9.39 600.67, -11.51 721.22" stroke="#364fc7" stroke-width="4" fill="none"></path></g><g transform="translate(931.7828428074333 824.6406776345134) rotate(0 -5.324941365416976 360.1171292357516)"><path d="M-21.25 694.17 C-19.97 700.48, -15.76 708.37, -10.46 720.35 M-21.16 691.99 C-18.57 699.76, -15.42 707.27, -12.27 720.26" stroke="#364fc7" stroke-width="4" fill="none"></path></g><g transform="translate(931.7828428074333 824.6406776345134) rotate(0 -5.324941365416976 360.1171292357516)"><path d="M-0.73 694.51 C-5.32 700.87, -6.98 708.66, -10.46 720.35 M-0.64 692.33 C-3.46 699.96, -5.72 707.38, -12.27 720.26" stroke="#364fc7" stroke-width="4" fill="none"></path></g></g><g stroke-linecap="round" transform="translate(810 1549.9884599353254) rotate(0 103.75 27.5)"><path d="M0.32 -0.79 C73.24 -0.05, 144.7 -2.26, 208.71 -0.36 M-0.82 0.51 C77.83 1.79, 155.41 1.58, 208.3 -0.16 M208.91 -0.26 C208.13 16.74, 209.19 33.56, 206.46 54.13 M207.08 -0.49 C208.65 15.34, 208.58 30.47, 207.7 55.02 M207.43 54.2 C131.02 57.25, 55.99 57.3, 0.18 55.53 M207.43 55.28 C161.39 54.66, 117.59 55.55, -0.58 55.29 M0.95 53.97 C1.04 38.01, 1.72 24.75, 0.44 1.79 M0.07 54.04 C0.55 34.94, 0.52 13.52, -0.48 0.42" stroke="#364fc7" stroke-width="4" fill="none"></path></g><g transform="translate(985.8333333333334 1332.655126601992) rotate(0 130 26)"><text x="0" y="18" font-family="Virgil, Segoe UI Emoji" font-size="20px" fill="#364fc7" text-anchor="start" style="white-space: pre;" direction="ltr">Assumptions are apparent,</text><text x="0" y="44" font-family="Virgil, Segoe UI Emoji" font-size="20px" fill="#364fc7" text-anchor="start" style="white-space: pre;" direction="ltr">reasoning is transparent</text></g><g transform="translate(842.5 1560.9884599353254) rotate(0 78.5 13)"><text x="0" y="18" font-family="Virgil, Segoe UI Emoji" font-size="20px" fill="#364fc7" text-anchor="start" style="white-space: pre;" direction="ltr">Systematization</text></g><g stroke-linecap="round" transform="translate(962.5 1319.9884599353252) rotate(0 151.24999999999994 38.75000000000006)"><path d="M0.26 -0.4 C93.91 -1.91, 185.39 -0.12, 301.23 0.21 M0.53 0.03 C81.33 1.07, 162.86 -0.08, 302.73 -0.27 M300.92 0.06 C300.66 25.98, 300.52 53.91, 303.05 78.2 M302.69 0.23 C302.03 29.97, 300.97 61.83, 303.14 77.27 M302.33 78.04 C208.66 76.18, 115.12 76.62, -1.42 77.8 M301.83 77.26 C209.02 75.89, 114.74 75.96, -0.62 77.34 M1.79 76.16 C0.65 49.79, -2.19 20.82, -0.07 -0.91 M-0.18 77.6 C-0.46 53.12, 0.58 29.63, 0.76 -0.24" stroke="#364fc7" stroke-width="4" fill="none"></path></g><g stroke-linecap="round"><g transform="translate(1019.1781811753009 1578.6485365863023) rotate(0 45.48674199760427 -89.1537680462003)"><path d="M0.42 1.16 C15.21 -28.81, 74.58 -149.54, 89.68 -179.47 M-0.82 0.72 C14.25 -29.14, 76.59 -148.75, 91.8 -178.35" stroke="#364fc7" stroke-width="4" fill="none"></path></g><g transform="translate(1019.1781811753009 1578.6485365863023) rotate(0 45.48674199760427 -89.1537680462003)"><path d="M89.88 -150.5 C87.97 -159.43, 91.21 -170.46, 90.25 -179.94 M88.03 -148.93 C88.33 -158.65, 90.7 -168.78, 91.98 -178.75" stroke="#364fc7" stroke-width="4" fill="none"></path></g><g transform="translate(1019.1781811753009 1578.6485365863023) rotate(0 45.48674199760427 -89.1537680462003)"><path d="M71.66 -159.94 C76.62 -165.38, 86.72 -172.86, 90.25 -179.94 M69.81 -158.37 C76.25 -164.89, 84.71 -171.87, 91.98 -178.75" stroke="#364fc7" stroke-width="4" fill="none"></path></g></g><g stroke-linecap="round"><g transform="translate(1199.1392559603 1310.669318857756) rotate(0 -0.304334428821619 -43.715879294398974)"><path d="M0.78 0.67 C0.36 -13.58, -1.2 -71.61, -1.42 -86.29 M-0.27 -0.02 C-0.41 -14.56, 0.98 -73.71, 0.8 -88.1" stroke="#364fc7" stroke-width="4" fill="none"></path></g><g transform="translate(1199.1392559603 1310.669318857756) rotate(0 -0.304334428821619 -43.715879294398974)"><path d="M11.95 -61.37 C8.1 -70.85, 2.29 -81.53, 1.43 -86.69 M10.75 -59.01 C8.7 -67.07, 4.91 -74.98, 1.54 -88.11" stroke="#364fc7" stroke-width="4" fill="none"></path></g><g transform="translate(1199.1392559603 1310.669318857756) rotate(0 -0.304334428821619 -43.715879294398974)"><path d="M-8.57 -61.53 C-4.43 -71.08, -2.23 -81.7, 1.43 -86.69 M-9.77 -59.17 C-6.03 -67.14, -4.02 -75, 1.54 -88.11" stroke="#364fc7" stroke-width="4" fill="none"></path></g></g><g stroke-linecap="round"><g transform="translate(1075.4573577493027 1314.8670526321112) rotate(0 -1.4586219847900566 -201.68969864100214)"><path d="M-0.6 -0.12 C-1.16 -67.3, -2.81 -336.14, -3.44 -403.26 M1.29 -1.23 C0.61 -68.27, -3.08 -335.43, -4.21 -402.18" stroke="#364fc7" stroke-width="4" fill="none"></path></g><g transform="translate(1075.4573577493027 1314.8670526321112) rotate(0 -1.4586219847900566 -201.68969864100214)"><path d="M6.27 -373.57 C1.91 -383.41, -0.5 -390.52, -6.05 -401.51 M5.55 -373.65 C2.15 -383.19, -0.73 -393.94, -5.12 -401.58" stroke="#364fc7" stroke-width="4" fill="none"></path></g><g transform="translate(1075.4573577493027 1314.8670526321112) rotate(0 -1.4586219847900566 -201.68969864100214)"><path d="M-14.25 -373.26 C-12.58 -383.09, -8.97 -390.29, -6.05 -401.51 M-14.97 -373.34 C-11.43 -382.83, -7.38 -393.68, -5.12 -401.58" stroke="#364fc7" stroke-width="4" fill="none"></path></g></g><g stroke-linecap="round"><g transform="translate(807.9392110198736 1593.1968199571966) rotate(0 -86.76081951409577 -87.21966829196333)"><path d="M0.44 -0.44 C-28.74 -29.31, -145.18 -145.26, -173.96 -173.99 M-0.79 -1.72 C-29.7 -30.34, -143.14 -143.79, -171.79 -172.63" stroke="#000000" stroke-width="2" fill="none"></path></g><g transform="translate(807.9392110198736 1593.1968199571966) rotate(0 -86.76081951409577 -87.21966829196333)"><path d="M-145.36 -161.62 C-155.76 -163.65, -164.54 -168.48, -169.85 -172.94 M-144.59 -160.3 C-155.13 -165.05, -165.23 -169.86, -172.23 -172.64" stroke="#000000" stroke-width="2" fill="none"></path></g><g transform="translate(807.9392110198736 1593.1968199571966) rotate(0 -86.76081951409577 -87.21966829196333)"><path d="M-159.89 -147.13 C-164.49 -154.9, -167.56 -165.42, -169.85 -172.94 M-159.12 -145.81 C-164.26 -156.1, -168.85 -166.4, -172.23 -172.64" stroke="#000000" stroke-width="2" fill="none"></path></g></g><g stroke-linecap="round"><g transform="translate(1584.6618756777225 775.5769732393987) rotate(0 97.69468937530246 137.28644653853658)"><path d="M-0.14 -0.56 C28.08 4.99, 135.33 -13.46, 168.2 32.25 C201.07 77.95, 192.15 233.61, 197.07 273.65 M-1.68 1.75 C27.02 7.54, 137.47 -12.18, 170.5 33.39 C203.52 78.95, 191.79 235.18, 196.45 275.14" stroke="#000000" stroke-width="1" fill="none"></path></g><g transform="translate(1584.6618756777225 775.5769732393987) rotate(0 97.69468937530246 137.28644653853658)"><path d="M184.6 245.86 C186.29 253.46, 190.33 260.31, 195.04 275.38 M184.93 247.81 C190.41 257.59, 194.35 268.2, 195.93 275.79" stroke="#000000" stroke-width="1" fill="none"></path></g><g transform="translate(1584.6618756777225 775.5769732393987) rotate(0 97.69468937530246 137.28644653853658)"><path d="M205.12 245.39 C202.56 253.06, 202.36 260.01, 195.04 275.38 M205.45 247.34 C202.96 257.24, 198.93 268.03, 195.93 275.79" stroke="#000000" stroke-width="1" fill="none"></path></g></g><g stroke-opacity="0.7" fill-opacity="0.7" stroke-linecap="round" transform="translate(2249.1907982998114 26) rotate(0 38.75 38.75)"><path d="M40.7 -0.01 C48.5 10.78, 58.5 20.33, 76.18 38.45 M39.58 -0.99 C50.89 12.92, 63.45 25.29, 76.65 38.08 M79.44 37.03 C67.2 49.28, 55.25 63.15, 37.64 76.86 M77.42 39.01 C64.5 53.23, 51.43 66.13, 39.21 78.47 M37.7 76.31 C31.31 68.65, 22.14 61.37, 0.55 39.75 M38.64 77.52 C24.62 62.36, 7.57 46.2, -0.67 39.26 M-1.38 38.83 C12.65 25.94, 26.26 14.38, 40.55 0.25 M0.29 39.65 C10.81 26.74, 22.7 16.77, 39.14 0.4" stroke="#862e9c" stroke-width="4" fill="none"></path></g><g stroke-opacity="0.7" fill-opacity="0.7" stroke-linecap="round" transform="translate(2234.690798299812 10) rotate(0 53.75 53.75)"><path d="M53.99 0.17 C66.5 11.22, 77.33 20.63, 106.95 54.6 M53.01 -0.67 C68.43 13.12, 82.05 27.33, 106.58 54.03 M105.53 55.4 C90.48 71.23, 77.09 84.34, 53.36 108.38 M107.51 54.19 C91.77 71.09, 74.63 87.75, 54.97 106.65 M52.81 108.16 C37.11 91.07, 22.01 75.83, 0.75 55.91 M54.02 108.29 C41.22 94.05, 27.75 81.79, 0.26 54.08 M-0.17 54.34 C10.98 44.32, 23.41 31.96, 54.25 -0.19 M0.65 53.73 C18.67 34.49, 39.68 14.7, 54.4 -0.56" stroke="#862e9c" stroke-width="4" fill="none"></path></g><g stroke-opacity="0.7" fill-opacity="0.7" transform="translate(2354.1907982998114 39.5) rotate(0 76.0769230769231 23)"><text x="0" y="32.999999999999986" font-family="Virgil, Segoe UI Emoji" font-size="35.38461538461538px" fill="#862e9c" text-anchor="start" style="white-space: pre;" direction="ltr">= Inputs</text></g><g stroke-opacity="0.7" fill-opacity="0.7" stroke-linecap="round" transform="translate(2243.690798299812 161.99999999999994) rotate(0 47.5 28.75)"><path d="M1.15 0.48 C37.47 -1.4, 72.64 0.52, 94.28 0.55 M0.16 -0.81 C33.67 -0.21, 67.08 0.67, 94.91 -0.34 M93.74 1.12 C95.38 21.46, 93.79 46.51, 95.28 58.28 M95.85 0.35 C95.51 17, 95.97 32.73, 94.98 57.73 M94.32 57.36 C72.95 58.37, 51.05 59.73, -1.35 58.22 M94.95 56.67 C68.91 57.58, 45.04 58.33, -0.78 57.16 M-1.18 59.43 C-0.68 45.75, 0.3 30.72, 1.27 0.51 M-0.83 57.79 C0.16 38.74, 0.03 19.14, 0.74 0.52" stroke="#000000" stroke-width="4" fill="none"></path></g><g stroke-opacity="0.7" fill-opacity="0.7" stroke-linecap="round" transform="translate(2268.690798299812 265.3333333333332) rotate(0 24.999999999999545 14.583333333333343)"><path d="M0.57 -0.35 C17.88 -1.96, 31.43 -2.26, 50.11 -1.72 M-0.74 -0.76 C15.2 -0.38, 31.93 0.08, 49.22 -0.65 M48.51 0.96 C50.06 8.66, 48.26 21.37, 51.43 28.77 M50.19 0.76 C50.58 7.6, 49.72 16.97, 50.8 29.35 M49.39 27.78 C38.45 30.85, 27.75 29.59, 1.91 30.67 M50.69 29.06 C37.65 29.73, 25.67 28.44, -0.58 30.17 M-0.32 27.22 C1.43 22.34, 0.3 16.96, -0.13 -1.25 M-0.27 28.82 C-0.71 17.94, 0.52 7.65, 0.17 -0.38" stroke="#000000" stroke-width="1" fill="none"></path></g><g stroke-opacity="0.7" fill-opacity="0.7" transform="translate(2356.1907982998114 162.99999999999994) rotate(0 92 21.5)"><text x="0" y="30" font-family="Virgil, Segoe UI Emoji" font-size="33.46153846153847px" fill="#000000" text-anchor="start" style="white-space: pre;" direction="ltr">= Midpoints</text></g><g stroke-opacity="0.7" fill-opacity="0.7" transform="translate(2351.1907982998105 262.99999999999994) rotate(0 176 15.5)"><text x="0" y="22" font-family="Virgil, Segoe UI Emoji" font-size="24.27758399118782px" fill="#000000" text-anchor="start" style="white-space: pre;" direction="ltr">= Uncertain or unknown steps</text></g><g stroke-opacity="0.7" fill-opacity="0.7" transform="translate(2364.6907982998114 378.6666666666666) rotate(0 66 21.5)"><text x="0" y="30" font-family="Virgil, Segoe UI Emoji" font-size="33.46153846153847px" fill="#5c940d" text-anchor="start" style="white-space: pre;" direction="ltr">= Goals</text></g><g stroke-opacity="0.7" fill-opacity="0.7" transform="translate(2366.6907982998114 524.6666666666665) rotate(0 99.5 21.5)"><text x="0" y="30" font-family="Virgil, Segoe UI Emoji" font-size="33.46153846153847px" fill="#c92a2a" text-anchor="start" style="white-space: pre;" direction="ltr">= Downsides</text></g><g stroke-opacity="0.7" fill-opacity="0.7" stroke-linecap="round" transform="translate(2242.190798299812 355.1666666666666) rotate(0 50 47.5)"><path d="M58.03 -0.46 C66.45 0.05, 75.55 6.1, 82.05 11.75 C88.56 17.4, 94.51 25.51, 97.05 33.44 C99.6 41.36, 99.57 51.09, 97.32 59.29 C95.08 67.49, 90.11 76.62, 83.6 82.62 C77.08 88.62, 67.17 93.69, 58.22 95.27 C49.27 96.85, 38.19 95.4, 29.91 92.1 C21.63 88.79, 13.42 82.6, 8.52 75.45 C3.63 68.31, 0.93 57.7, 0.53 49.23 C0.13 40.75, 1.8 31.81, 6.12 24.61 C10.45 17.41, 18.57 10.13, 26.46 6.05 C34.35 1.97, 47.69 0.81, 53.45 0.13 C59.21 -0.55, 59.24 1.44, 61.05 1.98 C62.85 2.52, 64.46 2.58, 64.28 3.37 M28.3 3.38 C35.8 -0.7, 48.34 -1.41, 57.31 -0.07 C66.28 1.27, 75.33 5.78, 82.13 11.41 C88.93 17.05, 95.15 25.88, 98.09 33.74 C101.03 41.61, 102.03 50.6, 99.78 58.6 C97.53 66.6, 91.34 75.63, 84.58 81.76 C77.82 87.89, 68.07 93.93, 59.21 95.37 C50.35 96.81, 39.95 93.88, 31.42 90.38 C22.9 86.89, 13.22 81.01, 8.06 74.39 C2.91 67.76, 1.01 59, 0.49 50.64 C-0.02 42.27, 0.92 31.67, 4.96 24.2 C9 16.73, 20.63 9.3, 24.72 5.83 C28.82 2.36, 28.46 3.59, 29.53 3.39 C30.6 3.18, 30.64 3.69, 31.14 4.59" stroke="#5c940d" stroke-width="4" fill="none"></path></g><g stroke-opacity="0.7" fill-opacity="0.7" stroke-linecap="round" transform="translate(2244.190798299812 501.1666666666666) rotate(0 50 47.5)"><path d="M40.02 0.1 C48.2 -2.24, 60.49 -0.5, 68.86 2.63 C77.23 5.77, 85.24 11.9, 90.26 18.91 C95.29 25.93, 98.43 36.17, 99 44.71 C99.57 53.25, 97.68 62.89, 93.68 70.13 C89.69 77.37, 82.71 84.13, 75.03 88.15 C67.35 92.18, 56.57 94.56, 47.61 94.28 C38.65 94, 28.72 91.37, 21.27 86.47 C13.82 81.56, 6.24 72.75, 2.9 64.83 C-0.43 56.92, -0.53 47.27, 1.28 38.98 C3.08 30.7, 7.73 21.34, 13.71 15.14 C19.69 8.94, 31.47 4.23, 37.18 1.78 C42.89 -0.67, 45.21 0.51, 47.97 0.43 C50.72 0.34, 53.64 0.67, 53.71 1.26 M48.58 0.5 C56.89 -0.11, 68 2.55, 75.77 6.99 C83.54 11.42, 91.09 19.25, 95.17 27.11 C99.25 34.98, 101.44 45.75, 100.25 54.18 C99.06 62.62, 93.78 71.34, 88.03 77.71 C82.28 84.09, 73.82 89.77, 65.76 92.43 C57.71 95.09, 48.47 95.85, 39.69 93.66 C30.9 91.46, 19.63 85.24, 13.03 79.26 C6.43 73.29, 1.74 66.06, 0.1 57.83 C-1.53 49.6, 0.04 38.07, 3.21 29.89 C6.37 21.71, 12.06 13.66, 19.1 8.75 C26.13 3.85, 40.49 1.66, 45.4 0.44 C50.32 -0.77, 48 1.17, 48.58 1.45 C49.17 1.73, 48.75 1.59, 48.93 2.11" stroke="#c92a2a" stroke-width="4" fill="none"></path></g><g stroke-opacity="0.7" fill-opacity="0.7" stroke-linecap="round" transform="translate(2229.690798299812 345.1666666666666) rotate(0 62.5 58.75)"><path d="M70.42 0.72 C79.81 1.22, 91.15 5.91, 99.2 11.43 C107.24 16.94, 114.41 25.11, 118.68 33.81 C122.95 42.5, 125.57 53.85, 124.81 63.62 C124.04 73.38, 119.88 84.4, 114.09 92.41 C108.31 100.43, 99.12 107.43, 90.1 111.7 C81.07 115.97, 69.79 118.56, 59.94 118.03 C50.1 117.51, 39.64 113.43, 31.02 108.56 C22.4 103.69, 13.35 96.83, 8.21 88.81 C3.06 80.8, 0.34 70.03, 0.15 60.47 C-0.04 50.92, 2.37 39.8, 7.07 31.47 C11.77 23.14, 19.83 15.65, 28.33 10.52 C36.83 5.39, 50.09 2.03, 58.09 0.67 C66.08 -0.69, 72.68 1.86, 76.29 2.37 C79.9 2.88, 79.96 3.04, 79.74 3.72 M44.07 2.81 C52.96 -0.48, 65.7 0.07, 75.83 1.83 C85.96 3.58, 97.21 7.3, 104.86 13.33 C112.51 19.36, 118.49 28.73, 121.73 38.01 C124.96 47.28, 125.94 59.72, 124.28 68.98 C122.62 78.24, 118.23 86.42, 111.79 93.55 C105.35 100.67, 94.84 107.79, 85.64 111.75 C76.44 115.71, 66.58 118.19, 56.59 117.32 C46.59 116.45, 34.21 111.96, 25.69 106.5 C17.16 101.05, 9.64 93.18, 5.42 84.61 C1.19 76.04, -0.57 64.62, 0.32 55.08 C1.22 45.53, 5.32 35.23, 10.77 27.33 C16.23 19.44, 27.51 11.68, 33.05 7.72 C38.59 3.75, 42.05 4.13, 44.03 3.54 C46.01 2.94, 44.44 3.43, 44.93 4.14" stroke="#5c940d" stroke-width="4" fill="none"></path></g><g stroke-opacity="0.7" fill-opacity="0.7" stroke-linecap="round" transform="translate(2231.690798299812 491.1666666666666) rotate(0 62.5 58.75)"><path d="M80.49 1.63 C90.05 3.35, 99.9 9.84, 106.79 16.76 C113.68 23.67, 119.09 33.88, 121.82 43.11 C124.55 52.34, 125.23 63.08, 123.18 72.14 C121.14 81.19, 116.24 90.5, 109.56 97.45 C102.87 104.4, 92.71 110.57, 83.07 113.82 C73.43 117.08, 61.89 118.67, 51.73 117 C41.58 115.33, 29.95 109.9, 22.14 103.82 C14.32 97.74, 8.37 89.3, 4.83 80.52 C1.29 71.74, -0.32 60.53, 0.9 51.13 C2.13 41.73, 6.11 31.69, 12.17 24.12 C18.23 16.55, 28 9.67, 37.25 5.71 C46.51 1.76, 59.32 0.72, 67.69 0.38 C76.06 0.03, 83.44 2.31, 87.46 3.64 C91.47 4.98, 92.43 7.46, 91.76 8.41 M73.04 1.22 C82.82 2.12, 94.25 8.27, 101.95 14.19 C109.64 20.11, 115.52 28.23, 119.21 36.76 C122.89 45.29, 124.84 56.03, 124.07 65.35 C123.31 74.68, 120.59 85.23, 114.62 92.72 C108.66 100.2, 97.74 106.08, 88.28 110.26 C78.81 114.44, 67.68 118.3, 57.83 117.79 C47.98 117.28, 37.63 112.53, 29.19 107.22 C20.74 101.9, 12.05 94, 7.16 85.92 C2.28 77.83, -0.12 67.78, -0.13 58.7 C-0.14 49.63, 2.23 39.6, 7.09 31.47 C11.96 23.35, 20.3 15.21, 29.06 9.95 C37.82 4.7, 52.21 1.39, 59.66 -0.07 C67.11 -1.53, 71.54 0.69, 73.77 1.19 C76 1.69, 73.44 2.24, 73.04 2.94" stroke="#c92a2a" stroke-width="4" fill="none"></path></g><g stroke-linecap="round"><g transform="translate(2234.559612492157 663.9497269406465) rotate(0 53.28354466076678 -0.09767054921016438)"><path d="M0.33 0.69 C17.84 0.62, 87.69 -0.6, 105.43 -0.89 M-0.95 0.01 C16.87 0.11, 89.67 0.27, 107.52 0.22" stroke="#364fc7" stroke-width="4" fill="none"></path></g></g><g transform="translate(2367.670335273436 641.8395849751316) rotate(0 119.5 19.5)"><text x="0" y="28" font-family="Virgil, Segoe UI Emoji" font-size="30.769230769230898px" fill="#364fc7" text-anchor="start" style="white-space: pre;" direction="ltr">= Key pathways</text></g><g stroke-linecap="round"><g transform="translate(2234.5596124921567 750.8108655956366) rotate(0 50.99375649970011 1.029788588886504)"><path d="M-1.19 -0.81 C15.95 -0.62, 85.88 1.41, 103.18 1.84 M0.39 1.38 C17.36 1.63, 85.46 2.67, 102.33 2.87" stroke="#000000" stroke-width="1" fill="none"></path></g></g><g transform="translate(2372.2139636049474 723.5787154099143) rotate(0 150.5 19.63043478260869)"><text x="0" y="28.260869565217405" font-family="Virgil, Segoe UI Emoji" font-size="30.871794871794854px" fill="#000000" text-anchor="start" style="white-space: pre;" direction="ltr">= Additional details</text></g><g stroke-linecap="round" transform="translate(1982.3446426859705 934.8199256207497) rotate(0 71.2655954483123 68.47350291253844)"><path d="M45.66 3.7 C54.6 -0.75, 68.08 -0.54, 78.85 0.79 C89.63 2.13, 101.26 6, 110.29 11.7 C119.33 17.4, 127.73 26.01, 133.05 34.98 C138.37 43.95, 141.7 55.27, 142.21 65.52 C142.71 75.76, 140.64 87.12, 136.09 96.45 C131.54 105.77, 123.49 115.02, 114.92 121.46 C106.34 127.9, 95.1 132.88, 84.65 135.07 C74.2 137.27, 62.62 137.52, 52.22 134.64 C41.83 131.76, 30.35 125.04, 22.28 117.81 C14.2 110.59, 7.36 100.77, 3.79 91.28 C0.22 81.78, -0.51 70.89, 0.86 60.84 C2.24 50.79, 6.14 39.76, 12.05 30.96 C17.97 22.17, 28.96 13.02, 36.36 8.08 C43.75 3.14, 51.15 2.54, 56.43 1.32 C61.71 0.11, 67.6 -0.24, 68.06 0.77 M42.78 5.9 C52.02 1.15, 66.22 1.08, 76.91 1.55 C87.6 2.03, 97.77 3.73, 106.91 8.74 C116.06 13.75, 125.81 22.72, 131.79 31.62 C137.78 40.51, 141.81 51.84, 142.82 62.1 C143.83 72.37, 142.15 83.44, 137.86 93.21 C133.57 102.99, 125.56 113.61, 117.07 120.77 C108.58 127.94, 97.35 133.99, 86.9 136.21 C76.45 138.43, 64.87 136.45, 54.37 134.08 C43.86 131.71, 31.96 128.68, 23.88 122 C15.79 115.32, 9.58 103.82, 5.87 94 C2.15 84.17, 1 73.18, 1.6 63.03 C2.2 52.89, 3.9 41.95, 9.46 33.12 C15.02 24.3, 29.23 14.7, 34.93 10.08 C40.63 5.46, 42.01 6.14, 43.68 5.41 C45.35 4.68, 44.69 4.51, 44.95 5.71" stroke="#5c940d" stroke-width="4" fill="none"></path></g><g transform="translate(1991.730257645786 977.077876351755) rotate(0.6675957748287075 61.84352715315458 27.418312530955234)"><text x="61.84352715315456" y="19.41831253095523" font-family="Virgil, Segoe UI Emoji" font-size="21.474804112295345px" fill="#5c940d" text-anchor="middle" style="white-space: pre;" direction="ltr">Good things</text><text x="61.84352715315456" y="46.83662506191046" font-family="Virgil, Segoe UI Emoji" font-size="21.474804112295345px" fill="#5c940d" text-anchor="middle" style="white-space: pre;" direction="ltr">happen</text></g><g stroke-linecap="round" transform="translate(1964.702380952379 915.7348599042333) rotate(0 89.47058823529426 86.09433962264166)"><path d="M128.41 9.29 C139.44 13.17, 150.08 22.48, 157.89 31.45 C165.71 40.42, 172.01 51.9, 175.31 63.12 C178.6 74.33, 179.4 87.28, 177.66 98.75 C175.91 110.22, 171.46 122.17, 164.85 131.94 C158.24 141.71, 148.27 150.92, 137.98 157.36 C127.69 163.79, 115 168.52, 103.11 170.55 C91.22 172.57, 78.41 172.62, 66.64 169.53 C54.86 166.43, 42.07 159.57, 32.46 151.99 C22.86 144.42, 14.36 134.3, 9.02 124.07 C3.69 113.85, 0.95 102.1, 0.48 90.64 C0 79.18, 1.83 66.39, 6.18 55.3 C10.53 44.22, 18.01 32.44, 26.59 24.12 C35.16 15.8, 46.14 9.49, 57.63 5.38 C69.11 1.27, 82.1 -1.72, 95.5 -0.52 C108.9 0.69, 130.16 9.35, 138.05 12.62 C145.93 15.89, 143.59 17.9, 142.83 19.11 M106.43 0.58 C117.96 1.21, 131.67 8.52, 141.85 15.47 C152.03 22.42, 161.28 32.2, 167.5 42.28 C173.71 52.37, 178.08 64.14, 179.14 75.98 C180.19 87.83, 177.94 101.8, 173.82 113.34 C169.71 124.88, 162.61 136.79, 154.45 145.22 C146.29 153.65, 136.02 159.22, 124.86 163.94 C113.7 168.65, 99.52 173.57, 87.49 173.5 C75.46 173.43, 63.3 168.66, 52.67 163.52 C42.05 158.39, 31.99 151.31, 23.74 142.71 C15.48 134.11, 6.8 123.07, 3.14 111.92 C-0.53 100.76, 0.18 87.43, 1.75 75.78 C3.31 64.14, 6.38 52.22, 12.53 42.05 C18.69 31.88, 28.91 21.36, 38.67 14.78 C48.44 8.2, 59.79 4.59, 71.13 2.57 C82.47 0.56, 100.41 2.46, 106.71 2.68 C113.01 2.9, 108.96 2.79, 108.91 3.89" stroke="#5c940d" stroke-width="4" fill="none"></path></g><g transform="translate(2286.524131633145 264.4166666666666) rotate(0 8 13)"><text x="8" y="18" font-family="Virgil, Segoe UI Emoji" font-size="20px" fill="#364fc7" text-anchor="middle" style="white-space: pre;" direction="ltr">...</text></g><g stroke-linecap="round"><g transform="translate(728.792531103326 822.6466996523268) rotate(0 -35.22520057082272 59.87591527661476)"><path d="M0.89 0.69 C-11.01 20.41, -58.64 98.81, -70.8 118.29 M-0.11 0 C-12.14 19.92, -59.17 100, -71.34 119.75" stroke="#364fc7" stroke-width="4" fill="none"></path></g><g transform="translate(728.792531103326 822.6466996523268) rotate(0 -35.22520057082272 59.87591527661476)"><path d="M-64.49 91.61 C-67.9 99.79, -71.01 108.97, -72.59 121.52 M-66.3 89.35 C-67 100.27, -69.14 110.35, -70.41 120.46" stroke="#364fc7" stroke-width="4" fill="none"></path></g><g transform="translate(728.792531103326 822.6466996523268) rotate(0 -35.22520057082272 59.87591527661476)"><path d="M-46.89 102.16 C-56.41 106.8, -65.63 112.32, -72.59 121.52 M-48.71 99.91 C-55.38 107.11, -63.57 113.56, -70.41 120.46" stroke="#364fc7" stroke-width="4" fill="none"></path></g></g><g stroke-linecap="round" transform="translate(447.61904761904526 911.2909075041396) rotate(0 101.66666666666669 47.5)"><path d="M-1.64 -1.59 C54.55 0.84, 109.94 -0.15, 201.66 0.62 M-0.23 0.39 C40.09 0.36, 82.35 0.24, 203.17 0 M201.96 -0.28 C205.07 27.22, 201.68 57.62, 205.08 93.49 M203.66 0.72 C202.76 25.81, 203.24 50.47, 203.42 94.2 M203.03 94.27 C150.12 96.09, 92.98 95.88, -0.46 95.37 M203 94.12 C148.72 94.37, 92.75 95.32, -0.2 94.94 M1.94 94.11 C1.05 68.06, 0.02 40.73, -1.61 1.77 M-0.59 95.94 C0.75 67.05, 0.99 39.37, 0.5 0.89" stroke="#364fc7" stroke-width="4" fill="none"></path></g><g stroke-linecap="round"><g transform="translate(439.6376818472137 962.129915504237) rotate(0 -93.66455578522401 -43.65159867884822)"><path d="M-0.39 0.11 C-31.96 -14.53, -157.58 -72.94, -188.94 -87.41 M1.61 -0.88 C-29.64 -15.39, -154.86 -72.01, -186.73 -86.07" stroke="#000000" stroke-width="1" fill="none"></path></g><g transform="translate(439.6376818472137 962.129915504237) rotate(0 -93.66455578522401 -43.65159867884822)"><path d="M-156.64 -85.52 C-167.66 -85.71, -176.74 -85.82, -187.55 -84.44 M-157.07 -83.71 C-167.08 -83.9, -176.74 -85.66, -187.72 -85.18" stroke="#000000" stroke-width="1" fill="none"></path></g><g transform="translate(439.6376818472137 962.129915504237) rotate(0 -93.66455578522401 -43.65159867884822)"><path d="M-165.02 -66.79 C-173.25 -73.36, -179.47 -79.86, -187.55 -84.44 M-165.45 -64.98 C-172.55 -71.45, -179.41 -79.48, -187.72 -85.18" stroke="#000000" stroke-width="1" fill="none"></path></g></g><g transform="translate(467.61904761904526 923.9575741708062) rotate(0 85 39)"><text x="0" y="18" font-family="Virgil, Segoe UI Emoji" font-size="20px" fill="#364fc7" text-anchor="start" style="white-space: pre;" direction="ltr">Noisy evaluations</text><text x="0" y="44" font-family="Virgil, Segoe UI Emoji" font-size="20px" fill="#364fc7" text-anchor="start" style="white-space: pre;" direction="ltr">taken too</text><text x="0" y="70" font-family="Virgil, Segoe UI Emoji" font-size="20px" fill="#364fc7" text-anchor="start" style="white-space: pre;" direction="ltr">seriously</text></g><g transform="translate(495.95238095237863 797.2909075041396) rotate(0 59.5 26)"><text x="0" y="18" font-family="Virgil, Segoe UI Emoji" font-size="20px" fill="#364fc7" text-anchor="start" style="white-space: pre;" direction="ltr">Discouraging</text><text x="0" y="44" font-family="Virgil, Segoe UI Emoji" font-size="20px" fill="#364fc7" text-anchor="start" style="white-space: pre;" direction="ltr">people</text></g><g stroke-linecap="round"><g transform="translate(830.952380952379 757.9575741708067) rotate(0 93.26489147215148 -199.33037711108724)"><path d="M0.79 -0.13 C31.48 -66.69, 153.74 -332.22, 184.39 -398.53 M-0.25 -1.24 C30.82 -67.7, 156.12 -330.62, 186.78 -397.1" stroke="#000000" stroke-width="2" fill="none"></path></g><g transform="translate(830.952380952379 757.9575741708067) rotate(0 93.26489147215148 -199.33037711108724)"><path d="M183.87 -368.24 C184.4 -377.36, 186.18 -387.1, 188.63 -395.22 M184.85 -366.98 C184.2 -375.66, 186.09 -386.76, 186.36 -397.95" stroke="#000000" stroke-width="2" fill="none"></path></g><g transform="translate(830.952380952379 757.9575741708067) rotate(0 93.26489147215148 -199.33037711108724)"><path d="M165.29 -376.97 C171.84 -383.41, 179.57 -390.36, 188.63 -395.22 M166.28 -375.7 C171.5 -381.63, 179.19 -390, 186.36 -397.95" stroke="#000000" stroke-width="2" fill="none"></path></g></g><g stroke-linecap="round"><g transform="translate(932.7490496378267 822.2439087441189) rotate(0 91.49073281045781 117.09378238293479)"><path d="M0.17 1.01 C30.84 39.74, 153.6 193.45, 184.19 232.13 M-1.2 0.49 C29.35 39.45, 152.9 195.22, 183.6 233.69" stroke="#000000" stroke-width="1" fill="none"></path></g><g transform="translate(932.7490496378267 822.2439087441189) rotate(0 91.49073281045781 117.09378238293479)"><path d="M159.71 219.17 C166.11 223.23, 175.84 229.36, 182.68 233.07 M158.42 217.64 C167.62 224.68, 177.68 229.96, 184.15 232.96" stroke="#000000" stroke-width="1" fill="none"></path></g><g transform="translate(932.7490496378267 822.2439087441189) rotate(0 91.49073281045781 117.09378238293479)"><path d="M175.77 206.4 C177.09 214.5, 181.76 224.65, 182.68 233.07 M174.49 204.86 C177.76 216.47, 181.91 226.45, 184.15 232.96" stroke="#000000" stroke-width="1" fill="none"></path></g></g></svg>