<svg version="1.1" xmlns="http://www.w3.org/2000/svg" viewBox="0 0 2120 1332.6666666666667" width="2120" height="1332.6666666666667">
  <!-- svg-source:excalidraw -->
  
  <defs>
    <style>
      @font-face {
        font-family: "Virgil";
        src: url("https://excalidraw.com/Virgil.woff2");
      }
      @font-face {
        font-family: "Cascadia";
        src: url("https://excalidraw.com/Cascadia.woff2");
      }
    </style>
  </defs>
  <rect x="0" y="0" width="2120" height="1332.6666666666667" fill="#ffffff"/><g stroke-linecap="round" transform="translate(752.40873015873 487.6746031746032) rotate(0 83 53)"><path d="M81.28 1.08 C102.41 12.6, 122.54 25.11, 165.41 54.39 M82.03 -0.51 C115.11 19.99, 147.12 39.82, 166.48 53.29 M164.57 53.06 C143.9 67.7, 121.65 83.14, 81.01 105.07 M166.28 53.21 C137.62 71.33, 108.31 90.46, 83.65 105.69 M83.67 104.81 C54.08 87.96, 27.03 67.98, 1.53 52.56 M82.66 105.64 C62.81 92.92, 44.4 81.52, 0.6 53 M1.67 54.79 C27.83 34.06, 59.6 15.84, 83.84 -0.18 M0.24 52.35 C27.54 34.41, 55.28 17, 83.89 0.18" stroke="#000000" stroke-width="1" fill="none"/></g><g transform="translate(779.40873015873 527.6746031746031) rotate(0 57 13)"><text x="0" y="18" font-family="Virgil, Segoe UI Emoji" font-size="20px" fill="#000000" text-anchor="start" style="white-space: pre;" direction="ltr">Evaluations</text></g><g stroke-linecap="round"><g transform="translate(918.7829286857012 538.777872556173) rotate(0 39.53971579615569 -73.31495566244608)"><path d="M0.76 0.59 C13.56 -23.95, 64.44 -122.65, 77.24 -147.22 M-0.3 -0.14 C12.81 -24.56, 65.99 -121.89, 79.38 -146.17" stroke="#000000" stroke-width="1" fill="none"/></g><g transform="translate(918.7829286857012 538.777872556173) rotate(0 39.53971579615569 -73.31495566244608)"><path d="M75.81 -118.34 C74.82 -127.83, 76.96 -135.05, 81.23 -145.2 M73.88 -116.03 C76.84 -127.45, 79.35 -140, 79.31 -145.45" stroke="#000000" stroke-width="1" fill="none"/></g><g transform="translate(918.7829286857012 538.777872556173) rotate(0 39.53971579615569 -73.31495566244608)"><path d="M57.82 -128.21 C62.89 -134.48, 71.11 -138.37, 81.23 -145.2 M55.89 -125.9 C65.81 -133.6, 75.29 -142.32, 79.31 -145.45" stroke="#000000" stroke-width="1" fill="none"/></g></g><g stroke-linecap="round"><g transform="translate(923.3194568421615 543.3231270610772) rotate(0 37.01403064978814 -29.46661324615829)"><path d="M0.1 -0.94 C12.21 -10.86, 60.83 -48.76, 72.96 -58.4 M-1.3 1.19 C11.17 -8.57, 62.55 -49.76, 75.33 -60.12" stroke="#000000" stroke-width="1" fill="none"/></g><g transform="translate(923.3194568421615 543.3231270610772) rotate(0 37.01403064978814 -29.46661324615829)"><path d="M58.24 -35.54 C65.91 -44.1, 70.32 -50.68, 74.8 -59.61 M59.65 -35.4 C65.9 -43.1, 71.32 -53.46, 74.86 -59.4" stroke="#000000" stroke-width="1" fill="none"/></g><g transform="translate(923.3194568421615 543.3231270610772) rotate(0 37.01403064978814 -29.46661324615829)"><path d="M45.38 -51.52 C57.4 -54.88, 66 -56.25, 74.8 -59.61 M46.78 -51.39 C57.58 -53.38, 67.66 -57.97, 74.86 -59.4" stroke="#000000" stroke-width="1" fill="none"/></g></g><g stroke-linecap="round"><g transform="translate(918.2487145291755 541.9632688661607) rotate(0 101.24090036478344 116.0732056875847)"><path d="M0.17 1.01 C34.09 39.4, 169.85 191.75, 203.69 230.09 M-1.2 0.49 C32.6 39.11, 169.15 193.52, 203.1 231.65" stroke="#000000" stroke-width="1" fill="none"/></g><g transform="translate(918.2487145291755 541.9632688661607) rotate(0 101.24090036478344 116.0732056875847)"><path d="M178.4 218.52 C185.06 222.14, 195.04 227.84, 202.18 231.02 M177.12 216.99 C186.61 223.53, 196.97 228.3, 203.65 230.92" stroke="#000000" stroke-width="1" fill="none"/></g><g transform="translate(918.2487145291755 541.9632688661607) rotate(0 101.24090036478344 116.0732056875847)"><path d="M193.76 204.91 C195.56 212.83, 200.7 222.82, 202.18 231.02 M192.47 203.37 C196.31 214.79, 201.01 224.56, 203.65 230.92" stroke="#000000" stroke-width="1" fill="none"/></g></g><g stroke-linecap="round"><g transform="translate(919.3663072134241 542.1587167679684) rotate(0 112.63450909813963 178.5410686902344)"><path d="M-0.2 -0.79 C37.37 58.73, 187.34 296.94, 224.83 356.79 M-1.76 1.41 C36.23 61.09, 188.89 298.72, 227.03 357.87" stroke="#000000" stroke-width="1" fill="none"/></g><g transform="translate(919.3663072134241 542.1587167679684) rotate(0 112.63450909813963 178.5410686902344)"><path d="M201.83 338.1 C207.63 342.53, 216.16 347.97, 226.3 356.22 M202.52 338.72 C211.63 345.62, 218.35 351.88, 227.37 358.06" stroke="#000000" stroke-width="1" fill="none"/></g><g transform="translate(919.3663072134241 542.1587167679684) rotate(0 112.63450909813963 178.5410686902344)"><path d="M219.09 327 C220.53 334.18, 224.73 342.41, 226.3 356.22 M219.78 327.62 C223.29 338.24, 224.48 348.06, 227.37 358.06" stroke="#000000" stroke-width="1" fill="none"/></g></g><g stroke-linecap="round"><g transform="translate(834.0006229899437 485.0646683842106) rotate(0 -5.284490673419157 -197.76939819877785)"><path d="M0.03 0.35 C-1.8 -65.67, -8.86 -329.78, -10.6 -395.89 M-1.41 -0.51 C-2.89 -66.34, -6.59 -328.54, -8.26 -394.31" stroke="#000000" stroke-width="1" fill="none"/></g><g transform="translate(834.0006229899437 485.0646683842106) rotate(0 -5.284490673419157 -197.76939819877785)"><path d="M3.12 -367.49 C-1 -376.52, -5.25 -383.98, -7.22 -395.39 M1.95 -366.19 C-0.29 -376.28, -4.72 -383.88, -8.74 -393.96" stroke="#000000" stroke-width="1" fill="none"/></g><g transform="translate(834.0006229899437 485.0646683842106) rotate(0 -5.284490673419157 -197.76939819877785)"><path d="M-17.4 -367.1 C-14.66 -376.27, -12.04 -383.86, -7.22 -395.39 M-18.56 -365.79 C-14.12 -375.88, -11.86 -383.6, -8.74 -393.96" stroke="#000000" stroke-width="1" fill="none"/></g></g><g stroke-linecap="round" transform="translate(1001.40873015873 465.6746031746032) rotate(0 99.5 23.5)"><path d="M0.51 0.35 C56.24 0.68, 111.73 2.64, 198.57 -1.97 M0.97 0.75 C56.65 -1.48, 113.21 -1.91, 198.34 0.12 M199.47 0.98 C200.31 14.03, 197.04 28.7, 198.93 47.2 M198.48 -0.93 C198.83 15.46, 200.2 31.16, 199.37 46.56 M198.73 46.3 C142.44 47.79, 82.18 46.87, -0.93 47.74 M198.77 46.23 C154.69 45.9, 110.89 44.5, -0.35 46.21 M0.77 47.44 C-0.29 31.55, -1.92 13.57, 1.25 1.24 M-0.78 46.49 C-1.26 33.21, -1.3 20.7, 0.06 0.73" stroke="#000000" stroke-width="1" fill="none"/></g><g transform="translate(1012.40873015873 478.6746031746032) rotate(0 85 13)"><text x="0" y="18" font-family="Virgil, Segoe UI Emoji" font-size="20px" fill="#000000" text-anchor="start" style="white-space: pre;" direction="ltr">Better incentives</text></g><g stroke-linecap="round" transform="translate(1122.2420634920632 723.8412698412699) rotate(0 115.83333333333337 34.5)"><path d="M-1.66 -1.58 C53.05 -0.43, 107.41 0.18, 230.51 0.38 M-0.66 -0.38 C74.52 -1.19, 150.52 0.31, 232.44 -0.08 M230.19 -0.48 C231.9 20.75, 233.74 46.46, 233.15 69.73 M231.74 -0.65 C232.88 13.96, 231.77 28.34, 231.61 69.4 M230.93 69.28 C182.73 68.3, 135.83 67.47, 1.43 68.7 M231.38 69.74 C161.02 70.33, 90.08 69.11, -0.58 69.71 M-0.95 70.4 C0.85 49.46, -0.8 27.27, 0.92 1.32 M0.7 69.96 C0.47 48.71, 0.86 27.64, 0.13 0.8" stroke="#000000" stroke-width="1" fill="none"/></g><g transform="translate(1174.7420634920632 869.3412698412699) rotate(0 126.5 26)"><text x="0" y="18" font-family="Virgil, Segoe UI Emoji" font-size="20px" fill="#000000" text-anchor="start" style="white-space: pre;" direction="ltr">Previously intuitive</text><text x="0" y="44" font-family="Virgil, Segoe UI Emoji" font-size="20px" fill="#000000" text-anchor="start" style="white-space: pre;" direction="ltr">decisions now more robust</text></g><g stroke-linecap="round" transform="translate(1000.5714285714284 344.64285714285717) rotate(0 90.00000000000011 50.625)"><path d="M-0.47 1.21 C72.64 0.79, 142.81 0.55, 179.41 1.75 M0.57 -0.64 C58.33 0.8, 114.02 -0.42, 180.77 0.48 M178.08 -1.7 C179.28 34.25, 177.78 66.18, 179.64 99.26 M180.96 0.72 C180.88 36.75, 180.85 73.77, 180.38 100.98 M180.32 102.28 C114.6 98.98, 52.25 100.94, 0.33 102.81 M179.67 101.87 C108.73 100.55, 38.88 100.07, 0.52 100.29 M-0.6 101.37 C0.64 79.07, 1.42 54.48, -1.13 1.12 M0.15 100.41 C0.26 61.95, 1.11 22.44, 0.88 -0.86" stroke="#000000" stroke-width="1" fill="none"/></g><g transform="translate(1471.154761904762 380.39285714285717) rotate(0 102 13)"><text x="0" y="18" font-family="Virgil, Segoe UI Emoji" font-size="20px" fill="#000000" text-anchor="start" style="white-space: pre;" direction="ltr">More rapid execution</text></g><g stroke-linecap="round" transform="translate(1151.4047619047615 859.2261904761906) rotate(0 139.375 37.49999999999994)"><path d="M1.44 0.31 C61.53 -1.77, 119.26 -0.89, 280.27 -1.48 M-0.57 0.4 C96.53 0.37, 192.68 0.17, 279.17 0.28 M277.27 0.63 C279.78 19.09, 280.09 40.75, 280.28 74.27 M278.36 -0.35 C277.5 26.17, 278.26 51.31, 278.88 74.63 M278.75 74.6 C187.02 77.72, 94.11 77.12, -0.23 75.39 M278.27 74.36 C210.11 76.97, 141.63 75.89, -0.31 74.45 M0.18 74.88 C0.47 46.13, 0.36 21.77, 0.34 0.5 M0.07 75.73 C-0.25 47.66, -0.85 18.93, -0.92 -0.54" stroke="#000000" stroke-width="1" fill="none"/></g><g transform="translate(1151.8214285714284 737.7261904761906) rotate(0 77 26)"><text x="0" y="18" font-family="Virgil, Segoe UI Emoji" font-size="20px" fill="#000000" text-anchor="start" style="white-space: pre;" direction="ltr">Better common </text><text x="0" y="44" font-family="Virgil, Segoe UI Emoji" font-size="20px" fill="#000000" text-anchor="start" style="white-space: pre;" direction="ltr">knowledge</text></g><g stroke-linecap="round"><g transform="translate(1198.6018557947468 490.19920101884986) rotate(0 55.28398110121509 -0.6420853459563887)"><path d="M0.91 -1.18 C19.5 -1.24, 92.25 -0.53, 110.63 -0.45 M-0.06 0.81 C18.5 0.44, 91.46 -1.51, 109.98 -2.1" stroke="#000000" stroke-width="1" fill="none"/></g><g transform="translate(1198.6018557947468 490.19920101884986) rotate(0 55.28398110121509 -0.6420853459563887)"><path d="M80.13 9.91 C89.87 8.22, 95.69 4.4, 110.85 -2.7 M82.21 8.1 C88.39 6.95, 96.46 3.23, 109.09 -2.52" stroke="#000000" stroke-width="1" fill="none"/></g><g transform="translate(1198.6018557947468 490.19920101884986) rotate(0 55.28398110121509 -0.6420853459563887)"><path d="M79.54 -10.6 C89.4 -7.69, 95.35 -6.91, 110.85 -2.7 M81.62 -12.41 C87.81 -8.49, 96.02 -7.14, 109.09 -2.52" stroke="#000000" stroke-width="1" fill="none"/></g></g><g stroke-linecap="round" transform="translate(1442.8333333333335 364.1666666666667) rotate(0 142.5 27.5)"><path d="M1.43 -0.23 C109.62 2.38, 215.65 1.5, 284.11 0.35 M0.34 -0.7 C62.3 -0.13, 123.92 1.06, 284.28 0.12 M284.94 -1.87 C286.1 14.04, 283.26 23.93, 285.17 56.81 M285.74 0.59 C285.26 15.02, 283.94 31.21, 284.8 55.73 M285.43 55.95 C193.74 53.32, 100.85 54.34, -1.46 53.48 M284.67 55.06 C213.78 56.84, 144.75 56.56, 0.23 55.68 M0.73 54.67 C-1.41 40.23, 0.49 23.04, -0.73 0.15 M-0.95 54.04 C-0.09 33.7, -0.12 13.06, 0.17 -0.43" stroke="#000000" stroke-width="1" fill="none"/></g><g transform="translate(1015.3333333333333 367.6666666666667) rotate(0 72 26)"><text x="0" y="18" font-family="Virgil, Segoe UI Emoji" font-size="20px" fill="#000000" text-anchor="start" style="white-space: pre;" direction="ltr">Faster/Earlier</text><text x="0" y="44" font-family="Virgil, Segoe UI Emoji" font-size="20px" fill="#000000" text-anchor="start" style="white-space: pre;" direction="ltr">feedback loops</text></g><g stroke-linecap="round"><g transform="translate(1177.6622691826828 391.442076103268) rotate(0 133.0971487012647 -0.8169992095426579)"><path d="M0.31 -1.18 C44.96 -1.66, 222.61 -2.4, 267.17 -2.45 M-0.98 0.82 C43.63 0.47, 221.81 -0.41, 266.57 -1.14" stroke="#000000" stroke-width="1" fill="none"/></g><g transform="translate(1177.6622691826828 391.442076103268) rotate(0 133.0971487012647 -0.8169992095426579)"><path d="M236.52 10.49 C244.46 8.77, 252.77 4.29, 266.18 -1.22 M237.72 10.25 C246.31 5.92, 255.49 4.08, 267.29 -1.81" stroke="#000000" stroke-width="1" fill="none"/></g><g transform="translate(1177.6622691826828 391.442076103268) rotate(0 133.0971487012647 -0.8169992095426579)"><path d="M236.32 -10.03 C244.38 -6.84, 252.74 -6.41, 266.18 -1.22 M237.52 -10.27 C246.04 -8.32, 255.28 -3.88, 267.29 -1.81" stroke="#000000" stroke-width="1" fill="none"/></g></g><g stroke-linecap="round" transform="translate(1308.666666666667 461.66666666666663) rotate(0 138.33333333333326 29.16666666666667)"><path d="M-1.33 -0.74 C104.64 1.98, 208.31 3.01, 276.49 -1.47 M0.72 0.77 C98.2 0.15, 196 0.47, 276.43 0.67 M276.58 1.17 C274.47 14.49, 277.24 28.43, 277.46 56.36 M276.99 -0.91 C276.42 16.28, 277.4 30.5, 276.57 57.87 M277.14 56.96 C193.89 57.79, 113.48 56.86, 0.38 58.12 M276.57 58.91 C175.36 58.07, 72.92 58.22, -0.24 57.7 M-1.08 60 C-0.81 43.42, 0.2 24.99, -0.1 1.94 M-0.37 58.83 C-0.86 40.71, -0.8 22.41, -0.51 -0.93" stroke="#000000" stroke-width="1" fill="none"/></g><g transform="translate(1325.3333333333335 481) rotate(0 122.5 13)"><text x="0" y="18" font-family="Virgil, Segoe UI Emoji" font-size="20px" fill="#000000" text-anchor="start" style="white-space: pre;" direction="ltr">More aligned optimization</text></g><g stroke-linecap="round"><g transform="translate(1359.181428235992 747.356607316251) rotate(0 14.73671816412741 -34.31183568604499)"><path d="M0.97 -0.86 C5.9 -12.41, 24.84 -57.08, 29.46 -68.39 M0.02 1.31 C4.84 -10.64, 24.12 -57.94, 28.74 -69.93" stroke="#000000" stroke-width="1" fill="none"/></g><g transform="translate(1359.181428235992 747.356607316251) rotate(0 14.73671816412741 -34.31183568604499)"><path d="M26.42 -39.22 C29.7 -49.16, 29.41 -58.78, 29.44 -69.55 M28.82 -40.53 C27.72 -47.02, 27.94 -53.42, 28.11 -70.03" stroke="#000000" stroke-width="1" fill="none"/></g><g transform="translate(1359.181428235992 747.356607316251) rotate(0 14.73671816412741 -34.31183568604499)"><path d="M7.35 -46.8 C16.18 -54.71, 21.39 -62.15, 29.44 -69.55 M9.75 -48.12 C12.72 -52.9, 16.96 -57.69, 28.11 -70.03" stroke="#000000" stroke-width="1" fill="none"/></g></g><g stroke-linecap="round" transform="translate(1393.6666666666665 610) rotate(0 121.66666666666686 50.83333333333334)"><path d="M-0.54 0.91 C89.35 0.74, 175.37 -0.86, 243.06 -1.49 M0.4 -0.09 C91.78 -0.52, 184.14 -0.16, 242.85 0.74 M241.81 0.26 C241.13 21.27, 243.12 47.67, 242.47 102.34 M244.2 0.85 C242.34 23.69, 244.21 46.78, 242.4 100.94 M242.73 102.25 C170 101.96, 101.2 100.91, -0.64 103.23 M243.98 101.71 C187.39 101.23, 132.28 100.14, 0.8 102.49 M0.63 101.17 C-1.1 82.41, 1.79 59.82, 1.37 -1.78 M-0.93 101.86 C1.7 77.54, 0.26 53.63, 0.37 -0.5" stroke="#000000" stroke-width="1" fill="none"/></g><g transform="translate(1408.6666666666665 622.6666666666667) rotate(0 107 39)"><text x="0" y="18" font-family="Virgil, Segoe UI Emoji" font-size="20px" fill="#000000" text-anchor="start" style="white-space: pre;" direction="ltr">Better execution</text><text x="0" y="44" font-family="Virgil, Segoe UI Emoji" font-size="20px" fill="#000000" text-anchor="start" style="white-space: pre;" direction="ltr">(doing what you are</text><text x="0" y="70" font-family="Virgil, Segoe UI Emoji" font-size="20px" fill="#000000" text-anchor="start" style="white-space: pre;" direction="ltr">already doing, better)</text></g><g stroke-linecap="round"><g transform="translate(1442.2382392822906 894.4142035020025) rotate(0 35.44903936032313 -30.318286473080093)"><path d="M-0.24 -0.02 C11.33 -10.17, 57.46 -50.49, 69.01 -60.61 M1.83 -1.08 C13.8 -11.04, 59.55 -49.32, 71.14 -59.06" stroke="#000000" stroke-width="1" fill="none"/></g><g transform="translate(1442.2382392822906 894.4142035020025) rotate(0 35.44903936032313 -30.318286473080093)"><path d="M56.09 -34.93 C60.05 -41.66, 63.73 -45.31, 70.84 -58.97 M55.94 -33.19 C61.82 -42.69, 67.54 -51.02, 71.15 -59.08" stroke="#000000" stroke-width="1" fill="none"/></g><g transform="translate(1442.2382392822906 894.4142035020025) rotate(0 35.44903936032313 -30.318286473080093)"><path d="M42.91 -50.66 C50.35 -53.24, 57.48 -52.78, 70.84 -58.97 M42.76 -48.92 C53.22 -52.92, 63.67 -55.61, 71.15 -59.08" stroke="#000000" stroke-width="1" fill="none"/></g></g><g stroke-linecap="round" transform="translate(707.8333333333333 10) rotate(0 128.33333333333337 36.666666666666686)"><path d="M1.16 0.62 C70.39 -0.03, 140.42 -0.12, 256.34 1.52 M-0.6 -0.56 C54.24 -1.62, 109.8 -0.8, 256.83 0.23 M255.91 0.7 C256.69 27.25, 254.97 53.99, 258.09 73.22 M257.5 0.05 C256.78 29.02, 256.13 57.35, 257.16 73.76 M257.83 74.5 C201.68 73.05, 144.3 71.56, 1.2 73.94 M257.06 73.56 C183.42 74.8, 110.53 74.49, 0.63 72.63 M-1.5 75.22 C0.13 52.54, -1.67 29.6, 1.53 -1.63 M-0.75 73.08 C-0.34 46.24, 0.42 21.3, 0.83 0.26" stroke="#000000" stroke-width="1" fill="none"/></g><g transform="translate(815.3333333333333 35.16666666666663) rotate(0 8 13)"><text x="0" y="18" font-family="Virgil, Segoe UI Emoji" font-size="20px" fill="#000000" text-anchor="start" style="white-space: pre;" direction="ltr">...</text></g><g stroke-linecap="round" transform="translate(1512 765.8333333333333) rotate(0 183.33333333333348 54.166666666666686)"><path d="M0.31 0.86 C89.33 -2.82, 178.34 -2.72, 366.48 1.22 M-0.6 -0.6 C106.8 2.44, 213.19 2.02, 366.54 0.61 M367.57 1.28 C365.44 36.67, 364.68 70.56, 365 107.38 M367.44 -0.65 C368.01 27.62, 367.7 55.63, 367.66 108.89 M367.47 107.3 C224.65 109.25, 82.41 109.13, -0.03 108.96 M367.25 108.54 C270.64 109.6, 175.26 109.89, -0.18 108.59 M-0.02 106.84 C1.41 84.43, 0 55.26, -0.14 -1.45 M0.04 109.23 C-0.25 80.44, -0.64 54.81, -0.39 -0.55" stroke="#000000" stroke-width="1" fill="none"/></g><g transform="translate(1523.6666666666665 783.5000000000002) rotate(0 171.5 39)"><text x="0" y="18" font-family="Virgil, Segoe UI Emoji" font-size="20px" fill="#000000" text-anchor="start" style="white-space: pre;" direction="ltr">Better prioritization</text><text x="0" y="44" font-family="Virgil, Segoe UI Emoji" font-size="20px" fill="#000000" text-anchor="start" style="white-space: pre;" direction="ltr">(deciding where to allocate</text><text x="0" y="70" font-family="Virgil, Segoe UI Emoji" font-size="20px" fill="#000000" text-anchor="start" style="white-space: pre;" direction="ltr">funding, time, attention, resources)</text></g><g stroke-linecap="round"><g transform="translate(1358.1388038466375 754.8994619510893) rotate(0 76.55001898358285 32.94935384517163)"><path d="M-0.53 0.33 C25.17 11.4, 128.11 54.43, 153.63 65.46 M1.4 -0.54 C26.97 10.73, 127.06 55.03, 152.66 66.44" stroke="#000000" stroke-width="1" fill="none"/></g><g transform="translate(1358.1388038466375 754.8994619510893) rotate(0 76.55001898358285 32.94935384517163)"><path d="M123.28 64.3 C128.55 63.25, 138.01 64.64, 150.73 66.86 M122.52 63.72 C129.73 65.09, 138.32 65.59, 153.18 66.6" stroke="#000000" stroke-width="1" fill="none"/></g><g transform="translate(1358.1388038466375 754.8994619510893) rotate(0 76.55001898358285 32.94935384517163)"><path d="M131.61 45.54 C134.6 49.25, 141.93 55.42, 150.73 66.86 M130.84 44.96 C135.98 51.37, 142.36 56.86, 153.18 66.6" stroke="#000000" stroke-width="1" fill="none"/></g></g><g stroke-linecap="round"><g transform="translate(1436.10742365352 893.5821102262266) rotate(0 39.00611293050201 -87.10311020715667)"><path d="M0.52 0.86 C13.63 -28.47, 65.88 -145.86, 78.67 -175.07 M-0.66 0.26 C12.32 -29.02, 64.6 -145.1, 78 -174" stroke="#000000" stroke-width="1" fill="none"/></g><g transform="translate(1436.10742365352 893.5821102262266) rotate(0 39.00611293050201 -87.10311020715667)"><path d="M77.07 -143.22 C74.63 -154.67, 76.52 -161.61, 77.26 -174.86 M74.87 -144.07 C76.12 -151.4, 75.93 -157.04, 78.81 -174.76" stroke="#000000" stroke-width="1" fill="none"/></g><g transform="translate(1436.10742365352 893.5821102262266) rotate(0 39.00611293050201 -87.10311020715667)"><path d="M58.4 -151.73 C61.73 -160.67, 69.32 -165.01, 77.26 -174.86 M56.2 -152.58 C61.57 -158.09, 65.56 -161.83, 78.81 -174.76" stroke="#000000" stroke-width="1" fill="none"/></g></g><g stroke-linecap="round" transform="translate(731.9999999999999 644.1666666666667) rotate(0 88.33333333333331 36.66666666666666)"><path d="M0.83 0.63 C53.26 -1.8, 109.49 -3.3, 175.06 1.11 M-0.07 -0.58 C37.02 -0.26, 73.11 -1.52, 176.46 -0.19 M177.13 -1.42 C174.8 18.54, 175.95 33.88, 178.18 73.33 M176.44 -0.8 C176.58 24.14, 177.41 47.52, 176.54 73.73 M175.75 71.35 C122.19 72.87, 68.46 72.69, 0.92 73.85 M175.83 72.53 C115.87 70.85, 55.2 72.49, 0.56 72.8 M1.43 72.53 C1.37 48.71, -2.17 22.44, 1.82 0.21 M-0.47 72.35 C0 57.36, -1.16 40.29, 0.69 0.35" stroke="#000000" stroke-width="1" fill="none"/></g><g transform="translate(749.4999999999999 654.3333333333334) rotate(0 73.5 26)"><text x="0" y="18" font-family="Virgil, Segoe UI Emoji" font-size="20px" fill="#000000" text-anchor="start" style="white-space: pre;" direction="ltr">Experience &amp;</text><text x="0" y="44" font-family="Virgil, Segoe UI Emoji" font-size="20px" fill="#000000" text-anchor="start" style="white-space: pre;" direction="ltr">efficiency gains</text></g><g stroke-linecap="round"><g transform="translate(818.7339259263636 635.6886422347516) rotate(0 0.30624994632501057 -19.53057957723857)"><path d="M-0.22 -0.94 C0.11 -7.71, 1.95 -33.96, 2.41 -40.24 M-1.8 1.18 C-1.63 -5.49, 1 -32.15, 1.64 -39.09" stroke="#000000" stroke-width="1" fill="none"/></g><g transform="translate(818.7339259263636 635.6886422347516) rotate(0 0.30624994632501057 -19.53057957723857)"><path d="M5.07 -19.39 C3.67 -25.53, 4.68 -34.16, 2.86 -37.81 M7.51 -20.47 C6.41 -25.74, 4.55 -30.74, 1.73 -38.93" stroke="#000000" stroke-width="1" fill="none"/></g><g transform="translate(818.7339259263636 635.6886422347516) rotate(0 0.30624994632501057 -19.53057957723857)"><path d="M-8.39 -20.66 C-5.3 -26.36, 0.2 -34.56, 2.86 -37.81 M-5.96 -21.75 C-3.57 -26.57, -1.94 -31.23, 1.73 -38.93" stroke="#000000" stroke-width="1" fill="none"/></g></g><g stroke-linecap="round"><g transform="translate(838.4649183378075 592.9095483618535) rotate(0 -3.4786540084666626 24.52910009596991)"><path d="M-0.84 -0.35 C-2.27 8.07, -7.03 42.07, -7.87 50.64 M0.92 -1.59 C-0.21 6.45, -4.54 40.18, -5.73 48.64" stroke="#000000" stroke-width="1" fill="none"/></g><g transform="translate(838.4649183378075 592.9095483618535) rotate(0 -3.4786540084666626 24.52910009596991)"><path d="M-11.77 21.99 C-8.85 34.17, -6.11 43.3, -5.91 49.2 M-10.23 23.51 C-9.95 32.72, -6.24 42.41, -6.53 47.8" stroke="#000000" stroke-width="1" fill="none"/></g><g transform="translate(838.4649183378075 592.9095483618535) rotate(0 -3.4786540084666626 24.52910009596991)"><path d="M5.48 24.3 C2.22 35.54, -1.22 43.83, -5.91 49.2 M7.02 25.82 C0.57 34.08, -2.45 42.87, -6.53 47.8" stroke="#000000" stroke-width="1" fill="none"/></g></g><g stroke-linecap="round"><g transform="translate(751.5274017287192 537.2253265139277) rotate(0 -44.1413713849642 -61.323364446773525)"><path d="M-0.34 1.02 C-15.31 -19.74, -74.29 -103, -89.44 -123.67 M1.68 0.51 C-13.4 -20.19, -74.87 -102.16, -89.96 -122.53" stroke="#000000" stroke-width="1" fill="none"/></g><g transform="translate(751.5274017287192 537.2253265139277) rotate(0 -44.1413713849642 -61.323364446773525)"><path d="M-63.18 -104.72 C-74.54 -113.21, -81.68 -118.12, -89.78 -123.31 M-64.41 -106.39 C-70.24 -109.23, -77.19 -115.19, -89.03 -121.78" stroke="#000000" stroke-width="1" fill="none"/></g><g transform="translate(751.5274017287192 537.2253265139277) rotate(0 -44.1413713849642 -61.323364446773525)"><path d="M-79.63 -92.45 C-85.65 -104.94, -87.37 -113.9, -89.78 -123.31 M-80.86 -94.13 C-82.44 -100.16, -85.19 -109.25, -89.03 -121.78" stroke="#000000" stroke-width="1" fill="none"/></g></g><g stroke-linecap="round"><g transform="translate(755.8796930505781 541.2954182420629) rotate(0 -35.67706862087516 -2.787109456735493)"><path d="M-1.05 -0.44 C-12.92 -1.15, -59.58 -4.55, -71.43 -5.14 M0.6 -1.71 C-11.34 -2.15, -59.71 -2.95, -71.96 -3.61" stroke="#000000" stroke-width="1" fill="none"/></g><g transform="translate(755.8796930505781 541.2954182420629) rotate(0 -35.67706862087516 -2.787109456735493)"><path d="M-44.17 -11.62 C-51.67 -10.41, -57.82 -8.11, -71.1 -4.85 M-43.06 -12.3 C-51.17 -10.29, -58.67 -8.12, -70.99 -3.55" stroke="#000000" stroke-width="1" fill="none"/></g><g transform="translate(755.8796930505781 541.2954182420629) rotate(0 -35.67706862087516 -2.787109456735493)"><path d="M-44.85 8.89 C-52.01 4.26, -57.96 0.71, -71.1 -4.85 M-43.74 8.21 C-51.72 4.92, -59.05 1.79, -70.99 -3.55" stroke="#000000" stroke-width="1" fill="none"/></g></g><g stroke-linecap="round" transform="translate(517.8333333333333 382.5) rotate(0 72.5 35.83333333333333)"><path d="M-1.7 0.06 C39.99 0.36, 81.03 -0.59, 145.19 0.79 M-0.37 0.18 C57.59 0.3, 115.45 1.32, 144.9 0.37 M143.88 -0.27 C144.06 21.05, 146.38 44.15, 145.35 71.88 M145.68 -0.61 C144.4 26.85, 144.73 51.74, 145.58 71.32 M146.43 71.6 C115.18 70.86, 86.27 69.28, 0.74 70.52 M144.42 72.44 C113.29 69.72, 81.39 71.31, 0.78 72.52 M0.89 69.9 C1.82 47.75, -0.52 19.59, -0.19 0.57 M-0.59 71.71 C-0.9 57.2, -1.03 42.07, -0.04 0.93" stroke="#000000" stroke-width="1" fill="none"/></g><g transform="translate(522.8333333333333 398.5) rotate(0 65.5 26)"><text x="0" y="18" font-family="Virgil, Segoe UI Emoji" font-size="20px" fill="#000000" text-anchor="start" style="white-space: pre;" direction="ltr">Pissing people</text><text x="0" y="44" font-family="Virgil, Segoe UI Emoji" font-size="20px" fill="#000000" text-anchor="start" style="white-space: pre;" direction="ltr">off</text></g><g stroke-linecap="round" transform="translate(491.1666666666664 491.6666666666667) rotate(0 95.00000000000006 48.33333333333334)"><path d="M-1.08 -0.1 C43.81 0.32, 85.88 2.09, 188.97 1.26 M-0.42 0.45 C44.04 -0.24, 90.99 -0.14, 189.24 -0.36 M191.58 0.7 C191.28 27.09, 191.46 53.44, 188.37 96.98 M189.74 -0.8 C190.02 22.4, 190.54 46.24, 190.21 96.03 M189.24 96.41 C128.77 97.8, 69.91 98.15, -0.41 94.89 M189.32 95.88 C131.04 97.74, 72.34 98.99, -0.73 97.57 M0.58 97.87 C0.41 58.28, -1.71 24.26, 1.57 -0.87 M-0.53 97.01 C-1.7 73.59, -1.11 49.84, 0.82 -0.24" stroke="#000000" stroke-width="1" fill="none"/></g><g transform="translate(507.8333333333332 495.1666666666667) rotate(0 85 39)"><text x="0" y="18" font-family="Virgil, Segoe UI Emoji" font-size="20px" fill="#000000" text-anchor="start" style="white-space: pre;" direction="ltr">Noisy evaluations</text><text x="0" y="44" font-family="Virgil, Segoe UI Emoji" font-size="20px" fill="#000000" text-anchor="start" style="white-space: pre;" direction="ltr">taken too</text><text x="0" y="70" font-family="Virgil, Segoe UI Emoji" font-size="20px" fill="#000000" text-anchor="start" style="white-space: pre;" direction="ltr">seriously</text></g><g stroke-linecap="round" transform="translate(1990 672.6666666666667) rotate(0 55 48.75000000000003)"><path d="M58.22 0.48 C67.02 0.15, 77.53 4.09, 85.31 8.92 C93.1 13.76, 100.96 21.9, 104.92 29.5 C108.89 37.11, 110.24 46.36, 109.11 54.55 C107.97 62.75, 103.8 71.99, 98.11 78.66 C92.42 85.33, 83.85 91.51, 74.97 94.59 C66.09 97.66, 54.47 98.87, 44.83 97.13 C35.2 95.38, 24.39 89.91, 17.14 84.13 C9.9 78.35, 4.06 70.36, 1.39 62.46 C-1.29 54.55, -1.46 44.94, 1.1 36.72 C3.66 28.5, 9.95 19.08, 16.77 13.14 C23.6 7.2, 34.01 3.11, 42.08 1.1 C50.15 -0.91, 60.6 0.89, 65.18 1.07 C69.76 1.25, 69.75 1.38, 69.58 2.17 M74.93 3.8 C83.55 6.16, 92.95 12.68, 98.49 19.08 C104.04 25.48, 106.99 33.77, 108.18 42.22 C109.38 50.66, 109.5 61.96, 105.67 69.76 C101.84 77.56, 93.35 84.21, 85.2 89.04 C77.05 93.86, 66.11 98.07, 56.79 98.72 C47.47 99.37, 37.48 97, 29.25 92.94 C21.03 88.87, 12.08 81.82, 7.43 74.31 C2.79 66.81, 1.1 56.45, 1.39 47.9 C1.68 39.34, 4.26 30.07, 9.18 22.97 C14.09 15.86, 22.42 8.88, 30.88 5.24 C39.33 1.61, 52.66 1.3, 59.91 1.15 C67.16 0.99, 72.16 3.83, 74.36 4.34 C76.55 4.85, 73.58 3.47, 73.08 4.18" stroke="#000000" stroke-width="1" fill="none"/></g><g transform="translate(2010 708.6666666666667) rotate(0 34 13.000000000000028)"><text x="0" y="18" font-family="Virgil, Segoe UI Emoji" font-size="20px" fill="#000000" text-anchor="start" style="white-space: pre;" direction="ltr">Impact</text></g><g stroke-linecap="round" transform="translate(1980 660.1666666666667) rotate(0 65 60.00000000000003)"><path d="M74.67 0.52 C84.4 1.29, 96.44 7.66, 104.84 13.42 C113.23 19.18, 120.75 26.46, 125.03 35.07 C129.31 43.67, 131.52 55.49, 130.53 65.05 C129.53 74.62, 124.91 84.41, 119.04 92.47 C113.17 100.53, 104.36 108.76, 95.3 113.4 C86.23 118.04, 74.87 120.38, 64.65 120.31 C54.42 120.24, 43.06 117.58, 33.94 112.98 C24.82 108.37, 15.64 100.93, 9.94 92.68 C4.25 84.43, 0.46 73.13, -0.25 63.48 C-0.97 53.83, 1.14 43.46, 5.64 34.8 C10.15 26.13, 18.43 17.31, 26.78 11.5 C35.12 5.69, 46.52 1.42, 55.73 -0.05 C64.94 -1.53, 76.86 1.92, 82.05 2.66 C87.25 3.4, 87.27 3.53, 86.9 4.37 M81.07 2.91 C90.98 4.48, 103.3 9.34, 111.21 15.67 C119.13 22.01, 125.75 31.69, 128.53 40.93 C131.31 50.18, 130.17 61.83, 127.9 71.16 C125.63 80.49, 121.63 89.61, 114.91 96.91 C108.2 104.22, 97.38 111.42, 87.59 114.98 C77.81 118.54, 66.41 119.23, 56.21 118.29 C46 117.35, 34.76 114.76, 26.35 109.34 C17.93 103.92, 10.28 94.31, 5.7 85.79 C1.13 77.27, -1.63 67.82, -1.09 58.2 C-0.55 48.59, 3.2 36.53, 8.94 28.09 C14.68 19.66, 24.61 12.25, 33.37 7.6 C42.13 2.95, 53.43 1.17, 61.5 0.17 C69.58 -0.82, 78.56 0.93, 81.83 1.62 C85.09 2.3, 81.39 3.25, 81.09 4.27" stroke="#000000" stroke-width="1" fill="none"/></g><g stroke-linecap="round"><g transform="translate(1447.5 520.1666666666667) rotate(0 0.19967470273832078 43.617575885872355)"><path d="M-0.17 0.32 C0.26 14.95, 1.81 73.45, 2.11 87.79 M-1.71 -0.55 C-1.44 13.7, -0.01 71.22, 0.96 85.82" stroke="#000000" stroke-width="1" fill="none"/></g><g transform="translate(1447.5 520.1666666666667) rotate(0 0.19967470273832078 43.617575885872355)"><path d="M-9.95 57.44 C-6.97 64.04, -6.36 72.52, 2.36 85.17 M-10.76 58.54 C-6.17 66.73, -4.4 75.51, 1.66 86.19" stroke="#000000" stroke-width="1" fill="none"/></g><g transform="translate(1447.5 520.1666666666667) rotate(0 0.19967470273832078 43.617575885872355)"><path d="M10.55 56.57 C8.09 63.38, 3.27 72.08, 2.36 85.17 M9.75 57.67 C8.2 66.14, 3.82 75.19, 1.66 86.19" stroke="#000000" stroke-width="1" fill="none"/></g></g><g stroke-linecap="round"><g transform="translate(1611.9762444971398 424.2788508425157) rotate(0 -0.9134640185053513 91.55583772427869)"><path d="M0.38 -0.89 C0.04 29.59, -1.46 151.89, -1.81 182.78 M-0.87 1.26 C-1.31 31.89, -2.04 153.76, -2.21 184" stroke="#000000" stroke-width="1" fill="none"/></g><g transform="translate(1611.9762444971398 424.2788508425157) rotate(0 -0.9134640185053513 91.55583772427869)"><path d="M-13.78 157.49 C-10.08 166.71, -4.04 175.05, -0.97 185.82 M-12.36 156.37 C-9.36 165.63, -4.25 176.49, -2.92 184.47" stroke="#000000" stroke-width="1" fill="none"/></g><g transform="translate(1611.9762444971398 424.2788508425157) rotate(0 -0.9134640185053513 91.55583772427869)"><path d="M6.74 157.61 C3.83 166.86, 3.26 175.16, -0.97 185.82 M8.16 156.49 C3.82 165.52, 1.6 176.33, -2.92 184.47" stroke="#000000" stroke-width="1" fill="none"/></g></g><g stroke-linecap="round"><g transform="translate(1640 660.1666666666667) rotate(0 174.9926147152147 23.837585202387146)"><path d="M-0.28 0.14 C58.05 8.32, 291.76 40.63, 350.27 48.51 M1.77 -0.83 C59.93 7.04, 291.29 38.45, 349.39 46.65" stroke="#000000" stroke-width="1" fill="none"/></g><g transform="translate(1640 660.1666666666667) rotate(0 174.9926147152147 23.837585202387146)"><path d="M320.29 53.18 C330.42 52.08, 338.04 47.47, 348 45.93 M320.34 53.11 C329.94 49.67, 341.52 48.5, 350.11 46.45" stroke="#000000" stroke-width="1" fill="none"/></g><g transform="translate(1640 660.1666666666667) rotate(0 174.9926147152147 23.837585202387146)"><path d="M323.1 32.85 C332.22 38.32, 338.93 40.29, 348 45.93 M323.15 32.78 C331.84 36.59, 342.43 42.67, 350.11 46.45" stroke="#000000" stroke-width="1" fill="none"/></g></g><g stroke-linecap="round"><g transform="translate(1880 796.1219343819789) rotate(0 54.807511698763165 -29.977858474916445)"><path d="M0.11 0.9 C18.4 -8.81, 92.55 -48.96, 110.91 -59.31 M-1.29 0.32 C16.7 -9.59, 90.74 -50.74, 109.72 -60.85" stroke="#000000" stroke-width="1" fill="none"/></g><g transform="translate(1880 796.1219343819789) rotate(0 54.807511698763165 -29.977858474916445)"><path d="M91.39 -39.09 C99.84 -49.13, 104.49 -57.92, 110.25 -60.86 M90.88 -38.79 C98.01 -46.64, 103.51 -54.46, 110.68 -61.01" stroke="#000000" stroke-width="1" fill="none"/></g><g transform="translate(1880 796.1219343819789) rotate(0 54.807511698763165 -29.977858474916445)"><path d="M81.56 -57.1 C93.76 -59.99, 102.31 -61.61, 110.25 -60.86 M81.05 -56.8 C91.62 -58.07, 100.68 -59.36, 110.68 -61.01" stroke="#000000" stroke-width="1" fill="none"/></g></g><g stroke-linecap="round" transform="translate(130 512.6666666666667) rotate(0 58.75 57.5)"><path d="M71.63 0.76 C80.93 1.9, 91.6 8.08, 98.74 14.53 C105.88 20.99, 111.54 30.3, 114.46 39.49 C117.38 48.67, 118.24 60.47, 116.26 69.66 C114.28 78.84, 109.1 87.69, 102.6 94.58 C96.1 101.48, 86.25 107.7, 77.28 111.03 C68.31 114.36, 58.19 116.01, 48.79 114.57 C39.39 113.13, 28.55 108.61, 20.86 102.39 C13.18 96.17, 5.95 86.25, 2.68 77.24 C-0.59 68.23, -0.39 57.64, 1.26 48.32 C2.9 39.01, 6.51 28.69, 12.56 21.38 C18.6 14.06, 28.41 8.04, 37.51 4.45 C46.6 0.86, 61.01 0.13, 67.11 -0.16 C73.21 -0.45, 72.62 1.88, 74.12 2.71 C75.62 3.55, 76.34 3.95, 76.1 4.85 M37.25 4.39 C45.56 -0.23, 56.19 -1.93, 65.62 -0.6 C75.05 0.72, 86.1 6.71, 93.84 12.34 C101.59 17.98, 108.31 24.71, 112.1 33.21 C115.9 41.71, 117.37 53.82, 116.6 63.34 C115.83 72.86, 113.12 82.81, 107.49 90.33 C101.86 97.86, 91.5 104.38, 82.83 108.47 C74.16 112.56, 64.76 115.42, 55.49 114.9 C46.23 114.37, 35.27 110.51, 27.24 105.32 C19.22 100.13, 11.68 92.43, 7.34 83.75 C3.01 75.07, 0.99 62.74, 1.24 53.23 C1.49 43.72, 3.6 34.33, 8.86 26.69 C14.11 19.04, 28.3 11.18, 32.78 7.37 C37.26 3.57, 35.1 3.99, 35.72 3.86 C36.35 3.73, 35.93 5.67, 36.53 6.58" stroke="#000000" stroke-width="1" fill="none"/></g><g transform="translate(152.5 558.6666666666667) rotate(0 34 13)"><text x="0" y="18" font-family="Virgil, Segoe UI Emoji" font-size="20px" fill="#000000" text-anchor="start" style="white-space: pre;" direction="ltr">Impact</text></g><g stroke-linecap="round" transform="translate(120 497.66666666666674) rotate(0 70 72.5)"><path d="M82.67 1.75 C92.46 2.42, 103.62 7.54, 112.07 14 C120.51 20.47, 128.67 30.59, 133.34 40.53 C138.02 50.48, 140.24 62.63, 140.13 73.65 C140.01 84.67, 137.37 96.99, 132.64 106.63 C127.91 116.27, 120.46 125.14, 111.74 131.49 C103.02 137.83, 90.93 142.83, 80.32 144.68 C69.71 146.52, 57.81 145.97, 48.08 142.54 C38.34 139.12, 29.23 132, 21.92 124.12 C14.61 116.25, 7.65 105.61, 4.21 95.29 C0.77 84.97, -0.07 73.05, 1.29 62.22 C2.65 51.39, 6.39 39.19, 12.39 30.32 C18.39 21.45, 27.93 13.97, 37.29 8.99 C46.65 4, 60.07 1.43, 68.57 0.41 C77.07 -0.62, 84.02 1.75, 88.29 2.86 C92.57 3.97, 94.36 6.02, 94.2 7.05 M83.33 2.02 C93.34 3.04, 104.77 9.02, 112.84 15.27 C120.9 21.51, 126.97 29.64, 131.71 39.49 C136.46 49.35, 141.22 63.54, 141.3 74.4 C141.38 85.26, 137.08 95.22, 132.19 104.65 C127.31 114.08, 120.47 124.37, 111.97 130.98 C103.47 137.59, 91.88 142.55, 81.18 144.3 C70.49 146.06, 57.96 144.61, 47.8 141.51 C37.63 138.41, 27.64 133.17, 20.18 125.68 C12.72 118.2, 6.48 107.29, 3.01 96.61 C-0.45 85.93, -2.34 72.57, -0.61 61.62 C1.12 50.67, 7.4 39.56, 13.39 30.9 C19.39 22.25, 26.46 14.94, 35.35 9.66 C44.23 4.38, 58.6 0.45, 66.69 -0.78 C74.78 -2, 81.03 1.58, 83.87 2.32 C86.72 3.06, 84.38 2.77, 83.75 3.66" stroke="#000000" stroke-width="1" fill="none"/></g><g stroke-linecap="round"><g transform="translate(165.85545075909235 546.8464673827093) rotate(0 18.4603640884161 24.273165949871782)"><path d="M-0.12 -0.82 C6.27 7.37, 32.22 40.07, 38.57 48.18 M-1.64 1.36 C4.66 9.78, 31.62 41.49, 38.12 49.37" stroke="#000000" stroke-width="1" fill="none"/></g></g><g stroke-linecap="round"><g transform="translate(221.06431018412113 543.0193317308433) rotate(0 -29.164687134018166 25.845854791998875)"><path d="M1.06 0.92 C-8.69 9.58, -48.69 43.17, -59.06 51.34 M0.16 0.35 C-9.59 8.75, -49.57 41.22, -59.39 49.66" stroke="#000000" stroke-width="1" fill="none"/></g></g><g stroke-linecap="round"><g transform="translate(507.5 417.38708702219907) rotate(0 -130.07668603143608 64.12135438315265)"><path d="M-0.64 -0.7 C-43.86 20.73, -217.05 106.37, -260.16 127.96 M1.23 1.54 C-42.12 23.15, -217.86 107.53, -261.38 128.94" stroke="#000000" stroke-width="1" fill="none"/></g><g transform="translate(507.5 417.38708702219907) rotate(0 -130.07668603143608 64.12135438315265)"><path d="M-241.67 106.54 C-247.14 112.74, -250.47 116.96, -263.33 130.59 M-239.81 107 C-246.9 114.4, -253.16 119.69, -260.52 129.93" stroke="#000000" stroke-width="1" fill="none"/></g><g transform="translate(507.5 417.38708702219907) rotate(0 -130.07668603143608 64.12135438315265)"><path d="M-232.71 125 C-240.12 126.94, -245.49 126.95, -263.33 130.59 M-230.84 125.46 C-240.59 127.19, -249.61 126.8, -260.52 129.93" stroke="#000000" stroke-width="1" fill="none"/></g></g><g stroke-linecap="round"><g transform="translate(492.5 551.6587523035153) rotate(0 -123.61056054532528 10.003332478029733)"><path d="M0.92 -0.23 C-40.42 3.26, -206.91 17.95, -248.14 21.4 M-0.06 -1.39 C-40.99 1.68, -204.66 15.66, -245.76 19.48" stroke="#000000" stroke-width="1" fill="none"/></g><g transform="translate(492.5 551.6587523035153) rotate(0 -123.61056054532528 10.003332478029733)"><path d="M-218.96 5.72 C-225.78 12.4, -235.21 15.27, -245.14 20.88 M-219.51 7.12 C-228.72 11.31, -237.09 16.19, -245.84 18.5" stroke="#000000" stroke-width="1" fill="none"/></g><g transform="translate(492.5 551.6587523035153) rotate(0 -123.61056054532528 10.003332478029733)"><path d="M-217.15 26.16 C-224.58 26.91, -234.53 23.85, -245.14 20.88 M-217.7 27.56 C-227.35 24.96, -236.32 23.04, -245.84 18.5" stroke="#000000" stroke-width="1" fill="none"/></g></g><g stroke-linecap="round"><g transform="translate(760 537.6666666666667) rotate(0 -47.25009347341489 57.15517729415558)"><path d="M-0.74 -0.31 C-16.66 18.82, -79.92 95.18, -95.58 114.54 M1.08 -1.52 C-14.45 17.79, -77.1 96.59, -93.17 115.83" stroke="#000000" stroke-width="1" fill="none"/></g><g transform="translate(760 537.6666666666667) rotate(0 -47.25009347341489 57.15517729415558)"><path d="M-83.89 86.51 C-87.12 96.36, -87.89 105.54, -94.78 116.95 M-82.76 87.78 C-87.4 97.01, -90.22 107.4, -93.84 116.77" stroke="#000000" stroke-width="1" fill="none"/></g><g transform="translate(760 537.6666666666667) rotate(0 -47.25009347341489 57.15517729415558)"><path d="M-67.96 99.45 C-75.93 105.33, -81.46 110.64, -94.78 116.95 M-66.83 100.71 C-77.11 105.35, -85.46 111.24, -93.84 116.77" stroke="#000000" stroke-width="1" fill="none"/></g></g><g stroke-linecap="round" transform="translate(467.5 632.6666666666667) rotate(0 98.75 36.25)"><path d="M-1.72 -1.38 C46.42 0.59, 90.37 0.02, 197.21 -0.36 M0.11 -0.17 C61.48 2.05, 124.4 0.51, 196.68 0.91 M195.84 1.06 C196.88 14.57, 198.51 30.67, 198.03 71.47 M196.59 -0.33 C197.42 15.32, 196.54 29.85, 198.2 71.73 M196.14 71.71 C158.87 73.45, 117.06 73.67, -0.22 71.5 M196.96 72.01 C143.04 71.3, 89.39 71.48, -0.76 71.78 M0.86 70.51 C-1.04 48.83, 0.5 24.65, -1.11 -0.86 M-0.49 71.7 C-0.35 54.28, 0.19 36.87, -0.43 -0.71" stroke="#000000" stroke-width="1" fill="none"/></g><g transform="translate(480 638.6666666666667) rotate(0 71 26)"><text x="0" y="18" font-family="Virgil, Segoe UI Emoji" font-size="20px" fill="#000000" text-anchor="start" style="white-space: pre;" direction="ltr">Opportunity</text><text x="0" y="44" font-family="Virgil, Segoe UI Emoji" font-size="20px" fill="#000000" text-anchor="start" style="white-space: pre;" direction="ltr">costs too high</text></g><g stroke-linecap="round"><g transform="translate(460 672.6666666666667) rotate(0 -106.63748803614641 -41.421084246039385)"><path d="M-0.64 0.25 C-36.2 -13.51, -178.17 -69.26, -214.05 -83.09 M1.23 -0.67 C-34.35 -14.23, -178.7 -68.38, -214.5 -81.86" stroke="#000000" stroke-width="1" fill="none"/></g><g transform="translate(460 672.6666666666667) rotate(0 -106.63748803614641 -41.421084246039385)"><path d="M-184.09 -79.97 C-192.82 -83.39, -199.58 -82.5, -213.83 -81.53 M-184.39 -82.3 C-192.3 -81.08, -200.02 -82.43, -213.55 -82.33" stroke="#000000" stroke-width="1" fill="none"/></g><g transform="translate(460 672.6666666666667) rotate(0 -106.63748803614641 -41.421084246039385)"><path d="M-191.31 -60.76 C-198.2 -68.84, -203.19 -72.65, -213.83 -81.53 M-191.61 -63.09 C-197.53 -66.76, -203.39 -73.04, -213.55 -82.33" stroke="#000000" stroke-width="1" fill="none"/></g></g><g stroke-linecap="round"><g transform="translate(972.5 54.45154325053204) rotate(0 520.1910779327154 293.3958276279336)"><path d="M-0.36 0.24 C150.2 5.9, 729.36 -67.73, 902.88 33.67 C1076.39 135.06, 1017.74 512.99, 1040.74 608.62 M1.65 -0.68 C152.13 4.64, 729.01 -69.42, 902.12 31.78 C1075.24 132.97, 1017.12 510.44, 1040.36 606.49" stroke="#000000" stroke-width="1" fill="none"/></g><g transform="translate(972.5 54.45154325053204) rotate(0 520.1910779327154 293.3958276279336)"><path d="M1029.11 579.48 C1032.42 587.33, 1035.39 594.77, 1039.05 605.45 M1028.78 578.9 C1033.09 587.3, 1035.21 595.54, 1040.62 607.44" stroke="#000000" stroke-width="1" fill="none"/></g><g transform="translate(972.5 54.45154325053204) rotate(0 520.1910779327154 293.3958276279336)"><path d="M1049.6 578.45 C1047.57 586.51, 1045.19 594.22, 1039.05 605.45 M1049.28 577.87 C1047.31 586.76, 1043.15 595.32, 1040.62 607.44" stroke="#000000" stroke-width="1" fill="none"/></g></g><g stroke-linecap="round"><g transform="translate(707.5 44.12919817416059) rotate(0 -242.50143136193103 236.6267646214235)"><path d="M-0.6 0.2 C-52.69 11.58, -231.15 -10.06, -311.94 68.9 C-392.73 147.87, -456.68 406.7, -485.35 474 M1.29 -0.74 C-50.97 10.77, -231.35 -8.43, -312.61 70.34 C-393.87 149.12, -457.26 404.73, -486.29 471.9" stroke="#000000" stroke-width="1" fill="none"/></g><g transform="translate(707.5 44.12919817416059) rotate(0 -242.50143136193103 236.6267646214235)"><path d="M-486.48 442.77 C-486.77 451.89, -485.52 464.82, -487.75 473.84 M-486.35 442.17 C-487.2 453.04, -486.05 463.46, -487.05 472.66" stroke="#000000" stroke-width="1" fill="none"/></g><g transform="translate(707.5 44.12919817416059) rotate(0 -242.50143136193103 236.6267646214235)"><path d="M-467.08 449.46 C-474.24 456.13, -479.82 466.7, -487.75 473.84 M-466.95 448.85 C-474.56 457.43, -480.14 465.54, -487.05 472.66" stroke="#000000" stroke-width="1" fill="none"/></g></g><g stroke-linecap="round"><g transform="translate(915 540.1666666666667) rotate(0 49.39768440574409 23.79896310154109)"><path d="M-0.88 -1.06 C15.63 6.7, 83.03 38.86, 99.68 47.06 M0.86 1 C17.26 8.92, 83.04 41.08, 99.3 48.66" stroke="#000000" stroke-width="1" fill="none"/></g><g transform="translate(915 540.1666666666667) rotate(0 49.39768440574409 23.79896310154109)"><path d="M67.68 47.54 C80.03 47.6, 92.26 49.66, 101.21 49.61 M69.55 46.31 C78.96 46.55, 89.36 48.33, 98.57 48.24" stroke="#000000" stroke-width="1" fill="none"/></g><g transform="translate(915 540.1666666666667) rotate(0 49.39768440574409 23.79896310154109)"><path d="M76.54 29.04 C85.89 35.48, 95.03 43.99, 101.21 49.61 M78.42 27.8 C84.97 34.09, 92.48 41.91, 98.57 48.24" stroke="#000000" stroke-width="1" fill="none"/></g></g><g stroke-linecap="round" transform="translate(1017.5 552.6666666666667) rotate(0 126.24999999999994 37.5)"><path d="M-1.23 -0.49 C79.48 0.24, 161.78 2.01, 251.48 -0.6 M0.58 0.61 C69.67 1.52, 138.79 2.26, 252.52 -0.19 M252.82 -0.17 C254.96 17.28, 252.48 33.26, 252.36 76.05 M252.81 -0.25 C251.55 21.09, 251.97 42.84, 251.59 74.27 M252.6 75.14 C184.28 76.13, 118.32 75.64, 0.01 75.88 M252.72 74.8 C179.51 76.9, 107 77.01, 0.07 74.55 M-1.16 75.32 C-0.29 54.57, 1.55 33.46, -1.58 -0.74 M-0.37 75.73 C0.72 56.51, 0.52 38.98, -0.74 -0.09" stroke="#000000" stroke-width="1" fill="none"/></g><g transform="translate(1027.5 578.6666666666667) rotate(0 111.49999999999994 13)"><text x="0" y="18" font-family="Virgil, Segoe UI Emoji" font-size="20px" fill="#000000" text-anchor="start" style="white-space: pre;" direction="ltr">Useful criticisms found</text></g><g stroke-linecap="round"><g transform="translate(1271.68686517179 583.0989558300112) rotate(0 60.27881663739686 35.61259394329247)"><path d="M-0.81 1.17 C19.54 12.8, 100.99 57.8, 121.37 69.18 M0.96 0.74 C21.24 12.59, 100.58 58.83, 120.57 70.49" stroke="#000000" stroke-width="1" fill="none"/></g><g transform="translate(1271.68686517179 583.0989558300112) rotate(0 60.27881663739686 35.61259394329247)"><path d="M93 65.62 C97.32 67.25, 104.84 67.8, 120.66 69.47 M90.89 65.06 C102.79 67.6, 112.34 69.76, 120.73 70.16" stroke="#000000" stroke-width="1" fill="none"/></g><g transform="translate(1271.68686517179 583.0989558300112) rotate(0 60.27881663739686 35.61259394329247)"><path d="M103.33 47.89 C105.1 53.68, 110.15 58.46, 120.66 69.47 M101.23 47.33 C109.48 56.49, 115.23 65.18, 120.73 70.16" stroke="#000000" stroke-width="1" fill="none"/></g></g><g stroke-linecap="round" transform="translate(737.5 475.16666666666674) rotate(0 98.75 64.99999999999997)"><path d="M99.1 0.02 C117.51 13.98, 138.49 27.41, 197.77 65.99 M99.66 0.26 C135.98 23.9, 174.79 50.2, 197.64 65.51 M197.13 64.97 C172.9 80.57, 152.34 97.22, 98.28 130.76 M196.53 65.35 C167.71 85.7, 137.23 105.29, 98.56 130.15 M99.45 128.96 C66.39 105.08, 32.87 83.95, -0.38 65.97 M99.1 130.56 C69.3 110.64, 39.89 90.03, -0.62 64.56 M0.04 65.53 C25.88 47.31, 50.62 31.12, 98.27 -1.56 M0.94 65.87 C32.68 43.93, 65.67 21.66, 99.04 0.43" stroke="#000000" stroke-width="1" fill="none"/></g><g stroke-linecap="round"><g transform="translate(755 540.1666666666667) rotate(0 -56.45312852300236 121.07451474505959)"><path d="M1.1 -0.73 C-17.64 39.63, -94.07 201.26, -112.86 241.82 M0.21 1.5 C-18.67 42.01, -95.31 202.48, -114 242.88" stroke="#000000" stroke-width="1" fill="none"/></g><g transform="translate(755 540.1666666666667) rotate(0 -56.45312852300236 121.07451474505959)"><path d="M-112.49 212.4 C-113.58 222.26, -112.97 227.44, -115.13 242.14 M-112.24 213.48 C-112.18 220.05, -113.43 227.97, -114.25 242" stroke="#000000" stroke-width="1" fill="none"/></g><g transform="translate(755 540.1666666666667) rotate(0 -56.45312852300236 121.07451474505959)"><path d="M-93.92 221.14 C-99.84 228.89, -104.09 231.78, -115.13 242.14 M-93.68 222.23 C-98.34 226.55, -104.35 232.22, -114.25 242" stroke="#000000" stroke-width="1" fill="none"/></g></g><g stroke-linecap="round"><g transform="translate(755 535.1666666666667) rotate(0 -43.66535117066928 -117.40001090466976)"><path d="M-0.02 0.1 C-14.45 -39.06, -72.11 -195.72, -86.76 -234.9 M-1.49 -0.89 C-16 -39.84, -72.75 -194.52, -87.31 -233.32" stroke="#000000" stroke-width="1" fill="none"/></g><g transform="translate(755 535.1666666666667) rotate(0 -43.66535117066928 -117.40001090466976)"><path d="M-67.72 -209.21 C-73.3 -217.66, -79.03 -222.09, -86.84 -231.66 M-67.82 -209.85 C-73.26 -217.36, -79.98 -223.54, -88.13 -233.26" stroke="#000000" stroke-width="1" fill="none"/></g><g transform="translate(755 535.1666666666667) rotate(0 -43.66535117066928 -117.40001090466976)"><path d="M-86.96 -202.08 C-87.04 -212.56, -87.26 -219.04, -86.84 -231.66 M-87.06 -202.72 C-86.98 -212.46, -88.16 -220.69, -88.13 -233.26" stroke="#000000" stroke-width="1" fill="none"/></g></g><g stroke-linecap="round" transform="translate(507.5 255.16666666666674) rotate(0 78.75 47.5)"><path d="M-1.6 1.75 C41.33 -2.23, 84.42 0.36, 159.41 0.41 M-0.79 0.99 C47.01 -1.59, 94.43 -1.46, 158.09 0.72 M155.97 -0.27 C159.15 31.58, 158.17 64.11, 156.47 96.08 M157.89 -0.02 C157.66 37.25, 158.48 74.44, 156.94 94.01 M156.69 94.85 C123.7 94.12, 86.64 94.24, 1.58 95.2 M157.32 95.39 C117.43 95.32, 78.85 96.27, 0.43 95.27 M0.53 95.91 C1.14 65.5, -1.08 38.71, -0.29 0.33 M0.93 95.92 C-0.11 66.06, -0.92 37.96, -0.37 -0.28" stroke="#000000" stroke-width="1" fill="none"/></g><g transform="translate(525 276.16666666666674) rotate(0 52.5 26)"><text x="0" y="18" font-family="Virgil, Segoe UI Emoji" font-size="20px" fill="#000000" text-anchor="start" style="white-space: pre;" direction="ltr">Regulatory</text><text x="0" y="44" font-family="Virgil, Segoe UI Emoji" font-size="20px" fill="#000000" text-anchor="start" style="white-space: pre;" direction="ltr">capture</text></g><g stroke-linecap="round"><g transform="translate(505 295.16666666666674) rotate(0 -134.85899161494802 117.50298840105535)"><path d="M0.12 -0.62 C-44.59 38.49, -224.22 196.28, -269.27 235.62 M-1.28 1.67 C-45.99 40.35, -224.87 195.21, -269.84 233.83" stroke="#000000" stroke-width="1" fill="none"/></g><g transform="translate(505 295.16666666666674) rotate(0 -134.85899161494802 117.50298840105535)"><path d="M-256.23 208.86 C-257.11 212.95, -260.54 217.09, -270.84 233.04 M-255.25 208.31 C-260.37 216.99, -264.74 226.64, -270.59 233.6" stroke="#000000" stroke-width="1" fill="none"/></g><g transform="translate(505 295.16666666666674) rotate(0 -134.85899161494802 117.50298840105535)"><path d="M-242.82 224.4 C-246.73 225.14, -253.06 225.93, -270.84 233.04 M-241.84 223.85 C-251.65 227.2, -260.65 231.49, -270.59 233.6" stroke="#000000" stroke-width="1" fill="none"/></g></g><g stroke-linecap="round" transform="translate(470 742.6666666666667) rotate(0 82.5 52.5)"><path d="M-0.07 0.38 C50.86 -0.94, 106.06 0.18, 164.81 0.09 M0.19 -0.86 C55.08 1.49, 108.37 2.25, 165.07 0.91 M166.74 1.39 C163.23 27.73, 166.01 58.55, 165.54 103.2 M164.89 -0.52 C163.12 21.19, 163.87 42.46, 164.2 104.48 M166.76 106.83 C109.53 106.42, 58.81 107.71, -0.3 106.44 M165.68 105.58 C113.07 106.93, 60.55 105.9, -0.86 104.06 M1.82 104.23 C1.74 74.2, -0.58 47.45, -1.6 -1.71 M0.88 104.9 C-1.22 75.63, -0.11 44.84, 0.96 -0.76" stroke="#000000" stroke-width="1" fill="none"/></g><g transform="translate(487.5 753.6666666666667) rotate(0 56.5 39)"><text x="0" y="18" font-family="Virgil, Segoe UI Emoji" font-size="20px" fill="#000000" text-anchor="start" style="white-space: pre;" direction="ltr">Lack of </text><text x="0" y="44" font-family="Virgil, Segoe UI Emoji" font-size="20px" fill="#000000" text-anchor="start" style="white-space: pre;" direction="ltr">stakeholder</text><text x="0" y="70" font-family="Virgil, Segoe UI Emoji" font-size="20px" fill="#000000" text-anchor="start" style="white-space: pre;" direction="ltr">buy-in</text></g><g stroke-linecap="round"><g transform="translate(465 799.8455744514438) rotate(0 -111.65398258229402 -99.29220513588291)"><path d="M0.04 1.06 C-36.98 -32.27, -185.39 -166.41, -222.34 -199.64 M-1.39 0.57 C-38.57 -32.68, -186.57 -165.78, -223.35 -198.69" stroke="#000000" stroke-width="1" fill="none"/></g><g transform="translate(465 799.8455744514438) rotate(0 -111.65398258229402 -99.29220513588291)"><path d="M-193.75 -187.71 C-205.3 -189.72, -210.99 -194.8, -221.44 -200.2 M-195.31 -188.16 C-203.51 -191.37, -210.8 -194.75, -222.91 -199.5" stroke="#000000" stroke-width="1" fill="none"/></g><g transform="translate(465 799.8455744514438) rotate(0 -111.65398258229402 -99.29220513588291)"><path d="M-207.46 -172.43 C-215.15 -178.79, -216.95 -188.21, -221.44 -200.2 M-209.02 -172.88 C-213.38 -180.25, -216.82 -187.91, -222.91 -199.5" stroke="#000000" stroke-width="1" fill="none"/></g></g><g stroke-linecap="round"><g transform="translate(1185 387.66666666666674) rotate(0 122.20751787171224 -54.50481457390357)"><path d="M-0.17 -0.87 C40.74 -19.23, 205.09 -92.2, 246.13 -110.3 M-1.71 1.29 C39.07 -16.89, 204.51 -90.11, 245.77 -108.91" stroke="#000000" stroke-width="1" fill="none"/></g><g transform="translate(1185 387.66666666666674) rotate(0 122.20751787171224 -54.50481457390357)"><path d="M222.79 -86.14 C231.51 -93.7, 240.63 -103.01, 244.14 -109.11 M223.78 -87.13 C231.18 -95.66, 237.41 -101.41, 245.89 -108.46" stroke="#000000" stroke-width="1" fill="none"/></g><g transform="translate(1185 387.66666666666674) rotate(0 122.20751787171224 -54.50481457390357)"><path d="M214.4 -104.87 C226.11 -105.68, 238.25 -108.28, 244.14 -109.11 M215.39 -105.86 C225.47 -108.39, 234.39 -108.14, 245.89 -108.46" stroke="#000000" stroke-width="1" fill="none"/></g></g><g stroke-linecap="round" transform="translate(1437.5 255.16666666666674) rotate(0 137.5 33.74999999999999)"><path d="M0.76 -0.96 C106.35 0.97, 214.66 0.6, 274.52 -1.39 M-0.36 -0.34 C67.68 1.88, 135.84 1.37, 274.6 -0.62 M276.79 0.97 C275.44 17.64, 274.58 36.9, 273.19 68.7 M275.72 0.74 C275.49 17.41, 274.67 35.2, 274.81 66.77 M276.1 68.95 C187.38 68.03, 101.74 69.33, -1.11 66.62 M274.98 67.31 C191.76 68.93, 108.56 68.06, -0.45 68.01 M-0.06 69.18 C0.93 48.65, -2.32 29.97, 1.58 0.14 M0.94 67.87 C-0.76 54.4, -0.4 39.22, -0.89 -0.86" stroke="#000000" stroke-width="1" fill="none"/></g><g transform="translate(1460 266.16666666666674) rotate(0 121 26)"><text x="0" y="18" font-family="Virgil, Segoe UI Emoji" font-size="20px" fill="#000000" text-anchor="start" style="white-space: pre;" direction="ltr">Speculative interventions</text><text x="0" y="44" font-family="Virgil, Segoe UI Emoji" font-size="20px" fill="#000000" text-anchor="start" style="white-space: pre;" direction="ltr">now easier/more solid?</text></g><g stroke-linecap="round"><g transform="translate(1717.5 290.16666666666686) rotate(0 142.78538946613105 198.9748310259132)"><path d="M0.45 -0.49 C47.75 66.19, 236.5 333.31, 283.95 399.75 M-0.78 -1.8 C46.92 64.55, 238.77 331.06, 286.35 397.84" stroke="#000000" stroke-width="1" fill="none"/></g><g transform="translate(1717.5 290.16666666666686) rotate(0 142.78538946613105 198.9748310259132)"><path d="M260.77 379.92 C269.86 387.06, 274.87 390.88, 284.62 396.84 M262.03 381.56 C270.51 386.34, 277.7 392.14, 285.36 397.58" stroke="#000000" stroke-width="1" fill="none"/></g><g transform="translate(1717.5 290.16666666666686) rotate(0 142.78538946613105 198.9748310259132)"><path d="M277.44 367.97 C281.35 378.86, 281.21 386.37, 284.62 396.84 M278.71 369.61 C281.48 378.52, 283 388.39, 285.36 397.58" stroke="#000000" stroke-width="1" fill="none"/></g></g><g stroke-linecap="round"><g transform="translate(755.1855469895481 544.9031911628244) rotate(0 -60.33962955454527 212.7054666428933)"><path d="M0.82 0.35 C-19.45 71.25, -100.52 353.73, -120.54 424.78 M-0.21 -0.51 C-20.73 70.58, -101.62 355.01, -121.5 425.92" stroke="#000000" stroke-width="1" fill="none"/></g><g transform="translate(755.1855469895481 544.9031911628244) rotate(0 -60.33962955454527 212.7054666428933)"><path d="M-123.12 395.98 C-124.26 409.55, -120.23 420.34, -120.53 427.19 M-124.31 395.58 C-122.28 406.15, -122.27 414.94, -122.05 425.52" stroke="#000000" stroke-width="1" fill="none"/></g><g transform="translate(755.1855469895481 544.9031911628244) rotate(0 -60.33962955454527 212.7054666428933)"><path d="M-103.37 401.56 C-112.12 413.11, -115.73 421.74, -120.53 427.19 M-104.56 401.17 C-109.07 409.79, -115.6 416.73, -122.05 425.52" stroke="#000000" stroke-width="1" fill="none"/></g></g><g stroke-linecap="round" transform="translate(377.5 910.1666666666667) rotate(0 127.5 56.24999999999994)"><path d="M-1.03 1.07 C80.77 -0.23, 162.46 1.96, 254.95 1.28 M0.58 -0.33 C98.95 -1.92, 200.1 -1.96, 254.4 -0.47 M254.67 -1.13 C254.35 37.42, 254.22 76.59, 253.98 110.94 M254.72 0.05 C255.18 33.18, 255.14 67.98, 255.78 111.58 M256.19 111.45 C201.92 112.53, 151.55 113.44, 1.53 113.54 M254.75 112.2 C175.68 113.98, 97.43 113.76, 0.31 112.07 M-1.54 111.26 C-2.32 77.9, -1.86 39.91, -0.03 0.85 M-0.81 111.71 C-0.1 74.71, -0.83 36.8, -0.28 -0.54" stroke="#000000" stroke-width="1" fill="none"/></g><g transform="translate(402.5 941.1666666666667) rotate(0 101 26)"><text x="0" y="18" font-family="Virgil, Segoe UI Emoji" font-size="20px" fill="#000000" text-anchor="start" style="white-space: pre;" direction="ltr">Increased complexity</text><text x="0" y="44" font-family="Virgil, Segoe UI Emoji" font-size="20px" fill="#000000" text-anchor="start" style="white-space: pre;" direction="ltr">&amp; bureaucratization</text></g><g stroke-linecap="round"><g transform="translate(375.4538880112953 959.9307684748135) rotate(0 -54.48816528477238 -36.43091935131446)"><path d="M-0.47 0.96 C-19.08 -11.15, -92.15 -60.05, -110.45 -72.23 M1.48 0.42 C-16.86 -12.04, -90.05 -61.44, -108.27 -73.83" stroke="#000000" stroke-width="1" fill="none"/></g><g transform="translate(375.4538880112953 959.9307684748135) rotate(0 -54.48816528477238 -36.43091935131446)"><path d="M-77.56 -68.18 C-89.06 -70.89, -100.42 -70.57, -107.36 -74.23 M-79.41 -65.84 C-86.91 -69.72, -97.45 -70.38, -107.35 -74.42" stroke="#000000" stroke-width="1" fill="none"/></g><g transform="translate(375.4538880112953 959.9307684748135) rotate(0 -54.48816528477238 -36.43091935131446)"><path d="M-89.07 -51.19 C-96.06 -60.59, -102.86 -67.02, -107.36 -74.23 M-90.92 -48.85 C-95.07 -57.72, -102.18 -63.44, -107.35 -74.42" stroke="#000000" stroke-width="1" fill="none"/></g></g><g stroke-linecap="round"><g transform="translate(374 959.638477463563) rotate(0 -90.30284928477833 1.5538075177685755)"><path d="M0.94 -1.01 C-29.19 -0.17, -150.6 3.49, -180.91 4.12 M-0.03 1.08 C-30.25 1.63, -151.33 1.87, -181.54 2.3" stroke="#000000" stroke-width="1" fill="none"/></g><g transform="translate(374 959.638477463563) rotate(0 -90.30284928477833 1.5538075177685755)"><path d="M-155.11 -7.18 C-160.63 -3.9, -171.01 -0.79, -182.05 2.88 M-153.86 -9.15 C-161.92 -5.44, -169.17 -2.42, -181.17 1.96" stroke="#000000" stroke-width="1" fill="none"/></g><g transform="translate(374 959.638477463563) rotate(0 -90.30284928477833 1.5538075177685755)"><path d="M-154.96 13.34 C-160.36 10.73, -170.79 7.94, -182.05 2.88 M-153.71 11.37 C-161.62 9.03, -168.91 5.98, -181.17 1.96" stroke="#000000" stroke-width="1" fill="none"/></g></g><g stroke-linecap="round" transform="translate(10 930.1666666666667) rotate(0 90 46.25)"><path d="M1.64 1.46 C59.45 -0.06, 121.31 0.41, 179.12 1.59 M-0.77 -0.17 C56.93 -0.25, 111.67 -0.15, 180.29 -0.95 M178.81 -1.51 C181.06 24.91, 180.96 47.7, 179.12 90.63 M180.13 -0.01 C179.14 19.93, 180.2 38.83, 179.8 92.49 M179.45 91.74 C137.94 90.59, 96.37 89.78, -1.44 93.14 M179.34 91.53 C113.86 92, 46.03 92.41, -0.51 93.41 M0.1 91.46 C1.03 67.81, -0.7 45.34, 1.95 -1.89 M-0.46 92.46 C-1.44 72.26, -0.41 50.93, -0.35 0.3" stroke="#000000" stroke-width="1" fill="none"/></g><g transform="translate(37.5 941.1666666666667) rotate(0 70.5 39)"><text x="0" y="18" font-family="Virgil, Segoe UI Emoji" font-size="20px" fill="#000000" text-anchor="start" style="white-space: pre;" direction="ltr">Bad in so</text><text x="0" y="44" font-family="Virgil, Segoe UI Emoji" font-size="20px" fill="#000000" text-anchor="start" style="white-space: pre;" direction="ltr">many different</text><text x="0" y="70" font-family="Virgil, Segoe UI Emoji" font-size="20px" fill="#000000" text-anchor="start" style="white-space: pre;" direction="ltr">ways</text></g><g stroke-linecap="round" transform="translate(160 812.6666666666667) rotate(0 96.25 37.5)"><path d="M1.02 -0.28 C75.61 1.43, 151.13 2.03, 192.62 -1.15 M0.15 0.86 C52.04 -1.02, 101.75 -0.76, 192.58 0.65 M192.02 1.06 C192.38 21.44, 192.45 43.13, 193.69 75.14 M191.72 -0.3 C191.95 23.02, 191.2 47.72, 192.99 75.54 M194.12 73.94 C147.63 73.71, 102.31 76.04, -0.9 73.65 M192.93 76 C140.44 74.16, 86.45 75.36, 0.27 74.65 M-1.83 76.85 C-2.6 45.31, -0.2 15.88, -0.06 1.87 M-0.4 75.71 C-0.16 58.29, 0.21 42.16, -0.02 0.06" stroke="#000000" stroke-width="1" fill="none"/></g><g transform="translate(182.5 826.1666666666667) rotate(0 81.5 26)"><text x="0" y="18" font-family="Virgil, Segoe UI Emoji" font-size="20px" fill="#000000" text-anchor="start" style="white-space: pre;" direction="ltr">Increased</text><text x="0" y="44" font-family="Virgil, Segoe UI Emoji" font-size="20px" fill="#000000" text-anchor="start" style="white-space: pre;" direction="ltr">activation costs</text></g><g stroke-linecap="round"><g transform="translate(100 927.6666666666667) rotate(0 37.401013489742766 -151.54815371930601)"><path d="M0.43 0.43 C13 -50.14, 63.08 -253.23, 75.61 -303.53 M-0.81 -0.39 C11.65 -50.83, 62.32 -252.07, 74.98 -302.53" stroke="#000000" stroke-width="1" fill="none"/></g><g transform="translate(100 927.6666666666667) rotate(0 37.401013489742766 -151.54815371930601)"><path d="M78.78 -271.67 C75.42 -280.93, 78.05 -290.19, 75.68 -301.19 M77.83 -272.18 C77.29 -282.37, 75.84 -292.22, 75.4 -301.86" stroke="#000000" stroke-width="1" fill="none"/></g><g transform="translate(100 927.6666666666667) rotate(0 37.401013489742766 -151.54815371930601)"><path d="M58.88 -276.67 C61.72 -284.44, 70.55 -292.14, 75.68 -301.19 M57.93 -277.19 C63.71 -285.71, 68.55 -293.98, 75.4 -301.86" stroke="#000000" stroke-width="1" fill="none"/></g></g><g stroke-linecap="round"><g transform="translate(245 815.1666666666667) rotate(0 -19.799850718965754 -94.1453859116184)"><path d="M-0.56 -0.29 C-7.28 -31.23, -33.3 -155.34, -40 -186.44 M1.35 -1.49 C-5.56 -32.67, -34.35 -156.76, -40.95 -188" stroke="#000000" stroke-width="1" fill="none"/></g><g transform="translate(245 815.1666666666667) rotate(0 -19.799850718965754 -94.1453859116184)"><path d="M-25.28 -162.73 C-28.19 -172.4, -34.27 -179.91, -40.71 -188.85 M-24.72 -162.54 C-27.82 -167.31, -31.52 -174.59, -40.06 -188.63" stroke="#000000" stroke-width="1" fill="none"/></g><g transform="translate(245 815.1666666666667) rotate(0 -19.799850718965754 -94.1453859116184)"><path d="M-45.31 -158.26 C-41.58 -169.32, -41.05 -178.3, -40.71 -188.85 M-44.75 -158.07 C-43.53 -163.63, -42.95 -171.85, -40.06 -188.63" stroke="#000000" stroke-width="1" fill="none"/></g></g><g stroke-linecap="round"><g transform="translate(915.6085797813575 547.0129535987974) rotate(0 1.6940280037447906 356.10342795261374)"><path d="M0.86 0.04 C1.48 118.64, 3.26 593.33, 3.53 712.15 M-0.14 -0.99 C0.4 117.69, 2.7 593.98, 2.99 713.19" stroke="#000000" stroke-width="1" fill="none"/></g><g transform="translate(915.6085797813575 547.0129535987974) rotate(0 1.6940280037447906 356.10342795261374)"><path d="M-7.31 686.35 C-5.87 692.59, -1.5 700.42, 4.05 712.32 M-7.22 684.17 C-4.48 691.88, -1.18 699.34, 2.24 712.23" stroke="#000000" stroke-width="1" fill="none"/></g><g transform="translate(915.6085797813575 547.0129535987974) rotate(0 1.6940280037447906 356.10342795261374)"><path d="M13.21 686.27 C8.78 692.68, 7.29 700.54, 4.05 712.32 M13.3 684.09 C10.63 691.78, 8.52 699.25, 2.24 712.23" stroke="#000000" stroke-width="1" fill="none"/></g></g><g stroke-linecap="round" transform="translate(815 1267.6666666666667) rotate(0 103.75 27.5)"><path d="M0.32 -0.79 C73.24 -0.05, 144.7 -2.26, 208.71 -0.36 M-0.82 0.51 C77.83 1.79, 155.41 1.58, 208.3 -0.16 M208.91 -0.26 C208.13 16.74, 209.19 33.56, 206.46 54.13 M207.08 -0.49 C208.65 15.34, 208.58 30.47, 207.7 55.02 M207.43 54.2 C131.02 57.25, 55.99 57.3, 0.18 55.53 M207.43 55.28 C161.39 54.66, 117.59 55.55, -0.58 55.29 M0.95 53.97 C1.04 38.01, 1.72 24.75, 0.44 1.79 M0.07 54.04 C0.55 34.94, 0.52 13.52, -0.48 0.42" stroke="#000000" stroke-width="1" fill="none"/></g><g transform="translate(987.5 1043.6666666666667) rotate(0 129.99999999999994 26)"><text x="0" y="18" font-family="Virgil, Segoe UI Emoji" font-size="20px" fill="#000000" text-anchor="start" style="white-space: pre;" direction="ltr">Assumptions are apparent,</text><text x="0" y="44" font-family="Virgil, Segoe UI Emoji" font-size="20px" fill="#000000" text-anchor="start" style="white-space: pre;" direction="ltr">reasoning is transparent</text></g><g transform="translate(847.5 1278.6666666666667) rotate(0 78.5 13)"><text x="0" y="18" font-family="Virgil, Segoe UI Emoji" font-size="20px" fill="#000000" text-anchor="start" style="white-space: pre;" direction="ltr">Systematization</text></g><g stroke-linecap="round" transform="translate(967.5 1037.6666666666667) rotate(0 151.24999999999994 38.75000000000006)"><path d="M0.26 -0.4 C93.91 -1.91, 185.39 -0.12, 301.23 0.21 M0.53 0.03 C81.33 1.07, 162.86 -0.08, 302.73 -0.27 M300.92 0.06 C300.66 25.98, 300.52 53.91, 303.05 78.2 M302.69 0.23 C302.03 29.97, 300.97 61.83, 303.14 77.27 M302.33 78.04 C208.66 76.18, 115.12 76.62, -1.42 77.8 M301.83 77.26 C209.02 75.89, 114.74 75.96, -0.62 77.34 M1.79 76.16 C0.65 49.79, -2.19 20.82, -0.07 -0.91 M-0.18 77.6 C-0.46 53.12, 0.58 29.63, 0.76 -0.24" stroke="#000000" stroke-width="1" fill="none"/></g><g stroke-linecap="round"><g transform="translate(1024.1781811753008 1296.3267433176438) rotate(0 45.48674199760427 -89.1537680462003)"><path d="M0.42 1.16 C15.21 -28.81, 74.58 -149.54, 89.68 -179.47 M-0.82 0.72 C14.25 -29.14, 76.59 -148.75, 91.8 -178.35" stroke="#000000" stroke-width="1" fill="none"/></g><g transform="translate(1024.1781811753008 1296.3267433176438) rotate(0 45.48674199760427 -89.1537680462003)"><path d="M89.88 -150.5 C87.97 -159.43, 91.21 -170.46, 90.25 -179.94 M88.03 -148.93 C88.33 -158.65, 90.7 -168.78, 91.98 -178.75" stroke="#000000" stroke-width="1" fill="none"/></g><g transform="translate(1024.1781811753008 1296.3267433176438) rotate(0 45.48674199760427 -89.1537680462003)"><path d="M71.66 -159.94 C76.62 -165.38, 86.72 -172.86, 90.25 -179.94 M69.81 -158.37 C76.25 -164.89, 84.71 -171.87, 91.98 -178.75" stroke="#000000" stroke-width="1" fill="none"/></g></g><g stroke-linecap="round"><g transform="translate(1204.4648568417624 1028.3475255890974) rotate(0 -2.4919627064935526 -43.936373369563455)"><path d="M0.78 0.67 C-0.36 -13.65, -4.82 -71.97, -5.76 -86.73 M-0.27 -0.02 C-1.13 -14.63, -2.64 -74.07, -3.54 -88.54" stroke="#000000" stroke-width="1" fill="none"/></g><g transform="translate(1204.4648568417624 1028.3475255890974) rotate(0 -2.4919627064935526 -43.936373369563455)"><path d="M8.99 -62.34 C4.6 -71.6, -1.75 -82.08, -2.91 -87.13 M7.79 -59.97 C5.35 -67.9, 1.17 -75.65, -2.8 -88.55" stroke="#000000" stroke-width="1" fill="none"/></g><g transform="translate(1204.4648568417624 1028.3475255890974) rotate(0 -2.4919627064935526 -43.936373369563455)"><path d="M-11.51 -61.49 C-7.91 -71.22, -6.26 -82.02, -2.91 -87.13 M-12.71 -59.13 C-9.37 -67.24, -7.76 -75.24, -2.8 -88.55" stroke="#000000" stroke-width="1" fill="none"/></g></g><g stroke-linecap="round"><g transform="translate(1078.790691082636 1032.5452593634525) rotate(0 -1.4586219847900566 -201.68969864100214)"><path d="M-0.6 -0.12 C-1.16 -67.3, -2.81 -336.14, -3.44 -403.26 M1.29 -1.23 C0.61 -68.27, -3.08 -335.43, -4.21 -402.18" stroke="#000000" stroke-width="1" fill="none"/></g><g transform="translate(1078.790691082636 1032.5452593634525) rotate(0 -1.4586219847900566 -201.68969864100214)"><path d="M6.27 -373.57 C1.91 -383.41, -0.5 -390.52, -6.05 -401.51 M5.55 -373.65 C2.15 -383.19, -0.73 -393.94, -5.12 -401.58" stroke="#000000" stroke-width="1" fill="none"/></g><g transform="translate(1078.790691082636 1032.5452593634525) rotate(0 -1.4586219847900566 -201.68969864100214)"><path d="M-14.25 -373.26 C-12.58 -383.09, -8.97 -390.29, -6.05 -401.51 M-14.97 -373.34 C-11.43 -382.83, -7.38 -393.68, -5.12 -401.58" stroke="#000000" stroke-width="1" fill="none"/></g></g><g stroke-linecap="round"><g transform="translate(812.9392110198736 1302.2218069861333) rotate(0 -89.26081951409577 -167.6687649175525)"><path d="M0.44 -0.44 C-29.57 -56.13, -149.35 -279.34, -178.96 -334.89 M-0.79 -1.72 C-30.54 -57.16, -147.31 -277.87, -176.79 -333.53" stroke="#000000" stroke-width="1" fill="none"/></g><g transform="translate(812.9392110198736 1302.2218069861333) rotate(0 -89.26081951409577 -167.6687649175525)"><path d="M-155.27 -315.12 C-163.7 -320.07, -170.54 -327.8, -174.85 -333.84 M-154.5 -313.8 C-163.24 -321.37, -171.48 -328.99, -177.23 -333.54" stroke="#000000" stroke-width="1" fill="none"/></g><g transform="translate(812.9392110198736 1302.2218069861333) rotate(0 -89.26081951409577 -167.6687649175525)"><path d="M-173.4 -305.52 C-174.65 -314.31, -174.37 -325.81, -174.85 -333.84 M-172.64 -304.2 C-174.57 -315.46, -175.93 -326.71, -177.23 -333.54" stroke="#000000" stroke-width="1" fill="none"/></g></g><g stroke-linecap="round"><g transform="translate(1589.6618756777225 493.2551799707403) rotate(0 97.69468937530246 137.28644653853658)"><path d="M-0.14 -0.56 C28.08 4.99, 135.33 -13.46, 168.2 32.25 C201.07 77.95, 192.15 233.61, 197.07 273.65 M-1.68 1.75 C27.02 7.54, 137.47 -12.18, 170.5 33.39 C203.52 78.95, 191.79 235.18, 196.45 275.14" stroke="#000000" stroke-width="1" fill="none"/></g><g transform="translate(1589.6618756777225 493.2551799707403) rotate(0 97.69468937530246 137.28644653853658)"><path d="M184.6 245.86 C186.29 253.46, 190.33 260.31, 195.04 275.38 M184.93 247.81 C190.41 257.59, 194.35 268.2, 195.93 275.79" stroke="#000000" stroke-width="1" fill="none"/></g><g transform="translate(1589.6618756777225 493.2551799707403) rotate(0 97.69468937530246 137.28644653853658)"><path d="M205.12 245.39 C202.56 253.06, 202.36 260.01, 195.04 275.38 M205.45 247.34 C202.96 257.24, 198.93 268.03, 195.93 275.79" stroke="#000000" stroke-width="1" fill="none"/></g></g></svg>