<svg version="1.1" xmlns="http://www.w3.org/2000/svg" viewBox="0 0 2713.1907982998105 1614.9884599353254" width="2713.1907982998105" height="1614.9884599353254">
  <!-- svg-source:excalidraw -->
  
  <defs>
    <style>
      @font-face {
        font-family: "Virgil";
        src: url("https://excalidraw.com/Virgil.woff2");
      }
      @font-face {
        font-family: "Cascadia";
        src: url("https://excalidraw.com/Cascadia.woff2");
      }
    </style>
  </defs>
  <rect x="0" y="0" width="2713.1907982998105" height="1614.9884599353254" fill="#ffffff"></rect><g stroke-linecap="round" transform="translate(747.40873015873 769.9963964432617) rotate(0 83 53)"><path d="M83 0 C101.38 11.73, 119.75 23.47, 166 53 M83 0 C108.2 16.09, 133.4 32.18, 166 53 M166 53 C142.1 68.26, 118.21 83.52, 83 106 M166 53 C139.44 69.96, 112.87 86.92, 83 106 M83 106 C56.05 88.79, 29.11 71.59, 0 53 M83 106 C53.97 87.46, 24.94 68.92, 0 53 M0 53 C27.78 35.26, 55.56 17.52, 83 0 M0 53 C25.3 36.84, 50.61 20.68, 83 0" stroke="#862e9c" stroke-width="4" fill="none"></path></g><g transform="translate(774.40873015873 809.9963964432617) rotate(0 57 13)"><text x="0" y="18" font-family="Virgil, Segoe UI Emoji" font-size="20px" fill="#862e9c" text-anchor="start" style="white-space: pre;" direction="ltr">Evaluations</text></g><g stroke-linecap="round"><g transform="translate(931.5081104094722 820.5670778673234) rotate(0 30.306924544488197 -72.88282857705502)"><path d="M0 0 C10.1 -24.29, 50.51 -121.47, 60.61 -145.77 M0 0 C10.1 -24.29, 50.51 -121.47, 60.61 -145.77" stroke="#000000" stroke-width="1" fill="none"></path></g><g transform="translate(931.5081104094722 820.5670778673234) rotate(0 30.306924544488197 -72.88282857705502)"><path d="M59.26 -115.8 C59.76 -126.76, 60.25 -137.72, 60.61 -145.77 M59.26 -115.8 C59.58 -122.7, 59.89 -129.61, 60.61 -145.77" stroke="#000000" stroke-width="1" fill="none"></path></g><g transform="translate(931.5081104094722 820.5670778673234) rotate(0 30.306924544488197 -72.88282857705502)"><path d="M40.32 -123.68 C47.74 -131.75, 55.16 -139.83, 60.61 -145.77 M40.32 -123.68 C44.99 -128.77, 49.67 -133.86, 60.61 -145.77" stroke="#000000" stroke-width="1" fill="none"></path></g></g><g stroke-linecap="round"><g transform="translate(931.9486371030969 821.4793804484352) rotate(0 29.991951289721385 -27.50644527950925)"><path d="M0 0 C10 -9.17, 49.99 -45.84, 59.98 -55.01 M0 0 C10 -9.17, 49.99 -45.84, 59.98 -55.01" stroke="#000000" stroke-width="1" fill="none"></path></g><g transform="translate(931.9486371030969 821.4793804484352) rotate(0 29.991951289721385 -27.50644527950925)"><path d="M46.14 -28.4 C49.7 -35.24, 53.26 -42.09, 59.98 -55.01 M46.14 -28.4 C50.56 -36.89, 54.98 -45.39, 59.98 -55.01" stroke="#000000" stroke-width="1" fill="none"></path></g><g transform="translate(931.9486371030969 821.4793804484352) rotate(0 29.991951289721385 -27.50644527950925)"><path d="M32.27 -43.52 C39.4 -46.48, 46.53 -49.43, 59.98 -55.01 M32.27 -43.52 C41.12 -47.19, 49.96 -50.86, 59.98 -55.01" stroke="#000000" stroke-width="1" fill="none"></path></g></g><g stroke-linecap="round"><g transform="translate(933.0005279545154 824.8221012868627) rotate(0 104.41252832899369 178.65865728035732)"><path d="M0 0 C34.8 59.55, 174.02 297.76, 208.83 357.32 M0 0 C34.8 59.55, 174.02 297.76, 208.83 357.32" stroke="#364fc7" stroke-width="4" fill="none"></path></g><g transform="translate(933.0005279545154 824.8221012868627) rotate(0 104.41252832899369 178.65865728035732)"><path d="M185.74 338.16 C192.05 343.39, 198.35 348.62, 208.83 357.32 M185.74 338.16 C191.06 342.57, 196.37 346.98, 208.83 357.32" stroke="#364fc7" stroke-width="4" fill="none"></path></g><g transform="translate(933.0005279545154 824.8221012868627) rotate(0 104.41252832899369 178.65865728035732)"><path d="M203.46 327.8 C204.93 335.86, 206.39 343.93, 208.83 357.32 M203.46 327.8 C204.69 334.6, 205.93 341.39, 208.83 357.32" stroke="#364fc7" stroke-width="4" fill="none"></path></g></g><g stroke-linecap="round"><g transform="translate(830.3046257670785 756.9480356822703) rotate(0 -97.1504512437109 -189.42889209885598)"><path d="M0 0 C-32.38 -63.14, -161.92 -315.71, -194.3 -378.86 M0 0 C-32.38 -63.14, -161.92 -315.71, -194.3 -378.86" stroke="#000000" stroke-width="2" fill="none"></path></g><g transform="translate(830.3046257670785 756.9480356822703) rotate(0 -97.1504512437109 -189.42889209885598)"><path d="M-172.31 -358.46 C-180.47 -366.03, -188.64 -373.61, -194.3 -378.86 M-172.31 -358.46 C-181.01 -366.53, -189.71 -374.6, -194.3 -378.86" stroke="#000000" stroke-width="2" fill="none"></path></g><g transform="translate(830.3046257670785 756.9480356822703) rotate(0 -97.1504512437109 -189.42889209885598)"><path d="M-190.57 -349.09 C-191.95 -360.14, -193.34 -371.19, -194.3 -378.86 M-190.57 -349.09 C-192.04 -360.87, -193.52 -372.64, -194.3 -378.86" stroke="#000000" stroke-width="2" fill="none"></path></g></g><g stroke-linecap="round" transform="translate(996.40873015873 747.9963964432617) rotate(0 99.5 23.5)"><path d="M0 0 C53.99 0, 107.98 0, 199 0 M0 0 C41.26 0, 82.53 0, 199 0 M199 0 C199 15.42, 199 30.84, 199 47 M199 0 C199 11.69, 199 23.38, 199 47 M199 47 C137.07 47, 75.15 47, 0 47 M199 47 C139.73 47, 80.47 47, 0 47 M0 47 C0 37.57, 0 28.14, 0 0 M0 47 C0 33.67, 0 20.34, 0 0" stroke="#000000" stroke-width="1" fill="none"></path></g><g transform="translate(1007.40873015873 760.9963964432617) rotate(0 85 13)"><text x="0" y="18" font-family="Virgil, Segoe UI Emoji" font-size="20px" fill="#000000" text-anchor="start" style="white-space: pre;" direction="ltr">Better incentives</text></g><g stroke-linecap="round" transform="translate(1117.2420634920632 1006.1630631099284) rotate(0 115.83333333333337 34.5)"><path d="M0 0 C64.45 0, 128.89 0, 231.67 0 M0 0 C52.31 0, 104.63 0, 231.67 0 M231.67 0 C231.67 23.43, 231.67 46.86, 231.67 69 M231.67 0 C231.67 19.49, 231.67 38.97, 231.67 69 M231.67 69 C155.49 69, 79.32 69, 0 69 M231.67 69 C145.82 69, 59.98 69, 0 69 M0 69 C0 45.9, 0 22.79, 0 0 M0 69 C0 52.35, 0 35.7, 0 0" stroke="#000000" stroke-width="1" fill="none"></path></g><g transform="translate(1169.7420634920632 1151.6630631099283) rotate(0 126.5 26)"><text x="0" y="18" font-family="Virgil, Segoe UI Emoji" font-size="20px" fill="#364fc7" text-anchor="start" style="white-space: pre;" direction="ltr">Previously intuitive</text><text x="0" y="44" font-family="Virgil, Segoe UI Emoji" font-size="20px" fill="#364fc7" text-anchor="start" style="white-space: pre;" direction="ltr">decisions now more robust</text></g><g stroke-linecap="round" transform="translate(995.5714285714284 626.9646504115157) rotate(0 90.00000000000011 50.625)"><path d="M0 0 C36.46 0, 72.93 0, 180 0 M0 0 C55.6 0, 111.2 0, 180 0 M180 0 C180 31.55, 180 63.1, 180 101.25 M180 0 C180 22.3, 180 44.59, 180 101.25 M180 101.25 C136.56 101.25, 93.12 101.25, 0 101.25 M180 101.25 C129.09 101.25, 78.18 101.25, 0 101.25 M0 101.25 C0 79.5, 0 57.76, 0 0 M0 101.25 C0 76.43, 0 51.61, 0 0" stroke="#000000" stroke-width="1" fill="none"></path></g><g transform="translate(1466.154761904762 662.7146504115157) rotate(0 102 13)"><text x="0" y="18" font-family="Virgil, Segoe UI Emoji" font-size="20px" fill="#000000" text-anchor="start" style="white-space: pre;" direction="ltr">More rapid execution</text></g><g stroke-linecap="round" transform="translate(1146.4047619047615 1141.547983744849) rotate(0 139.375 37.49999999999994)"><path d="M0 0 C95.84 0, 191.68 0, 278.75 0 M0 0 C66.69 0, 133.38 0, 278.75 0 M278.75 0 C278.75 23.77, 278.75 47.53, 278.75 75 M278.75 0 C278.75 29.72, 278.75 59.44, 278.75 75 M278.75 75 C210.46 75, 142.17 75, 0 75 M278.75 75 C175.48 75, 72.21 75, 0 75 M0 75 C0 51.74, 0 28.49, 0 0 M0 75 C0 53.81, 0 32.62, 0 0" stroke="#364fc7" stroke-width="4" fill="none"></path></g><g transform="translate(1136.8214285714284 1015.047983744849) rotate(0 77 26)"><text x="0" y="18" font-family="Virgil, Segoe UI Emoji" font-size="20px" fill="#000000" text-anchor="start" style="white-space: pre;" direction="ltr">Better common </text><text x="0" y="44" font-family="Virgil, Segoe UI Emoji" font-size="20px" fill="#000000" text-anchor="start" style="white-space: pre;" direction="ltr">knowledge</text></g><g stroke-linecap="round"><g transform="translate(1193.6018557947468 772.5209942875083) rotate(0 55.032405435960015 -0.6768972898655647)"><path d="M0 0 C18.34 -0.23, 91.72 -1.13, 110.06 -1.35 M0 0 C18.34 -0.23, 91.72 -1.13, 110.06 -1.35" stroke="#000000" stroke-width="1" fill="none"></path></g><g transform="translate(1193.6018557947468 772.5209942875083) rotate(0 55.032405435960015 -0.6768972898655647)"><path d="M82 9.25 C93 5.1, 104 0.94, 110.06 -1.35 M82 9.25 C92.07 5.45, 102.15 1.64, 110.06 -1.35" stroke="#000000" stroke-width="1" fill="none"></path></g><g transform="translate(1193.6018557947468 772.5209942875083) rotate(0 55.032405435960015 -0.6768972898655647)"><path d="M81.75 -11.27 C92.85 -7.38, 103.95 -3.5, 110.06 -1.35 M81.75 -11.27 C91.91 -7.71, 102.08 -4.15, 110.06 -1.35" stroke="#000000" stroke-width="1" fill="none"></path></g></g><g stroke-linecap="round" transform="translate(1437.8333333333335 646.4884599353252) rotate(0 142.5 27.5)"><path d="M0 0 C84.05 0, 168.1 0, 285 0 M0 0 C69.57 0, 139.15 0, 285 0 M285 0 C285 21.06, 285 42.11, 285 55 M285 0 C285 15.85, 285 31.71, 285 55 M285 55 C218.59 55, 152.18 55, 0 55 M285 55 C215.4 55, 145.81 55, 0 55 M0 55 C0 36.42, 0 17.84, 0 0 M0 55 C0 34.7, 0 14.4, 0 0" stroke="#000000" stroke-width="1" fill="none"></path></g><g transform="translate(1010.3333333333333 649.9884599353252) rotate(0 72 26)"><text x="0" y="18" font-family="Virgil, Segoe UI Emoji" font-size="20px" fill="#000000" text-anchor="start" style="white-space: pre;" direction="ltr">Faster/Earlier</text><text x="0" y="44" font-family="Virgil, Segoe UI Emoji" font-size="20px" fill="#000000" text-anchor="start" style="white-space: pre;" direction="ltr">feedback loops</text></g><g stroke-linecap="round"><g transform="translate(1172.6622691826828 673.7638693719265) rotate(0 133.26148737833853 -1.0147181787489785)"><path d="M0 0 C44.42 -0.34, 222.1 -1.69, 266.52 -2.03 M0 0 C44.42 -0.34, 222.1 -1.69, 266.52 -2.03" stroke="#000000" stroke-width="1" fill="none"></path></g><g transform="translate(1172.6622691826828 673.7638693719265) rotate(0 133.26148737833853 -1.0147181787489785)"><path d="M238.41 8.45 C247.63 5.01, 256.86 1.57, 266.52 -2.03 M238.41 8.45 C245.4 5.84, 252.39 3.24, 266.52 -2.03" stroke="#000000" stroke-width="1" fill="none"></path></g><g transform="translate(1172.6622691826828 673.7638693719265) rotate(0 133.26148737833853 -1.0147181787489785)"><path d="M238.25 -12.08 C247.53 -8.78, 256.8 -5.48, 266.52 -2.03 M238.25 -12.08 C245.28 -9.58, 252.31 -7.08, 266.52 -2.03" stroke="#000000" stroke-width="1" fill="none"></path></g></g><g stroke-linecap="round" transform="translate(1303.666666666667 743.9884599353252) rotate(0 138.33333333333326 29.16666666666667)"><path d="M0 0 C89.04 0, 178.08 0, 276.67 0 M0 0 C91.65 0, 183.3 0, 276.67 0 M276.67 0 C276.67 12.83, 276.67 25.66, 276.67 58.33 M276.67 0 C276.67 22.57, 276.67 45.15, 276.67 58.33 M276.67 58.33 C214.54 58.33, 152.42 58.33, 0 58.33 M276.67 58.33 C211.91 58.33, 147.15 58.33, 0 58.33 M0 58.33 C0 38.24, 0 18.15, 0 0 M0 58.33 C0 37.33, 0 16.33, 0 0" stroke="#000000" stroke-width="1" fill="none"></path></g><g transform="translate(1320.3333333333335 763.3217932686584) rotate(0 122.5 13)"><text x="0" y="18" font-family="Virgil, Segoe UI Emoji" font-size="20px" fill="#000000" text-anchor="start" style="white-space: pre;" direction="ltr">More aligned optimization</text></g><g stroke-linecap="round"><g transform="translate(1354.181428235992 1029.6784005849095) rotate(0 14.510192632338999 -34.743473608710104)"><path d="M0 0 C4.84 -11.58, 24.18 -57.91, 29.02 -69.49 M0 0 C4.84 -11.58, 24.18 -57.91, 29.02 -69.49" stroke="#000000" stroke-width="1" fill="none"></path></g><g transform="translate(1354.181428235992 1029.6784005849095) rotate(0 14.510192632338999 -34.743473608710104)"><path d="M27.62 -39.52 C28.09 -49.61, 28.56 -59.7, 29.02 -69.49 M27.62 -39.52 C27.99 -47.46, 28.36 -55.4, 29.02 -69.49" stroke="#000000" stroke-width="1" fill="none"></path></g><g transform="translate(1354.181428235992 1029.6784005849095) rotate(0 14.510192632338999 -34.743473608710104)"><path d="M8.69 -47.43 C15.53 -54.86, 22.38 -62.28, 29.02 -69.49 M8.69 -47.43 C14.07 -53.27, 19.46 -59.11, 29.02 -69.49" stroke="#000000" stroke-width="1" fill="none"></path></g></g><g stroke-linecap="round" transform="translate(1388.6666666666665 892.3217932686584) rotate(0 121.66666666666686 50.83333333333334)"><path d="M0 0 C75.82 0, 151.64 0, 243.33 0 M0 0 C53.58 0, 107.16 0, 243.33 0 M243.33 0 C243.33 24.54, 243.33 49.07, 243.33 101.67 M243.33 0 C243.33 28.75, 243.33 57.51, 243.33 101.67 M243.33 101.67 C191.07 101.67, 138.81 101.67, 0 101.67 M243.33 101.67 C183.68 101.67, 124.03 101.67, 0 101.67 M0 101.67 C0 64.69, 0 27.71, 0 0 M0 101.67 C0 69.27, 0 36.88, 0 0" stroke="#364fc7" stroke-width="4" fill="none"></path></g><g transform="translate(1403.6666666666665 904.9884599353252) rotate(0 107 39)"><text x="0" y="18" font-family="Virgil, Segoe UI Emoji" font-size="20px" fill="#364fc7" text-anchor="start" style="white-space: pre;" direction="ltr">Better execution</text><text x="0" y="44" font-family="Virgil, Segoe UI Emoji" font-size="20px" fill="#364fc7" text-anchor="start" style="white-space: pre;" direction="ltr">(doing what you are</text><text x="0" y="70" font-family="Virgil, Segoe UI Emoji" font-size="20px" fill="#364fc7" text-anchor="start" style="white-space: pre;" direction="ltr">already doing, better)</text></g><g stroke-linecap="round"><g transform="translate(1437.2382392822906 1176.8349744604452) rotate(0 35.0588641086556 -30.35085410908715)"><path d="M0 0 C11.69 -10.12, 58.43 -50.58, 70.12 -60.7 M0 0 C11.69 -10.12, 58.43 -50.58, 70.12 -60.7" stroke="#364fc7" stroke-width="4" fill="none"></path></g><g transform="translate(1437.2382392822906 1176.8349744604452) rotate(0 35.0588641086556 -30.35085410908715)"><path d="M55.52 -34.49 C60.15 -42.8, 64.77 -51.1, 70.12 -60.7 M55.52 -34.49 C61.3 -44.88, 67.09 -55.26, 70.12 -60.7" stroke="#364fc7" stroke-width="4" fill="none"></path></g><g transform="translate(1437.2382392822906 1176.8349744604452) rotate(0 35.0588641086556 -30.35085410908715)"><path d="M42.09 -50.01 C50.97 -53.4, 59.85 -56.79, 70.12 -60.7 M42.09 -50.01 C53.2 -54.25, 64.3 -58.48, 70.12 -60.7" stroke="#364fc7" stroke-width="4" fill="none"></path></g></g><g stroke-linecap="round" transform="translate(571.1666666666666 298.9884599353251) rotate(0 52.5 36.666666666666686)"><path d="M0 0 C34.52 0, 69.04 0, 105 0 M0 0 C34.1 0, 68.21 0, 105 0 M105 0 C105 25.2, 105 50.4, 105 73.33 M105 0 C105 18.65, 105 37.3, 105 73.33 M105 73.33 C64.16 73.33, 23.32 73.33, 0 73.33 M105 73.33 C77.24 73.33, 49.49 73.33, 0 73.33 M0 73.33 C0 49.45, 0 25.58, 0 0 M0 73.33 C0 45.17, 0 17.01, 0 0" stroke="#000000" stroke-width="2" fill="none"></path></g><g stroke-linecap="round" transform="translate(977.8333333333333 285.6551266019918) rotate(0 52.5 36.666666666666686)"><path d="M0 0 C33.49 0, 66.97 0, 105 0 M0 0 C21.44 0, 42.88 0, 105 0 M105 0 C105 23.95, 105 47.91, 105 73.33 M105 0 C105 24.1, 105 48.2, 105 73.33 M105 73.33 C64.99 73.33, 24.97 73.33, 0 73.33 M105 73.33 C83.98 73.33, 62.97 73.33, 0 73.33 M0 73.33 C0 56.32, 0 39.31, 0 0 M0 73.33 C0 53.18, 0 33.03, 0 0" stroke="#000000" stroke-width="2" fill="none"></path></g><g transform="translate(616.9999999999999 319.1551266019918) rotate(0 8 13)"><text x="0" y="18" font-family="Virgil, Segoe UI Emoji" font-size="20px" fill="#000000" text-anchor="start" style="white-space: pre;" direction="ltr">...</text></g><g transform="translate(1023.6666666666665 305.8217932686585) rotate(0 8 13)"><text x="0" y="18" font-family="Virgil, Segoe UI Emoji" font-size="20px" fill="#000000" text-anchor="start" style="white-space: pre;" direction="ltr">...</text></g><g stroke-linecap="round" transform="translate(1507 1048.155126601992) rotate(0 183.33333333333348 54.166666666666686)"><path d="M0 0 C114.1 0, 228.2 0, 366.67 0 M0 0 C109.2 0, 218.4 0, 366.67 0 M366.67 0 C366.67 21.73, 366.67 43.47, 366.67 108.33 M366.67 0 C366.67 30.73, 366.67 61.46, 366.67 108.33 M366.67 108.33 C289.6 108.33, 212.53 108.33, 0 108.33 M366.67 108.33 C266.53 108.33, 166.39 108.33, 0 108.33 M0 108.33 C0 76.51, 0 44.68, 0 0 M0 108.33 C0 79.63, 0 50.93, 0 0" stroke="#364fc7" stroke-width="4" fill="none"></path></g><g transform="translate(1518.6666666666665 1065.8217932686587) rotate(0 171.5 39)"><text x="0" y="18" font-family="Virgil, Segoe UI Emoji" font-size="20px" fill="#364fc7" text-anchor="start" style="white-space: pre;" direction="ltr">Better prioritization</text><text x="0" y="44" font-family="Virgil, Segoe UI Emoji" font-size="20px" fill="#364fc7" text-anchor="start" style="white-space: pre;" direction="ltr">(deciding where to allocate</text><text x="0" y="70" font-family="Virgil, Segoe UI Emoji" font-size="20px" fill="#364fc7" text-anchor="start" style="white-space: pre;" direction="ltr">funding, time, attention, resources)</text></g><g stroke-linecap="round"><g transform="translate(1353.1388038466375 1037.221255219748) rotate(0 76.83727993021421 33.27250433212703)"><path d="M0 0 C25.61 11.09, 128.06 55.45, 153.67 66.55 M0 0 C25.61 11.09, 128.06 55.45, 153.67 66.55" stroke="#000000" stroke-width="1" fill="none"></path></g><g transform="translate(1353.1388038466375 1037.221255219748) rotate(0 76.83727993021421 33.27250433212703)"><path d="M123.73 64.76 C133.57 65.35, 143.42 65.93, 153.67 66.55 M123.73 64.76 C134.82 65.42, 145.92 66.08, 153.67 66.55" stroke="#000000" stroke-width="1" fill="none"></path></g><g transform="translate(1353.1388038466375 1037.221255219748) rotate(0 76.83727993021421 33.27250433212703)"><path d="M131.88 45.93 C139.05 52.71, 146.21 59.49, 153.67 66.55 M131.88 45.93 C139.96 53.57, 148.03 61.21, 153.67 66.55" stroke="#000000" stroke-width="1" fill="none"></path></g></g><g stroke-linecap="round"><g transform="translate(1431.10742365352 1178.2797200684831) rotate(0 39.06818707594607 -87.02063006657903)"><path d="M0 0 C13.02 -29.01, 65.11 -145.03, 78.14 -174.04 M0 0 C13.02 -29.01, 65.11 -145.03, 78.14 -174.04" stroke="#364fc7" stroke-width="4" fill="none"></path></g><g transform="translate(1431.10742365352 1178.2797200684831) rotate(0 39.06818707594607 -87.02063006657903)"><path d="M75.95 -144.12 C76.6 -153.07, 77.26 -162.01, 78.14 -174.04 M75.95 -144.12 C76.49 -151.48, 77.03 -158.84, 78.14 -174.04" stroke="#364fc7" stroke-width="4" fill="none"></path></g><g transform="translate(1431.10742365352 1178.2797200684831) rotate(0 39.06818707594607 -87.02063006657903)"><path d="M57.23 -152.53 C63.48 -158.96, 69.73 -165.39, 78.14 -174.04 M57.23 -152.53 C62.37 -157.82, 67.51 -163.11, 78.14 -174.04" stroke="#364fc7" stroke-width="4" fill="none"></path></g></g><g stroke-linecap="round" transform="translate(729.4999999999999 969.6134599353252) rotate(0 88.33333333333331 36.666666666666686)"><path d="M0 0 C42.64 0, 85.27 0, 176.67 0 M0 0 C49.97 0, 99.93 0, 176.67 0 M176.67 0 C176.67 15.75, 176.67 31.5, 176.67 73.33 M176.67 0 C176.67 17.98, 176.67 35.96, 176.67 73.33 M176.67 73.33 C112.41 73.33, 48.15 73.33, 0 73.33 M176.67 73.33 C120.37 73.33, 64.08 73.33, 0 73.33 M0 73.33 C0 56.1, 0 38.87, 0 0 M0 73.33 C0 46.08, 0 18.83, 0 0" stroke="#000000" stroke-width="1" fill="none"></path></g><g transform="translate(744.4999999999999 973.5301266019919) rotate(0 73.5 26)"><text x="0" y="18" font-family="Virgil, Segoe UI Emoji" font-size="20px" fill="#000000" text-anchor="start" style="white-space: pre;" direction="ltr">Experience &amp;</text><text x="0" y="44" font-family="Virgil, Segoe UI Emoji" font-size="20px" fill="#000000" text-anchor="start" style="white-space: pre;" direction="ltr">efficiency gains</text></g><g stroke-linecap="round"><g transform="translate(818.9617492910521 961.13543550341) rotate(0 -1.0638087552304683 -39.9209722117084)"><path d="M0 0 C-0.35 -13.31, -1.77 -66.53, -2.13 -79.84 M0 0 C-0.35 -13.31, -1.77 -66.53, -2.13 -79.84" stroke="#000000" stroke-width="1" fill="none"></path></g><g transform="translate(818.9617492910521 961.13543550341) rotate(0 -1.0638087552304683 -39.9209722117084)"><path d="M8.88 -51.93 C6.18 -58.77, 3.49 -65.61, -2.13 -79.84 M8.88 -51.93 C4.8 -62.27, 0.72 -72.61, -2.13 -79.84" stroke="#000000" stroke-width="1" fill="none"></path></g><g transform="translate(818.9617492910521 961.13543550341) rotate(0 -1.0638087552304683 -39.9209722117084)"><path d="M-11.63 -51.39 C-9.3 -58.36, -6.98 -65.33, -2.13 -79.84 M-11.63 -51.39 C-8.11 -61.93, -4.59 -72.47, -2.13 -79.84" stroke="#000000" stroke-width="1" fill="none"></path></g></g><g stroke-linecap="round"><g transform="translate(839.0463262738316 886.6605685852635) rotate(0 0.7504007007908058 40.02945687088922)"><path d="M0 0 C0.25 13.34, 1.25 66.72, 1.5 80.06 M0 0 C0.25 13.34, 1.25 66.72, 1.5 80.06" stroke="#000000" stroke-width="1" fill="none"></path></g><g transform="translate(839.0463262738316 886.6605685852635) rotate(0 0.7504007007908058 40.02945687088922)"><path d="M-9.29 52.07 C-5.58 61.69, -1.87 71.31, 1.5 80.06 M-9.29 52.07 C-6.54 59.19, -3.8 66.31, 1.5 80.06" stroke="#000000" stroke-width="1" fill="none"></path></g><g transform="translate(839.0463262738316 886.6605685852635) rotate(0 0.7504007007908058 40.02945687088922)"><path d="M11.23 51.68 C7.89 61.43, 4.54 71.19, 1.5 80.06 M11.23 51.68 C8.76 58.9, 6.28 66.12, 1.5 80.06" stroke="#000000" stroke-width="1" fill="none"></path></g></g><g stroke-linecap="round"><g transform="translate(729.5069502525794 822.7651559598571) rotate(0 -35.612404396865486 -64.55522203262188)"><path d="M0 0 C-11.87 -21.52, -59.35 -107.59, -71.22 -129.11 M0 0 C-11.87 -21.52, -59.35 -107.59, -71.22 -129.11" stroke="#364fc7" stroke-width="4" fill="none"></path></g><g transform="translate(729.5069502525794 822.7651559598571) rotate(0 -35.612404396865486 -64.55522203262188)"><path d="M-48.62 -109.38 C-56.01 -115.83, -63.39 -122.27, -71.22 -129.11 M-48.62 -109.38 C-56.05 -115.87, -63.48 -122.35, -71.22 -129.11" stroke="#364fc7" stroke-width="4" fill="none"></path></g><g transform="translate(729.5069502525794 822.7651559598571) rotate(0 -35.612404396865486 -64.55522203262188)"><path d="M-66.59 -99.47 C-68.11 -109.15, -69.62 -118.83, -71.22 -129.11 M-66.59 -99.47 C-68.11 -109.21, -69.64 -118.95, -71.22 -129.11" stroke="#364fc7" stroke-width="4" fill="none"></path></g></g><g stroke-linecap="round"><g transform="translate(730.0024768204146 823.920936065344) rotate(0 -28.30612024933373 -1.741919377703283)"><path d="M0 0 C-9.44 -0.58, -47.18 -2.9, -56.61 -3.48 M0 0 C-9.44 -0.58, -47.18 -2.9, -56.61 -3.48" stroke="#364fc7" stroke-width="4" fill="none"></path></g><g transform="translate(730.0024768204146 823.920936065344) rotate(0 -28.30612024933373 -1.741919377703283)"><path d="M-29.42 -11.53 C-35.75 -9.65, -42.09 -7.78, -56.61 -3.48 M-29.42 -11.53 C-36.06 -9.56, -42.7 -7.6, -56.61 -3.48" stroke="#364fc7" stroke-width="4" fill="none"></path></g><g transform="translate(730.0024768204146 823.920936065344) rotate(0 -28.30612024933373 -1.741919377703283)"><path d="M-30.61 7.83 C-36.67 5.2, -42.73 2.56, -56.61 -3.48 M-30.61 7.83 C-36.96 5.07, -43.31 2.31, -56.61 -3.48" stroke="#364fc7" stroke-width="4" fill="none"></path></g></g><g stroke-linecap="round" transform="translate(507.83333333333326 664.8217932686584) rotate(0 75 38.33333333333333)"><path d="M0 0 C39.57 0, 79.14 0, 150 0 M0 0 C31.78 0, 63.56 0, 150 0 M150 0 C150 21.37, 150 42.73, 150 76.67 M150 0 C150 23.32, 150 46.64, 150 76.67 M150 76.67 C118.1 76.67, 86.21 76.67, 0 76.67 M150 76.67 C102.8 76.67, 55.6 76.67, 0 76.67 M0 76.67 C0 46.81, 0 16.95, 0 0 M0 76.67 C0 51.49, 0 26.31, 0 0" stroke="#364fc7" stroke-width="4" fill="none"></path></g><g transform="translate(517.8333333333333 677.4884599353252) rotate(0 65.5 26)"><text x="0" y="18" font-family="Virgil, Segoe UI Emoji" font-size="20px" fill="#364fc7" text-anchor="start" style="white-space: pre;" direction="ltr">Pissing people</text><text x="0" y="44" font-family="Virgil, Segoe UI Emoji" font-size="20px" fill="#364fc7" text-anchor="start" style="white-space: pre;" direction="ltr">off</text></g><g stroke-linecap="round" transform="translate(481.1666666666664 792.3217932686584) rotate(0 93.33333333333337 35.83333333333334)"><path d="M0 0 C41.92 0, 83.83 0, 186.67 0 M0 0 C43.69 0, 87.39 0, 186.67 0 M186.67 0 C186.67 24.69, 186.67 49.37, 186.67 71.67 M186.67 0 C186.67 25.8, 186.67 51.6, 186.67 71.67 M186.67 71.67 C140.48 71.67, 94.3 71.67, 0 71.67 M186.67 71.67 C118.47 71.67, 50.27 71.67, 0 71.67 M0 71.67 C0 45.42, 0 19.17, 0 0 M0 71.67 C0 46.05, 0 20.44, 0 0" stroke="#364fc7" stroke-width="4" fill="none"></path></g><g stroke-linecap="round"><g transform="translate(1442.5 802.4884599353252) rotate(0 1.25 43.75)"><path d="M0 0 C0.42 14.58, 2.08 72.92, 2.5 87.5 M0 0 C0.42 14.58, 2.08 72.92, 2.5 87.5" stroke="#000000" stroke-width="1" fill="none"></path></g><g transform="translate(1442.5 802.4884599353252) rotate(0 1.25 43.75)"><path d="M-8.56 59.61 C-4.86 68.95, -1.15 78.29, 2.5 87.5 M-8.56 59.61 C-5.89 66.34, -3.22 73.07, 2.5 87.5" stroke="#000000" stroke-width="1" fill="none"></path></g><g transform="translate(1442.5 802.4884599353252) rotate(0 1.25 43.75)"><path d="M11.95 59.03 C8.79 68.56, 5.62 78.1, 2.5 87.5 M11.95 59.03 C9.67 65.9, 7.39 72.77, 2.5 87.5" stroke="#000000" stroke-width="1" fill="none"></path></g></g><g stroke-linecap="round"><g transform="translate(1606.9762444971398 706.6006441111742) rotate(0 -1.426639464007053 91.69390791207552)"><path d="M0 0 C-0.48 30.56, -2.38 152.82, -2.85 183.39 M0 0 C-0.48 30.56, -2.38 152.82, -2.85 183.39" stroke="#000000" stroke-width="1" fill="none"></path></g><g transform="translate(1606.9762444971398 706.6006441111742) rotate(0 -1.426639464007053 91.69390791207552)"><path d="M-12.67 155.04 C-9.06 165.46, -5.45 175.88, -2.85 183.39 M-12.67 155.04 C-9.05 165.49, -5.44 175.94, -2.85 183.39" stroke="#000000" stroke-width="1" fill="none"></path></g><g transform="translate(1606.9762444971398 706.6006441111742) rotate(0 -1.426639464007053 91.69390791207552)"><path d="M7.84 155.36 C3.91 165.66, -0.02 175.97, -2.85 183.39 M7.84 155.36 C3.9 165.69, -0.04 176.02, -2.85 183.39" stroke="#000000" stroke-width="1" fill="none"></path></g></g><g stroke-linecap="round"><g transform="translate(1635 942.5477682705266) rotate(0 163.4801397847233 23.349905897095113)"><path d="M0 0 C54.49 7.78, 272.47 38.92, 326.96 46.7 M0 0 C54.49 7.78, 272.47 38.92, 326.96 46.7" stroke="#364fc7" stroke-width="4" fill="none"></path></g><g transform="translate(1635 942.5477682705266) rotate(0 163.4801397847233 23.349905897095113)"><path d="M297.6 52.87 C303.91 51.55, 310.21 50.22, 326.96 46.7 M297.6 52.87 C304.8 51.36, 312 49.85, 326.96 46.7" stroke="#364fc7" stroke-width="4" fill="none"></path></g><g transform="translate(1635 942.5477682705266) rotate(0 163.4801397847233 23.349905897095113)"><path d="M300.5 32.56 C306.19 35.59, 311.87 38.63, 326.96 46.7 M300.5 32.56 C306.99 36.02, 313.48 39.49, 326.96 46.7" stroke="#364fc7" stroke-width="4" fill="none"></path></g></g><g stroke-linecap="round"><g transform="translate(1876.666666666667 1077.5793265361904) rotate(0 44.74193230308117 -23.808636747306366)"><path d="M0 0 C14.91 -7.94, 74.57 -39.68, 89.48 -47.62 M0 0 C14.91 -7.94, 74.57 -39.68, 89.48 -47.62" stroke="#364fc7" stroke-width="4" fill="none"></path></g><g transform="translate(1876.666666666667 1077.5793265361904) rotate(0 44.74193230308117 -23.808636747306366)"><path d="M69.42 -25.32 C74.28 -30.72, 79.15 -36.13, 89.48 -47.62 M69.42 -25.32 C76.4 -33.08, 83.38 -40.84, 89.48 -47.62" stroke="#364fc7" stroke-width="4" fill="none"></path></g><g transform="translate(1876.666666666667 1077.5793265361904) rotate(0 44.74193230308117 -23.808636747306366)"><path d="M59.78 -43.43 C66.98 -44.45, 74.18 -45.46, 89.48 -47.62 M59.78 -43.43 C70.11 -44.89, 80.45 -46.34, 89.48 -47.62" stroke="#364fc7" stroke-width="4" fill="none"></path></g></g><g stroke-linecap="round" transform="translate(125 794.9884599353252) rotate(0 58.75 57.5)"><path d="M87.77 7.5 C96.18 12.18, 104.26 19.93, 109.21 28.06 C114.17 36.19, 117.28 46.83, 117.49 56.3 C117.69 65.76, 115.03 76.52, 110.43 84.85 C105.83 93.18, 98.09 101.25, 89.88 106.26 C81.68 111.28, 70.88 114.55, 61.21 114.95 C51.55 115.35, 40.5 112.97, 31.9 108.64 C23.29 104.31, 14.89 96.91, 9.59 88.99 C4.29 81.06, 0.72 70.56, 0.12 61.11 C-0.49 51.66, 1.71 40.8, 5.95 32.29 C10.19 23.78, 17.58 15.4, 25.56 10.06 C33.54 4.71, 44.19 0.99, 53.83 0.2 C63.47 -0.59, 74.61 1.33, 83.39 5.3 C92.17 9.27, 100.89 16.33, 106.52 24.03" stroke="#c92a2a" stroke-width="2" fill="none"></path></g><g transform="translate(147.5 812.6551266019917) rotate(0 40.5 39)"><text x="0" y="18" font-family="Virgil, Segoe UI Emoji" font-size="20px" fill="#c92a2a" text-anchor="start" style="white-space: pre;" direction="ltr">Zero or</text><text x="0" y="44" font-family="Virgil, Segoe UI Emoji" font-size="20px" fill="#c92a2a" text-anchor="start" style="white-space: pre;" direction="ltr">negative</text><text x="0" y="70" font-family="Virgil, Segoe UI Emoji" font-size="20px" fill="#c92a2a" text-anchor="start" style="white-space: pre;" direction="ltr">impact</text></g><g stroke-linecap="round" transform="translate(115 779.9884599353252) rotate(0 70 72.5)"><path d="M101.49 7.75 C110.86 12.64, 120 20.61, 126.25 29.34 C132.49 38.08, 137.19 49.45, 138.98 60.16 C140.77 70.87, 140.02 83.22, 136.96 93.62 C133.91 104.02, 127.88 114.7, 120.63 122.56 C113.39 130.42, 103.37 137.15, 93.48 140.8 C83.59 144.45, 71.72 145.79, 61.3 144.44 C50.89 143.09, 39.7 138.76, 30.99 132.7 C22.27 126.64, 14.17 117.56, 9.01 108.09 C3.86 98.62, 0.56 86.73, 0.08 75.87 C-0.41 65.01, 1.81 52.86, 6.09 42.93 C10.37 33, 17.63 23.18, 25.76 16.31 C33.9 9.44, 44.65 4.05, 54.89 1.71 C65.14 -0.64, 77.08 -0.44, 87.26 2.24 C97.43 4.92, 108.01 10.66, 115.93 17.79" stroke="#c92a2a" stroke-width="2" fill="none"></path></g><g stroke-linecap="round"><g transform="translate(502.84715874088613 694.4199958097593) rotate(0 -124.29296055904854 63.55665840361877)"><path d="M0 0 C-41.43 21.19, -207.15 105.93, -248.59 127.11 M0 0 C-41.43 21.19, -207.15 105.93, -248.59 127.11" stroke="#364fc7" stroke-width="4" fill="none"></path></g><g transform="translate(502.84715874088613 694.4199958097593) rotate(0 -124.29296055904854 63.55665840361877)"><path d="M-228.16 105.14 C-235.06 112.56, -241.96 119.99, -248.59 127.11 M-228.16 105.14 C-235.7 113.25, -243.24 121.36, -248.59 127.11" stroke="#364fc7" stroke-width="4" fill="none"></path></g><g transform="translate(502.84715874088613 694.4199958097593) rotate(0 -124.29296055904854 63.55665840361877)"><path d="M-218.81 123.41 C-228.87 124.66, -238.93 125.91, -248.59 127.11 M-218.81 123.41 C-229.8 124.78, -240.79 126.15, -248.59 127.11" stroke="#364fc7" stroke-width="4" fill="none"></path></g></g><g stroke-linecap="round"><g transform="translate(475.42094254283035 836.7062905092375) rotate(0 -108.86267523709894 7.873068719435452)"><path d="M0 0 C-36.29 2.62, -181.44 13.12, -217.73 15.75 M0 0 C-36.29 2.62, -181.44 13.12, -217.73 15.75" stroke="#364fc7" stroke-width="4" fill="none"></path></g><g transform="translate(475.42094254283035 836.7062905092375) rotate(0 -108.86267523709894 7.873068719435452)"><path d="M-190.35 3.48 C-197.98 6.9, -205.61 10.32, -217.73 15.75 M-190.35 3.48 C-198.68 7.21, -207 10.94, -217.73 15.75" stroke="#364fc7" stroke-width="4" fill="none"></path></g><g transform="translate(475.42094254283035 836.7062905092375) rotate(0 -108.86267523709894 7.873068719435452)"><path d="M-188.87 23.95 C-196.91 21.66, -204.95 19.38, -217.73 15.75 M-188.87 23.95 C-197.65 21.45, -206.42 18.96, -217.73 15.75" stroke="#364fc7" stroke-width="4" fill="none"></path></g></g><g stroke-linecap="round"><g transform="translate(729.9069089695371 824.1461432750383) rotate(0 -48.57675552937178 126.67033346061544)"><path d="M0 0 C-16.19 42.22, -80.96 211.12, -97.15 253.34 M0 0 C-16.19 42.22, -80.96 211.12, -97.15 253.34" stroke="#000000" stroke-width="1" fill="none"></path></g><g transform="translate(729.9069089695371 824.1461432750383) rotate(0 -48.57675552937178 126.67033346061544)"><path d="M-96.64 223.35 C-96.75 229.65, -96.86 235.95, -97.15 253.34 M-96.64 223.35 C-96.78 231.54, -96.92 239.73, -97.15 253.34" stroke="#000000" stroke-width="1" fill="none"></path></g><g transform="translate(729.9069089695371 824.1461432750383) rotate(0 -48.57675552937178 126.67033346061544)"><path d="M-77.48 230.69 C-81.61 235.45, -85.75 240.21, -97.15 253.34 M-77.48 230.69 C-82.85 236.88, -88.23 243.06, -97.15 253.34" stroke="#000000" stroke-width="1" fill="none"></path></g></g><g stroke-linecap="round" transform="translate(434.16666666666663 1038.3217932686584) rotate(0 98.75 36.25)"><path d="M0 0 C68.03 0, 136.06 0, 197.5 0 M0 0 C71.1 0, 142.21 0, 197.5 0 M197.5 0 C197.5 17.94, 197.5 35.88, 197.5 72.5 M197.5 0 C197.5 26.49, 197.5 52.97, 197.5 72.5 M197.5 72.5 C125.17 72.5, 52.83 72.5, 0 72.5 M197.5 72.5 C126.91 72.5, 56.33 72.5, 0 72.5 M0 72.5 C0 57.64, 0 42.78, 0 0 M0 72.5 C0 47.55, 0 22.6, 0 0" stroke="#000000" stroke-width="1" fill="none"></path></g><g transform="translate(446.66666666666663 1044.3217932686584) rotate(0 71 26)"><text x="0" y="18" font-family="Virgil, Segoe UI Emoji" font-size="20px" fill="#000000" text-anchor="start" style="white-space: pre;" direction="ltr">Opportunity</text><text x="0" y="44" font-family="Virgil, Segoe UI Emoji" font-size="20px" fill="#000000" text-anchor="start" style="white-space: pre;" direction="ltr">costs too high</text></g><g stroke-linecap="round"><g transform="translate(426.66666666666663 1056.5217181428065) rotate(0 -93.93880461080226 -77.02964123838495)"><path d="M0 0 C-31.31 -25.68, -156.56 -128.38, -187.88 -154.06 M0 0 C-31.31 -25.68, -156.56 -128.38, -187.88 -154.06" stroke="#000000" stroke-width="1" fill="none"></path></g><g transform="translate(426.66666666666663 1056.5217181428065) rotate(0 -93.93880461080226 -77.02964123838495)"><path d="M-159.57 -144.12 C-165.53 -146.21, -171.49 -148.3, -187.88 -154.06 M-159.57 -144.12 C-170.68 -148.02, -181.8 -151.92, -187.88 -154.06" stroke="#000000" stroke-width="1" fill="none"></path></g><g transform="translate(426.66666666666663 1056.5217181428065) rotate(0 -93.93880461080226 -77.02964123838495)"><path d="M-172.58 -128.25 C-175.8 -133.68, -179.02 -139.12, -187.88 -154.06 M-172.58 -128.25 C-178.59 -138.38, -184.59 -148.51, -187.88 -154.06" stroke="#000000" stroke-width="1" fill="none"></path></g></g><g stroke-linecap="round"><g transform="translate(1090.8333333333333 322.131748551169) rotate(0 469.5970848425764 290.0446581902717)"><path d="M0 0 C129.86 7.58, 622.64 -53.08, 779.17 45.5 C935.7 144.08, 912.52 500.47, 939.19 591.46 M0 0 C129.86 7.58, 622.64 -53.08, 779.17 45.5 C935.7 144.08, 912.52 500.47, 939.19 591.46" stroke="#000000" stroke-width="1" fill="none"></path></g><g transform="translate(1090.8333333333333 322.131748551169) rotate(0 469.5970848425764 290.0446581902717)"><path d="M925.65 564.7 C930.57 574.43, 935.5 584.17, 939.19 591.46 M925.65 564.7 C929.96 573.23, 934.28 581.75, 939.19 591.46" stroke="#000000" stroke-width="1" fill="none"></path></g><g transform="translate(1090.8333333333333 322.131748551169) rotate(0 469.5970848425764 290.0446581902717)"><path d="M946.02 562.25 C943.54 572.88, 941.05 583.5, 939.19 591.46 M946.02 562.25 C943.85 571.56, 941.67 580.87, 939.19 591.46" stroke="#000000" stroke-width="1" fill="none"></path></g></g><g stroke-linecap="round"><g transform="translate(570.1666666666667 328.88935769564284) rotate(0 -175.49996604251595 230.55170405760066)"><path d="M0 0 C-29.88 10.87, -120.78 -11.62, -179.28 65.23 C-237.78 142.08, -322.38 395.12, -351 461.1 M0 0 C-29.88 10.87, -120.78 -11.62, -179.28 65.23 C-237.78 142.08, -322.38 395.12, -351 461.1" stroke="#000000" stroke-width="1" fill="none"></path></g><g transform="translate(570.1666666666667 328.88935769564284) rotate(0 -175.49996604251595 230.55170405760066)"><path d="M-350.41 431.11 C-350.65 443.1, -350.88 455.09, -351 461.1 M-350.41 431.11 C-350.58 439.69, -350.75 448.27, -351 461.1" stroke="#000000" stroke-width="1" fill="none"></path></g><g transform="translate(570.1666666666667 328.88935769564284) rotate(0 -175.49996604251595 230.55170405760066)"><path d="M-331.27 438.5 C-339.16 447.54, -347.05 456.57, -351 461.1 M-331.27 438.5 C-336.91 444.97, -342.56 451.43, -351 461.1" stroke="#000000" stroke-width="1" fill="none"></path></g></g><g stroke-linecap="round"><g transform="translate(930.6682479685041 824.1058659078815) rotate(0 38.959980170155916 22.67212559543728)"><path d="M0 0 C12.99 7.56, 64.93 37.79, 77.92 45.34 M0 0 C12.99 7.56, 64.93 37.79, 77.92 45.34" stroke="#364fc7" stroke-width="4" fill="none"></path></g><g transform="translate(930.6682479685041 824.1058659078815) rotate(0 38.959980170155916 22.67212559543728)"><path d="M48.39 40.03 C55.49 41.31, 62.59 42.59, 77.92 45.34 M48.39 40.03 C56.62 41.51, 64.85 42.99, 77.92 45.34" stroke="#364fc7" stroke-width="4" fill="none"></path></g><g transform="translate(930.6682479685041 824.1058659078815) rotate(0 38.959980170155916 22.67212559543728)"><path d="M58.72 22.3 C63.33 27.84, 67.95 33.38, 77.92 45.34 M58.72 22.3 C64.07 28.72, 69.42 35.14, 77.92 45.34" stroke="#364fc7" stroke-width="4" fill="none"></path></g></g><g stroke-linecap="round" transform="translate(1012.5 834.9884599353252) rotate(0 126.24999999999994 37.5)"><path d="M0 0 C82.22 0, 164.44 0, 252.5 0 M0 0 C96.97 0, 193.94 0, 252.5 0 M252.5 0 C252.5 28.93, 252.5 57.87, 252.5 75 M252.5 0 C252.5 18.24, 252.5 36.49, 252.5 75 M252.5 75 C182.01 75, 111.52 75, 0 75 M252.5 75 C185.29 75, 118.09 75, 0 75 M0 75 C0 52.55, 0 30.1, 0 0 M0 75 C0 55.13, 0 35.25, 0 0" stroke="#364fc7" stroke-width="4" fill="none"></path></g><g transform="translate(1022.5 860.9884599353252) rotate(0 111.49999999999994 13)"><text x="0" y="18" font-family="Virgil, Segoe UI Emoji" font-size="20px" fill="#364fc7" text-anchor="start" style="white-space: pre;" direction="ltr">Useful criticisms found</text></g><g stroke-linecap="round"><g transform="translate(1266.68686517179 865.4207490986697) rotate(0 60.54597573280341 34.81264220264944)"><path d="M0 0 C20.18 11.6, 100.91 58.02, 121.09 69.63 M0 0 C20.18 11.6, 100.91 58.02, 121.09 69.63" stroke="#364fc7" stroke-width="4" fill="none"></path></g><g transform="translate(1266.68686517179 865.4207490986697) rotate(0 60.54597573280341 34.81264220264944)"><path d="M91.54 64.47 C100.17 65.97, 108.8 67.48, 121.09 69.63 M91.54 64.47 C100.1 65.96, 108.65 67.45, 121.09 69.63" stroke="#364fc7" stroke-width="4" fill="none"></path></g><g transform="translate(1266.68686517179 865.4207490986697) rotate(0 60.54597573280341 34.81264220264944)"><path d="M101.77 46.68 C107.41 53.38, 113.06 60.08, 121.09 69.63 M101.77 46.68 C107.36 53.32, 112.96 59.97, 121.09 69.63" stroke="#364fc7" stroke-width="4" fill="none"></path></g></g><g stroke-linecap="round" transform="translate(732.5 757.4884599353252) rotate(0 98.75 64.99999999999997)"><path d="M99 0 C119.95 13.82, 140.89 27.64, 197.5 65 M99 0 C129.99 20.45, 160.99 40.9, 197.5 65 M197.5 65 C159.14 90.32, 120.77 115.63, 99 130 M197.5 65 C165.15 86.35, 132.8 107.69, 99 130 M99 130 C62.69 106.16, 26.39 82.33, 0 65 M99 130 C62.5 106.04, 26.01 82.07, 0 65 M0 65 C23.96 49.27, 47.92 33.54, 99 0 M0 65 C38.65 39.62, 77.3 14.25, 99 0" stroke="#862e9c" stroke-width="4" fill="none"></path></g><g stroke-linecap="round"><g transform="translate(728.4415268425221 824.4751197607989) rotate(0 -57.888482526018294 189.19648436080357)"><path d="M0 0 C-19.3 63.07, -96.48 315.33, -115.78 378.39 M0 0 C-19.3 63.07, -96.48 315.33, -115.78 378.39" stroke="#000000" stroke-width="2" fill="none"></path></g><g transform="translate(728.4415268425221 824.4751197607989) rotate(0 -57.888482526018294 189.19648436080357)"><path d="M-117.34 348.43 C-116.88 357.24, -116.42 366.04, -115.78 378.39 M-117.34 348.43 C-116.93 356.37, -116.51 364.31, -115.78 378.39" stroke="#000000" stroke-width="2" fill="none"></path></g><g transform="translate(728.4415268425221 824.4751197607989) rotate(0 -57.888482526018294 189.19648436080357)"><path d="M-97.72 354.44 C-103.02 361.48, -108.33 368.51, -115.78 378.39 M-97.72 354.44 C-102.5 360.78, -107.29 367.13, -115.78 378.39" stroke="#000000" stroke-width="2" fill="none"></path></g></g><g stroke-linecap="round"><g transform="translate(730.6916317372779 822.6860253821744) rotate(0 -35.34581586863891 -118.84878272342462)"><path d="M0 0 C-11.78 -39.62, -58.91 -198.08, -70.69 -237.7 M0 0 C-11.78 -39.62, -58.91 -198.08, -70.69 -237.7" stroke="#000000" stroke-width="1" fill="none"></path></g><g transform="translate(730.6916317372779 822.6860253821744) rotate(0 -35.34581586863891 -118.84878272342462)"><path d="M-52.82 -213.6 C-57.24 -219.56, -61.66 -225.53, -70.69 -237.7 M-52.82 -213.6 C-59.35 -222.4, -65.88 -231.21, -70.69 -237.7" stroke="#000000" stroke-width="1" fill="none"></path></g><g transform="translate(730.6916317372779 822.6860253821744) rotate(0 -35.34581586863891 -118.84878272342462)"><path d="M-72.49 -207.75 C-72.05 -215.16, -71.6 -222.57, -70.69 -237.7 M-72.49 -207.75 C-71.83 -218.69, -71.18 -229.63, -70.69 -237.7" stroke="#000000" stroke-width="1" fill="none"></path></g></g><g stroke-linecap="round" transform="translate(502.5 537.4884599353252) rotate(0 78.75 47.5)"><path d="M0 0 C34.04 0, 68.08 0, 157.5 0 M0 0 C36.53 0, 73.05 0, 157.5 0 M157.5 0 C157.5 23.83, 157.5 47.67, 157.5 95 M157.5 0 C157.5 31.53, 157.5 63.06, 157.5 95 M157.5 95 C120.66 95, 83.82 95, 0 95 M157.5 95 C100.42 95, 43.35 95, 0 95 M0 95 C0 69.04, 0 43.09, 0 0 M0 95 C0 65.09, 0 35.17, 0 0" stroke="#000000" stroke-width="1" fill="none"></path></g><g transform="translate(520 558.4884599353252) rotate(0 52.5 26)"><text x="0" y="18" font-family="Virgil, Segoe UI Emoji" font-size="20px" fill="#000000" text-anchor="start" style="white-space: pre;" direction="ltr">Regulatory</text><text x="0" y="44" font-family="Virgil, Segoe UI Emoji" font-size="20px" fill="#000000" text-anchor="start" style="white-space: pre;" direction="ltr">capture</text></g><g stroke-linecap="round"><g transform="translate(500 577.4884599353252) rotate(0 -129.0856630568408 114.4791501278679)"><path d="M0 0 C-43.03 38.16, -215.14 190.8, -258.17 228.96 M0 0 C-43.03 38.16, -215.14 190.8, -258.17 228.96" stroke="#000000" stroke-width="1" fill="none"></path></g><g transform="translate(500 577.4884599353252) rotate(0 -129.0856630568408 114.4791501278679)"><path d="M-243.89 202.58 C-247.24 208.78, -250.6 214.98, -258.17 228.96 M-243.89 202.58 C-249.2 212.38, -254.5 222.18, -258.17 228.96" stroke="#000000" stroke-width="1" fill="none"></path></g><g transform="translate(500 577.4884599353252) rotate(0 -129.0856630568408 114.4791501278679)"><path d="M-230.27 217.93 C-236.83 220.52, -243.39 223.11, -258.17 228.96 M-230.27 217.93 C-240.64 222.03, -251.01 226.13, -258.17 228.96" stroke="#000000" stroke-width="1" fill="none"></path></g></g><g stroke-linecap="round" transform="translate(439.99999999999994 1148.3217932686584) rotate(0 82.5 52.5)"><path d="M0 0 C48.25 0, 96.5 0, 165 0 M0 0 C60.09 0, 120.17 0, 165 0 M165 0 C165 25.84, 165 51.68, 165 105 M165 0 C165 27.22, 165 54.44, 165 105 M165 105 C110.08 105, 55.17 105, 0 105 M165 105 C119.84 105, 74.67 105, 0 105 M0 105 C0 75.9, 0 46.79, 0 0 M0 105 C0 70.41, 0 35.81, 0 0" stroke="#000000" stroke-width="2" fill="none"></path></g><g transform="translate(460.83333333333326 1159.3217932686584) rotate(0 56.5 39)"><text x="0" y="18" font-family="Virgil, Segoe UI Emoji" font-size="20px" fill="#000000" text-anchor="start" style="white-space: pre;" direction="ltr">Lack of </text><text x="0" y="44" font-family="Virgil, Segoe UI Emoji" font-size="20px" fill="#000000" text-anchor="start" style="white-space: pre;" direction="ltr">stakeholder</text><text x="0" y="70" font-family="Virgil, Segoe UI Emoji" font-size="20px" fill="#000000" text-anchor="start" style="white-space: pre;" direction="ltr">buy-in</text></g><g stroke-linecap="round"><g transform="translate(441.7110382090011 1203.907268377131) rotate(0 -109.879092895644 -144.65082614679378)"><path d="M0 0 C-36.63 -48.22, -183.13 -241.08, -219.76 -289.3 M0 0 C-36.63 -48.22, -183.13 -241.08, -219.76 -289.3" stroke="#000000" stroke-width="2" fill="none"></path></g><g transform="translate(441.7110382090011 1203.907268377131) rotate(0 -109.879092895644 -144.65082614679378)"><path d="M-194.54 -273.06 C-204.27 -279.33, -214 -285.59, -219.76 -289.3 M-194.54 -273.06 C-200.67 -277.01, -206.81 -280.96, -219.76 -289.3" stroke="#000000" stroke-width="2" fill="none"></path></g><g transform="translate(441.7110382090011 1203.907268377131) rotate(0 -109.879092895644 -144.65082614679378)"><path d="M-210.88 -260.65 C-214.3 -271.7, -217.73 -282.76, -219.76 -289.3 M-210.88 -260.65 C-213.04 -267.62, -215.2 -274.59, -219.76 -289.3" stroke="#000000" stroke-width="2" fill="none"></path></g></g><g stroke-linecap="round"><g transform="translate(1180 669.9884599353252) rotate(0 122.49999999999994 -55)"><path d="M0 0 C40.83 -18.33, 204.17 -91.67, 245 -110 M0 0 C40.83 -18.33, 204.17 -91.67, 245 -110" stroke="#000000" stroke-width="1" fill="none"></path></g><g transform="translate(1180 669.9884599353252) rotate(0 122.49999999999994 -55)"><path d="M223.49 -89.09 C230.35 -95.77, 237.22 -102.44, 245 -110 M223.49 -89.09 C231.88 -97.25, 240.28 -105.41, 245 -110" stroke="#000000" stroke-width="1" fill="none"></path></g><g transform="translate(1180 669.9884599353252) rotate(0 122.49999999999994 -55)"><path d="M215.08 -107.81 C224.63 -108.51, 234.18 -109.21, 245 -110 M215.08 -107.81 C226.76 -108.67, 238.44 -109.52, 245 -110" stroke="#000000" stroke-width="1" fill="none"></path></g></g><g stroke-linecap="round" transform="translate(1432.5 537.4884599353252) rotate(0 137.5 33.74999999999999)"><path d="M0 0 C82.35 0, 164.7 0, 275 0 M0 0 C108.65 0, 217.3 0, 275 0 M275 0 C275 18.81, 275 37.62, 275 67.5 M275 0 C275 15.67, 275 31.34, 275 67.5 M275 67.5 C173.31 67.5, 71.62 67.5, 0 67.5 M275 67.5 C193.14 67.5, 111.27 67.5, 0 67.5 M0 67.5 C0 51.28, 0 35.07, 0 0 M0 67.5 C0 51.76, 0 36.03, 0 0" stroke="#000000" stroke-width="1" fill="none"></path></g><g transform="translate(1455 548.4884599353252) rotate(0 121 26)"><text x="0" y="18" font-family="Virgil, Segoe UI Emoji" font-size="20px" fill="#000000" text-anchor="start" style="white-space: pre;" direction="ltr">Speculative interventions</text><text x="0" y="44" font-family="Virgil, Segoe UI Emoji" font-size="20px" fill="#000000" text-anchor="start" style="white-space: pre;" direction="ltr">now easier/more solid?</text></g><g stroke-linecap="round"><g transform="translate(1712.5 572.6685087856009) rotate(0 132.46932325583884 188.81629050107722)"><path d="M0 0 C44.16 62.94, 220.78 314.69, 264.94 377.63 M0 0 C44.16 62.94, 220.78 314.69, 264.94 377.63" stroke="#000000" stroke-width="1" fill="none"></path></g><g transform="translate(1712.5 572.6685087856009) rotate(0 132.46932325583884 188.81629050107722)"><path d="M240.35 360.45 C246.53 364.77, 252.72 369.09, 264.94 377.63 M240.35 360.45 C249.78 367.04, 259.21 373.63, 264.94 377.63" stroke="#000000" stroke-width="1" fill="none"></path></g><g transform="translate(1712.5 572.6685087856009) rotate(0 132.46932325583884 188.81629050107722)"><path d="M257.15 348.66 C259.11 355.95, 261.07 363.24, 264.94 377.63 M257.15 348.66 C260.14 359.77, 263.12 370.88, 264.94 377.63" stroke="#000000" stroke-width="1" fill="none"></path></g></g><g stroke-linecap="round"><g transform="translate(730.1950746517273 823.2081134461604) rotate(0 -47.76580655663284 299.59398874428956)"><path d="M0 0 C-15.92 99.86, -79.61 499.32, -95.53 599.19 M0 0 C-15.92 99.86, -79.61 499.32, -95.53 599.19" stroke="#000000" stroke-width="1" fill="none"></path></g><g transform="translate(730.1950746517273 823.2081134461604) rotate(0 -47.76580655663284 299.59398874428956)"><path d="M-101.23 569.73 C-99.14 580.52, -97.05 591.31, -95.53 599.19 M-101.23 569.73 C-99.19 580.26, -97.16 590.79, -95.53 599.19" stroke="#000000" stroke-width="1" fill="none"></path></g><g transform="translate(730.1950746517273 823.2081134461604) rotate(0 -47.76580655663284 299.59398874428956)"><path d="M-80.96 572.96 C-86.3 582.57, -91.63 592.17, -95.53 599.19 M-80.96 572.96 C-86.17 582.34, -91.38 591.71, -95.53 599.19" stroke="#000000" stroke-width="1" fill="none"></path></g></g><g stroke-linecap="round" transform="translate(377.5 1384.155126601992) rotate(0 127.5 56.24999999999994)"><path d="M0 0 C63.98 0, 127.95 0, 255 0 M0 0 C84.64 0, 169.28 0, 255 0 M255 0 C255 26.32, 255 52.63, 255 112.5 M255 0 C255 40.77, 255 81.54, 255 112.5 M255 112.5 C185.33 112.5, 115.66 112.5, 0 112.5 M255 112.5 C174.71 112.5, 94.42 112.5, 0 112.5 M0 112.5 C0 81.08, 0 49.67, 0 0 M0 112.5 C0 84.35, 0 56.19, 0 0" stroke="#000000" stroke-width="1" fill="none"></path></g><g transform="translate(402.5 1415.155126601992) rotate(0 101 26)"><text x="0" y="18" font-family="Virgil, Segoe UI Emoji" font-size="20px" fill="#000000" text-anchor="start" style="white-space: pre;" direction="ltr">Increased complexity</text><text x="0" y="44" font-family="Virgil, Segoe UI Emoji" font-size="20px" fill="#000000" text-anchor="start" style="white-space: pre;" direction="ltr">&amp; bureaucratization</text></g><g stroke-linecap="round"><g transform="translate(375.4538880112953 1433.9192284101387) rotate(0 -54.72694400564765 -36.62252128201749)"><path d="M0 0 C-18.24 -12.21, -91.21 -61.04, -109.45 -73.25 M0 0 C-18.24 -12.21, -91.21 -61.04, -109.45 -73.25" stroke="#000000" stroke-width="1" fill="none"></path></g><g transform="translate(375.4538880112953 1433.9192284101387) rotate(0 -54.72694400564765 -36.62252128201749)"><path d="M-80.32 -66.09 C-88.96 -68.22, -97.61 -70.34, -109.45 -73.25 M-80.32 -66.09 C-89.73 -68.4, -99.13 -70.71, -109.45 -73.25" stroke="#000000" stroke-width="1" fill="none"></path></g><g transform="translate(375.4538880112953 1433.9192284101387) rotate(0 -54.72694400564765 -36.62252128201749)"><path d="M-91.73 -49.04 C-96.99 -56.22, -102.25 -63.41, -109.45 -73.25 M-91.73 -49.04 C-97.45 -56.86, -103.18 -64.67, -109.45 -73.25" stroke="#000000" stroke-width="1" fill="none"></path></g></g><g stroke-linecap="round"><g transform="translate(374 1433.626937398888) rotate(0 -90.74999999999997 1.771117883803072)"><path d="M0 0 C-30.25 0.59, -151.25 2.95, -181.5 3.54 M0 0 C-30.25 0.59, -151.25 2.95, -181.5 3.54" stroke="#000000" stroke-width="1" fill="none"></path></g><g transform="translate(374 1433.626937398888) rotate(0 -90.74999999999997 1.771117883803072)"><path d="M-153.51 -7.27 C-160.4 -4.61, -167.29 -1.95, -181.5 3.54 M-153.51 -7.27 C-160.77 -4.46, -168.02 -1.66, -181.5 3.54" stroke="#000000" stroke-width="1" fill="none"></path></g><g transform="translate(374 1433.626937398888) rotate(0 -90.74999999999997 1.771117883803072)"><path d="M-153.11 13.25 C-160.1 10.86, -167.09 8.47, -181.5 3.54 M-153.11 13.25 C-160.47 10.73, -167.83 8.22, -181.5 3.54" stroke="#000000" stroke-width="1" fill="none"></path></g></g><g stroke-linecap="round" transform="translate(10 1404.155126601992) rotate(0 90 46.25)"><path d="M0 0 C68.25 0, 136.5 0, 180 0 M0 0 C71.73 0, 143.46 0, 180 0 M180 0 C180 30.68, 180 61.37, 180 92.5 M180 0 C180 26.49, 180 52.98, 180 92.5 M180 92.5 C134.9 92.5, 89.8 92.5, 0 92.5 M180 92.5 C112.66 92.5, 45.32 92.5, 0 92.5 M0 92.5 C0 56.5, 0 20.5, 0 0 M0 92.5 C0 70.1, 0 47.71, 0 0" stroke="#000000" stroke-width="1" fill="none"></path></g><g transform="translate(37.5 1415.155126601992) rotate(0 70.5 39)"><text x="0" y="18" font-family="Virgil, Segoe UI Emoji" font-size="20px" fill="#000000" text-anchor="start" style="white-space: pre;" direction="ltr">Bad in so</text><text x="0" y="44" font-family="Virgil, Segoe UI Emoji" font-size="20px" fill="#000000" text-anchor="start" style="white-space: pre;" direction="ltr">many different</text><text x="0" y="70" font-family="Virgil, Segoe UI Emoji" font-size="20px" fill="#000000" text-anchor="start" style="white-space: pre;" direction="ltr">ways</text></g><g stroke-linecap="round" transform="translate(160 1286.655126601992) rotate(0 96.25 37.5)"><path d="M0 0 C53.66 0, 107.32 0, 192.5 0 M0 0 C69.33 0, 138.66 0, 192.5 0 M192.5 0 C192.5 18.7, 192.5 37.39, 192.5 75 M192.5 0 C192.5 27.53, 192.5 55.07, 192.5 75 M192.5 75 C119.68 75, 46.87 75, 0 75 M192.5 75 C123.77 75, 55.05 75, 0 75 M0 75 C0 50.39, 0 25.78, 0 0 M0 75 C0 57.56, 0 40.12, 0 0" stroke="#000000" stroke-width="1" fill="none"></path></g><g transform="translate(182.5 1300.155126601992) rotate(0 81.5 26)"><text x="0" y="18" font-family="Virgil, Segoe UI Emoji" font-size="20px" fill="#000000" text-anchor="start" style="white-space: pre;" direction="ltr">Increased</text><text x="0" y="44" font-family="Virgil, Segoe UI Emoji" font-size="20px" fill="#000000" text-anchor="start" style="white-space: pre;" direction="ltr">activation costs</text></g><g stroke-linecap="round"><g transform="translate(96.18077553232007 1401.655126601992) rotate(0 33.66756222541173 -238.43028527150554)"><path d="M0 0 C11.22 -79.48, 56.11 -397.38, 67.34 -476.86 M0 0 C11.22 -79.48, 56.11 -397.38, 67.34 -476.86" stroke="#000000" stroke-width="1" fill="none"></path></g><g transform="translate(96.18077553232007 1401.655126601992) rotate(0 33.66756222541173 -238.43028527150554)"><path d="M73.55 -447.51 C71.27 -458.27, 68.99 -469.04, 67.34 -476.86 M73.55 -447.51 C71.26 -458.33, 68.97 -469.15, 67.34 -476.86" stroke="#000000" stroke-width="1" fill="none"></path></g><g transform="translate(96.18077553232007 1401.655126601992) rotate(0 33.66756222541173 -238.43028527150554)"><path d="M53.23 -450.38 C58.4 -460.09, 63.58 -469.8, 67.34 -476.86 M53.23 -450.38 C58.43 -460.14, 63.63 -469.9, 67.34 -476.86" stroke="#000000" stroke-width="1" fill="none"></path></g></g><g stroke-linecap="round"><g transform="translate(246.3429456867724 1289.155126601992) rotate(0 -24.932542703029558 -179.33918894783844)"><path d="M0 0 C-8.31 -59.78, -41.55 -298.9, -49.87 -358.68 M0 0 C-8.31 -59.78, -41.55 -298.9, -49.87 -358.68" stroke="#000000" stroke-width="1" fill="none"></path></g><g transform="translate(246.3429456867724 1289.155126601992) rotate(0 -24.932542703029558 -179.33918894783844)"><path d="M-35.82 -332.17 C-39.14 -338.43, -42.46 -344.69, -49.87 -358.68 M-35.82 -332.17 C-39.65 -339.39, -43.48 -346.62, -49.87 -358.68" stroke="#000000" stroke-width="1" fill="none"></path></g><g transform="translate(246.3429456867724 1289.155126601992) rotate(0 -24.932542703029558 -179.33918894783844)"><path d="M-56.15 -329.34 C-54.66 -336.27, -53.18 -343.2, -49.87 -358.68 M-56.15 -329.34 C-54.43 -337.34, -52.72 -345.34, -49.87 -358.68" stroke="#000000" stroke-width="1" fill="none"></path></g></g><g stroke-linecap="round"><g transform="translate(931.7828428074333 824.6406776345134) rotate(0 -5.882571278215266 360.5660043506787)"><path d="M0 0 C-1.96 120.19, -9.8 600.94, -11.77 721.13 M0 0 C-1.96 120.19, -9.8 600.94, -11.77 721.13" stroke="#364fc7" stroke-width="4" fill="none"></path></g><g transform="translate(931.7828428074333 824.6406776345134) rotate(0 -5.882571278215266 360.5660043506787)"><path d="M-21.56 692.78 C-19.56 698.59, -17.55 704.4, -11.77 721.13 M-21.56 692.78 C-18.19 702.54, -14.82 712.29, -11.77 721.13" stroke="#364fc7" stroke-width="4" fill="none"></path></g><g transform="translate(931.7828428074333 824.6406776345134) rotate(0 -5.882571278215266 360.5660043506787)"><path d="M-1.05 693.11 C-3.24 698.86, -5.44 704.6, -11.77 721.13 M-1.05 693.11 C-4.74 702.76, -8.42 712.4, -11.77 721.13" stroke="#364fc7" stroke-width="4" fill="none"></path></g></g><g stroke-linecap="round" transform="translate(810 1549.9884599353254) rotate(0 103.75 27.5)"><path d="M0 0 C48.54 0, 97.08 0, 207.5 0 M0 0 C75.2 0, 150.39 0, 207.5 0 M207.5 0 C207.5 15.03, 207.5 30.05, 207.5 55 M207.5 0 C207.5 17.32, 207.5 34.64, 207.5 55 M207.5 55 C149.55 55, 91.61 55, 0 55 M207.5 55 C155.57 55, 103.65 55, 0 55 M0 55 C0 40.08, 0 25.15, 0 0 M0 55 C0 38.91, 0 22.83, 0 0" stroke="#364fc7" stroke-width="4" fill="none"></path></g><g transform="translate(985.8333333333334 1332.655126601992) rotate(0 130 26)"><text x="0" y="18" font-family="Virgil, Segoe UI Emoji" font-size="20px" fill="#364fc7" text-anchor="start" style="white-space: pre;" direction="ltr">Assumptions are apparent,</text><text x="0" y="44" font-family="Virgil, Segoe UI Emoji" font-size="20px" fill="#364fc7" text-anchor="start" style="white-space: pre;" direction="ltr">reasoning is transparent</text></g><g transform="translate(842.5 1560.9884599353254) rotate(0 78.5 13)"><text x="0" y="18" font-family="Virgil, Segoe UI Emoji" font-size="20px" fill="#364fc7" text-anchor="start" style="white-space: pre;" direction="ltr">Systematization</text></g><g stroke-linecap="round" transform="translate(962.5 1319.9884599353252) rotate(0 151.24999999999994 38.75000000000006)"><path d="M0 0 C100.68 0, 201.36 0, 302.5 0 M0 0 C82.8 0, 165.6 0, 302.5 0 M302.5 0 C302.5 21.48, 302.5 42.96, 302.5 77.5 M302.5 0 C302.5 25.53, 302.5 51.07, 302.5 77.5 M302.5 77.5 C192.84 77.5, 83.17 77.5, 0 77.5 M302.5 77.5 C193.19 77.5, 83.88 77.5, 0 77.5 M0 77.5 C0 51.36, 0 25.23, 0 0 M0 77.5 C0 53.39, 0 29.27, 0 0" stroke="#364fc7" stroke-width="4" fill="none"></path></g><g stroke-linecap="round"><g transform="translate(1019.1781811753009 1578.6485365863023) rotate(0 45.410909412349554 -89.33003832548854)"><path d="M0 0 C15.14 -29.78, 75.68 -148.88, 90.82 -178.66 M0 0 C15.14 -29.78, 75.68 -148.88, 90.82 -178.66" stroke="#364fc7" stroke-width="4" fill="none"></path></g><g transform="translate(1019.1781811753009 1578.6485365863023) rotate(0 45.410909412349554 -89.33003832548854)"><path d="M87.19 -148.88 C88.4 -158.76, 89.6 -168.64, 90.82 -178.66 M87.19 -148.88 C88.23 -157.41, 89.27 -165.94, 90.82 -178.66" stroke="#364fc7" stroke-width="4" fill="none"></path></g><g transform="translate(1019.1781811753009 1578.6485365863023) rotate(0 45.410909412349554 -89.33003832548854)"><path d="M68.9 -158.18 C76.17 -164.97, 83.44 -171.77, 90.82 -178.66 M68.9 -158.18 C75.18 -164.04, 81.46 -169.91, 90.82 -178.66" stroke="#364fc7" stroke-width="4" fill="none"></path></g></g><g stroke-linecap="round"><g transform="translate(1199.1392559603 1310.669318857756) rotate(0 -0.24867454373685405 -43.43771588024384)"><path d="M0 0 C-0.08 -14.48, -0.41 -72.4, -0.5 -86.88 M0 0 C-0.08 -14.48, -0.41 -72.4, -0.5 -86.88" stroke="#364fc7" stroke-width="4" fill="none"></path></g><g transform="translate(1199.1392559603 1310.669318857756) rotate(0 -0.24867454373685405 -43.43771588024384)"><path d="M9.92 -58.74 C6.81 -67.16, 3.69 -75.58, -0.5 -86.88 M9.92 -58.74 C7.16 -66.2, 4.4 -73.65, -0.5 -86.88" stroke="#364fc7" stroke-width="4" fill="none"></path></g><g transform="translate(1199.1392559603 1310.669318857756) rotate(0 -0.24867454373685405 -43.43771588024384)"><path d="M-10.6 -58.63 C-7.57 -67.08, -4.55 -75.54, -0.5 -86.88 M-10.6 -58.63 C-7.92 -66.11, -5.24 -73.6, -0.5 -86.88" stroke="#364fc7" stroke-width="4" fill="none"></path></g></g><g stroke-linecap="round"><g transform="translate(1075.4573577493027 1314.8670526321112) rotate(0 -1.8953455413179654 -201.1892963483929)"><path d="M0 0 C-0.63 -67.06, -3.16 -335.32, -3.79 -402.38 M0 0 C-0.63 -67.06, -3.16 -335.32, -3.79 -402.38" stroke="#364fc7" stroke-width="4" fill="none"></path></g><g transform="translate(1075.4573577493027 1314.8670526321112) rotate(0 -1.8953455413179654 -201.1892963483929)"><path d="M6.74 -374.29 C4.11 -381.29, 1.49 -388.29, -3.79 -402.38 M6.74 -374.29 C2.87 -384.6, -0.99 -394.91, -3.79 -402.38" stroke="#364fc7" stroke-width="4" fill="none"></path></g><g transform="translate(1075.4573577493027 1314.8670526321112) rotate(0 -1.8953455413179654 -201.1892963483929)"><path d="M-13.79 -374.09 C-11.29 -381.14, -8.8 -388.2, -3.79 -402.38 M-13.79 -374.09 C-10.12 -384.48, -6.45 -394.86, -3.79 -402.38" stroke="#364fc7" stroke-width="4" fill="none"></path></g></g><g stroke-linecap="round"><g transform="translate(807.9392110198736 1593.1968199571966) rotate(0 -86.46960550993677 -86.82847353414417)"><path d="M0 0 C-28.82 -28.94, -144.12 -144.71, -172.94 -173.66 M0 0 C-28.82 -28.94, -144.12 -144.71, -172.94 -173.66" stroke="#000000" stroke-width="2" fill="none"></path></g><g transform="translate(807.9392110198736 1593.1968199571966) rotate(0 -86.46960550993677 -86.82847353414417)"><path d="M-145.78 -160.92 C-155.82 -165.63, -165.86 -170.34, -172.94 -173.66 M-145.78 -160.92 C-153.86 -164.71, -161.95 -168.5, -172.94 -173.66" stroke="#000000" stroke-width="2" fill="none"></path></g><g transform="translate(807.9392110198736 1593.1968199571966) rotate(0 -86.46960550993677 -86.82847353414417)"><path d="M-160.32 -146.44 C-164.98 -156.51, -169.65 -166.57, -172.94 -173.66 M-160.32 -146.44 C-164.07 -154.54, -167.83 -162.64, -172.94 -173.66" stroke="#000000" stroke-width="2" fill="none"></path></g></g><g stroke-linecap="round"><g transform="translate(1584.6618756777225 775.5769732393987) rotate(0 98.39184799374152 136.66666666666677)"><path d="M0 0 C28.17 5.5, 136.2 -12.56, 169 33 C201.8 78.56, 192.15 233.28, 196.78 273.33 M0 0 C28.17 5.5, 136.2 -12.56, 169 33 C201.8 78.56, 192.15 233.28, 196.78 273.33" stroke="#000000" stroke-width="1" fill="none"></path></g><g transform="translate(1584.6618756777225 775.5769732393987) rotate(0 98.39184799374152 136.66666666666677)"><path d="M185.68 245.47 C188.36 252.21, 191.05 258.95, 196.78 273.33 M185.68 245.47 C190.01 256.34, 194.35 267.22, 196.78 273.33" stroke="#000000" stroke-width="1" fill="none"></path></g><g transform="translate(1584.6618756777225 775.5769732393987) rotate(0 98.39184799374152 136.66666666666677)"><path d="M206.19 244.85 C203.91 251.74, 201.64 258.63, 196.78 273.33 M206.19 244.85 C202.52 255.97, 198.85 267.09, 196.78 273.33" stroke="#000000" stroke-width="1" fill="none"></path></g></g><g stroke-opacity="0.7" fill-opacity="0.7" stroke-linecap="round" transform="translate(2249.1907982998114 26) rotate(0 38.75 38.75)"><path d="M39 0 C48.98 10.11, 58.96 20.22, 77.5 39 M39 0 C50.12 11.26, 61.24 22.53, 77.5 39 M77.5 39 C66.06 50.44, 54.63 61.87, 39 77.5 M77.5 39 C66.11 50.39, 54.71 61.79, 39 77.5 M39 77.5 C23.49 62.19, 7.99 46.89, 0 39 M39 77.5 C28.93 67.56, 18.87 57.63, 0 39 M0 39 C15.06 23.94, 30.12 8.88, 39 0 M0 39 C9.12 29.88, 18.24 20.76, 39 0" stroke="#862e9c" stroke-width="4" fill="none"></path></g><g stroke-opacity="0.7" fill-opacity="0.7" stroke-linecap="round" transform="translate(2234.690798299812 10) rotate(0 53.75 53.75)"><path d="M54 0 C67.12 13.24, 80.23 26.48, 107.5 54 M54 0 C66.19 12.31, 78.39 24.61, 107.5 54 M107.5 54 C94 67.5, 80.51 80.99, 54 107.5 M107.5 54 C86.15 75.35, 64.81 96.69, 54 107.5 M54 107.5 C33.39 87.08, 12.78 66.66, 0 54 M54 107.5 C36.2 89.86, 18.4 72.22, 0 54 M0 54 C15.4 38.6, 30.8 23.2, 54 0 M0 54 C19.86 34.14, 39.71 14.29, 54 0" stroke="#862e9c" stroke-width="4" fill="none"></path></g><g stroke-opacity="0.7" fill-opacity="0.7" transform="translate(2354.1907982998114 39.5) rotate(0 76.0769230769231 23)"><text x="0" y="32.999999999999986" font-family="Virgil, Segoe UI Emoji" font-size="35.38461538461538px" fill="#862e9c" text-anchor="start" style="white-space: pre;" direction="ltr">= Inputs</text></g><g stroke-opacity="0.7" fill-opacity="0.7" stroke-linecap="round" transform="translate(2243.690798299812 161.99999999999994) rotate(0 47.5 28.75)"><path d="M0 0 C27.05 0, 54.1 0, 95 0 M0 0 C20.02 0, 40.05 0, 95 0 M95 0 C95 17.64, 95 35.27, 95 57.5 M95 0 C95 20.93, 95 41.86, 95 57.5 M95 57.5 C71.12 57.5, 47.24 57.5, 0 57.5 M95 57.5 C62.18 57.5, 29.36 57.5, 0 57.5 M0 57.5 C0 40.72, 0 23.94, 0 0 M0 57.5 C0 39.52, 0 21.54, 0 0" stroke="#000000" stroke-width="4" fill="none"></path></g><g stroke-opacity="0.7" fill-opacity="0.7" stroke-linecap="round" transform="translate(2268.690798299812 265.3333333333332) rotate(0 24.999999999999545 14.583333333333343)"><path d="M0 0 C15.4 0, 30.8 0, 50 0 M0 0 C10.58 0, 21.16 0, 50 0 M50 0 C50 10.4, 50 20.8, 50 29.17 M50 0 C50 11.18, 50 22.37, 50 29.17 M50 29.17 C39.71 29.17, 29.41 29.17, 0 29.17 M50 29.17 C34.5 29.17, 19 29.17, 0 29.17 M0 29.17 C0 19.71, 0 10.25, 0 0 M0 29.17 C0 21.31, 0 13.45, 0 0" stroke="#000000" stroke-width="1" fill="none"></path></g><g stroke-opacity="0.7" fill-opacity="0.7" transform="translate(2356.1907982998114 162.99999999999994) rotate(0 92 21.5)"><text x="0" y="30" font-family="Virgil, Segoe UI Emoji" font-size="33.46153846153847px" fill="#000000" text-anchor="start" style="white-space: pre;" direction="ltr">= Midpoints</text></g><g stroke-opacity="0.7" fill-opacity="0.7" transform="translate(2351.1907982998105 262.99999999999994) rotate(0 176 15.5)"><text x="0" y="22" font-family="Virgil, Segoe UI Emoji" font-size="24.27758399118782px" fill="#000000" text-anchor="start" style="white-space: pre;" direction="ltr">= Uncertain or unknown steps</text></g><g stroke-opacity="0.7" fill-opacity="0.7" transform="translate(2364.6907982998114 378.6666666666666) rotate(0 66 21.5)"><text x="0" y="30" font-family="Virgil, Segoe UI Emoji" font-size="33.46153846153847px" fill="#5c940d" text-anchor="start" style="white-space: pre;" direction="ltr">= Goals</text></g><g stroke-opacity="0.7" fill-opacity="0.7" transform="translate(2366.6907982998114 524.6666666666665) rotate(0 99.5 21.5)"><text x="0" y="30" font-family="Virgil, Segoe UI Emoji" font-size="33.46153846153847px" fill="#c92a2a" text-anchor="start" style="white-space: pre;" direction="ltr">= Downsides</text></g><g stroke-opacity="0.7" fill-opacity="0.7" stroke-linecap="round" transform="translate(2242.190798299812 355.1666666666666) rotate(0 50 47.5)"><path d="M76.73 7.36 C84.26 11.88, 91.36 19.5, 95.18 27.15 C99 34.8, 100.71 44.85, 99.63 53.25 C98.55 61.65, 94.35 71.01, 88.71 77.56 C83.07 84.12, 74.25 89.89, 65.8 92.57 C57.34 95.24, 46.64 95.64, 37.99 93.61 C29.34 91.58, 20.07 86.48, 13.9 80.37 C7.74 74.26, 2.77 65.24, 1 56.94 C-0.77 48.65, 0.1 38.5, 3.27 30.59 C6.45 22.68, 12.89 14.56, 20.03 9.48 C27.16 4.41, 37.18 0.81, 46.06 0.15 C54.94 -0.52, 65.44 1.53, 73.32 5.48" stroke="#5c940d" stroke-width="4" fill="none"></path></g><g stroke-opacity="0.7" fill-opacity="0.7" stroke-linecap="round" transform="translate(2244.190798299812 501.1666666666666) rotate(0 50 47.5)"><path d="M76.73 7.36 C84.26 11.88, 91.36 19.5, 95.18 27.15 C99 34.8, 100.71 44.85, 99.63 53.25 C98.55 61.65, 94.35 71.01, 88.71 77.56 C83.07 84.12, 74.25 89.89, 65.8 92.57 C57.34 95.24, 46.64 95.64, 37.99 93.61 C29.34 91.58, 20.07 86.48, 13.9 80.37 C7.74 74.26, 2.77 65.24, 1 56.94 C-0.77 48.65, 0.1 38.5, 3.27 30.59 C6.45 22.68, 12.89 14.56, 20.03 9.48 C27.16 4.41, 37.18 0.81, 46.06 0.15 C54.94 -0.52, 65.44 1.53, 73.32 5.48" stroke="#c92a2a" stroke-width="4" fill="none"></path></g><g stroke-opacity="0.7" fill-opacity="0.7" stroke-linecap="round" transform="translate(2229.690798299812 345.1666666666666) rotate(0 62.5 58.75)"><path d="M92.78 7.35 C101.61 11.95, 110.12 19.54, 115.48 27.58 C120.83 35.62, 124.37 46.13, 124.91 55.61 C125.45 65.08, 123.13 75.89, 118.72 84.42 C114.31 92.95, 106.71 101.35, 98.45 106.81 C90.19 112.27, 79.22 116.15, 69.18 117.16 C59.15 118.18, 47.54 116.58, 38.24 112.89 C28.94 109.21, 19.61 102.53, 13.37 95.07 C7.13 87.61, 2.42 77.51, 0.8 68.15 C-0.81 58.78, 0.27 47.8, 3.68 38.88 C7.1 29.95, 13.7 20.84, 21.29 14.58 C28.88 8.32, 39.35 3.36, 49.21 1.34 C59.08 -0.67, 70.8 -0.25, 80.46 2.48 C90.13 5.21, 100.16 10.92, 107.22 17.7" stroke="#5c940d" stroke-width="4" fill="none"></path></g><g stroke-opacity="0.7" fill-opacity="0.7" stroke-linecap="round" transform="translate(2231.690798299812 491.1666666666666) rotate(0 62.5 58.75)"><path d="M92.78 7.35 C101.61 11.95, 110.12 19.54, 115.48 27.58 C120.83 35.62, 124.37 46.13, 124.91 55.61 C125.45 65.08, 123.13 75.89, 118.72 84.42 C114.31 92.95, 106.71 101.35, 98.45 106.81 C90.19 112.27, 79.22 116.15, 69.18 117.16 C59.15 118.18, 47.54 116.58, 38.24 112.89 C28.94 109.21, 19.61 102.53, 13.37 95.07 C7.13 87.61, 2.42 77.51, 0.8 68.15 C-0.81 58.78, 0.27 47.8, 3.68 38.88 C7.1 29.95, 13.7 20.84, 21.29 14.58 C28.88 8.32, 39.35 3.36, 49.21 1.34 C59.08 -0.67, 70.8 -0.25, 80.46 2.48 C90.13 5.21, 100.16 10.92, 107.22 17.7" stroke="#c92a2a" stroke-width="4" fill="none"></path></g><g stroke-linecap="round"><g transform="translate(2234.559612492157 663.9497269406465) rotate(0 53.31246743321162 -0.04058246059344128)"><path d="M0 0 C17.77 -0.01, 88.85 -0.07, 106.62 -0.08 M0 0 C17.77 -0.01, 88.85 -0.07, 106.62 -0.08" stroke="#364fc7" stroke-width="4" fill="none"></path></g></g><g transform="translate(2367.670335273436 641.8395849751316) rotate(0 119.5 19.5)"><text x="0" y="28" font-family="Virgil, Segoe UI Emoji" font-size="30.769230769230898px" fill="#364fc7" text-anchor="start" style="white-space: pre;" direction="ltr">= Key pathways</text></g><g stroke-linecap="round"><g transform="translate(2231.5596124921567 739.8108655956366) rotate(0 54.99288211781527 0.4102093314615729)"><path d="M0 0 C18.33 0.14, 91.65 0.68, 109.99 0.82 M0 0 C18.33 0.14, 91.65 0.68, 109.99 0.82" stroke="#000000" stroke-width="1" fill="none"></path></g></g><g transform="translate(2372.2139636049474 723.5787154099143) rotate(0 150.5 19.63043478260869)"><text x="0" y="28.260869565217405" font-family="Virgil, Segoe UI Emoji" font-size="30.871794871794854px" fill="#000000" text-anchor="start" style="white-space: pre;" direction="ltr">= Additional details</text></g><g stroke-linecap="round" transform="translate(1982.3446426859705 934.8199256207497) rotate(0 71.2655954483123 68.47350291253844)"><path d="M103.61 7.46 C113.22 12.16, 122.58 19.84, 128.91 28.22 C135.25 36.6, 139.96 47.51, 141.65 57.75 C143.34 67.98, 142.38 79.76, 139.05 89.61 C135.72 99.47, 129.3 109.55, 121.68 116.87 C114.05 124.2, 103.57 130.38, 93.32 133.59 C83.06 136.79, 70.8 137.72, 60.15 136.11 C49.5 134.49, 38.14 129.98, 29.41 123.89 C20.68 117.81, 12.69 108.83, 7.79 99.6 C2.89 90.37, 0.01 78.88, 0 68.52 C-0.01 58.16, 2.85 46.67, 7.74 37.44 C12.63 28.2, 20.61 19.21, 29.33 13.11 C38.05 7.01, 49.4 2.48, 60.05 0.85 C70.7 -0.78, 82.96 0.14, 93.22 3.33 C103.48 6.52, 113.97 12.69, 121.6 20" stroke="#5c940d" stroke-width="4" fill="none"></path></g><g transform="translate(1991.730257645786 977.077876351755) rotate(0.6675957748287075 61.84352715315458 27.418312530955234)"><text x="61.84352715315456" y="19.41831253095523" font-family="Virgil, Segoe UI Emoji" font-size="21.474804112295345px" fill="#5c940d" text-anchor="middle" style="white-space: pre;" direction="ltr">Good things</text><text x="61.84352715315456" y="46.83662506191046" font-family="Virgil, Segoe UI Emoji" font-size="21.474804112295345px" fill="#5c940d" text-anchor="middle" style="white-space: pre;" direction="ltr">happen</text></g><g stroke-linecap="round" transform="translate(1964.702380952379 915.7348599042333) rotate(0 89.47058823529426 86.09433962264166)"><path d="M125.98 7.5 C137.09 12.27, 148.02 19.95, 156.14 28.68 C164.25 37.4, 170.97 48.7, 174.68 59.85 C178.39 71.01, 179.74 83.96, 178.39 95.6 C177.05 107.24, 172.78 119.59, 166.62 129.69 C160.46 139.79, 151.33 149.39, 141.42 156.19 C131.51 162.99, 119.1 168.17, 107.17 170.49 C95.24 172.8, 81.71 172.66, 69.84 170.09 C57.96 167.52, 45.67 162.08, 35.92 155.07 C26.17 148.06, 17.26 138.26, 11.33 128.03 C5.41 117.81, 1.43 105.37, 0.35 93.7 C-0.73 82.03, 0.92 69.11, 4.88 58.04 C8.85 46.97, 15.83 35.82, 24.14 27.27 C32.46 18.72, 43.56 11.28, 54.78 6.74 C66 2.19, 79.29 -0.24, 91.45 0.02 C103.62 0.28, 116.79 3.28, 127.78 8.29 C138.78 13.31, 149.53 21.21, 157.44 30.11" stroke="#5c940d" stroke-width="4" fill="none"></path></g><g transform="translate(2286.524131633145 264.4166666666666) rotate(0 8 13)"><text x="8" y="18" font-family="Virgil, Segoe UI Emoji" font-size="20px" fill="#364fc7" text-anchor="middle" style="white-space: pre;" direction="ltr">...</text></g><g stroke-linecap="round"><g transform="translate(728.792531103326 822.6466996523268) rotate(0 -35.795075075473676 59.225868763971874)"><path d="M0 0 C-11.93 19.74, -59.66 98.71, -71.59 118.45 M0 0 C-11.93 19.74, -59.66 98.71, -71.59 118.45" stroke="#364fc7" stroke-width="4" fill="none"></path></g><g transform="translate(728.792531103326 822.6466996523268) rotate(0 -35.795075075473676 59.225868763971874)"><path d="M-65.79 89.02 C-67.04 95.34, -68.28 101.67, -71.59 118.45 M-65.79 89.02 C-67.07 95.5, -68.34 101.97, -71.59 118.45" stroke="#364fc7" stroke-width="4" fill="none"></path></g><g transform="translate(728.792531103326 822.6466996523268) rotate(0 -35.795075075473676 59.225868763971874)"><path d="M-48.23 99.63 C-53.25 103.68, -58.27 107.72, -71.59 118.45 M-48.23 99.63 C-53.37 103.77, -58.51 107.92, -71.59 118.45" stroke="#364fc7" stroke-width="4" fill="none"></path></g></g><g stroke-linecap="round" transform="translate(447.61904761904526 911.2909075041396) rotate(0 101.66666666666669 47.5)"><path d="M0 0 C80.84 0, 161.68 0, 203.33 0 M0 0 C52.48 0, 104.96 0, 203.33 0 M203.33 0 C203.33 36.68, 203.33 73.37, 203.33 95 M203.33 0 C203.33 22.22, 203.33 44.43, 203.33 95 M203.33 95 C127.72 95, 52.11 95, 0 95 M203.33 95 C128.14 95, 52.95 95, 0 95 M0 95 C0 70.88, 0 46.76, 0 0 M0 95 C0 67.03, 0 39.06, 0 0" stroke="#364fc7" stroke-width="4" fill="none"></path></g><g stroke-linecap="round"><g transform="translate(439.6376818472137 962.129915504237) rotate(0 -93.9899822520755 -43.51761407064504)"><path d="M0 0 C-31.33 -14.51, -156.65 -72.53, -187.98 -87.04 M0 0 C-31.33 -14.51, -156.65 -72.53, -187.98 -87.04" stroke="#000000" stroke-width="1" fill="none"></path></g><g transform="translate(439.6376818472137 962.129915504237) rotate(0 -93.9899822520755 -43.51761407064504)"><path d="M-158.09 -84.5 C-169.5 -85.47, -180.91 -86.44, -187.98 -87.04 M-158.09 -84.5 C-167.94 -85.34, -177.8 -86.17, -187.98 -87.04" stroke="#000000" stroke-width="1" fill="none"></path></g><g transform="translate(439.6376818472137 962.129915504237) rotate(0 -93.9899822520755 -43.51761407064504)"><path d="M-166.71 -65.88 C-174.83 -73.95, -182.95 -82.03, -187.98 -87.04 M-166.71 -65.88 C-173.72 -72.85, -180.73 -79.83, -187.98 -87.04" stroke="#000000" stroke-width="1" fill="none"></path></g></g><g transform="translate(467.61904761904526 923.9575741708062) rotate(0 85 39)"><text x="0" y="18" font-family="Virgil, Segoe UI Emoji" font-size="20px" fill="#364fc7" text-anchor="start" style="white-space: pre;" direction="ltr">Noisy evaluations</text><text x="0" y="44" font-family="Virgil, Segoe UI Emoji" font-size="20px" fill="#364fc7" text-anchor="start" style="white-space: pre;" direction="ltr">taken too</text><text x="0" y="70" font-family="Virgil, Segoe UI Emoji" font-size="20px" fill="#364fc7" text-anchor="start" style="white-space: pre;" direction="ltr">seriously</text></g><g transform="translate(495.95238095237863 797.2909075041396) rotate(0 59.5 26)"><text x="0" y="18" font-family="Virgil, Segoe UI Emoji" font-size="20px" fill="#364fc7" text-anchor="start" style="white-space: pre;" direction="ltr">Discouraging</text><text x="0" y="44" font-family="Virgil, Segoe UI Emoji" font-size="20px" fill="#364fc7" text-anchor="start" style="white-space: pre;" direction="ltr">people</text></g><g stroke-linecap="round"><g transform="translate(830.952380952379 757.9575741708067) rotate(0 92.5 -199.16666666666666)"><path d="M0 0 C30.83 -66.39, 154.17 -331.94, 185 -398.33 M0 0 C30.83 -66.39, 154.17 -331.94, 185 -398.33" stroke="#000000" stroke-width="2" fill="none"></path></g><g transform="translate(830.952380952379 757.9575741708067) rotate(0 92.5 -199.16666666666666)"><path d="M182.43 -368.44 C182.96 -374.6, 183.49 -380.75, 185 -398.33 M182.43 -368.44 C183.23 -377.71, 184.02 -386.98, 185 -398.33" stroke="#000000" stroke-width="2" fill="none"></path></g><g transform="translate(830.952380952379 757.9575741708067) rotate(0 92.5 -199.16666666666666)"><path d="M163.82 -377.09 C168.18 -381.46, 172.54 -385.83, 185 -398.33 M163.82 -377.09 C170.39 -383.67, 176.95 -390.26, 185 -398.33" stroke="#000000" stroke-width="2" fill="none"></path></g></g><g stroke-linecap="round"><g transform="translate(932.7490496378267 822.2439087441189) rotate(0 91.74650692711828 116.04664755914493)"><path d="M0 0 C30.58 38.68, 152.91 193.41, 183.49 232.09 M0 0 C30.58 38.68, 152.91 193.41, 183.49 232.09" stroke="#000000" stroke-width="1" fill="none"></path></g><g transform="translate(932.7490496378267 822.2439087441189) rotate(0 91.74650692711828 116.04664755914493)"><path d="M157.96 216.34 C166.57 221.65, 175.18 226.97, 183.49 232.09 M157.96 216.34 C165.9 221.24, 173.85 226.14, 183.49 232.09" stroke="#000000" stroke-width="1" fill="none"></path></g><g transform="translate(932.7490496378267 822.2439087441189) rotate(0 91.74650692711828 116.04664755914493)"><path d="M174.06 203.62 C177.24 213.22, 180.42 222.82, 183.49 232.09 M174.06 203.62 C176.99 212.48, 179.93 221.34, 183.49 232.09" stroke="#000000" stroke-width="1" fill="none"></path></g></g></svg>