<svg version="1.1" xmlns="http://www.w3.org/2000/svg" viewBox="0 0 1452.857142857143 931.4285714285717" width="1452.857142857143" height="931.4285714285717">
  <!-- svg-source:excalidraw -->
  
  <defs>
    <style>
      @font-face {
        font-family: "Virgil";
        src: url("https://excalidraw.com/Virgil.woff2");
      }
      @font-face {
        font-family: "Cascadia";
        src: url("https://excalidraw.com/Cascadia.woff2");
      }
    </style>
  </defs>
  <rect x="0" y="0" width="1452.857142857143" height="931.4285714285717" fill="#ffffff"></rect><g stroke-linecap="round" transform="translate(371.7182539682537 565.7936507936513) rotate(0 73.5 69.5)"><path d="M72.89 1.38 C92.4 17.87, 109.29 34.1, 148.89 70.91 M73.21 0.5 C101.88 26.99, 129.89 52.9, 147.72 70.81 M146.43 70.23 C119.19 97.42, 91.37 120.39, 74.45 138.91 M147.85 70.8 C119.99 95.65, 93.43 119.27, 74.62 139.38 M72.36 139.63 C49.67 118.28, 28.57 96.77, 0.99 69.63 M74.71 138.61 C57.07 123.21, 40.9 107.19, -0.94 70.33 M0.83 70.19 C23.67 44.08, 48.7 20.16, 74.95 1.87 M0.42 70.66 C25.17 44.84, 50.01 20.88, 73.87 -0.79" stroke="#000000" stroke-width="1" fill="none"></path></g><g transform="translate(404.7182539682537 610.7936507936513) rotate(0 44.5 26)"><text x="0" y="18" font-family="Virgil, Segoe UI Emoji" font-size="20px" fill="#000000" text-anchor="start" style="white-space: pre;" direction="ltr">Software</text><text x="0" y="44" font-family="Virgil, Segoe UI Emoji" font-size="20px" fill="#000000" text-anchor="start" style="white-space: pre;" direction="ltr">tooling</text></g><g transform="translate(1051.4285714285716 626.7142857142861) rotate(0 90.5 13)"><text x="0" y="18" font-family="Virgil, Segoe UI Emoji" font-size="20px" fill="#000000" text-anchor="start" style="white-space: pre;" direction="ltr">Clarity of thought</text></g><g transform="translate(681.4285714285711 855.2857142857146) rotate(0 117.50000000000006 26)"><text x="0" y="18" font-family="Virgil, Segoe UI Emoji" font-size="20px" fill="#000000" text-anchor="start" style="white-space: pre;" direction="ltr">Enabling more complex </text><text x="0" y="44" font-family="Virgil, Segoe UI Emoji" font-size="20px" fill="#000000" text-anchor="start" style="white-space: pre;" direction="ltr">and elaborate thoughts</text></g><g transform="translate(844.2857142857138 351.00000000000034) rotate(0 143.5 13)"><text x="0" y="18" font-family="Virgil, Segoe UI Emoji" font-size="20px" fill="#000000" text-anchor="start" style="white-space: pre;" direction="ltr">Augmenting human capabilities</text></g><g transform="translate(598.571428571428 623.8571428571432) rotate(0 157.50000000000006 13)"><text x="0" y="18" font-family="Virgil, Segoe UI Emoji" font-size="20px" fill="#000000" text-anchor="start" style="white-space: pre;" direction="ltr">Providing structure to thoughts</text></g><g transform="translate(648.5714285714284 731.0000000000005) rotate(0 122 26)"><text x="0" y="18" font-family="Virgil, Segoe UI Emoji" font-size="20px" fill="#000000" text-anchor="start" style="white-space: pre;" direction="ltr">Giving humans access </text><text x="0" y="44" font-family="Virgil, Segoe UI Emoji" font-size="20px" fill="#000000" text-anchor="start" style="white-space: pre;" direction="ltr">to more processing power</text></g><g transform="translate(335.7142857142856 433.85714285714323) rotate(0 144.5 13)"><text x="0" y="18" font-family="Virgil, Segoe UI Emoji" font-size="20px" fill="#000000" text-anchor="start" style="white-space: pre;" direction="ltr">Automating repeatable tasks</text></g><g transform="translate(662.8571428571429 508.14285714285757) rotate(0 95.49999999999994 13)"><text x="0" y="18" font-family="Virgil, Segoe UI Emoji" font-size="20px" fill="#000000" text-anchor="start" style="white-space: pre;" direction="ltr">Doing tasks faster</text></g><g transform="translate(328.5714285714285 231.0000000000004) rotate(0 163.5 39)"><text x="0" y="18" font-family="Virgil, Segoe UI Emoji" font-size="20px" fill="#000000" text-anchor="start" style="white-space: pre;" direction="ltr">Allowing for new types of tasks</text><text x="0" y="44" font-family="Virgil, Segoe UI Emoji" font-size="20px" fill="#000000" text-anchor="start" style="white-space: pre;" direction="ltr">which would otherwise have taken</text><text x="0" y="70" font-family="Virgil, Segoe UI Emoji" font-size="20px" fill="#000000" text-anchor="start" style="white-space: pre;" direction="ltr">too much time</text></g><g stroke-linecap="round"><g transform="translate(444.28571428571416 557.1428571428576) rotate(0 1.9248237610408978 -39.51494052846516)"><path d="M0.46 0.27 C0.87 -12.85, 1.65 -66.34, 2.23 -79.3 M-0.76 -0.63 C0.07 -13.57, 3.86 -65.04, 4.61 -78.15" stroke="#000000" stroke-width="1" fill="none"></path></g><g transform="translate(444.28571428571416 557.1428571428576) rotate(0 1.9248237610408978 -39.51494052846516)"><path d="M13.43 -50.39 C9.56 -55.56, 10.21 -66.83, 4.9 -78.59 M13.42 -49.13 C11.59 -56.07, 9.28 -64.33, 5.41 -78.56" stroke="#000000" stroke-width="1" fill="none"></path></g><g transform="translate(444.28571428571416 557.1428571428576) rotate(0 1.9248237610408978 -39.51494052846516)"><path d="M-7.04 -51.75 C-5.21 -56.62, 1.16 -67.51, 4.9 -78.59 M-7.06 -50.49 C-3.76 -56.99, -0.94 -64.91, 5.41 -78.56" stroke="#000000" stroke-width="1" fill="none"></path></g></g><g stroke-linecap="round"><g transform="translate(318.5714285714285 450.0000000000004) rotate(0 -64.46169500045946 -24.644308118415722)"><path d="M0.72 -0.26 C-20.75 -8.5, -107.32 -40.92, -129.15 -49.03 M-0.35 -1.45 C-21.89 -9.55, -107.86 -40.01, -129.65 -47.73" stroke="#000000" stroke-width="1" fill="none"></path></g><g transform="translate(318.5714285714285 450.0000000000004) rotate(0 -64.46169500045946 -24.644308118415722)"><path d="M-100.09 -46.56 C-108.73 -48.09, -116.82 -48.46, -128.69 -49.01 M-99.31 -47.61 C-109 -47.9, -117.38 -48.82, -129.02 -47.68" stroke="#000000" stroke-width="1" fill="none"></path></g><g transform="translate(318.5714285714285 450.0000000000004) rotate(0 -64.46169500045946 -24.644308118415722)"><path d="M-106.94 -27.22 C-113.75 -34.16, -119.94 -39.89, -128.69 -49.01 M-106.17 -28.27 C-113.77 -34.24, -120.13 -40.89, -129.02 -47.68" stroke="#000000" stroke-width="1" fill="none"></path></g></g><g transform="translate(57.14285714285705 378.14285714285757) rotate(0 54.5 13)"><text x="0" y="18" font-family="Virgil, Segoe UI Emoji" font-size="20px" fill="#000000" text-anchor="start" style="white-space: pre;" direction="ltr">Saving time</text></g><g stroke-linecap="round"><g transform="translate(475.7142857142856 428.5714285714289) rotate(0 -1.8797870347908088 -54.44852781672097)"><path d="M0.85 0.42 C0.34 -17.44, -2.94 -89.53, -3.88 -107.67 M-0.16 -0.41 C-0.72 -18.55, -3.67 -91.55, -4.61 -109.32" stroke="#000000" stroke-width="1" fill="none"></path></g><g transform="translate(475.7142857142856 428.5714285714289) rotate(0 -1.8797870347908088 -54.44852781672097)"><path d="M7.62 -80.94 C5.85 -88.82, 1.89 -96.27, -4.75 -108.44 M6.7 -80.99 C5.38 -87.68, 1.38 -94.32, -3.84 -108.95" stroke="#000000" stroke-width="1" fill="none"></path></g><g transform="translate(475.7142857142856 428.5714285714289) rotate(0 -1.8797870347908088 -54.44852781672097)"><path d="M-12.88 -80.01 C-9.86 -88.25, -9.03 -95.92, -4.75 -108.44 M-13.8 -80.06 C-10.74 -86.83, -10.38 -93.67, -3.84 -108.95" stroke="#000000" stroke-width="1" fill="none"></path></g></g><g stroke-linecap="round"><g transform="translate(517.4379111561673 637.2065622013104) rotate(0 64.1805811512715 -52.6704184680645)"><path d="M1.15 -0.74 C22.02 -18.54, 104.76 -89.28, 125.87 -106.83 M0.3 1.49 C21.48 -16.2, 106.85 -88.12, 128.07 -105.85" stroke="#000000" stroke-width="1" fill="none"></path></g><g transform="translate(517.4379111561673 637.2065622013104) rotate(0 64.1805811512715 -52.6704184680645)"><path d="M111.85 -81.5 C116.6 -87.54, 123.15 -96.98, 129.57 -105.66 M112.6 -80.73 C118.33 -87.16, 122.56 -95.6, 127.82 -105.43" stroke="#000000" stroke-width="1" fill="none"></path></g><g transform="translate(517.4379111561673 637.2065622013104) rotate(0 64.1805811512715 -52.6704184680645)"><path d="M98.65 -97.21 C108.05 -97.84, 119.25 -101.75, 129.57 -105.66 M99.4 -96.45 C109.31 -97.98, 117.66 -101.5, 127.82 -105.43" stroke="#000000" stroke-width="1" fill="none"></path></g></g><g stroke-linecap="round"><g transform="translate(520.8057230020875 635.8632279040777) rotate(0 60.22089412016106 120.77413504744322)"><path d="M0.27 0.77 C20.59 40.69, 101.2 200.43, 121.49 240.44 M-1.05 0.13 C19.2 40.07, 100.38 201.14, 120.86 241.41" stroke="#000000" stroke-width="1" fill="none"></path></g><g transform="translate(520.8057230020875 635.8632279040777) rotate(0 60.22089412016106 120.77413504744322)"><path d="M100.27 221.9 C103.15 228.15, 109.56 232.1, 122.29 242.39 M99.31 220.04 C104.6 226.42, 110.96 232.68, 120.44 240.96" stroke="#000000" stroke-width="1" fill="none"></path></g><g transform="translate(520.8057230020875 635.8632279040777) rotate(0 60.22089412016106 120.77413504744322)"><path d="M118.58 212.63 C116.7 221.37, 118.28 227.76, 122.29 242.39 M117.62 210.77 C118.15 219.62, 119.69 228.33, 120.44 240.96" stroke="#000000" stroke-width="1" fill="none"></path></g></g><g stroke-linecap="round"><g transform="translate(518.8112653765195 643.2744863061905) rotate(0 34.963563605164666 -2.9800938994720525)"><path d="M0.27 1.17 C11.89 0.15, 57 -4.21, 68.78 -5.55 M-1.05 0.73 C11.02 -0.65, 59.01 -6.06, 70.98 -7.13" stroke="#000000" stroke-width="1" fill="none"></path></g><g transform="translate(518.8112653765195 643.2744863061905) rotate(0 34.963563605164666 -2.9800938994720525)"><path d="M45.93 4.33 C51.65 4.93, 55.45 -0.74, 69.42 -8.11 M43.33 4.97 C53.35 1.69, 61.55 -3.09, 71.76 -6.39" stroke="#000000" stroke-width="1" fill="none"></path></g><g transform="translate(518.8112653765195 643.2744863061905) rotate(0 34.963563605164666 -2.9800938994720525)"><path d="M43.83 -16.08 C50.12 -10.96, 54.38 -12.09, 69.42 -8.11 M41.23 -15.45 C52.17 -11.77, 61.08 -9.59, 71.76 -6.39" stroke="#000000" stroke-width="1" fill="none"></path></g></g><g stroke-linecap="round"><g transform="translate(509.8069572725371 645.0962486269623) rotate(0 63.499848879415936 42.19168362057658)"><path d="M0.13 -0.75 C21.55 13.12, 107.02 69.62, 128.25 83.87 M-1.25 1.47 C20.07 15.44, 106.24 71.61, 127.56 85.13" stroke="#000000" stroke-width="1" fill="none"></path></g><g transform="translate(509.8069572725371 645.0962486269623) rotate(0 63.499848879415936 42.19168362057658)"><path d="M97.06 79.3 C105.61 79.95, 115.2 81.22, 127.85 85.95 M98.01 78.99 C107.75 80.96, 118.79 83.85, 127.48 86.08" stroke="#000000" stroke-width="1" fill="none"></path></g><g transform="translate(509.8069572725371 645.0962486269623) rotate(0 63.499848879415936 42.19168362057658)"><path d="M108.18 62.05 C113.73 67.51, 120.24 73.57, 127.85 85.95 M109.13 61.74 C115.24 69.56, 122.54 78.25, 127.48 86.08" stroke="#000000" stroke-width="1" fill="none"></path></g></g><g stroke-linecap="round"><g transform="translate(884.1827453874846 847.4285714285716) rotate(0 89.73794453632422 -90.4839644087883)"><path d="M0.81 -0.73 C30.92 -31.09, 150.14 -152.47, 179.7 -182.47 M-0.22 1.5 C29.86 -28.67, 148.93 -150.59, 179.05 -181.25" stroke="#000000" stroke-width="1" fill="none"></path></g><g transform="translate(884.1827453874846 847.4285714285716) rotate(0 89.73794453632422 -90.4839644087883)"><path d="M165.44 -152.97 C168.46 -161.7, 174.08 -165.15, 180.19 -180.19 M166.36 -154.03 C170.94 -163.61, 175.56 -174.46, 178.25 -181.98" stroke="#000000" stroke-width="1" fill="none"></path></g><g transform="translate(884.1827453874846 847.4285714285716) rotate(0 89.73794453632422 -90.4839644087883)"><path d="M150.78 -167.33 C157 -172.98, 165.87 -173.25, 180.19 -180.19 M151.7 -168.38 C161.89 -172.33, 172.22 -177.59, 178.25 -181.98" stroke="#000000" stroke-width="1" fill="none"></path></g></g><g stroke-linecap="round"><g transform="translate(1117.142857142857 601.4285714285717) rotate(0 -45.655933409691556 -101.1259049465966)"><path d="M-1.17 -1.18 C-16.65 -34.9, -76.93 -169.54, -91.73 -203.07 M0.41 0.82 C-14.79 -32.71, -74.36 -168.31, -89.47 -201.96" stroke="#000000" stroke-width="1" fill="none"></path></g><g transform="translate(1117.142857142857 601.4285714285717) rotate(0 -45.655933409691556 -101.1259049465966)"><path d="M-70.62 -181.79 C-78.13 -187.58, -85.21 -197.09, -90.06 -202.5 M-69.41 -181.22 C-75.85 -187.66, -83.85 -197.17, -90.26 -201.2" stroke="#000000" stroke-width="1" fill="none"></path></g><g transform="translate(1117.142857142857 601.4285714285717) rotate(0 -45.655933409691556 -101.1259049465966)"><path d="M-89.38 -173.47 C-89.41 -182.37, -89.06 -195.18, -90.06 -202.5 M-88.17 -172.9 C-87.66 -182.3, -88.76 -194.87, -90.26 -201.2" stroke="#000000" stroke-width="1" fill="none"></path></g></g><g stroke-linecap="round"><g transform="translate(875.9644484437758 535.604312794842) rotate(0 21.25866742142489 -72.51333577743327)"><path d="M0.68 -0.47 C7.5 -24.65, 34.01 -120.62, 40.72 -144.55 M-0.41 -1.77 C6.79 -25.82, 36.22 -119.73, 42.93 -143.22" stroke="#000000" stroke-width="1" fill="none"></path></g><g transform="translate(875.9644484437758 535.604312794842) rotate(0 21.25866742142489 -72.51333577743327)"><path d="M43.83 -114.86 C43.38 -122.93, 43.7 -130.52, 42.31 -143.5 M45.36 -113.33 C44.36 -122.45, 42.36 -132.13, 43.01 -142.92" stroke="#000000" stroke-width="1" fill="none"></path></g><g transform="translate(875.9644484437758 535.604312794842) rotate(0 21.25866742142489 -72.51333577743327)"><path d="M24.18 -120.79 C29.35 -127.28, 35.26 -133.19, 42.31 -143.5 M25.71 -119.25 C30.94 -126.35, 35.11 -134.17, 43.01 -142.92" stroke="#000000" stroke-width="1" fill="none"></path></g></g><g stroke-linecap="round"><g transform="translate(922.911296511895 638.4811176754085) rotate(0 17.652480600227477 -119.60736344510762)"><path d="M0.99 -1.18 C6.93 -41.1, 29.66 -198.58, 35.25 -238.37 M0.05 0.81 C5.93 -38.93, 29.03 -200.07, 34.65 -240.03" stroke="#000000" stroke-width="1" fill="none"></path></g><g transform="translate(922.911296511895 638.4811176754085) rotate(0 17.652480600227477 -119.60736344510762)"><path d="M38.87 -209.56 C40.38 -218.51, 36.2 -227.61, 35.69 -241.23 M41.41 -211.54 C37.56 -221.42, 36.29 -232.28, 35.19 -239.51" stroke="#000000" stroke-width="1" fill="none"></path></g><g transform="translate(922.911296511895 638.4811176754085) rotate(0 17.652480600227477 -119.60736344510762)"><path d="M18.55 -212.45 C25.52 -220.8, 26.77 -229.12, 35.69 -241.23 M21.1 -214.43 C25 -223.33, 31.46 -233.09, 35.19 -239.51" stroke="#000000" stroke-width="1" fill="none"></path></g></g><g stroke-linecap="round"><g transform="translate(904.3432501305724 736.2576038292806) rotate(0 40.38099795897756 -152.05759903982266)"><path d="M-0.98 31.82 C10.62 11.99, 55.41 -24.77, 69.2 -86.41 C82.99 -148.04, 79.9 -296.16, 81.75 -338 M0.7 33.88 C12.29 13.73, 55.46 -26.5, 68.87 -88.29 C82.28 -150.08, 79.34 -295.53, 81.18 -336.84" stroke="#000000" stroke-width="1" fill="none"></path></g><g transform="translate(904.3432501305724 736.2576038292806) rotate(0 40.38099795897756 -152.05759903982266)"><path d="M89.26 -306.53 C89.26 -315.44, 85.37 -325.41, 81.6 -337.87 M90.89 -308.76 C86.34 -319.25, 83.25 -330.03, 80.47 -336.92" stroke="#000000" stroke-width="1" fill="none"></path></g><g transform="translate(904.3432501305724 736.2576038292806) rotate(0 40.38099795897756 -152.05759903982266)"><path d="M68.74 -306.85 C74.16 -315.51, 75.69 -325.39, 81.6 -337.87 M70.37 -309.08 C73.86 -319.52, 78.8 -330.17, 80.47 -336.92" stroke="#000000" stroke-width="1" fill="none"></path></g></g><g stroke-linecap="round" transform="translate(297.14285714285705 215.71428571428598) rotate(0 193.57142857142856 51.42857142857143)"><path d="M-0.68 0.64 C128.69 -1.92, 260.1 -1.74, 387.1 0.33 M-0.46 0.2 C137.04 -0.52, 275.43 -0.73, 386.65 0.01 M386.52 1.54 C387.67 25.22, 388.05 53.74, 385.61 104.23 M387.44 -0.14 C386.02 37.42, 387.22 74.17, 387.97 102.88 M387.28 103.53 C279.26 103.17, 170.95 102.17, 0.96 102.81 M387.61 102.92 C291.48 100.23, 194.7 100.79, 0.03 102.49 M-1.9 101.54 C-1.08 60.56, 2.85 20.28, -0.09 -0.14 M0.49 102.53 C0.23 77.99, 0.2 54.63, -0.02 0.47" stroke="#000000" stroke-width="1" fill="none"></path></g><g stroke-linecap="round" transform="translate(831.4285714285713 340.0000000000003) rotate(0 162.14285714285722 27.85714285714286)"><path d="M-0.19 -0.69 C78.53 0.31, 156.14 0.48, 324.32 -0.31 M0.39 -0.18 C109.61 -0.89, 218.56 0.3, 324.26 -0.36 M324.5 1.85 C322.16 12.25, 324.07 24.8, 323.05 57.55 M323.63 -0.97 C322.97 13.12, 322.99 24.2, 324.22 55.09 M323.83 55.92 C229.04 56.97, 135.91 56.78, 0.65 54.9 M324.38 55.07 C205.52 57.59, 85.77 57.89, 0.1 55.38 M1.91 55.29 C0.45 34.42, -0.78 16.49, 0.83 -1 M-0.74 55.82 C0.71 35.71, 0.67 13.44, -0.54 -0.21" stroke="#000000" stroke-width="1" fill="none"></path></g><g stroke-linecap="round" transform="translate(1025.7142857142858 607.1428571428573) rotate(0 110 30.714285714285694)"><path d="M1.73 -1.7 C51.43 1.78, 101.93 1.75, 220.88 0.85 M0.1 0.62 C58.77 1.18, 117.07 1.35, 219.87 0.64 M220.65 -1.58 C220.95 19.61, 218.47 39.98, 219.92 61.89 M219.61 -0.4 C220.77 24.71, 219.37 49.35, 219.56 62.23 M221.65 62.17 C169.55 61.39, 120 63.46, -0.52 60.65 M220.78 61.39 C162.89 63.74, 106.77 63.16, 0.79 61.15 M0.39 60.3 C1.75 43.45, 0.53 28.3, 0.75 0.42 M0.04 61.66 C0.67 43.35, 0.56 26.16, -0.1 0.03" stroke="#000000" stroke-width="1" fill="none"></path></g><g stroke-linecap="round" transform="translate(651.4285714285713 845.7142857142859) rotate(0 138.57142857142856 37.85714285714289)"><path d="M1.39 0.64 C88.32 2.04, 177.51 2.1, 276.01 0.17 M-0.28 -0.42 C95.95 -0.4, 191.99 -1.26, 276.83 -0.15 M276.82 1.02 C279.45 29.81, 279.65 59.59, 276.72 74.83 M277.88 -0.43 C277.42 18.26, 277.67 35.64, 277.03 74.79 M277.3 75.21 C171.98 76.58, 66.68 76.24, -1.32 74.75 M276.68 76.16 C197.65 77.39, 118.58 77.09, 0.22 76.46 M1.74 75.44 C0.17 59.85, -0.74 45.8, 1.36 -1.03 M-0.44 76.31 C0 56.07, 0 35.65, 0.76 0.87" stroke="#000000" stroke-width="1" fill="none"></path></g><g stroke-linecap="round" transform="translate(638.5714285714284 714.2857142857146) rotate(0 130.71428571428578 42.85714285714286)"><path d="M0.07 0.37 C75.72 -2.18, 151.1 -1.27, 261.27 0.04 M0.17 0.58 C55.5 0.74, 111.92 0.4, 261.79 -0.19 M262 -0.8 C263.99 27.88, 262.64 55.6, 260.9 86.1 M260.93 0.09 C260.54 32.13, 260.61 63.01, 261.05 84.81 M260.75 84.81 C164.39 86.65, 66.15 88.22, 0.72 85.14 M261.63 85.84 C202.52 85.52, 144.75 86.6, 0.21 85.75 M0.35 87.11 C-1.4 55.82, 0.99 28.85, 0.82 0.76 M-0.14 85.7 C-0.97 53.62, -1.66 23.59, 0.88 0.89" stroke="#000000" stroke-width="1" fill="none"></path></g><g stroke-linecap="round" transform="translate(594.2857142857142 608.5714285714289) rotate(0 162.8571428571429 34.285714285714306)"><path d="M0.22 -1.09 C72.75 -0.77, 148.41 -0.19, 325.77 0.38 M0.48 -0.54 C90.65 -0.11, 182.3 -0.11, 325.98 0.46 M325.69 -0.31 C323.66 25.39, 326.35 55.9, 327.49 69.05 M325.14 0.46 C325.92 19.59, 325.03 40.02, 326.13 68.01 M326.54 68.41 C258.43 68.38, 190.7 68.64, -0.03 68.45 M325.8 69.03 C223.17 67.3, 120.68 67.09, -0.57 68.72 M1.15 68.76 C-1.2 50.12, -1.76 27.05, -1.48 -0.26 M-0.74 68.26 C0.06 50.64, -0.48 32.04, 0.95 -0.65" stroke="#000000" stroke-width="1" fill="none"></path></g><g stroke-linecap="round" transform="translate(644.2857142857142 502.8571428571431) rotate(0 115.71428571428567 23.571428571428584)"><path d="M-0.11 -1.48 C69.22 0.84, 137.3 1.42, 230.15 1.17 M-0.25 -0.21 C50.73 0.27, 99.88 0.81, 230.59 -0.72 M230.91 -0.99 C229.89 10.02, 231.14 21.54, 230.12 46.32 M232.33 -0.37 C230.71 17.69, 231.48 37.23, 230.82 46.45 M230.48 47.75 C167.07 47.16, 99.91 46.29, -0.45 47.14 M232 47.55 C153.92 47.97, 76.47 46.74, 0.19 46.55 M-0.77 48.79 C1.7 34.11, 0.72 22.79, -0.18 -1 M0.54 46.26 C0.24 33.67, -0.09 21.06, 0.41 -0.25" stroke="#000000" stroke-width="1" fill="none"></path></g><g stroke-linecap="round" transform="translate(324.28571428571416 427.14285714285745) rotate(0 155 24.285714285714292)"><path d="M0.51 -0.01 C80.79 1.08, 163.09 1.22, 309.21 -0.8 M-0.27 0.09 C103.83 -1.44, 208.29 -1.08, 310.11 0.49 M310.05 -1.62 C310.44 15.48, 309.04 33.81, 310.1 47.8 M310.37 -0.27 C310.33 18.07, 310.12 37.33, 309.75 49.11 M310 47.74 C245.07 46.61, 179.65 48.13, 1.25 49.68 M310.19 49.04 C225.8 48.78, 141.67 48.73, -0.49 47.93 M0.92 49.01 C-0.5 33.12, 0.85 17.37, -0.22 1.57 M-0.54 47.82 C-1.13 38.73, 0.51 29.13, -0.6 -0.35" stroke="#000000" stroke-width="1" fill="none"></path></g><g stroke-linecap="round" transform="translate(35.714285714285666 370.00000000000017) rotate(0 72.14285714285714 27.85714285714286)"><path d="M0.43 -0.02 C57.51 0.67, 114.71 -0.88, 145.86 -1.83 M-0.75 -0.66 C57.39 1.76, 115.03 0.18, 143.93 -0.39 M146.21 -0.54 C143.59 13.79, 144.19 28.02, 144.96 55.22 M144.33 -0.35 C144.09 10.42, 143.61 23.34, 143.96 55.62 M144.98 57.12 C86.4 53.27, 28.16 55.68, 0.67 57.51 M143.55 56.47 C112.44 57.72, 81.88 57.35, 0.49 55.5 M-0.39 55.36 C1.18 36.55, 0.89 22.86, -1.24 -0.75 M0.46 56.54 C-0.5 42.03, -0.48 27.24, 0.74 -0.54" stroke="#000000" stroke-width="1" fill="none"></path></g><g stroke-linecap="round"><g transform="translate(687.1428571428571 267.14285714285734) rotate(0 72.04684819760058 49.45873531406347)"><path d="M-1.06 -0.11 C23.12 16.3, 120.94 82.15, 145.16 98.58 M0.58 -1.21 C24.67 15.39, 120.85 83.3, 144.66 100.13" stroke="#000000" stroke-width="1" fill="none"></path></g><g transform="translate(687.1428571428571 267.14285714285734) rotate(0 72.04684819760058 49.45873531406347)"><path d="M115.54 93.7 C124.65 94.87, 133.37 99.33, 145.54 101.47 M115.27 91.76 C121.2 93.43, 126.7 95.53, 144.95 99.49" stroke="#000000" stroke-width="1" fill="none"></path></g><g transform="translate(687.1428571428571 267.14285714285734) rotate(0 72.04684819760058 49.45873531406347)"><path d="M127.37 76.94 C132.87 83.16, 137.94 92.77, 145.54 101.47 M127.1 74.99 C130.67 80, 133.75 85.54, 144.95 99.49" stroke="#000000" stroke-width="1" fill="none"></path></g></g><g stroke-linecap="round" transform="translate(1218.5714285714287 308.57142857142884) rotate(0 112.14285714285711 87.8571428571428)"><path d="M113.21 -0.89 C149.38 29.67, 186.22 60.33, 225.33 87.27 M113.2 -0.25 C137.31 19.66, 162.18 40.48, 225.04 88.14 M223.06 88.39 C184.58 116.85, 142.03 150.5, 114.35 176.2 M223.35 88.12 C193.29 114.51, 160.21 138.15, 112.69 175.91 M114.2 173.89 C77.1 149.36, 46.5 122.09, -1.04 87.25 M113.46 175.98 C83.32 154.01, 56.38 133.07, -0.35 87.5 M0.74 89.28 C39.07 58.51, 76.78 29.95, 112.22 -1.01 M-0.72 87.33 C32.27 61.14, 67.16 35.98, 112.79 0.09" stroke="#000000" stroke-width="1" fill="none"></path></g><g transform="translate(1262.857142857143 369.57142857142884) rotate(0 70 26)"><text x="0" y="18" font-family="Virgil, Segoe UI Emoji" font-size="20px" fill="#000000" text-anchor="start" style="white-space: pre;" direction="ltr">Some amount</text><text x="0" y="44" font-family="Virgil, Segoe UI Emoji" font-size="20px" fill="#000000" text-anchor="start" style="white-space: pre;" direction="ltr">of benevolence</text></g><g stroke-linecap="round"><g transform="translate(998.5714285714287 337.1428571428574) rotate(0 73.9658421670465 -44.81704020851755)"><path d="M-0.03 -0.82 C24.68 -16, 124.55 -76.21, 149.44 -91 M-1.5 1.36 C23.02 -13.71, 123.87 -74.48, 148.94 -89.98" stroke="#000000" stroke-width="1" fill="none"></path></g><g transform="translate(998.5714285714287 337.1428571428574) rotate(0 73.9658421670465 -44.81704020851755)"><path d="M128.84 -65.11 C136 -74.67, 145.87 -86.48, 147.76 -89.2 M130.96 -66.28 C137.14 -74.25, 141.76 -82.51, 148.76 -89.36" stroke="#000000" stroke-width="1" fill="none"></path></g><g transform="translate(998.5714285714287 337.1428571428574) rotate(0 73.9658421670465 -44.81704020851755)"><path d="M118.16 -82.63 C129.59 -85.2, 143.72 -90.02, 147.76 -89.2 M120.28 -83.8 C129.89 -86.12, 137.95 -88.74, 148.76 -89.36" stroke="#000000" stroke-width="1" fill="none"></path></g></g><g stroke-linecap="round"><g transform="translate(1281.655349540872 359.1462588181455) rotate(0 -58.9225389440453 -57.421809371507564)"><path d="M-0.22 0.57 C-19.75 -18.49, -98.22 -96.01, -117.62 -115.42 M-1.8 -0.17 C-20.94 -18.99, -96.23 -95.01, -115.52 -114.17" stroke="#000000" stroke-width="1" fill="none"></path></g><g transform="translate(1281.655349540872 359.1462588181455) rotate(0 -58.9225389440453 -57.421809371507564)"><path d="M-87.39 -103.41 C-96.29 -105.19, -104.22 -108.83, -114.3 -112.98 M-87.6 -102.28 C-94.23 -104.43, -100.09 -107.96, -114.62 -113.34" stroke="#000000" stroke-width="1" fill="none"></path></g><g transform="translate(1281.655349540872 359.1462588181455) rotate(0 -58.9225389440453 -57.421809371507564)"><path d="M-101.92 -88.92 C-106.89 -94.47, -111.01 -101.9, -114.3 -112.98 M-102.13 -87.78 C-105.76 -92.92, -108.49 -99.57, -114.62 -113.34" stroke="#000000" stroke-width="1" fill="none"></path></g></g><g stroke-linecap="round" transform="translate(1124.2857142857142 198.57142857142887) rotate(0 37.142857142857224 22.857142857142847)"><path d="M-1.07 1.3 C27.84 -2.01, 56.56 -1.04, 75.4 -1.92 M-0.74 -0.36 C14.96 1.36, 28.9 0.71, 73.96 -0.88 M73.03 0.42 C75.35 14.28, 75.64 31.52, 73.95 44 M73.93 -0.5 C74.05 17.52, 74.85 33.88, 74.93 45.37 M76.17 44.5 C47.63 44.62, 21.25 46.19, 1.35 45.89 M74.96 45.69 C54.12 45.23, 34.89 45.45, 0.19 46.67 M1.6 44.7 C-0.61 34.21, -1.68 27.92, 0.99 -0.56 M0.88 45.43 C0.05 29.83, 0.54 12.98, 0.35 -0.69" stroke="#000000" stroke-width="1" fill="none"></path></g><g transform="translate(1153.4285714285713 208.42857142857173) rotate(0 8 13)"><text x="8" y="18" font-family="Virgil, Segoe UI Emoji" font-size="20px" fill="#000000" text-anchor="middle" style="white-space: pre;" direction="ltr">...</text></g><g stroke-linecap="round"><g transform="translate(1160 191.42857142857173) rotate(0 0.16009302745965215 -29.120900063110255)"><path d="M-1.03 0.9 C-0.96 -8.93, 1.01 -49.13, 1.35 -59.14 M0.63 0.32 C0.46 -9.33, 0.46 -48.15, 0.36 -57.9" stroke="#000000" stroke-width="1" fill="none"></path></g><g transform="translate(1160 191.42857142857173) rotate(0 0.16009302745965215 -29.120900063110255)"><path d="M12 -30.55 C5.78 -41.59, 1.89 -51.66, 1.13 -56.71 M11.1 -31.13 C8.56 -36.71, 4.4 -44.85, -0.52 -57.72" stroke="#000000" stroke-width="1" fill="none"></path></g><g transform="translate(1160 191.42857142857173) rotate(0 0.16009302745965215 -29.120900063110255)"><path d="M-8.04 -30.46 C-6.7 -41.36, -3.02 -51.46, 1.13 -56.71 M-8.94 -31.03 C-6.23 -36.58, -5.13 -44.73, -0.52 -57.72" stroke="#000000" stroke-width="1" fill="none"></path></g></g><g stroke-linecap="round" transform="translate(1102.857142857143 22.857142857142833) rotate(0 57.85714285714289 52.14285714285714)"><path d="M79.45 3.17 C88.51 5.89, 99.01 14.21, 104.95 21.53 C110.89 28.85, 114.1 38.32, 115.09 47.08 C116.09 55.84, 114.72 66.21, 110.91 74.09 C107.11 81.97, 100.23 89.28, 92.25 94.36 C84.28 99.45, 72.83 103.77, 63.07 104.59 C53.31 105.41, 42.48 103.25, 33.69 99.28 C24.91 95.3, 15.87 87.94, 10.34 80.74 C4.81 73.54, 1.08 64.68, 0.54 56.08 C0 47.48, 2.68 37.17, 7.09 29.13 C11.49 21.09, 18.9 12.77, 26.98 7.82 C35.05 2.88, 45.87 -0.27, 55.55 -0.54 C65.23 -0.81, 79.63 4.61, 85.05 6.19 C90.47 7.78, 88.65 8.19, 88.06 8.98 M30.56 5.99 C38.52 1.31, 51.29 -1.22, 61.19 -0.81 C71.1 -0.39, 81.99 3.79, 89.97 8.49 C97.95 13.2, 105 19.86, 109.1 27.42 C113.2 34.99, 114.98 44.75, 114.6 53.89 C114.21 63.02, 111.93 74.75, 106.78 82.24 C101.64 89.73, 92.45 95.12, 83.73 98.83 C75.01 102.54, 64.39 105.23, 54.49 104.5 C44.59 103.77, 32.34 99.67, 24.33 94.47 C16.33 89.26, 10.38 81.08, 6.46 73.25 C2.54 65.42, -0.21 56.22, 0.81 47.49 C1.82 38.77, 7.48 27.87, 12.55 20.89 C17.61 13.91, 28.16 7.78, 31.21 5.63 C34.27 3.48, 30.55 7.36, 30.88 8" stroke="#000000" stroke-width="1" fill="none"></path></g><g transform="translate(1117.1428571428573 48.14285714285711) rotate(0 45.5 26)"><text x="0" y="18" font-family="Virgil, Segoe UI Emoji" font-size="20px" fill="#000000" text-anchor="start" style="white-space: pre;" direction="ltr">Good in</text><text x="0" y="44" font-family="Virgil, Segoe UI Emoji" font-size="20px" fill="#000000" text-anchor="start" style="white-space: pre;" direction="ltr">the world</text></g><g stroke-linecap="round" transform="translate(1097.142857142857 10) rotate(0 64.28571428571433 64.28571428571428)"><path d="M81.19 2.29 C90.6 3.88, 100.87 10.74, 108.2 17.83 C115.53 24.92, 121.87 35.03, 125.18 44.83 C128.49 54.63, 129.66 66.68, 128.03 76.63 C126.4 86.59, 121.66 96.84, 115.39 104.57 C109.12 112.3, 99.69 119.06, 90.44 123 C81.18 126.95, 69.91 128.92, 59.87 128.23 C49.83 127.54, 38.89 124.33, 30.21 118.87 C21.52 113.42, 12.68 104.42, 7.74 95.48 C2.8 86.54, 0.68 75.48, 0.58 65.25 C0.47 55.02, 2.66 42.93, 7.12 34.11 C11.58 25.28, 19.05 17.97, 27.32 12.28 C35.59 6.59, 46.66 1.1, 56.75 -0.05 C66.84 -1.19, 81.64 3.91, 87.86 5.4 C94.08 6.89, 94.37 7.88, 94.07 8.9 M83.82 2.59 C93.2 4.87, 102.44 13.02, 109.72 20.24 C117 27.45, 124.4 36.12, 127.5 45.86 C130.61 55.61, 130.94 68.42, 128.36 78.72 C125.79 89.01, 119.13 100.03, 112.06 107.64 C104.99 115.25, 95.09 121.04, 85.92 124.36 C76.75 127.68, 66.89 128.71, 57.02 127.56 C47.16 126.41, 35.24 123.3, 26.72 117.45 C18.2 111.59, 10.29 101.5, 5.88 92.44 C1.46 83.39, -0.17 73.13, 0.21 63.11 C0.58 53.09, 2.94 41, 8.12 32.34 C13.3 23.69, 22.79 16.8, 31.3 11.19 C39.8 5.58, 50.4 -0.23, 59.15 -1.3 C67.91 -2.36, 79.42 3.79, 83.84 4.79 C88.26 5.79, 85.92 3.93, 85.67 4.68" stroke="#000000" stroke-width="1" fill="none"></path></g><g stroke-linecap="round" transform="translate(358.5714285714287 551.4285714285716) rotate(0 86.42857142857139 83.57142857142853)"><path d="M86 -1.19 C105.82 19.93, 124.11 39.8, 172.65 85.52 M86.51 0.13 C106.02 17.94, 122.4 34.44, 172.44 84.98 M172.18 84.68 C141.07 110.71, 114.41 140.98, 85.48 165.61 M172.64 83.79 C147.03 108.92, 122.12 133.29, 86.51 168 M86.17 168.54 C59 141.71, 31.64 114.25, 0.9 85.65 M87.6 166.59 C58.5 141, 31.75 115.49, 0.28 84.8 M-1.77 83.43 C29.49 54.58, 60.28 24.84, 87.08 -1.05 M-0.68 84.71 C27.03 56.82, 55.28 29.82, 87.88 -0.01" stroke="#000000" stroke-width="1" fill="none"></path></g><g stroke-linecap="round" transform="translate(1232.8571428571427 318.5714285714286) rotate(0 98.57142857142856 78.57142857142851)"><path d="M98.31 -1.25 C132.23 29.35, 167.64 54.11, 196.92 79.83 M98.63 0.28 C126.23 21.75, 153.23 42.5, 196.66 79.82 M198.09 78.24 C177.03 95.89, 153.54 113.29, 99.11 156.93 M196.72 79.12 C163.1 105.7, 130.21 131.9, 98.69 157.64 M97.95 158.26 C60.23 125.57, 22.44 95.54, 0.63 79.24 M98.96 157.7 C62.72 127.82, 27.2 99.72, 0.99 78.77 M1.11 77.6 C38.85 47.45, 76.74 16.11, 97.58 -0.35 M-0.46 78.36 C28.68 55.67, 57.48 33.92, 99.78 0.04" stroke="#000000" stroke-width="1" fill="none"></path></g><g transform="translate(67.36263736263794 612.8299935358757) rotate(0 70.46606334841636 20.470588235294116)"><text x="0" y="14.47058823529413" font-family="Virgil, Segoe UI Emoji" font-size="15.746606334841633px" fill="#000000" text-anchor="start" style="white-space: pre;" direction="ltr">Initial programming</text><text x="0" y="34.94117647058826" font-family="Virgil, Segoe UI Emoji" font-size="15.746606334841633px" fill="#000000" text-anchor="start" style="white-space: pre;" direction="ltr">work, maintenance</text></g><g stroke-linecap="round"><g transform="translate(105.7142857142859 364.2857142857142) rotate(0 477.9748465707334 -125.97875335260909)"><path d="M-0.56 -1.07 C3.17 -42.48, -145.56 -224.36, 22.96 -247.94 C191.48 -271.53, 845.72 -160.03, 1010.56 -142.59 M1.35 0.98 C4.88 -40.83, -146.54 -226.05, 22.07 -249.74 C190.68 -273.42, 847.92 -159.02, 1013 -141.13" stroke="#000000" stroke-width="1" fill="none"></path></g><g transform="translate(105.7142857142859 364.2857142857142) rotate(0 477.9748465707334 -125.97875335260909)"><path d="M981.86 -134.72 C994.87 -138.38, 1004.45 -138.18, 1012.24 -140.13 M983.84 -134.91 C992.69 -137.64, 999.32 -137.98, 1013.3 -140.92" stroke="#000000" stroke-width="1" fill="none"></path></g><g transform="translate(105.7142857142859 364.2857142857142) rotate(0 477.9748465707334 -125.97875335260909)"><path d="M984.72 -155.04 C996.81 -151.65, 1005.41 -144.4, 1012.24 -140.13 M986.69 -155.24 C994.59 -152.41, 1000.44 -147.22, 1013.3 -140.92" stroke="#000000" stroke-width="1" fill="none"></path></g></g><g stroke-linecap="round" transform="translate(24.621848739495476 570.4266321913382) rotate(0 110.22624434389141 62.98642533936649)"><path d="M109.63 -0.73 C135.06 12.13, 157.18 26, 218.56 64.53 M110.22 -0.65 C150.78 23.94, 191.49 47.49, 220.71 62.34 M222.38 62.19 C179.02 86.85, 133.49 113.88, 112.94 126.84 M220.54 62.69 C196.29 77.92, 171.17 91.6, 111.08 125.29 M109.37 126.91 C86.1 110.45, 60.97 95.84, 0.75 61.38 M110.56 126.24 C81.6 108.05, 51.91 92.65, 0.57 63.06 M1.12 64.61 C44.04 36.63, 87.73 11.63, 110.67 -0.11 M-0.91 63.07 C42.32 38.32, 86.64 13.39, 111.52 -0.59" stroke="#000000" stroke-width="1" fill="none"></path></g><g stroke-linecap="round" transform="translate(10 561.4285714285716) rotate(0 124.28571428571433 73.10924369747906)"><path d="M125.97 1.75 C155.44 18.29, 186.44 36.62, 247.5 74.12 M124.93 0.61 C169.94 26, 215.53 54.26, 248.35 74.93 M249.77 72.25 C206.36 97.09, 167.11 121.84, 125.71 145.69 M249.26 73.39 C220.4 89.65, 192.09 106.18, 124.46 146.9 M124.86 144.38 C100.6 129.76, 74.24 116.21, -1.53 72.15 M125.21 147.1 C88.31 126.32, 53.11 106.3, -0.53 74.88 M1.65 73.93 C45.5 48.97, 92.74 21.85, 123.03 1.79 M-0.95 73.12 C33.41 54.58, 66.94 34.75, 125.04 -0.75" stroke="#000000" stroke-width="1" fill="none"></path></g><g stroke-linecap="round"><g transform="translate(252.857142857143 632.8571428571429) rotate(0 54.266679446292784 -1.186636940151061)"><path d="M-0.46 -0.89 C17.73 -1.57, 90.87 -3.11, 108.99 -3.63 M1.5 1.25 C19.58 0.67, 90.63 -1.75, 108.27 -2.49" stroke="#000000" stroke-width="1" fill="none"></path></g><g transform="translate(252.857142857143 632.8571428571429) rotate(0 54.266679446292784 -1.186636940151061)"><path d="M78.99 9.52 C87.13 5.15, 94.55 1.43, 106.56 -4.24 M81.36 8.05 C88.62 5.84, 97.01 2.76, 107.52 -2.27" stroke="#000000" stroke-width="1" fill="none"></path></g><g transform="translate(252.857142857143 632.8571428571429) rotate(0 54.266679446292784 -1.186636940151061)"><path d="M78.22 -10.98 C86.66 -9.47, 94.3 -7.3, 106.56 -4.24 M80.59 -12.46 C87.99 -8.67, 96.6 -5.75, 107.52 -2.27" stroke="#000000" stroke-width="1" fill="none"></path></g></g></svg>