<svg version="1.1" xmlns="http://www.w3.org/2000/svg" viewBox="0 0 1784.6538461538462 1645" width="1784.6538461538462" height="1645">
  <!-- svg-source:excalidraw -->
  
  <defs>
    <style>
      @font-face {
        font-family: "Virgil";
        src: url("https://excalidraw.com/Virgil.woff2");
      }
      @font-face {
        font-family: "Cascadia";
        src: url("https://excalidraw.com/Cascadia.woff2");
      }
    </style>
  </defs>
  <rect x="0" y="0" width="1784.6538461538462" height="1645" fill="#ffffff"></rect><g transform="translate(394.1984126984126 602.6318575037652) rotate(0 71.50961538461537 16.75)"><text x="71.50961538461537" y="23.5" font-family="Virgil, Segoe UI Emoji" font-size="25.769230769230766px" fill="#000000" text-anchor="middle" style="white-space: pre;" direction="ltr">Forecasting</text></g><g stroke-linecap="round"><g transform="translate(582.6183793991911 625.8608819407677) rotate(0 96.50364909960703 -60.780100593279855)"><path d="M-0.73 -0.76 C31.68 -21.41, 161.62 -102.71, 193.74 -123.01 M1.09 1.45 C33.47 -19.1, 160.98 -101.23, 193.18 -121.67" stroke="#000000" stroke-width="4" fill="none"></path></g><g transform="translate(582.6183793991911 625.8608819407677) rotate(0 96.50364909960703 -60.780100593279855)"><path d="M173.69 -96.59 C178.54 -105.18, 183.68 -110.35, 194.46 -120.63 M174.98 -98.55 C179.7 -104.55, 185.74 -111.52, 193.93 -122.32" stroke="#000000" stroke-width="4" fill="none"></path></g><g transform="translate(582.6183793991911 625.8608819407677) rotate(0 96.50364909960703 -60.780100593279855)"><path d="M162.63 -113.88 C170.25 -118.26, 178.03 -119.3, 194.46 -120.63 M163.91 -115.84 C172.03 -116.66, 181.4 -118.44, 193.93 -122.32" stroke="#000000" stroke-width="4" fill="none"></path></g></g><g stroke-linecap="round"><g transform="translate(572.8770493192201 628.0109228702988) rotate(0 100.42844709736602 9.534983323589756)"><path d="M0.33 0.81 C33.76 3.79, 166.33 14.85, 199.72 17.86 M-0.96 0.19 C32.9 3.28, 168.36 15.53, 201.81 18.88" stroke="#000000" stroke-width="4" fill="none"></path></g><g transform="translate(572.8770493192201 628.0109228702988) rotate(0 100.42844709736602 9.534983323589756)"><path d="M174.14 24.47 C177.76 24.2, 186.18 23.17, 201.68 18.34 M173.4 27.11 C179.73 24.73, 189.09 22.06, 201.35 18.58" stroke="#000000" stroke-width="4" fill="none"></path></g><g transform="translate(572.8770493192201 628.0109228702988) rotate(0 100.42844709736602 9.534983323589756)"><path d="M176.07 4.04 C179.26 8.46, 187.22 12.11, 201.68 18.34 M175.33 6.68 C180.96 9.83, 189.8 12.68, 201.35 18.58" stroke="#000000" stroke-width="4" fill="none"></path></g></g><g transform="translate(788.531746031746 621.1318575037652) rotate(0 75.5 25.5)"><text x="75.5" y="18.5" font-family="Virgil, Segoe UI Emoji" font-size="20px" fill="#000000" text-anchor="middle" style="white-space: pre;" direction="ltr">Changing other </text><text x="75.5" y="44" font-family="Virgil, Segoe UI Emoji" font-size="20px" fill="#000000" text-anchor="middle" style="white-space: pre;" direction="ltr">decisions</text></g><g transform="translate(786.6984126984125 1226.6318575037653) rotate(0 8 13)"><text x="8" y="18" font-family="Virgil, Segoe UI Emoji" font-size="20px" fill="#000000" text-anchor="middle" style="white-space: pre;" direction="ltr">...</text></g><g stroke-linecap="round" transform="translate(1488.6636717580109 811.0172970339144) rotate(0 75.27358490566041 73.03773584905662)"><path d="M68.73 -0.27 C79.19 -2.28, 92.92 1.15, 103.05 4.96 C113.18 8.78, 122.23 14.82, 129.53 22.61 C136.83 30.41, 143.51 41.19, 146.86 51.73 C150.21 62.28, 151.24 75.31, 149.64 85.87 C148.03 96.43, 143.82 106.36, 137.23 115.08 C130.64 123.8, 120.07 132.9, 110.1 138.19 C100.12 143.48, 88.39 146.66, 77.38 146.82 C66.37 146.99, 53.99 143.79, 44.03 139.21 C34.06 134.62, 24.77 127.61, 17.6 119.3 C10.43 110.98, 3.68 99.92, 1.01 89.34 C-1.65 78.77, -1.01 66.22, 1.61 55.84 C4.22 45.47, 9.67 35.3, 16.68 27.1 C23.69 18.91, 34.82 11.01, 43.67 6.65 C52.52 2.29, 65.24 1.77, 69.79 0.94 C74.35 0.11, 71.02 0.57, 71.02 1.69 M58.02 1.33 C68.09 -2.32, 80.95 -1.99, 91.79 0.54 C102.64 3.07, 114.64 9.84, 123.09 16.52 C131.54 23.19, 137.94 31.29, 142.49 40.61 C147.03 49.93, 150.61 61.5, 150.36 72.43 C150.12 83.36, 146.21 96.21, 141.02 106.21 C135.83 116.21, 127.88 125.89, 119.21 132.44 C110.55 139, 99.87 143.92, 89.04 145.54 C78.2 147.16, 65.05 145.07, 54.21 142.18 C43.36 139.28, 31.86 135.08, 23.98 128.15 C16.09 121.21, 11.1 110.51, 6.9 100.59 C2.71 90.66, -1.74 79.13, -1.2 68.58 C-0.67 58.04, 4.26 46.59, 10.12 37.33 C15.98 28.07, 26.18 18.67, 33.97 13.01 C41.75 7.36, 53.04 5.13, 56.83 3.41 C60.62 1.68, 56.29 1.79, 56.71 2.67" stroke="#000000" stroke-width="4" fill="none"></path></g><g transform="translate(1513.2580113806534 864.6776743924042) rotate(0.6675957748287075 50.67924528301887 19.377358490566053)"><text x="50.679245283018915" y="27.75471698113209" font-family="Virgil, Segoe UI Emoji" font-size="29.811320754717002px" fill="#000000" text-anchor="middle" style="white-space: pre;" direction="ltr">Impact</text></g><g transform="translate(792.6984126984125 471.6318575037652) rotate(0 75 38.5)"><text x="75" y="17.666666666666668" font-family="Virgil, Segoe UI Emoji" font-size="20px" fill="#000000" text-anchor="middle" style="white-space: pre;" direction="ltr">Influencing</text><text x="75" y="43.333333333333336" font-family="Virgil, Segoe UI Emoji" font-size="20px" fill="#000000" text-anchor="middle" style="white-space: pre;" direction="ltr">the forecasted</text><text x="75" y="69" font-family="Virgil, Segoe UI Emoji" font-size="20px" fill="#000000" text-anchor="middle" style="white-space: pre;" direction="ltr">event</text></g><g transform="translate(387.6984126984126 826.6318575037652) rotate(0 66 38.5)"><text x="66" y="17.666666666666668" font-family="Virgil, Segoe UI Emoji" font-size="20px" fill="#000000" text-anchor="middle" style="white-space: pre;" direction="ltr">Identifying/</text><text x="66" y="43.333333333333336" font-family="Virgil, Segoe UI Emoji" font-size="20px" fill="#000000" text-anchor="middle" style="white-space: pre;" direction="ltr">creating good</text><text x="66" y="69" font-family="Virgil, Segoe UI Emoji" font-size="20px" fill="#000000" text-anchor="middle" style="white-space: pre;" direction="ltr">forecasters</text></g><g stroke-linecap="round" transform="translate(369.6984126984126 548.6318575037652) rotate(0 95 74)"><path d="M95.42 -1.17 C126.71 25.77, 162.7 49.38, 190.51 73.36 M95.87 0.18 C127.83 23.59, 159.66 48.83, 190.54 73.43 M189.22 75.85 C154.63 104.79, 116.43 131.81, 94.48 146.73 M190.8 74.16 C157.66 99.18, 127.38 124.69, 96.97 148.81 M96.83 147.84 C57.64 120.4, 21.9 91.74, 1.61 72.9 M95.66 148.06 C58.28 120.85, 22.99 91.98, 0.35 74.99 M1.53 72.14 C31.14 52.93, 60.13 30.52, 95.73 -0.62 M0.03 73.19 C35.83 45.13, 72.78 16.14, 96.72 0.75" stroke="#000000" stroke-width="4" fill="none"></path></g><g stroke-linecap="round" transform="translate(777.6984126984125 454.1318575037652) rotate(0 95 56)"><path d="M-1.31 0.54 C66.88 -1.92, 137.65 -1.91, 189.16 0.3 M0.36 -0.56 C51.93 0.18, 103.78 1.02, 190.91 -0.14 M190.65 -1.76 C189.6 34.72, 190.33 70.97, 188.52 110.22 M190.92 -0.95 C190.65 32.58, 191.16 63.81, 190.94 112.38 M191.09 113.07 C141.84 111.92, 92.23 111.11, 1.38 113.02 M190.99 111.08 C134.92 113.95, 78.67 114.45, -0.79 112.96 M1.34 110.15 C0.51 74.58, 1.6 40.81, 1.08 -0.45 M0.01 111.28 C1.68 69.46, 0.86 28.11, 0.36 0.55" stroke="#000000" stroke-width="4" fill="none"></path></g><g stroke-linecap="round" transform="translate(782.6984126984125 606.1318575037652) rotate(0 79.16666666666663 41)"><path d="M1.63 0.96 C34.37 -0.69, 64.2 -2.74, 157.05 1.09 M0.81 0.17 C56.65 -0.39, 111.87 -1.4, 159.27 0.99 M159.72 1.35 C157.53 18.93, 159.56 33.23, 159.36 83.34 M158.91 0.6 C158.9 16.81, 159.14 33.14, 157.39 82.01 M157.97 83.76 C123.03 82.84, 84.92 82.34, -1.69 80.33 M157.39 81.78 C111.36 82.53, 63.1 83.3, -0.79 82.73 M0.01 80.69 C-1.16 51.93, 0.67 18.35, -1.21 -0.24 M-0.44 82.53 C0.22 64.87, -0.7 46.74, -0.54 0.06" stroke="#000000" stroke-width="4" fill="none"></path></g><g stroke-linecap="round" transform="translate(374.1984126984126 801.6318575037652) rotate(0 82.99999999999999 62.25)"><path d="M0.3 1.97 C36.77 -2.79, 72.49 0.37, 166.79 0.18 M0.29 0.74 C39.29 1.89, 79.92 2.11, 165.54 0.5 M166.11 -0.93 C165.47 30.52, 166.11 59.8, 166.13 124.13 M166.84 0.02 C166.69 38.61, 167.68 78.19, 166.78 124.05 M165.58 124.22 C120.8 124.91, 77.4 122.89, -0.19 122.66 M165.23 124.33 C116.67 122.74, 67.93 122.88, -0.41 124.67 M-0.95 123.22 C-1.61 82.3, -1 41.29, -1.26 -0.22 M0.89 123.82 C0.77 98.01, 0.23 71.79, -0.85 0.62" stroke="#000000" stroke-width="4" fill="none"></path></g><g stroke-linecap="round" transform="translate(371.69841269841254 363.6318575037652) rotate(0 100 51.5)"><path d="M-0.25 1.61 C56.55 1.36, 115.51 0.39, 200.42 -1.53 M-0.67 -0.86 C72.51 2.5, 144.32 1.62, 199.7 -0.26 M198.79 1.66 C201.54 24.55, 201.71 44.97, 199.43 102.08 M199.79 -0.3 C198.68 33.4, 199.19 68.09, 200.79 103.88 M200.42 101.47 C128.91 105.11, 54.32 102.87, -0.65 103.58 M199.49 102.33 C128.12 103.16, 57.93 103.43, -0.19 102.47 M-0.22 102.39 C-0.13 63.65, -2.2 23.31, -0.77 0.23 M0.37 102.85 C0.04 63.81, -1.65 27.27, 0.8 -0.63" stroke="#000000" stroke-width="1" fill="none"></path></g><g transform="translate(387.88468720821646 376.1318575037652) rotate(0 81 37.5)"><text x="81" y="18" font-family="Virgil, Segoe UI Emoji" font-size="19.215686274509807px" fill="#000000" text-anchor="middle" style="white-space: pre;" direction="ltr">Sanity check</text><text x="81" y="43" font-family="Virgil, Segoe UI Emoji" font-size="19.215686274509807px" fill="#000000" text-anchor="middle" style="white-space: pre;" direction="ltr">on overconfidence</text><text x="81" y="68" font-family="Virgil, Segoe UI Emoji" font-size="19.215686274509807px" fill="#000000" text-anchor="middle" style="white-space: pre;" direction="ltr">&amp; other biases</text></g><g stroke-linecap="round" transform="translate(751.6984126984125 861.1318575037652) rotate(0 110 50)"><path d="M-0.26 0.03 C73.1 0.18, 147.68 -0.61, 219.04 -0.72 M0.67 -0.73 C70.32 -0.88, 139.95 -0.91, 220.22 -0.26 M219.89 -0.85 C218.68 29.4, 221.46 58.77, 218.7 99.59 M220.31 0.3 C219.76 28.94, 220.31 58.23, 219.04 99.03 M219.95 101.15 C169.59 97.54, 115.68 99.53, -1.49 101.17 M219.87 99.97 C164.32 100.47, 109.86 99.98, 0.09 100.04 M-0.8 98.86 C1.46 75.51, 1.36 48.56, -0.46 0.9 M-0.54 100.49 C0.87 80.54, 1.45 58.42, 0.9 -0.46" stroke="#000000" stroke-width="1" fill="none"></path></g><g transform="translate(781.6984126984125 1042.1318575037653) rotate(0 82.5 25.5)"><text x="0" y="18.5" font-family="Virgil, Segoe UI Emoji" font-size="20px" fill="#000000" text-anchor="start" style="white-space: pre;" direction="ltr">Improving users' </text><text x="0" y="44" font-family="Virgil, Segoe UI Emoji" font-size="20px" fill="#000000" text-anchor="start" style="white-space: pre;" direction="ltr">epistemic health</text></g><g stroke-linecap="round"><g transform="translate(475.29727175568047 531.3037855895118) rotate(0 -0.5734776210039882 -31.25009086211466)"><path d="M0.12 -0.72 C0.14 -11.5, -0.25 -53.61, -0.63 -64.02 M-1.27 1.52 C-1.27 -9.16, -0.77 -52.2, -1.09 -62.74" stroke="#000000" stroke-width="1" fill="none"></path></g><g transform="translate(475.29727175568047 531.3037855895118) rotate(0 -0.5734776210039882 -31.25009086211466)"><path d="M8.15 -33.05 C5.88 -42.29, 4.73 -47.79, -0.35 -64.02 M8.92 -34.01 C5.17 -44.88, 1.41 -55.75, -1.82 -62.97" stroke="#000000" stroke-width="1" fill="none"></path></g><g transform="translate(475.29727175568047 531.3037855895118) rotate(0 -0.5734776210039882 -31.25009086211466)"><path d="M-12.37 -32.92 C-9.73 -42.21, -5.97 -47.74, -0.35 -64.02 M-11.6 -33.88 C-7.3 -44.87, -3 -55.79, -1.82 -62.97" stroke="#000000" stroke-width="1" fill="none"></path></g></g><g stroke-linecap="round"><g transform="translate(573.8165626107655 630.8221650558372) rotate(0 88.53770749739925 143.57920303146236)"><path d="M1.18 0.15 C30.5 47.77, 147.71 238.81, 176.73 286.75 M0.35 -0.81 C29.49 47.47, 146.54 240.22, 176.11 287.97" stroke="#000000" stroke-width="1" fill="none"></path></g><g transform="translate(573.8165626107655 630.8221650558372) rotate(0 88.53770749739925 143.57920303146236)"><path d="M152.9 270.33 C160.45 274.62, 170.86 282.98, 177.73 286.44 M153.47 269.27 C160.3 275.69, 168.95 283.19, 177.03 288.36" stroke="#000000" stroke-width="1" fill="none"></path></g><g transform="translate(573.8165626107655 630.8221650558372) rotate(0 88.53770749739925 143.57920303146236)"><path d="M170.4 259.62 C171.6 268.03, 175.57 280.33, 177.73 286.44 M170.97 258.55 C171.31 268.91, 173.52 280.35, 177.03 288.36" stroke="#000000" stroke-width="1" fill="none"></path></g></g><g stroke-linecap="round" transform="translate(759.6984126984125 1204.131857503765) rotate(0 107 37.00000000000006)"><path d="M-0.9 -0.43 C72.28 -0.42, 145.6 -0.67, 215.33 -1.31 M0.79 -0.55 C48.12 1.04, 97.13 2.03, 213.35 0.42 M213.65 -0.76 C214.84 17.46, 214.61 38.71, 212.35 72.57 M214.97 0.43 C214.64 28.53, 214.62 57.73, 213.99 74.43 M215.67 72.83 C141.66 74.56, 68.17 75.62, 0.07 73.24 M213.31 74.84 C166.2 72.99, 120.45 72.75, -0.36 74.08 M-0.61 74.18 C1.41 56.72, -0.57 42.74, 1.3 -1.62 M0.42 74.82 C-0.11 53.21, 1.6 33.97, 0.11 0.97" stroke="#000000" stroke-width="1" fill="none"></path></g><g stroke-linecap="round"><g transform="translate(568.9957871045517 646.4277004126026) rotate(0 95.02994345936129 303.9431525051607)"><path d="M-1.04 0.91 C30.89 101.93, 159.15 505.06, 191.1 606.19 M0.61 0.35 C32.48 101.52, 158.89 506.59, 190.45 607.54" stroke="#000000" stroke-width="1" fill="none"></path></g><g transform="translate(568.9957871045517 646.4277004126026) rotate(0 95.02994345936129 303.9431525051607)"><path d="M173.77 584.62 C176.37 590.2, 183.66 594.69, 190.44 607.85 M171.39 583.68 C179.11 593.26, 184.59 600.26, 191.41 607.32" stroke="#000000" stroke-width="1" fill="none"></path></g><g transform="translate(568.9957871045517 646.4277004126026) rotate(0 95.02994345936129 303.9431525051607)"><path d="M193.36 578.51 C190.89 585.5, 193.12 591.57, 190.44 607.85 M190.98 577.56 C191.5 589.32, 189.84 598.55, 191.41 607.32" stroke="#000000" stroke-width="1" fill="none"></path></g></g><g stroke-linecap="round"><g transform="translate(465.04526318666296 705.3468779858873) rotate(0 -0.3366322921821876 44.45456713552858)"><path d="M-1.14 0.28 C-1.23 15.03, -0.29 74.76, -0.45 89.53 M0.47 -0.62 C0.27 14.29, -1 72.51, -1.01 87.63" stroke="#000000" stroke-width="4" fill="none"></path></g><g transform="translate(465.04526318666296 705.3468779858873) rotate(0 -0.3366322921821876 44.45456713552858)"><path d="M-10.45 60.51 C-6.91 66.65, -4.93 78.39, -0.36 89.41 M-11.68 59.32 C-6.46 71.16, -2.93 81.97, -0.65 87.26" stroke="#000000" stroke-width="4" fill="none"></path></g><g transform="translate(465.04526318666296 705.3468779858873) rotate(0 -0.3366322921821876 44.45456713552858)"><path d="M10.07 60.77 C7.28 66.63, 2.92 78.3, -0.36 89.41 M8.84 59.58 C6.05 71.33, 1.56 82.04, -0.65 87.26" stroke="#000000" stroke-width="4" fill="none"></path></g></g><g stroke-linecap="round"><g transform="translate(446.4796292245437 791.5833699482024) rotate(0 -0.24706451243540783 -53.046940392228805)"><path d="M0.77 1.05 C0.73 -16.9, -0.25 -89.16, -0.51 -107.14 M-0.29 0.55 C-0.42 -17.25, -1.04 -87.96, -1.26 -105.62" stroke="#000000" stroke-width="4" fill="none"></path></g><g transform="translate(446.4796292245437 791.5833699482024) rotate(0 -0.24706451243540783 -53.046940392228805)"><path d="M11.04 -76.89 C6.24 -85.05, 3.85 -90.84, -0.73 -104.68 M9.26 -77.48 C7.21 -84.62, 3.9 -92.94, -1.73 -106.04" stroke="#000000" stroke-width="4" fill="none"></path></g><g transform="translate(446.4796292245437 791.5833699482024) rotate(0 -0.24706451243540783 -53.046940392228805)"><path d="M-9.48 -76.68 C-8.67 -85.03, -5.45 -90.87, -0.73 -104.68 M-11.26 -77.27 C-7.6 -84.53, -5.21 -92.91, -1.73 -106.04" stroke="#000000" stroke-width="4" fill="none"></path></g></g><g stroke-linecap="round"><g transform="translate(970.8003972478211 509.28030467713336) rotate(0 56.530082206055454 -29.172413275239734)"><path d="M-0.7 -0.12 C18.44 -9.43, 94.7 -46.97, 113.76 -56.36 M1.13 -1.24 C20.19 -10.85, 94.13 -48.65, 112.73 -58.22" stroke="#000000" stroke-width="4" fill="none"></path></g><g transform="translate(970.8003972478211 509.28030467713336) rotate(0 56.530082206055454 -29.172413275239734)"><path d="M92.12 -36.48 C97.59 -41.18, 101.71 -43.55, 114.01 -57.43 M91.99 -35.36 C99.04 -44.31, 107.56 -51.03, 112.04 -58.04" stroke="#000000" stroke-width="4" fill="none"></path></g><g transform="translate(970.8003972478211 509.28030467713336) rotate(0 56.530082206055454 -29.172413275239734)"><path d="M82.76 -54.74 C90.14 -55.51, 96.25 -54, 114.01 -57.43 M82.63 -53.62 C92.85 -56.07, 104.66 -56.35, 112.04 -58.04" stroke="#000000" stroke-width="4" fill="none"></path></g></g><g stroke-linecap="round"><g transform="translate(953.1666666666667 637.9129249634842) rotate(0 66.4171857733279 -86.23655881261246)"><path d="M-0.55 0.81 C21.51 -27.94, 111.14 -144.23, 133.38 -173.29 M1.37 0.2 C23.23 -28.36, 110.98 -143.35, 132.8 -172.19" stroke="#000000" stroke-width="4" fill="none"></path></g><g transform="translate(953.1666666666667 637.9129249634842) rotate(0 66.4171857733279 -86.23655881261246)"><path d="M125.26 -142.38 C126.14 -154.22, 129.14 -166.15, 134.44 -171.99 M123.93 -143.88 C125.64 -150.23, 128.46 -155.55, 132.03 -172.48" stroke="#000000" stroke-width="4" fill="none"></path></g><g transform="translate(953.1666666666667 637.9129249634842) rotate(0 66.4171857733279 -86.23655881261246)"><path d="M108.92 -154.81 C116.05 -161.76, 125.38 -168.87, 134.44 -171.99 M107.59 -156.3 C112.72 -159.87, 119.01 -162.56, 132.03 -172.48" stroke="#000000" stroke-width="4" fill="none"></path></g></g><g stroke-linecap="round" transform="translate(1089.5 400.5) rotate(0 107 51)"><path d="M0.68 -0.1 C72.74 0.68, 145.63 -0.6, 214.44 -0.1 M-0.48 0.86 C84.66 -0.29, 169.84 -1.55, 214.68 0.33 M214.7 -1.59 C215.05 34.96, 212.97 69.9, 212.09 103.59 M213.17 0.69 C213.69 24.97, 213.46 50.49, 213.08 102.8 M213.64 102.13 C143.92 103.51, 71.84 103.41, -1.13 100.31 M213.25 102.72 C166.45 103, 118.97 102.54, 0.2 101.84 M-1.46 103.61 C-0.11 66.36, 1.74 32.28, 0.23 -1.71 M-0.17 101.57 C-0.49 76.48, -0.18 49.5, 0.32 -0.12" stroke="#000000" stroke-width="4" fill="none"></path></g><g transform="translate(1123.5 431.5) rotate(0 80.5 25.5)"><text x="0" y="18.5" font-family="Virgil, Segoe UI Emoji" font-size="20px" fill="#000000" text-anchor="start" style="white-space: pre;" direction="ltr">Better decisions</text><text x="0" y="44" font-family="Virgil, Segoe UI Emoji" font-size="20px" fill="#000000" text-anchor="start" style="white-space: pre;" direction="ltr"></text></g><g stroke-linecap="round"><g transform="translate(578.1913831819859 416.4086482221141) rotate(0 98.27288987288638 112.09897184466682)"><path d="M0.29 -0.11 C33.32 37.37, 164.83 186.53, 197.57 223.97 M-1.02 -1.21 C31.93 36.53, 163.93 188.14, 196.7 225.41" stroke="#000000" stroke-width="1" fill="none"></path></g><g transform="translate(578.1913831819859 416.4086482221141) rotate(0 98.27288987288638 112.09897184466682)"><path d="M170.24 211.19 C176.45 213.29, 183.84 218.49, 197.02 224.01 M171.15 210.34 C179.06 215.79, 186.15 218.67, 197.45 224.83" stroke="#000000" stroke-width="1" fill="none"></path></g><g transform="translate(578.1913831819859 416.4086482221141) rotate(0 98.27288987288638 112.09897184466682)"><path d="M185.69 197.69 C188 203.13, 191.61 211.64, 197.02 224.01 M186.6 196.84 C190.07 206.27, 192.62 213.11, 197.45 224.83" stroke="#000000" stroke-width="1" fill="none"></path></g></g><g stroke-linecap="round"><g transform="translate(970.1811837210253 915.0593876541593) rotate(0 106.17228741725319 -63.78191789276195)"><path d="M-0.72 -1.11 C34.59 -22.4, 177.46 -107.46, 213.06 -128.48 M1.1 0.92 C36.19 -20.17, 177.14 -105.65, 212.33 -127.37" stroke="#000000" stroke-width="1" fill="none"></path></g><g transform="translate(970.1811837210253 915.0593876541593) rotate(0 106.17228741725319 -63.78191789276195)"><path d="M191.77 -103.22 C199.91 -112.75, 209.42 -124.23, 212.13 -127.5 M193.59 -103.34 C197.13 -110.28, 202 -115.89, 212.96 -127.16" stroke="#000000" stroke-width="1" fill="none"></path></g><g transform="translate(970.1811837210253 915.0593876541593) rotate(0 106.17228741725319 -63.78191789276195)"><path d="M181.08 -120.73 C193.37 -123.21, 207.15 -127.7, 212.13 -127.5 M182.89 -120.85 C189.21 -123.52, 196.72 -124.79, 212.96 -127.16" stroke="#000000" stroke-width="1" fill="none"></path></g></g><g stroke-linecap="round" transform="translate(1086 673) rotate(0 114 58)"><path d="M1.21 -0.5 C79.16 -0.06, 158.84 0.15, 228.99 -1.6 M0.71 0.36 C76.47 -1.56, 153.74 -1.13, 228.16 0.71 M227.96 -0.13 C226.87 45.38, 228.3 89.59, 227.14 116.73 M227.28 0.87 C229.04 43.74, 228.11 88.23, 228.57 116.55 M226.72 115.65 C179.36 118.78, 133.38 118.78, 1.01 116.27 M227.89 115.19 C156.76 115.05, 86.55 113.96, -0.49 115.96 M1.19 118 C-1.28 86.89, 0.15 62.44, 1.25 -1.72 M-0.85 116.94 C1.98 81.73, 0.4 46.94, -0.16 0.05" stroke="#000000" stroke-width="1" fill="none"></path></g><g transform="translate(1118.5 721.5) rotate(0 80.5 13)"><text x="0" y="18" font-family="Virgil, Segoe UI Emoji" font-size="20px" fill="#000000" text-anchor="start" style="white-space: pre;" direction="ltr">Better judgment</text></g><g stroke-linecap="round"><g transform="translate(573.8695448670994 632.9270936888045) rotate(0 88.7584375817397 212.81947008672162)"><path d="M1.08 0.34 C30.8 71.08, 147.88 353.77, 177.32 424.62 M0.19 -0.53 C29.9 70.41, 147.18 355.49, 176.75 426.17" stroke="#000000" stroke-width="1" fill="none"></path></g><g transform="translate(573.8695448670994 632.9270936888045) rotate(0 88.7584375817397 212.81947008672162)"><path d="M157.04 405.24 C160.96 410.62, 166.73 412.57, 177.23 424.98 M156.84 403.56 C162.15 408.64, 165.42 414.98, 176.18 426.57" stroke="#000000" stroke-width="1" fill="none"></path></g><g transform="translate(573.8695448670994 632.9270936888045) rotate(0 88.7584375817397 212.81947008672162)"><path d="M176 397.38 C175.8 404.64, 177.44 408.31, 177.23 424.98 M175.79 395.71 C176.74 402.5, 175.63 410.65, 176.18 426.57" stroke="#000000" stroke-width="1" fill="none"></path></g></g><g stroke-linecap="round" transform="translate(755.5 1016) rotate(0 117.00000000000003 51)"><path d="M0.42 -1.18 C63.72 -0.85, 126.49 1.28, 232.45 0.14 M0.23 0.29 C91.85 -1.05, 184.68 0.25, 234.51 -0.15 M235.46 -1.88 C236.33 39.11, 232.97 74.1, 234.34 100.92 M233.73 -0.46 C234.36 36.71, 235.34 72.04, 234.76 102.3 M233.05 103.51 C144.19 99.65, 51.2 101.73, 0.18 100.71 M234.08 102.43 C181.02 103.68, 126.32 102.97, -0.65 102.3 M0.25 102.77 C-2.08 71.03, -0.48 38.87, -1.61 0.69 M0.39 102.16 C-1.09 71.68, -1.79 39.97, 0 -0.44" stroke="#000000" stroke-width="1" fill="none"></path></g><g transform="translate(767.5 887) rotate(0 97 25.5)"><text x="0" y="18.5" font-family="Virgil, Segoe UI Emoji" font-size="20px" fill="#000000" text-anchor="start" style="white-space: pre;" direction="ltr">Improving users'</text><text x="0" y="44" font-family="Virgil, Segoe UI Emoji" font-size="20px" fill="#000000" text-anchor="start" style="white-space: pre;" direction="ltr">models of the world</text></g><g stroke-linecap="round"><g transform="translate(987.5781117847375 1073.3868122865053) rotate(0 103.38894011079219 -141.30783122352227)"><path d="M0.98 0.93 C35.52 -46.35, 172.65 -236.04, 206.74 -283.54 M0.04 0.37 C34.52 -46.73, 172.08 -234.84, 206.16 -282.09" stroke="#000000" stroke-width="1" fill="none"></path></g><g transform="translate(987.5781117847375 1073.3868122865053) rotate(0 103.38894011079219 -141.30783122352227)"><path d="M199.42 -252.09 C199.74 -261.67, 201 -266.65, 206.68 -282.23 M197.99 -253.74 C202.09 -264.33, 203.58 -275.3, 206.54 -282.08" stroke="#000000" stroke-width="1" fill="none"></path></g><g transform="translate(987.5781117847375 1073.3868122865053) rotate(0 103.38894011079219 -141.30783122352227)"><path d="M182.83 -264.15 C187.46 -270.74, 193.02 -272.6, 206.68 -282.23 M181.39 -265.81 C191.7 -271.8, 199.49 -278.19, 206.54 -282.08" stroke="#000000" stroke-width="1" fill="none"></path></g></g><g stroke-linecap="round"><g transform="translate(1197.2514094463022 657.7087182216346) rotate(0 0.4623176105772018 -72.28798516917038)"><path d="M0.91 0.71 C1.14 -23.37, 0.87 -119.25, 0.5 -143.62 M-0.07 0.04 C0.16 -24.45, -0.16 -121.15, 0.04 -145.28" stroke="#000000" stroke-width="1" fill="none"></path></g><g transform="translate(1197.2514094463022 657.7087182216346) rotate(0 0.4623176105772018 -72.28798516917038)"><path d="M11.43 -115.51 C9.17 -124.92, 3.65 -128.45, -0.84 -147.11 M10.42 -116.45 C6.47 -124.6, 3.64 -133.15, -0.85 -145.38" stroke="#000000" stroke-width="1" fill="none"></path></g><g transform="translate(1197.2514094463022 657.7087182216346) rotate(0 0.4623176105772018 -72.28798516917038)"><path d="M-9.09 -115.55 C-6.65 -125.11, -7.49 -128.63, -0.84 -147.11 M-10.1 -116.49 C-8.53 -124.49, -5.83 -133.04, -0.85 -145.38" stroke="#000000" stroke-width="1" fill="none"></path></g></g><g stroke-linecap="round"><g transform="translate(1305.4600892564442 447.85582513650945) rotate(0 103.62431140574193 189.24142188830663)"><path d="M0.74 -1.07 C35.01 62.11, 171.1 315.03, 205.49 378.24 M-0.33 0.98 C34.29 64.4, 173.1 316.51, 207.58 379.56" stroke="#000000" stroke-width="4" fill="none"></path></g><g transform="translate(1305.4600892564442 447.85582513650945) rotate(0 103.62431140574193 189.24142188830663)"><path d="M183.23 357.79 C190.76 366.11, 197.23 369.89, 208.2 380.24 M185.8 360.73 C194 366.73, 201.53 373.77, 206.88 380.26" stroke="#000000" stroke-width="4" fill="none"></path></g><g transform="translate(1305.4600892564442 447.85582513650945) rotate(0 103.62431140574193 189.24142188830663)"><path d="M201.22 347.91 C203.43 359.23, 204.65 365.9, 208.2 380.24 M203.79 350.86 C205.21 360.57, 206.02 371.3, 206.88 380.26" stroke="#000000" stroke-width="4" fill="none"></path></g></g><g stroke-linecap="round"><g transform="translate(448.2188519032356 929.3201051893119) rotate(0 0.4137442334029586 184.84767729415432)"><path d="M0.82 -1.05 C0.63 60.75, -0.52 308.89, -0.75 370.75 M-0.21 1.01 C-0.04 62.49, 1.81 307.33, 1.57 369.07" stroke="#000000" stroke-width="4" fill="none"></path></g><g transform="translate(448.2188519032356 929.3201051893119) rotate(0 0.4137442334029586 184.84767729415432)"><path d="M-10.52 339.67 C-3.94 349.23, -1.65 359.61, 2.43 369.96 M-7.94 340.78 C-5.26 349.67, -2.3 360.45, 1.62 369.35" stroke="#000000" stroke-width="4" fill="none"></path></g><g transform="translate(448.2188519032356 929.3201051893119) rotate(0 0.4137442334029586 184.84767729415432)"><path d="M10 339.61 C9.77 349.34, 5.26 359.73, 2.43 369.96 M12.58 340.72 C8.41 349.74, 4.51 360.54, 1.62 369.35" stroke="#000000" stroke-width="4" fill="none"></path></g></g><g stroke-linecap="round" transform="translate(344.5 1309) rotate(0 129 55)"><path d="M1.17 0.99 C92.39 -2.82, 187.45 -2.81, 259 0 M-0.78 -0.07 C88.76 1.67, 178.59 1.32, 258.53 0.53 M257.39 -0.03 C257.84 21.97, 257.98 42.87, 256.12 110.53 M257.96 0.94 C258.2 21.3, 258.38 44.67, 258.27 110.12 M258.35 111.15 C169.12 107.99, 78.51 107.65, 1.42 110.63 M258.35 109.22 C198.16 109.09, 137.94 109.26, -0.23 110.48 M-1.24 108.05 C0.18 67.13, 1.34 26.75, 1.06 -0.35 M-0.13 110.92 C0.3 85.89, -0.86 61.31, -0.91 0.06" stroke="#000000" stroke-width="4" fill="none"></path></g><g transform="translate(366.5 1325.5) rotate(0 104 38.5)"><text x="0" y="17.666666666666668" font-family="Virgil, Segoe UI Emoji" font-size="20px" fill="#000000" text-anchor="start" style="white-space: pre;" direction="ltr">Forecasters go on</text><text x="0" y="43.333333333333336" font-family="Virgil, Segoe UI Emoji" font-size="20px" fill="#000000" text-anchor="start" style="white-space: pre;" direction="ltr">to do valuable stuff</text><text x="0" y="69" font-family="Virgil, Segoe UI Emoji" font-size="20px" fill="#000000" text-anchor="start" style="white-space: pre;" direction="ltr">in the world</text></g><g stroke-linecap="round"><g transform="translate(610.1521739130435 1363.4213693910842) rotate(0 71.39293495183767 2.3797158204022253)"><path d="M-1.16 0.35 C22.64 1.34, 119.88 4.44, 143.94 5.27 M0.44 -0.51 C24.07 0.21, 119.85 2.93, 143.54 3.58" stroke="#000000" stroke-width="2" fill="none"></path></g><g transform="translate(610.1521739130435 1363.4213693910842) rotate(0 71.39293495183767 2.3797158204022253)"><path d="M115.66 14.78 C127.8 10.08, 139.11 4.93, 143.58 3.3 M115.82 12.45 C126.6 10.53, 135.9 6.68, 144.3 4.26" stroke="#000000" stroke-width="2" fill="none"></path></g><g transform="translate(610.1521739130435 1363.4213693910842) rotate(0 71.39293495183767 2.3797158204022253)"><path d="M116.24 -5.73 C128.03 -2.31, 139.12 0.66, 143.58 3.3 M116.4 -8.06 C126.8 -2.42, 135.88 1.31, 144.3 4.26" stroke="#000000" stroke-width="2" fill="none"></path></g></g><g stroke-linecap="round" transform="translate(755.5 1332.5) rotate(0 113.00000000000003 44)"><path d="M-1.17 0.35 C88.32 -3.06, 177.09 -3.51, 225.66 1.34 M-0.5 0.42 C79.51 -0.88, 159.64 -1.57, 225.77 0.45 M227.77 0.64 C225.53 21.14, 226.1 41.7, 226.02 87.78 M225.39 -0.33 C224.74 18.8, 225.58 36.94, 226.66 88.18 M225.73 89.2 C163 86.4, 97.03 88.83, -1.43 89.06 M226.33 88.14 C147.92 88.48, 68.66 88.65, -0.69 88.61 M1.79 89.57 C-0.63 55.29, -0.14 21.77, 1.56 -1.63 M0.96 87.2 C1.16 68.64, -0.14 48.94, 0.13 0.05" stroke="#000000" stroke-width="4" fill="none"></path></g><g transform="translate(789.5 1361.5) rotate(0 8 13)"><text x="0" y="18" font-family="Virgil, Segoe UI Emoji" font-size="20px" fill="#000000" text-anchor="start" style="white-space: pre;" direction="ltr">...</text></g><g stroke-linecap="round"><g transform="translate(577.3239456207818 416.4117042474255) rotate(0 98.47552218430909 41.200041352843044)"><path d="M-1.13 -0.95 C31.89 12.81, 164.66 69.45, 198.08 83.35 M0.47 1.17 C33.31 14.52, 163.83 67.88, 196.94 81.63" stroke="#000000" stroke-width="1" fill="none"></path></g><g transform="translate(577.3239456207818 416.4117042474255) rotate(0 98.47552218430909 41.200041352843044)"><path d="M165.39 79.78 C177.11 82.67, 184.44 79.58, 197.87 81.05 M167.36 81.37 C179.06 80.17, 189.57 81.9, 197.15 81.6" stroke="#000000" stroke-width="1" fill="none"></path></g><g transform="translate(577.3239456207818 416.4117042474255) rotate(0 98.47552218430909 41.200041352843044)"><path d="M173.2 60.8 C182.74 69.23, 187.76 71.74, 197.87 81.05 M175.16 62.4 C183.79 68.33, 191.37 77.18, 197.15 81.6" stroke="#000000" stroke-width="1" fill="none"></path></g></g><g stroke-linecap="round"><g transform="translate(982.0540451424627 1231.1244678602566) rotate(0 253.12531383645114 -156.59724690485064)"><path d="M-1.2 -0.56 C83.44 -53.09, 422.97 -262.67, 507.45 -314.95 M0.38 1.75 C84.98 -50.59, 422.43 -260.5, 507.06 -313.51" stroke="#000000" stroke-width="1" fill="none"></path></g><g transform="translate(982.0540451424627 1231.1244678602566) rotate(0 253.12531383645114 -156.59724690485064)"><path d="M487.63 -288.1 C493.19 -297.27, 499.32 -303.89, 507.52 -311.99 M489.1 -289.27 C494.35 -297.36, 500.21 -304.57, 506.72 -312.66" stroke="#000000" stroke-width="1" fill="none"></path></g><g transform="translate(982.0540451424627 1231.1244678602566) rotate(0 253.12531383645114 -156.59724690485064)"><path d="M476.77 -305.51 C485.27 -309.9, 494.31 -311.86, 507.52 -311.99 M478.24 -306.68 C486.85 -309.61, 495.97 -311.59, 506.72 -312.66" stroke="#000000" stroke-width="1" fill="none"></path></g></g><g stroke-linecap="round"><g transform="translate(990.4433962264152 1371.2214795231002) rotate(0 250.74199969639943 -222.15604834101157)"><path d="M0.99 0.66 C84.47 -73.37, 417.96 -368.95, 501.43 -443.05 M0.05 -0.03 C83.33 -73.94, 416.98 -371.16, 500.53 -444.98" stroke="#000000" stroke-width="4" fill="none"></path></g><g transform="translate(990.4433962264152 1371.2214795231002) rotate(0 250.74199969639943 -222.15604834101157)"><path d="M487.36 -418.45 C491.57 -427.02, 495.02 -435.01, 500.63 -443.74 M486.32 -418.01 C490 -426.42, 495.86 -435.76, 500.57 -445.6" stroke="#000000" stroke-width="4" fill="none"></path></g><g transform="translate(990.4433962264152 1371.2214795231002) rotate(0 250.74199969639943 -222.15604834101157)"><path d="M473.74 -433.8 C482.81 -437.17, 490.97 -439.85, 500.63 -443.74 M472.7 -433.36 C480.72 -437.12, 490.81 -441.7, 500.57 -445.6" stroke="#000000" stroke-width="4" fill="none"></path></g></g><g stroke-linecap="round" transform="translate(10 575) rotate(0 121.25 48.75)"><path d="M0.92 0.6 C58.87 -0.09, 117.17 2.35, 243.47 0.22 M0.03 0.27 C59.45 -1.27, 116.85 -1.41, 242.38 -0.12 M243.41 0.14 C241.96 27.78, 240.73 56.68, 242.06 97.35 M243.11 -0.07 C241.15 36.34, 241.8 71.58, 242.81 97.19 M241.22 98.88 C186.97 98.15, 127.65 97.13, -0.56 96.29 M242.86 97.41 C146.25 98.26, 48.93 98.55, 0.24 97.37 M-0.09 99.22 C1.12 76.88, 0.66 53.46, 1.37 -0.78 M0.89 98.47 C1.91 66.9, 1.34 35.6, -0.12 0.32" stroke="#000000" stroke-width="1" fill="none"></path></g><g stroke-linecap="round"><g transform="translate(374.4727046729244 610.6574185983566) rotate(0 -59.760450472725594 0.020302528191194824)"><path d="M0.88 1 C-19.24 0.93, -100.37 -0.8, -120.4 -0.96 M-0.12 0.48 C-19.87 0.67, -98.1 0.99, -118.05 0.63" stroke="#000000" stroke-width="1" fill="none"></path></g><g transform="translate(374.4727046729244 610.6574185983566) rotate(0 -59.760450472725594 0.020302528191194824)"><path d="M-88.14 -10.64 C-98.85 -5.31, -106.31 -0.72, -116.67 1.81 M-88.9 -9.2 C-95.64 -7.31, -102.11 -4.47, -118.28 1.36" stroke="#000000" stroke-width="1" fill="none"></path></g><g transform="translate(374.4727046729244 610.6574185983566) rotate(0 -59.760450472725594 0.020302528191194824)"><path d="M-88.25 9.89 C-98.84 8.55, -106.26 6.49, -116.67 1.81 M-89.01 11.32 C-95.76 8.88, -102.21 7.4, -118.28 1.36" stroke="#000000" stroke-width="1" fill="none"></path></g></g><g stroke-linecap="round"><g transform="translate(263.01364675628275 634.4396880968493) rotate(0 54.534673780695314 2.8108875409197935)"><path d="M-0.1 1.04 C18.32 1.62, 92.08 3.51, 110.69 3.94 M-1.62 0.54 C16.63 1.23, 90.93 4.45, 109.74 5.08" stroke="#000000" stroke-width="1" fill="none"></path></g><g transform="translate(263.01364675628275 634.4396880968493) rotate(0 54.534673780695314 2.8108875409197935)"><path d="M82.91 14.24 C88.83 12.85, 97.2 8.83, 111 5.62 M80.57 14.77 C91.92 11.04, 102.97 7.68, 109.95 4.21" stroke="#000000" stroke-width="1" fill="none"></path></g><g transform="translate(263.01364675628275 634.4396880968493) rotate(0 54.534673780695314 2.8108875409197935)"><path d="M83.71 -6.26 C89.46 -1.24, 97.57 1.15, 111 5.62 M81.37 -5.73 C92.25 -1.63, 102.99 2.86, 109.95 4.21" stroke="#000000" stroke-width="1" fill="none"></path></g></g><g stroke-linecap="round" transform="translate(767.5 272.5) rotate(0 110.00000000000003 67.5)"><path d="M0.77 0.6 C73.42 -2.29, 147.98 -1.97, 219.59 1.7 M0.45 -0.12 C71.97 -0.82, 143.39 -0.02, 219.67 0.13 M218.2 -0.38 C221.13 29.93, 222.15 59.09, 220.6 135.02 M219.57 -0.21 C219.42 35.02, 218.9 68.25, 219.2 134.17 M219.73 134.38 C170.52 134.95, 123.47 136.25, 1.64 136.03 M220.06 135.56 C154.16 134.92, 89.76 135.67, -0.84 134.4 M0.41 134.83 C0.44 100.64, -0.09 65.29, 0.52 -0.68 M0.07 135.1 C-0.04 90.37, -0.15 47.53, -0.45 -0.59" stroke="#000000" stroke-width="4" fill="none"></path></g><g transform="translate(797.5 283) rotate(0 79.50000000000003 64)"><text x="0" y="17.6" font-family="Virgil, Segoe UI Emoji" font-size="20px" fill="#000000" text-anchor="start" style="white-space: pre;" direction="ltr">Creating common</text><text x="0" y="43.2" font-family="Virgil, Segoe UI Emoji" font-size="20px" fill="#000000" text-anchor="start" style="white-space: pre;" direction="ltr">knowledge about</text><text x="0" y="68.80000000000001" font-family="Virgil, Segoe UI Emoji" font-size="20px" fill="#000000" text-anchor="start" style="white-space: pre;" direction="ltr">what is likely to</text><text x="0" y="94.4" font-family="Virgil, Segoe UI Emoji" font-size="20px" fill="#000000" text-anchor="start" style="white-space: pre;" direction="ltr">happen</text><text x="0" y="120" font-family="Virgil, Segoe UI Emoji" font-size="20px" fill="#000000" text-anchor="start" style="white-space: pre;" direction="ltr"></text></g><g stroke-linecap="round"><g transform="translate(996.1201627868693 331.05788496953437) rotate(0 43.094560608640336 56.462300632358534)"><path d="M0.05 -0.26 C14.51 18.49, 73.11 94.01, 87.57 113.21 M-1.38 -1.44 C12.96 17.39, 72.63 95.27, 87.25 114.37" stroke="#000000" stroke-width="4" fill="none"></path></g><g transform="translate(996.1201627868693 331.05788496953437) rotate(0 43.094560608640336 56.462300632358534)"><path d="M61.53 100.2 C70.09 104.88, 82.24 111.9, 87.33 114.45 M61.61 98.98 C68.2 103.33, 75.67 106.76, 86.4 113.61" stroke="#000000" stroke-width="4" fill="none"></path></g><g transform="translate(996.1201627868693 331.05788496953437) rotate(0 43.094560608640336 56.462300632358534)"><path d="M77.82 87.73 C80.5 96.98, 86.68 108.56, 87.33 114.45 M77.9 86.51 C80.31 93.95, 83.53 100.64, 86.4 113.61" stroke="#000000" stroke-width="4" fill="none"></path></g></g><g stroke-linecap="round"><g transform="translate(583.1123831163634 415.4105226322522) rotate(0 92.34557833140025 -37.0522062545937)"><path d="M-0.76 0.32 C29.91 -11.64, 152.49 -60.42, 183.21 -72.9 M1.05 -0.56 C32.15 -12.72, 155.21 -62.27, 185.45 -74.42" stroke="#000000" stroke-width="1" fill="none"></path></g><g transform="translate(583.1123831163634 415.4105226322522) rotate(0 92.34557833140025 -37.0522062545937)"><path d="M163.65 -55.9 C170.47 -59.92, 172.99 -64.7, 183.54 -75.66 M162.66 -53.68 C169.15 -59.96, 173.59 -64.51, 185.41 -74.06" stroke="#000000" stroke-width="1" fill="none"></path></g><g transform="translate(583.1123831163634 415.4105226322522) rotate(0 92.34557833140025 -37.0522062545937)"><path d="M155.99 -74.93 C164.44 -74.42, 168.76 -74.71, 183.54 -75.66 M155 -72.72 C163.48 -74.2, 169.83 -74.04, 185.41 -74.06" stroke="#000000" stroke-width="1" fill="none"></path></g></g><g stroke-linecap="round"><g transform="translate(578.225858163134 619.2235559415597) rotate(0 95.54223563216172 -135.20947771064084)"><path d="M0.69 -0.49 C32.53 -45.59, 159.82 -225.19, 191.5 -269.93 M-0.41 -1.79 C31.32 -46.8, 159.27 -224.47, 191.02 -268.75" stroke="#000000" stroke-width="4" fill="none"></path></g><g transform="translate(578.225858163134 619.2235559415597) rotate(0 95.54223563216172 -135.20947771064084)"><path d="M182.09 -238.38 C184.34 -249.34, 188.71 -260.13, 193 -268.12 M182.75 -239.14 C185.16 -247.4, 186.61 -253.43, 190.79 -269.62" stroke="#000000" stroke-width="4" fill="none"></path></g><g transform="translate(578.225858163134 619.2235559415597) rotate(0 95.54223563216172 -135.20947771064084)"><path d="M165.42 -250.35 C173.31 -257.4, 183.26 -264.19, 193 -268.12 M166.08 -251.12 C172.68 -256.55, 178.2 -259.65, 190.79 -269.62" stroke="#000000" stroke-width="4" fill="none"></path></g></g><g stroke-linecap="round" transform="translate(780 22.5) rotate(0 110 78.75)"><path d="M110.02 0.66 C153.53 28.36, 195.45 59.78, 221.68 80.76 M110.45 0.24 C140.45 21.65, 169.87 43.31, 219.01 78.24 M221.76 80.2 C196.29 95.28, 176.68 111.14, 109.52 157.1 M220.52 78.61 C186.69 102.59, 154.3 126.41, 110.68 157.1 M110.81 156.93 C74.42 132.8, 38.29 108.09, -1.22 79.11 M111.01 157.49 C72.98 131.48, 37.71 105.8, -0.21 79.07 M0.35 77.55 C31.41 58.89, 63.39 33.99, 112.58 0.34 M0.93 79.97 C39.15 50.77, 79.4 20.69, 111.84 0.36" stroke="#000000" stroke-width="1" fill="none"></path></g><g transform="translate(822.5 81) rotate(0 69 25.5)"><text x="0" y="18.5" font-family="Virgil, Segoe UI Emoji" font-size="20px" fill="#000000" text-anchor="start" style="white-space: pre;" direction="ltr">Popularization</text><text x="0" y="44" font-family="Virgil, Segoe UI Emoji" font-size="20px" fill="#000000" text-anchor="start" style="white-space: pre;" direction="ltr">  (e.g., SSC)</text></g><g stroke-linecap="round" transform="translate(1467.5 789.9528301886795) rotate(0 98.75000000000011 95.02358490566041)"><path d="M89.64 0.67 C101.6 -1.91, 116.74 0.22, 128.9 3.98 C141.05 7.74, 153.05 15.33, 162.57 23.23 C172.1 31.13, 180.25 40.44, 186.06 51.38 C191.87 62.31, 196.31 76.34, 197.46 88.84 C198.61 101.34, 197.21 114.81, 192.96 126.37 C188.71 137.93, 180.5 149.07, 171.96 158.19 C163.41 167.32, 153.42 175.89, 141.7 181.11 C129.98 186.32, 114.68 189, 101.63 189.49 C88.58 189.98, 75.21 188.25, 63.39 184.04 C51.57 179.83, 40.06 172.85, 30.69 164.21 C21.33 155.57, 12.23 143.46, 7.18 132.21 C2.12 120.97, 0.24 109.05, 0.37 96.73 C0.5 84.42, 3.29 70, 7.96 58.32 C12.63 46.65, 19.4 35.41, 28.38 26.68 C37.37 17.94, 49.92 10.36, 61.85 5.89 C73.78 1.43, 91.98 0.49, 99.96 -0.14 C107.93 -0.76, 109.82 0.39, 109.7 2.16 M142.02 7.96 C153.87 11.56, 164.67 23.11, 173.28 32.5 C181.9 41.88, 189.65 52.69, 193.72 64.27 C197.79 75.85, 198.92 89.72, 197.72 101.96 C196.52 114.21, 192.37 126.67, 186.51 137.73 C180.64 148.8, 172.53 160.42, 162.53 168.37 C152.52 176.31, 138.74 181.95, 126.48 185.41 C114.22 188.87, 101.4 190.34, 88.98 189.13 C76.57 187.92, 63.47 184.04, 52 178.16 C40.52 172.28, 28.3 163.35, 20.13 153.85 C11.96 144.36, 6.39 132.93, 2.98 121.18 C-0.42 109.43, -2.1 95.52, -0.31 83.36 C1.48 71.21, 6.82 58.88, 13.75 48.25 C20.67 37.62, 31.12 27.07, 41.22 19.59 C51.33 12.1, 62.15 6.24, 74.38 3.35 C86.6 0.46, 103.27 1.46, 114.58 2.27 C125.88 3.07, 138.17 6.96, 142.19 8.2 C146.21 9.44, 139.69 7.98, 138.7 9.71" stroke="#000000" stroke-width="4" fill="none"></path></g><g stroke-linecap="round"><g transform="translate(888.9053258389176 183.40359251768328) rotate(0 0.6371542932712373 42.795244941487915)"><path d="M-0.94 -0.36 C-0.83 14.36, -0.26 72.6, 0.05 87.19 M0.77 -1.6 C1.29 12.91, 2.32 71.15, 2.21 85.64" stroke="#000000" stroke-width="1" fill="none"></path></g><g transform="translate(888.9053258389176 183.40359251768328) rotate(0 0.6371542932712373 42.795244941487915)"><path d="M-8.86 55.77 C-4.08 64.37, -1.55 71.18, 2.64 87.59 M-7.57 56.74 C-3.68 68.84, 0.81 79.2, 2.52 85.73" stroke="#000000" stroke-width="1" fill="none"></path></g><g transform="translate(888.9053258389176 183.40359251768328) rotate(0 0.6371542932712373 42.795244941487915)"><path d="M11.67 55.63 C11.3 64.1, 8.7 70.95, 2.64 87.59 M12.95 56.59 C8.87 68.94, 5.39 79.36, 2.52 85.73" stroke="#000000" stroke-width="1" fill="none"></path></g></g><g stroke-linecap="round" transform="translate(355 530) rotate(0 110 91.25)"><path d="M111.53 0.22 C135.88 20.2, 158.64 39.96, 221.81 93.7 M111.06 -0.55 C151 33.59, 191.43 67.48, 220.46 91.29 M219.3 92.23 C189.79 119.6, 156 144.57, 110.79 181.83 M219.57 91.62 C186.91 119.63, 151.73 146.82, 110.78 182.52 M109.95 180.67 C68.45 146.42, 24.78 109.25, -0.5 90.57 M111.76 183 C69.43 146.71, 25.78 113.29, -0.15 91.33 M0.54 93.31 C24.88 73.45, 48.26 53.89, 110.33 1.14 M-0.15 92.04 C32.41 64.5, 65.67 37.38, 110.67 -0.06" stroke="#000000" stroke-width="4" fill="none"></path></g><g stroke-linecap="round" transform="translate(770 10) rotate(0 121.25000000000003 90)"><path d="M121.43 -1.86 C163.09 29.36, 206.98 61.38, 242.28 89.01 M122.29 0.35 C154.86 23.61, 187.65 49.15, 243.12 90.19 M241.24 91.41 C203.87 122.33, 161.24 150.17, 120.32 178.98 M241.74 91.78 C217.07 110.76, 189.55 130.85, 122.13 179.14 M121.59 181.31 C89.32 158.31, 57.48 134.29, 1.69 89.8 M121.67 179.69 C87.6 155.72, 52.68 129.31, -0.53 91.65 M-0.01 89.14 C40.67 62.26, 84.06 29.51, 121.23 -0.74 M-0.15 90.5 C30.25 67.37, 60.9 45.65, 122.7 -0.09" stroke="#000000" stroke-width="1" fill="none"></path></g><g stroke-linecap="round"><g transform="translate(439.91136956428716 931.6232996702521) rotate(0 -80.50664117989886 70.44532300878535)"><path d="M0.98 -0.86 C-25.99 22.53, -134.04 116.87, -161.05 140.8 M0.04 1.31 C-27.15 24.76, -135.02 118.5, -162 141.75" stroke="#000000" stroke-width="1" fill="none"></path></g><g transform="translate(439.91136956428716 931.6232996702521) rotate(0 -80.50664117989886 70.44532300878535)"><path d="M-148.83 115.53 C-154.48 125.17, -156.63 136.66, -162.51 140.97 M-146.47 115.38 C-151.88 122.51, -155.2 129.86, -161.18 142.44" stroke="#000000" stroke-width="1" fill="none"></path></g><g transform="translate(439.91136956428716 931.6232996702521) rotate(0 -80.50664117989886 70.44532300878535)"><path d="M-135.4 131.04 C-146.01 135.14, -153.06 140.96, -162.51 140.97 M-133.04 130.9 C-141.9 133.95, -148.75 137.22, -161.18 142.44" stroke="#000000" stroke-width="1" fill="none"></path></g></g><g stroke-linecap="round" transform="translate(200 1075) rotate(0 77.5 33.75)"><path d="M1.07 1.64 C40.15 -0.22, 78.55 -1.73, 153.51 0.99 M0.61 -0.32 C49.37 1.08, 100.27 0.91, 154.92 -0.81 M153.21 -0.14 C155.84 13.76, 156.34 31.25, 156.78 68.32 M154.88 -0.54 C154.77 13.96, 155.87 27.31, 154.51 67.78 M153.74 66.81 C113.65 68.87, 72.1 66.36, 0.8 68.51 M155.84 67.03 C104.46 67.02, 53.59 65.7, -0.45 68.24 M1.86 66.74 C-1.22 44.18, -0.1 21.4, 0.29 0.51 M0.7 67.43 C-0.26 41.38, 1.33 16.71, 0.52 -0.77" stroke="#000000" stroke-width="1" fill="none"></path></g><g transform="translate(215 1096) rotate(0 59.5 13)"><text x="0" y="18" font-family="Virgil, Segoe UI Emoji" font-size="20px" fill="#000000" text-anchor="start" style="white-space: pre;" direction="ltr">Social bonds</text></g><g stroke-linecap="round"><g transform="translate(275.85383601680536 1143.5) rotate(0 83.51244050512616 77.85601295249518)"><path d="M-0.17 0.14 C27.42 26.12, 138.4 129.17, 166.35 155.24 M-1.72 -0.83 C26.2 25.37, 140.61 130.63, 168.74 156.54" stroke="#000000" stroke-width="1" fill="none"></path></g><g transform="translate(275.85383601680536 1143.5) rotate(0 83.51244050512616 77.85601295249518)"><path d="M141.29 143.97 C150.39 150.21, 162.71 155.03, 167.09 155.7 M142.02 145.58 C151.26 148.52, 162.11 152.81, 169.28 156.45" stroke="#000000" stroke-width="1" fill="none"></path></g><g transform="translate(275.85383601680536 1143.5) rotate(0 83.51244050512616 77.85601295249518)"><path d="M155.19 128.87 C159.12 140.63, 166.34 150.99, 167.09 155.7 M155.92 130.49 C159.87 139.08, 165.5 149.04, 169.28 156.45" stroke="#000000" stroke-width="1" fill="none"></path></g></g><g stroke-linecap="round" transform="translate(60 1295) rotate(0 105 80)"><path d="M106.63 -1.9 C141.03 30.53, 179.3 58.09, 208.12 82.47 M105.92 -0.24 C131.11 19.68, 157.64 40.58, 209.6 80.28 M210.7 82.13 C179.04 105.24, 148.89 127.77, 106.57 159.15 M209.5 81.1 C174.26 110.34, 137.53 137.24, 105.41 160.3 M106.79 158.59 C83.93 144.15, 58.96 125.45, -0.93 80.56 M105.88 159.76 C74.61 138.46, 44.94 113.95, -0.09 80.67 M-1.01 80.18 C40.72 48.14, 83.5 18.15, 104.31 -0.03 M-0.97 80.34 C38.14 53.82, 75.71 23.9, 106.81 -0.85" stroke="#000000" stroke-width="1" fill="none"></path></g><g transform="translate(122.5 1336) rotate(0 57.5 38.5)"><text x="0" y="17.666666666666668" font-family="Virgil, Segoe UI Emoji" font-size="20px" fill="#000000" text-anchor="start" style="white-space: pre;" direction="ltr">Spare</text><text x="0" y="43.333333333333336" font-family="Virgil, Segoe UI Emoji" font-size="20px" fill="#000000" text-anchor="start" style="white-space: pre;" direction="ltr">coordination</text><text x="0" y="69" font-family="Virgil, Segoe UI Emoji" font-size="20px" fill="#000000" text-anchor="start" style="white-space: pre;" direction="ltr">capacity</text></g><g stroke-linecap="round"><g transform="translate(265 1375) rotate(0 37.99083774611354 -0.02362876453901208)"><path d="M-1.17 -0.8 C11.81 -0.57, 64.18 0.19, 77.15 0.17 M0.42 1.4 C13.26 1.41, 62.9 -1.27, 76.02 -1.45" stroke="#000000" stroke-width="1" fill="none"></path></g><g transform="translate(265 1375) rotate(0 37.99083774611354 -0.02362876453901208)"><path d="M46.88 9.22 C56.64 5.97, 61.57 6.23, 74.33 -0.54 M49.16 10.71 C57.02 5.98, 64.95 2.91, 75.57 -1.92" stroke="#000000" stroke-width="1" fill="none"></path></g><g transform="translate(265 1375) rotate(0 37.99083774611354 -0.02362876453901208)"><path d="M46.16 -11.29 C55.89 -9.56, 61 -4.33, 74.33 -0.54 M48.43 -9.8 C56.52 -8.43, 64.66 -5.41, 75.57 -1.92" stroke="#000000" stroke-width="1" fill="none"></path></g></g><g transform="translate(422.5 1553.5) rotate(0 33.5 13)"><text x="0" y="18" font-family="Virgil, Segoe UI Emoji" font-size="20px" fill="#000000" text-anchor="start" style="white-space: pre;" direction="ltr">Funding</text></g><g stroke-linecap="round" transform="translate(400 1510) rotate(0 57.5 58.75)"><path d="M57.04 1.98 C81.54 20.86, 102.72 43.74, 115.91 57.4 M57.6 -0.46 C72.43 15.58, 87.55 31.28, 114.31 59.56 M115.96 60.46 C103.41 74.27, 88.22 87.81, 58.89 115.84 M115.11 58.26 C97.08 76.07, 78.59 95.69, 58.78 117.41 M59.25 117.06 C44.62 102.08, 28.63 86.96, -0.22 58.49 M58.93 116.55 C35.72 93.92, 11.27 70.59, 0.16 59.75 M-1.27 57.55 C17.53 43.92, 31.27 30.09, 58.14 1.57 M0.9 58.01 C18.89 39.16, 37.48 20.8, 58.45 0.9" stroke="#000000" stroke-width="1" fill="none"></path></g><g stroke-linecap="round"><g transform="translate(458.56509489797884 1505.389116023985) rotate(0 -1.1094487887194049 -41.61029704238342)"><path d="M-0.03 -0.42 C-0.31 -14.19, -1.06 -69.08, -1.32 -82.8 M-1.5 -1.69 C-1.96 -15.23, -2.04 -67.94, -2.19 -81.21" stroke="#000000" stroke-width="1" fill="none"></path></g><g transform="translate(458.56509489797884 1505.389116023985) rotate(0 -1.1094487887194049 -41.61029704238342)"><path d="M7.54 -52.86 C4.97 -62.62, 1.62 -70.5, -4.09 -80.22 M8.05 -54.08 C4.27 -63.63, 1.58 -71.97, -2.51 -80.99" stroke="#000000" stroke-width="1" fill="none"></path></g><g transform="translate(458.56509489797884 1505.389116023985) rotate(0 -1.1094487887194049 -41.61029704238342)"><path d="M-12.98 -52.73 C-8.73 -62.53, -5.27 -70.45, -4.09 -80.22 M-12.47 -53.95 C-9.05 -63.71, -4.54 -72.1, -2.51 -80.99" stroke="#000000" stroke-width="1" fill="none"></path></g></g><g stroke-linecap="round" transform="translate(387.5 1500) rotate(0 70.00000000000003 67.5)"><path d="M72.25 0.17 C87.21 14.43, 102.11 28.76, 138.53 69.51 M70.1 -0.03 C89.92 19.55, 111.28 38.65, 140.03 68.62 M138.49 69.89 C113.57 93.48, 87.56 118.77, 69.19 135.71 M140.75 67.21 C114.53 92.78, 89.97 116.85, 71.19 134.03 M69.17 134.08 C56.87 121.92, 39.71 107.9, -1.86 68.55 M71.09 134.23 C43.82 108.4, 17.02 83.5, -0.72 67.05 M-1.78 67.77 C19.51 49.12, 35.35 34.35, 71.79 1.75 M0.18 68.44 C24.45 45.4, 47.84 22.29, 71.19 -0.82" stroke="#000000" stroke-width="1" fill="none"></path></g><g stroke-linecap="round" transform="translate(47.5 1285) rotate(0 117.5 90)"><path d="M119.36 -1.52 C162.24 35.43, 208.61 71.59, 235.83 90.33 M118.32 0.12 C144.48 20.37, 172.07 39.98, 235.93 90.65 M233.34 89.31 C196.68 121.21, 160.35 149.92, 116.07 178.39 M234.67 90.91 C207.84 110.59, 180.78 132.86, 118.23 179.86 M117.35 181.33 C83.5 153.85, 51.17 130.27, -0.94 90.04 M117.47 180.79 C75.03 148.38, 31.05 114.95, 0.47 89.17 M-1.12 88.12 C27.19 68.37, 50.58 52.49, 118.06 -1.69 M-0.8 89.7 C26.31 70.02, 52.42 49.92, 118.31 -0.75" stroke="#000000" stroke-width="1" fill="none"></path></g><g transform="translate(25 598.5) rotate(0 104 25.5)"><text x="0" y="18.5" font-family="Virgil, Segoe UI Emoji" font-size="20px" fill="#000000" text-anchor="start" style="white-space: pre;" direction="ltr">Proof of capabilities,</text><text x="0" y="44" font-family="Virgil, Segoe UI Emoji" font-size="20px" fill="#000000" text-anchor="start" style="white-space: pre;" direction="ltr">experience gains</text></g><g stroke-linecap="round" transform="translate(1517.5 157.5) rotate(0 38.75 38.75)"><path d="M40.26 0.38 C50.61 11.47, 64.08 22.29, 76.26 40.12 M38.87 0.19 C52.61 12.43, 65.27 26.82, 76.82 39.77 M77.64 39.78 C64.71 50, 53.01 62.6, 40.01 76.53 M78.22 38.47 C64.18 53.18, 49.28 66.21, 39.64 77.76 M37.39 77.98 C23.52 61.02, 11.08 48.42, 1.41 37.74 M39.22 77.9 C27.59 65.76, 13.23 52.62, 0.82 38.69 M-1.87 39.45 C14.56 27.89, 25.24 12.95, 37.9 0.19 M-0.83 39.91 C10.67 27.1, 22.53 15.37, 38.74 -0.42" stroke="#000000" stroke-width="1" fill="none"></path></g><g stroke-linecap="round" transform="translate(1503 141.5) rotate(0 53.75 53.74999999999999)"><path d="M52.82 -0.7 C74.03 19.51, 92.84 36.55, 107.51 54.76 M53.99 0.33 C70.04 17.2, 86.88 32.41, 106.77 54.53 M108.73 52.88 C91.92 69.51, 72.6 86.77, 53.85 105.63 M106.57 53.34 C94.08 66.58, 79.86 80.48, 53.22 108.47 M55.7 107.16 C33.76 88.43, 18.4 70.6, -0.72 54.05 M53.31 107.52 C41.13 95.87, 28.08 81.66, -0.94 54.48 M0.65 52.05 C18.08 36.35, 36.77 14.67, 53.97 -1.1 M-0.63 54.74 C12.85 41.77, 25.05 28.09, 54.87 -0.07" stroke="#000000" stroke-width="1" fill="none"></path></g><g transform="translate(1622.5 171) rotate(0 76.0769230769231 22.999999999999993)"><text x="0" y="32.999999999999986" font-family="Virgil, Segoe UI Emoji" font-size="35.38461538461538px" fill="#000000" text-anchor="start" style="white-space: pre;" direction="ltr">= Inputs</text></g><g stroke-linecap="round" transform="translate(1510 277.5) rotate(0 47.5 28.75)"><path d="M-0.92 0.01 C29.14 -0.32, 57.73 -1.59, 95.82 0.95 M0.52 0 C24.26 1.15, 49.75 1.44, 94.69 0.36 M94.76 -1.68 C97.28 16.27, 94.27 37.35, 94.91 55.74 M95.84 0.24 C93.58 17.69, 94.59 37.57, 95.34 58.17 M94.31 56.56 C72.34 58.4, 50.07 58.59, -1.72 58.89 M94.92 56.81 C69.18 57.82, 44.41 56.84, -0.26 58.06 M1.31 59.28 C1.72 42.1, -1.66 25.31, -1.04 0.3 M0.67 58.03 C-0.9 44.54, -0.26 33.96, -0.43 -0.79" stroke="#000000" stroke-width="1" fill="none"></path></g><g transform="translate(1622.5 278.5) rotate(0 65 21.5)"><text x="0" y="30" font-family="Virgil, Segoe UI Emoji" font-size="33.46153846153847px" fill="#000000" text-anchor="start" style="white-space: pre;" direction="ltr">= Steps</text></g><g transform="translate(1627.5 388.5) rotate(0 66 21.5)"><text x="0" y="30" font-family="Virgil, Segoe UI Emoji" font-size="33.46153846153847px" fill="#000000" text-anchor="start" style="white-space: pre;" direction="ltr">= Goals</text></g><g stroke-linecap="round" transform="translate(1505 365) rotate(0 50 47.5)"><path d="M36.09 2.49 C44.01 -0.57, 54.98 -1.33, 63.42 0.95 C71.87 3.24, 80.64 9.77, 86.76 16.2 C92.88 22.63, 98.68 31.05, 100.14 39.53 C101.59 48.02, 99.18 59.19, 95.49 67.09 C91.8 74.98, 85.26 82.37, 77.99 86.93 C70.72 91.48, 60.72 94.07, 51.89 94.4 C43.06 94.73, 32.6 93.05, 25.03 88.9 C17.47 84.74, 10.64 77.11, 6.5 69.46 C2.36 61.8, -0.25 51.36, 0.21 42.98 C0.66 34.61, 4.02 25.86, 9.24 19.2 C14.45 12.53, 26.61 5.98, 31.52 2.99 C36.42 0, 37.12 1.3, 38.67 1.26 C40.23 1.21, 40.64 2.02, 40.84 2.71 M33.37 1.98 C41.28 -1.53, 52.52 -1.19, 61.42 0.72 C70.31 2.62, 80.31 7.03, 86.75 13.41 C93.19 19.8, 98.4 30.66, 100.07 39.02 C101.75 47.38, 100.22 55.63, 96.79 63.58 C93.37 71.52, 86.81 81.56, 79.52 86.7 C72.23 91.85, 61.8 94.13, 53.06 94.44 C44.32 94.74, 34.95 92.16, 27.05 88.53 C19.16 84.9, 9.98 79.72, 5.68 72.65 C1.39 65.59, 0.63 54.83, 1.28 46.15 C1.94 37.48, 4.59 27.86, 9.62 20.6 C14.66 13.35, 27.63 5.62, 31.49 2.62 C35.35 -0.38, 32.41 2.46, 32.79 2.61 C33.17 2.75, 33.07 2.78, 33.76 3.49" stroke="#000000" stroke-width="1" fill="none"></path></g><g stroke-linecap="round" transform="translate(1492.5 355) rotate(0 62.5 58.75)"><path d="M51.2 0.62 C60.6 -2, 73.48 0.08, 82.98 3.29 C92.48 6.5, 101.59 13.08, 108.22 19.9 C114.85 26.71, 120.5 35.16, 122.77 44.18 C125.04 53.2, 124.45 64.74, 121.85 74.04 C119.25 83.34, 113.96 93.03, 107.16 99.98 C100.36 106.93, 90.62 112.95, 81.05 115.76 C71.48 118.56, 59.61 118.76, 49.74 116.8 C39.88 114.83, 29.37 110.36, 21.84 103.96 C14.3 97.57, 8.16 87.48, 4.53 78.45 C0.9 69.41, -1.31 58.99, 0.07 49.74 C1.45 40.49, 6.61 30.62, 12.81 22.95 C19 15.29, 29.6 7.7, 37.24 3.76 C44.88 -0.18, 53.75 -0.35, 58.64 -0.69 C63.52 -1.02, 66.45 0.61, 66.57 1.73 M64.65 -1.43 C74.18 -1.93, 84.45 3.59, 93.09 8.78 C101.73 13.98, 111.08 21.81, 116.48 29.72 C121.87 37.63, 125.25 47.17, 125.46 56.23 C125.66 65.29, 122.5 75.78, 117.73 84.07 C112.96 92.36, 105.3 100.53, 96.84 105.96 C88.39 111.38, 77.14 115.7, 66.99 116.63 C56.84 117.57, 45.21 115.36, 35.94 111.55 C26.67 107.73, 17.33 101.03, 11.38 93.74 C5.42 86.45, 1.24 76.93, 0.22 67.83 C-0.79 58.73, 1.53 47.9, 5.29 39.15 C9.04 30.41, 15.37 21.57, 22.76 15.34 C30.15 9.11, 42.56 4.24, 49.62 1.78 C56.67 -0.69, 62.73 0.75, 65.08 0.58 C67.44 0.4, 64.09 0.04, 63.77 0.72" stroke="#000000" stroke-width="1" fill="none"></path></g><g stroke-linecap="round" transform="translate(97.5 750) rotate(0 98.75 76.25)"><path d="M97.4 0.55 C123.98 18.15, 149.66 38.53, 196.45 78.85 M98.17 0.48 C131.73 24.08, 165.08 49.54, 197.03 76.28 M199.24 75.01 C171.63 97.06, 144.97 120.93, 100 154.23 M196.85 76.41 C161.79 104.85, 127.2 130.79, 98.02 152.9 M97.8 152.68 C62.5 124.78, 26.54 99.19, -0.44 77.49 M98.36 151.77 C66.64 125.94, 32.31 101.73, -0.48 77.11 M0.02 75.39 C24.06 56.83, 48.93 38.86, 100.73 1.51 M-0.46 76.67 C33.86 51.99, 66.12 25.14, 98.12 -0.1" stroke="#000000" stroke-width="1" fill="none"></path></g><g stroke-linecap="round" transform="translate(77.5 727.5) rotate(0 118.75 98.75)"><path d="M118.24 -0.31 C151.49 27.48, 186.42 58.49, 238.34 100.32 M119.64 0.08 C155.3 30.04, 189.61 59.34, 237.36 99.11 M238.76 99.9 C191.79 140.59, 142.78 179.69, 117.04 195.52 M237.64 98.14 C201.91 129.1, 167.47 157.12, 119.9 198.24 M118.24 198.99 C87.53 173.81, 58.54 146.29, 0.39 99.34 M119.4 196.65 C77.57 162.14, 34.57 125.92, 0.41 99.2 M1.77 100.12 C39.01 70.66, 76.19 36.43, 117.14 -0.98 M0.38 98.82 C27.54 75.44, 56.53 52.88, 119.65 0.54" stroke="#000000" stroke-width="1" fill="none"></path></g><g transform="translate(152.5 801) rotate(0 55.5 25.5)"><text x="0" y="18.5" font-family="Virgil, Segoe UI Emoji" font-size="20px" fill="#000000" text-anchor="start" style="white-space: pre;" direction="ltr">Opportunity</text><text x="0" y="44" font-family="Virgil, Segoe UI Emoji" font-size="20px" fill="#000000" text-anchor="start" style="white-space: pre;" direction="ltr">costs</text></g><g stroke-linecap="round"><g transform="translate(263.01558220656506 782.6856668680906) rotate(0 68.1872667527055 -62.159626881515464)"><path d="M1.17 0.61 C23.93 -20.15, 113.61 -104.11, 136.04 -124.93 M0.33 -0.11 C23.03 -20.67, 112.98 -103.1, 135.46 -123.55" stroke="#000000" stroke-width="1" fill="none"></path></g><g transform="translate(263.01558220656506 782.6856668680906) rotate(0 68.1872667527055 -62.159626881515464)"><path d="M122.58 -95.79 C124.76 -103.29, 129.41 -111.88, 133.46 -123.97 M122.37 -96.04 C126.03 -104.12, 128.2 -111.62, 134.61 -124.29" stroke="#000000" stroke-width="1" fill="none"></path></g><g transform="translate(263.01558220656506 782.6856668680906) rotate(0 68.1872667527055 -62.159626881515464)"><path d="M108.74 -110.94 C114.47 -114.64, 122.71 -119.3, 133.46 -123.97 M108.53 -111.19 C116.04 -115.14, 121.95 -118.55, 134.61 -124.29" stroke="#000000" stroke-width="1" fill="none"></path></g></g><g stroke-linecap="round"><g transform="translate(142.11551665161429 569.159635281543) rotate(0 2.4276294162917367 -89.84734040591864)"><path d="M-0.38 0.29 C0.42 -29.85, 4.29 -150.05, 5.23 -179.99 M1.62 -0.6 C2.22 -30.61, 3.74 -148.32, 4.21 -178.45" stroke="#000000" stroke-width="1" fill="none"></path></g><g transform="translate(142.11551665161429 569.159635281543) rotate(0 2.4276294162917367 -89.84734040591864)"><path d="M14.56 -150.34 C10.58 -159.8, 8.33 -167.11, 6.06 -178.01 M13.3 -150.19 C11.43 -160.97, 7.2 -172.04, 5.16 -178.2" stroke="#000000" stroke-width="1" fill="none"></path></g><g transform="translate(142.11551665161429 569.159635281543) rotate(0 2.4276294162917367 -89.84734040591864)"><path d="M-5.96 -150.63 C-3.07 -159.92, 1.55 -167.14, 6.06 -178.01 M-7.22 -150.48 C-1.37 -160.95, 2.13 -171.91, 5.16 -178.2" stroke="#000000" stroke-width="1" fill="none"></path></g></g><g stroke-linecap="round" transform="translate(35.995798319327605 304.15963528154305) rotate(0 117.5 41.25)"><path d="M-1.41 1.36 C56.91 -1.28, 115.48 -0.58, 234.15 -1.17 M-0.84 0.09 C69.49 1.53, 139.72 1.6, 234.89 0.32 M233.85 -1.99 C235.17 19.18, 235.64 42.38, 236.37 83.44 M235.96 -0.17 C234.61 27.36, 235.26 56.47, 235.1 83.14 M235.33 81.29 C152.76 82.7, 69.54 85.4, -0.52 82.88 M235.52 81.66 C175.75 83.01, 117.42 82.57, -0.25 83.34 M0.34 81.91 C1.17 54.87, 1.64 29.6, -0.7 -0.51 M-0.71 81.67 C0.25 50.46, 0.57 16.22, -0.67 0.39" stroke="#000000" stroke-width="1" fill="none"></path></g><g transform="translate(70.9957983193276 330.15963528154305) rotate(0 81.5 13)"><text x="0" y="18" font-family="Virgil, Segoe UI Emoji" font-size="20px" fill="#000000" text-anchor="start" style="white-space: pre;" direction="ltr">Legible expertise</text></g><g stroke-linecap="round"><g transform="translate(358.49579831932755 1106.6596352815432) rotate(0 75.36386699415743 1.2270149874873368)"><path d="M-0.34 -0.34 C24.81 -0.12, 126.11 1.91, 151.06 2.49 M1.69 -1.56 C26.75 -0.63, 126.24 3.57, 150.67 4.02" stroke="#000000" stroke-width="1" fill="none"></path></g><g transform="translate(358.49579831932755 1106.6596352815432) rotate(0 75.36386699415743 1.2270149874873368)"><path d="M121.61 15.14 C131.04 9.44, 141.1 5.58, 149.2 3.39 M122.84 14.03 C134.03 10.24, 144.44 5.08, 150.71 3.92" stroke="#000000" stroke-width="1" fill="none"></path></g><g transform="translate(358.49579831932755 1106.6596352815432) rotate(0 75.36386699415743 1.2270149874873368)"><path d="M122.26 -5.37 C131.69 -4.6, 141.54 -2, 149.2 3.39 M123.5 -6.48 C134.47 -2.17, 144.62 0.77, 150.71 3.92" stroke="#000000" stroke-width="1" fill="none"></path></g></g><g stroke-linecap="round" transform="translate(508.49579831932755 1061.6596352815432) rotate(0 56.25 51.25)"><path d="M36.89 2.61 C45.27 -0.99, 57.21 -0.23, 66.56 1.37 C75.91 2.98, 85.94 6.38, 93 12.22 C100.07 18.07, 105.98 27.99, 108.95 36.45 C111.92 44.91, 112.66 54.59, 110.83 62.96 C108.99 71.33, 104.5 80.46, 97.96 86.68 C91.42 92.91, 80.98 97.96, 71.59 100.3 C62.21 102.64, 50.98 102.81, 41.66 100.74 C32.34 98.67, 22.24 94.15, 15.67 87.89 C9.11 81.64, 4.53 71.82, 2.26 63.2 C0 54.58, -0.64 44.53, 2.06 36.18 C4.75 27.82, 12.16 18.86, 18.44 13.07 C24.72 7.27, 35.45 3.16, 39.71 1.41 C43.98 -0.34, 43.51 1.51, 44.02 2.56 M62.05 1.65 C71.1 1.18, 81.28 3.34, 88.93 8.32 C96.57 13.3, 104.14 23.44, 107.92 31.53 C111.7 39.62, 112.95 48.44, 111.62 56.84 C110.29 65.24, 105.98 74.89, 99.94 81.92 C93.9 88.96, 84.12 95.55, 75.38 99.05 C66.63 102.55, 56.73 104.38, 47.47 102.94 C38.21 101.49, 27.38 95.98, 19.81 90.39 C12.25 84.8, 5.42 77.54, 2.1 69.41 C-1.23 61.28, -2.39 50.63, -0.16 41.62 C2.07 32.62, 8.77 21.99, 15.46 15.39 C22.15 8.79, 32.63 4.53, 39.99 2.02 C47.36 -0.49, 55.96 0.34, 59.67 0.33 C63.38 0.33, 62.25 1.39, 62.25 1.97" stroke="#000000" stroke-width="1" fill="none"></path></g><g transform="translate(543.4957983193276 1100.1596352815432) rotate(0 16 13)"><text x="0" y="18" font-family="Virgil, Segoe UI Emoji" font-size="20px" fill="#000000" text-anchor="start" style="white-space: pre;" direction="ltr">Fun</text></g><g stroke-linecap="round"><g transform="translate(448.4957983193276 929.159635281543) rotate(0 52.429556920819515 64.50879596087583)"><path d="M0.89 -0.16 C18.37 21.33, 87.42 107.67, 104.96 129.19 M-0.1 -1.29 C17.22 20.31, 86.32 108.47, 103.98 130.31" stroke="#000000" stroke-width="1" fill="none"></path></g><g transform="translate(448.4957983193276 929.159635281543) rotate(0 52.429556920819515 64.50879596087583)"><path d="M78.15 114.55 C84.93 121.05, 92.36 124.98, 104.98 128.58 M78.52 115.58 C86.63 119.05, 92.89 124.84, 103.74 129.54" stroke="#000000" stroke-width="1" fill="none"></path></g><g transform="translate(448.4957983193276 929.159635281543) rotate(0 52.429556920819515 64.50879596087583)"><path d="M94.21 101.78 C96.11 112.31, 98.61 120.15, 104.98 128.58 M94.58 102.81 C97.83 110, 99.23 119.66, 103.74 129.54" stroke="#000000" stroke-width="1" fill="none"></path></g></g><g stroke-linecap="round" transform="translate(498.49579831932755 1044.1596352815432) rotate(0 67.5 68.75)"><path d="M39.78 5.93 C48.09 0.76, 58.74 0.44, 69.07 0.87 C79.4 1.31, 92.64 3.57, 101.74 8.56 C110.83 13.54, 118.11 22.01, 123.65 30.76 C129.18 39.51, 133.7 50.43, 134.96 61.06 C136.22 71.7, 134.91 84.58, 131.19 94.57 C127.46 104.55, 120.48 114.27, 112.63 120.99 C104.79 127.72, 94.39 132.64, 84.09 134.91 C73.79 137.19, 60.99 136.86, 50.82 134.64 C40.64 132.42, 30.63 128.39, 23.03 121.59 C15.43 114.8, 8.95 103.78, 5.21 93.88 C1.48 83.97, -0.38 72.48, 0.64 62.14 C1.66 51.8, 5.81 40.83, 11.31 31.86 C16.82 22.88, 28.17 12.86, 33.67 8.29 C39.17 3.73, 41.37 5.16, 44.32 4.46 C47.26 3.76, 50.84 3.05, 51.33 4.12 M51.82 1.08 C61.04 -2.01, 74.23 -0.11, 84.13 2.38 C94.02 4.88, 103.38 9.09, 111.22 16.04 C119.05 23, 127.03 33.97, 131.15 44.09 C135.26 54.22, 137.4 66.25, 135.92 76.77 C134.45 87.29, 128.23 98.35, 122.31 107.21 C116.4 116.07, 109.14 124.85, 100.44 129.93 C91.74 135.01, 80.68 137.43, 70.12 137.68 C59.56 137.93, 46.71 136.03, 37.08 131.44 C27.46 126.86, 18.36 118.86, 12.34 110.18 C6.33 101.51, 2.73 89.68, 1 79.39 C-0.74 69.09, -1 58.33, 1.91 48.39 C4.83 38.45, 10.87 27.15, 18.49 19.75 C26.12 12.35, 41.84 7.14, 47.66 3.97 C53.48 0.8, 52.56 0.94, 53.42 0.76 C54.28 0.58, 52.74 1.5, 52.8 2.89" stroke="#000000" stroke-width="1" fill="none"></path></g><g stroke-linecap="round"><g transform="translate(568.4957983193276 636.659635281543) rotate(0 -4.639002464981743 209.8630840983242)"><path d="M-0.43 -0.91 C-2.33 69.1, -9.14 350.32, -10.82 420.63 M1.54 1.23 C-0.02 70.84, -6.36 349.19, -8.54 418.84" stroke="#000000" stroke-width="1" fill="none"></path></g><g transform="translate(568.4957983193276 636.659635281543) rotate(0 -4.639002464981743 209.8630840983242)"><path d="M-19.57 389.02 C-13.56 399.44, -9.71 410.13, -7.6 417.94 M-18.51 390.33 C-14.77 399.37, -12.58 410.29, -8.57 419.74" stroke="#000000" stroke-width="1" fill="none"></path></g><g transform="translate(568.4957983193276 636.659635281543) rotate(0 -4.639002464981743 209.8630840983242)"><path d="M0.95 389.57 C-0.16 399.72, -3.43 410.22, -7.6 417.94 M2.01 390.87 C-1.26 399.66, -6.09 410.4, -8.57 419.74" stroke="#000000" stroke-width="1" fill="none"></path></g></g><g stroke-linecap="round"><g transform="translate(153.23885810451264 296.65963528154305) rotate(0 -2.727068942290046 -55.57799963775879)"><path d="M0.48 0.09 C-0.5 -18.51, -5.09 -92.7, -5.94 -111.25 M-0.72 -0.91 C-1.34 -19.39, -3.07 -91.84, -3.82 -110.06" stroke="#000000" stroke-width="1" fill="none"></path></g><g transform="translate(153.23885810451264 296.65963528154305) rotate(0 -2.727068942290046 -55.57799963775879)"><path d="M7.47 -84.09 C2.86 -89.98, -0.38 -98.25, -1.9 -108.12 M7.51 -82.4 C2.59 -91.42, 0.46 -100.95, -3.38 -110.01" stroke="#000000" stroke-width="1" fill="none"></path></g><g transform="translate(153.23885810451264 296.65963528154305) rotate(0 -2.727068942290046 -55.57799963775879)"><path d="M-13.04 -83.45 C-11.62 -89.61, -8.82 -98.07, -1.9 -108.12 M-13 -81.75 C-10.94 -91.17, -6.09 -100.92, -3.38 -110.01" stroke="#000000" stroke-width="1" fill="none"></path></g></g><g transform="translate(123.49579831932758 127.65963528154305) rotate(0 28 13)"><text x="0" y="18" font-family="Virgil, Segoe UI Emoji" font-size="20px" fill="#000000" text-anchor="start" style="white-space: pre;" direction="ltr">Money</text></g><g stroke-linecap="round" transform="translate(105.99579831932758 94.15963528154305) rotate(0 46.25 45)"><path d="M31.43 1.37 C38.84 -1.72, 50.06 -0.12, 58.24 2.28 C66.41 4.68, 74.88 9.82, 80.49 15.76 C86.11 21.71, 90.82 29.82, 91.93 37.94 C93.04 46.05, 90.74 56.95, 87.16 64.45 C83.58 71.95, 77.67 78.56, 70.46 82.93 C63.25 87.3, 52.48 91.05, 43.92 90.68 C35.36 90.31, 25.96 85.6, 19.11 80.69 C12.26 75.79, 5.69 68.88, 2.84 61.24 C-0.01 53.61, 0.07 42.91, 2 34.89 C3.93 26.87, 8.66 18.63, 14.41 13.12 C20.15 7.6, 32.21 3.71, 36.47 1.8 C40.73 -0.12, 39.97 1.1, 39.96 1.63 M33.97 1.43 C41.35 -0.77, 52.57 1.11, 60.51 3.73 C68.45 6.35, 76.41 10.72, 81.61 17.15 C86.81 23.57, 90.86 34.21, 91.73 42.26 C92.6 50.31, 90.98 58.34, 86.81 65.45 C82.63 72.57, 73.92 80.78, 66.69 84.93 C59.45 89.08, 51.77 91.3, 43.41 90.37 C35.04 89.44, 23.23 84.61, 16.48 79.33 C9.73 74.05, 5.18 66.25, 2.91 58.69 C0.65 51.13, 0.72 41.93, 2.89 33.97 C5.07 26.01, 10.88 16.2, 15.96 10.92 C21.05 5.63, 30.35 3.52, 33.41 2.24 C36.48 0.97, 33.83 2.84, 34.37 3.27" stroke="#000000" stroke-width="1" fill="none"></path></g><g stroke-linecap="round" transform="translate(98.49579831932758 84.15963528154305) rotate(0 53.75 53.75)"><path d="M64.05 0.2 C72.64 1.14, 82.07 7.58, 88.78 13.8 C95.49 20.02, 101.28 28.83, 104.29 37.51 C107.31 46.2, 108.84 57.16, 106.86 65.92 C104.89 74.69, 98.8 83.34, 92.44 90.08 C86.07 96.83, 77.62 103.71, 68.67 106.38 C59.73 109.05, 47.64 108.62, 38.76 106.1 C29.88 103.58, 21.61 97.92, 15.37 91.26 C9.14 84.59, 3.64 75.21, 1.35 66.11 C-0.95 57.01, -1 45.31, 1.6 36.67 C4.2 28.04, 9.87 20.41, 16.97 14.3 C24.07 8.19, 35.79 1.93, 44.19 0 C52.58 -1.93, 62.92 1.99, 67.32 2.71 C71.71 3.43, 70.67 3.61, 70.57 4.35 M68.69 2.12 C77.19 4.09, 87.49 11.75, 93.75 18.43 C100.01 25.12, 104.46 33.36, 106.24 42.25 C108.02 51.15, 107.68 62.93, 104.42 71.82 C101.17 80.72, 93.89 89.59, 86.71 95.61 C79.52 101.62, 70.37 106.42, 61.33 107.92 C52.3 109.42, 40.86 108.37, 32.5 104.63 C24.14 100.89, 16.55 92.97, 11.17 85.46 C5.78 77.94, 1.14 68.71, 0.19 59.56 C-0.77 50.4, 1.75 38.93, 5.43 30.53 C9.12 22.12, 15.04 14.15, 22.3 9.15 C29.56 4.14, 41.02 1.72, 48.99 0.5 C56.97 -0.72, 66.98 1.22, 70.17 1.82 C73.35 2.43, 68.68 3.27, 68.09 4.15" stroke="#000000" stroke-width="1" fill="none"></path></g><g stroke-linecap="round"><g transform="translate(259.13747884900397 1075.6314752153853) rotate(0 80.88594149445179 -73.94586929678917)"><path d="M0.35 -0.51 C27.46 -24.9, 135.64 -123.08, 162.7 -147.38 M-0.93 -1.83 C26.1 -26, 134.98 -122.47, 162.2 -146.32" stroke="#000000" stroke-width="1" fill="none"></path></g><g transform="translate(259.13747884900397 1075.6314752153853) rotate(0 80.88594149445179 -73.94586929678917)"><path d="M146.98 -118.57 C150.88 -126.56, 156.98 -136.97, 161.99 -146.64 M147.49 -120.57 C153.21 -128.68, 157.51 -138.91, 162.66 -147.29" stroke="#000000" stroke-width="1" fill="none"></path></g><g transform="translate(259.13747884900397 1075.6314752153853) rotate(0 80.88594149445179 -73.94586929678917)"><path d="M133.41 -133.96 C141.26 -137.36, 151.45 -143.13, 161.99 -146.64 M133.92 -135.96 C144.2 -138.71, 153.17 -143.65, 162.66 -147.29" stroke="#000000" stroke-width="1" fill="none"></path></g></g><g stroke-linecap="round"><g transform="translate(275.9957983193276 340.14998665336094) rotate(0 242.15777603450232 -0.9684063192198096)"><path d="M0.04 -0.16 C80.87 -0.5, 404.87 -1.61, 485.72 -1.78 M-1.4 -1.28 C79.27 -1.47, 404.17 -0.67, 485.15 -0.41" stroke="#000000" stroke-width="1" fill="none"></path></g><g transform="translate(275.9957983193276 340.14998665336094) rotate(0 242.15777603450232 -0.9684063192198096)"><path d="M456.67 10.97 C466.5 6.38, 477.58 1.66, 485.15 -2.4 M456.14 9.8 C467.61 5.58, 478.51 2.41, 484.7 -0.73" stroke="#000000" stroke-width="1" fill="none"></path></g><g transform="translate(275.9957983193276 340.14998665336094) rotate(0 242.15777603450232 -0.9684063192198096)"><path d="M456.73 -9.55 C466.58 -6.78, 477.64 -4.13, 485.15 -2.4 M456.19 -10.73 C467.7 -7.4, 478.58 -3.02, 484.7 -0.73" stroke="#000000" stroke-width="1" fill="none"></path></g></g></svg>