<svg version="1.1" xmlns="http://www.w3.org/2000/svg" viewBox="0 0 2162.678249319234 1782.2301755427634" width="2162.678249319234" height="1782.2301755427634">
  <!-- svg-source:excalidraw -->
  
  <defs>
    <style>
      @font-face {
        font-family: "Virgil";
        src: url("https://excalidraw.com/Virgil.woff2");
      }
      @font-face {
        font-family: "Cascadia";
        src: url("https://excalidraw.com/Cascadia.woff2");
      }
    </style>
  </defs>
  <rect x="0" y="0" width="2162.678249319234" height="1782.2301755427634" fill="#ffffff"></rect><g transform="translate(394.1984126984126 739.8620330465287) rotate(0 71.50961538461537 16.75)"><text x="71.50961538461537" y="23.5" font-family="Virgil, Segoe UI Emoji" font-size="25.769230769230766px" fill="#862e9c" text-anchor="middle" style="white-space: pre;" direction="ltr">Forecasting</text></g><g stroke-linecap="round"><g transform="translate(582.6183793991911 763.0910574835311) rotate(0 96.49635210304336 -61.31999897682741)"><path d="M0 0 C32.17 -20.44, 160.83 -102.2, 192.99 -122.64 M0 0 C32.17 -20.44, 160.83 -102.2, 192.99 -122.64" stroke="#364fc7" stroke-width="4" fill="none"></path></g><g transform="translate(582.6183793991911 763.0910574835311) rotate(0 96.49635210304336 -61.31999897682741)"><path d="M174.7 -98.86 C181.75 -108.02, 188.8 -117.19, 192.99 -122.64 M174.7 -98.86 C179.17 -104.67, 183.64 -110.47, 192.99 -122.64" stroke="#364fc7" stroke-width="4" fill="none"></path></g><g transform="translate(582.6183793991911 763.0910574835311) rotate(0 96.49635210304336 -61.31999897682741)"><path d="M163.7 -116.18 C174.99 -118.67, 186.28 -121.16, 192.99 -122.64 M163.7 -116.18 C170.85 -117.76, 178.01 -119.34, 192.99 -122.64" stroke="#364fc7" stroke-width="4" fill="none"></path></g></g><g stroke-linecap="round"><g transform="translate(577.5758444999428 760.180857449207) rotate(0 100.44959931278908 9.433574010236981)"><path d="M0 0 C33.48 3.14, 167.42 15.72, 200.9 18.87 M0 0 C33.48 3.14, 167.42 15.72, 200.9 18.87" stroke="#364fc7" stroke-width="4" fill="none"></path></g><g transform="translate(577.5758444999428 760.180857449207) rotate(0 100.44959931278908 9.433574010236981)"><path d="M171.87 26.45 C180.44 24.21, 189 21.97, 200.9 18.87 M171.87 26.45 C180.49 24.2, 189.11 21.95, 200.9 18.87" stroke="#364fc7" stroke-width="4" fill="none"></path></g><g transform="translate(577.5758444999428 760.180857449207) rotate(0 100.44959931278908 9.433574010236981)"><path d="M173.79 6.02 C181.79 9.81, 189.79 13.6, 200.9 18.87 M173.79 6.02 C181.84 9.83, 189.89 13.65, 200.9 18.87" stroke="#364fc7" stroke-width="4" fill="none"></path></g></g><g transform="translate(788.531746031746 758.3620330465287) rotate(0 75.5 25.5)"><text x="75.5" y="18.5" font-family="Virgil, Segoe UI Emoji" font-size="20px" fill="#364fc7" text-anchor="middle" style="white-space: pre;" direction="ltr">Changing other </text><text x="75.5" y="44" font-family="Virgil, Segoe UI Emoji" font-size="20px" fill="#364fc7" text-anchor="middle" style="white-space: pre;" direction="ltr">decisions</text></g><g transform="translate(786.6984126984125 1363.8620330465287) rotate(0 8 13)"><text x="8" y="18" font-family="Virgil, Segoe UI Emoji" font-size="20px" fill="#000000" text-anchor="middle" style="white-space: pre;" direction="ltr">...</text></g><g stroke-linecap="round" transform="translate(1492.521353698714 952.0870715965686) rotate(0 92.99433962264152 89.35094339622651)"><path d="M130.27 7.49 C141.66 12.28, 152.87 19.95, 161.3 28.72 C169.73 37.49, 176.8 48.83, 180.87 60.11 C184.93 71.39, 186.68 84.51, 185.7 96.41 C184.72 108.31, 180.84 121, 174.98 131.52 C169.11 142.05, 160.27 152.18, 150.51 159.56 C140.74 166.95, 128.42 172.82, 116.39 175.83 C104.37 178.83, 90.62 179.47, 78.35 177.59 C66.08 175.71, 53.22 171, 42.77 164.55 C32.31 158.1, 22.5 148.83, 15.6 138.89 C8.71 128.96, 3.59 116.69, 1.42 104.93 C-0.74 93.18, -0.32 79.96, 2.6 68.36 C5.52 56.75, 11.43 44.81, 18.94 35.3 C26.46 25.79, 36.85 17.13, 47.7 11.31 C58.56 5.5, 71.69 1.56, 84.06 0.41 C96.43 -0.73, 110.11 0.72, 121.92 4.43 C133.73 8.14, 145.65 14.74, 154.92 22.69 C164.19 30.64, 172.36 41.28, 177.54 52.13" stroke="#5c940d" stroke-width="4" fill="none"></path></g><g transform="translate(1504.768624764787 1007.2293909347418) rotate(0.6675957748287075 80.5 36)"><text x="80.5" y="25" font-family="Virgil, Segoe UI Emoji" font-size="28.02243094140576px" fill="#5c940d" text-anchor="middle" style="white-space: pre;" direction="ltr">Good things</text><text x="80.5" y="61" font-family="Virgil, Segoe UI Emoji" font-size="28.02243094140576px" fill="#5c940d" text-anchor="middle" style="white-space: pre;" direction="ltr">happen</text></g><g transform="translate(792.6984126984125 608.8620330465287) rotate(0 75 38.5)"><text x="75" y="17.666666666666668" font-family="Virgil, Segoe UI Emoji" font-size="20px" fill="#364fc7" text-anchor="middle" style="white-space: pre;" direction="ltr">Influencing</text><text x="75" y="43.333333333333336" font-family="Virgil, Segoe UI Emoji" font-size="20px" fill="#364fc7" text-anchor="middle" style="white-space: pre;" direction="ltr">the forecasted</text><text x="75" y="69" font-family="Virgil, Segoe UI Emoji" font-size="20px" fill="#364fc7" text-anchor="middle" style="white-space: pre;" direction="ltr">event</text></g><g transform="translate(387.6984126984126 963.8620330465287) rotate(0 66 38.5)"><text x="66" y="17.666666666666668" font-family="Virgil, Segoe UI Emoji" font-size="20px" fill="#364fc7" text-anchor="middle" style="white-space: pre;" direction="ltr">Identifying/</text><text x="66" y="43.333333333333336" font-family="Virgil, Segoe UI Emoji" font-size="20px" fill="#364fc7" text-anchor="middle" style="white-space: pre;" direction="ltr">creating good</text><text x="66" y="69" font-family="Virgil, Segoe UI Emoji" font-size="20px" fill="#364fc7" text-anchor="middle" style="white-space: pre;" direction="ltr">forecasters</text></g><g stroke-linecap="round" transform="translate(369.6984126984126 685.8620330465287) rotate(0 95 74)"><path d="M96 0 C127.57 24.86, 159.15 49.71, 190 74 M96 0 C130.33 27.02, 164.66 54.05, 190 74 M190 74 C152.51 103.52, 115.01 133.03, 96 148 M190 74 C157.11 99.89, 124.22 125.78, 96 148 M96 148 C63.32 122.81, 30.65 97.62, 0 74 M96 148 C76.5 132.97, 57.01 117.94, 0 74 M0 74 C22.41 56.73, 44.81 39.46, 96 0 M0 74 C21.43 57.48, 42.85 40.97, 96 0" stroke="#862e9c" stroke-width="4" fill="none"></path></g><g stroke-linecap="round" transform="translate(777.6984126984125 591.3620330465287) rotate(0 95 56)"><path d="M0 0 C38.35 0, 76.7 0, 190 0 M0 0 C71.77 0, 143.55 0, 190 0 M190 0 C190 40.99, 190 81.98, 190 112 M190 0 C190 26.03, 190 52.07, 190 112 M190 112 C130.86 112, 71.73 112, 0 112 M190 112 C117.86 112, 45.72 112, 0 112 M0 112 C0 88.25, 0 64.51, 0 0 M0 112 C0 74.81, 0 37.61, 0 0" stroke="#364fc7" stroke-width="4" fill="none"></path></g><g stroke-linecap="round" transform="translate(782.6984126984125 743.3620330465287) rotate(0 79.16666666666663 41)"><path d="M0 0 C56.79 0, 113.59 0, 158.33 0 M0 0 C55.9 0, 111.8 0, 158.33 0 M158.33 0 C158.33 23.17, 158.33 46.34, 158.33 82 M158.33 0 C158.33 19.4, 158.33 38.8, 158.33 82 M158.33 82 C107.77 82, 57.21 82, 0 82 M158.33 82 C102.2 82, 46.07 82, 0 82 M0 82 C0 57.33, 0 32.66, 0 0 M0 82 C0 51.05, 0 20.1, 0 0" stroke="#364fc7" stroke-width="4" fill="none"></path></g><g stroke-linecap="round" transform="translate(374.1984126984126 938.8620330465287) rotate(0 82.99999999999999 62.25)"><path d="M0 0 C55.54 0, 111.08 0, 166 0 M0 0 C54.43 0, 108.86 0, 166 0 M166 0 C166 42.22, 166 84.45, 166 124.5 M166 0 C166 47, 166 93.99, 166 124.5 M166 124.5 C118.51 124.5, 71.01 124.5, 0 124.5 M166 124.5 C107.52 124.5, 49.04 124.5, 0 124.5 M0 124.5 C0 96.95, 0 69.39, 0 0 M0 124.5 C0 96.52, 0 68.54, 0 0" stroke="#364fc7" stroke-width="4" fill="none"></path></g><g stroke-linecap="round" transform="translate(371.69841269841254 500.86203304652867) rotate(0 100 51.5)"><path d="M0 0 C73.92 0, 147.84 0, 200 0 M0 0 C69.8 0, 139.6 0, 200 0 M200 0 C200 25.16, 200 50.32, 200 103 M200 0 C200 38.51, 200 77.03, 200 103 M200 103 C148.5 103, 96.99 103, 0 103 M200 103 C120.96 103, 41.92 103, 0 103 M0 103 C0 79.8, 0 56.59, 0 0 M0 103 C0 79.23, 0 55.47, 0 0" stroke="#000000" stroke-width="1" fill="none"></path></g><g transform="translate(387.88468720821646 513.3620330465287) rotate(0 81 37.5)"><text x="81" y="18" font-family="Virgil, Segoe UI Emoji" font-size="19.215686274509807px" fill="#000000" text-anchor="middle" style="white-space: pre;" direction="ltr">Sanity check</text><text x="81" y="43" font-family="Virgil, Segoe UI Emoji" font-size="19.215686274509807px" fill="#000000" text-anchor="middle" style="white-space: pre;" direction="ltr">on overconfidence</text><text x="81" y="68" font-family="Virgil, Segoe UI Emoji" font-size="19.215686274509807px" fill="#000000" text-anchor="middle" style="white-space: pre;" direction="ltr">&amp; other biases</text></g><g stroke-linecap="round" transform="translate(751.6984126984125 998.3620330465287) rotate(0 110 50)"><path d="M0 0 C54.83 0, 109.66 0, 220 0 M0 0 C55.98 0, 111.95 0, 220 0 M220 0 C220 33.8, 220 67.6, 220 100 M220 0 C220 21.49, 220 42.97, 220 100 M220 100 C146.86 100, 73.72 100, 0 100 M220 100 C136.47 100, 52.94 100, 0 100 M0 100 C0 74.24, 0 48.49, 0 0 M0 100 C0 71.09, 0 42.17, 0 0" stroke="#000000" stroke-width="1" fill="none"></path></g><g transform="translate(781.6984126984125 1179.3620330465287) rotate(0 82.5 25.5)"><text x="0" y="18.5" font-family="Virgil, Segoe UI Emoji" font-size="20px" fill="#000000" text-anchor="start" style="white-space: pre;" direction="ltr">Improving users' </text><text x="0" y="44" font-family="Virgil, Segoe UI Emoji" font-size="20px" fill="#000000" text-anchor="start" style="white-space: pre;" direction="ltr">epistemic health</text></g><g stroke-linecap="round"><g transform="translate(475.29727175568047 668.5339611322752) rotate(0 -0.7847060009184759 -31.765564618830297)"><path d="M0 0 C-0.26 -10.59, -1.31 -52.94, -1.57 -63.53 M0 0 C-0.26 -10.59, -1.31 -52.94, -1.57 -63.53" stroke="#000000" stroke-width="1" fill="none"></path></g><g transform="translate(475.29727175568047 668.5339611322752) rotate(0 -0.7847060009184759 -31.765564618830297)"><path d="M9.38 -35.6 C6.44 -43.11, 3.5 -50.62, -1.57 -63.53 M9.38 -35.6 C5.77 -44.82, 2.15 -54.04, -1.57 -63.53" stroke="#000000" stroke-width="1" fill="none"></path></g><g transform="translate(475.29727175568047 668.5339611322752) rotate(0 -0.7847060009184759 -31.765564618830297)"><path d="M-11.13 -35.1 C-8.56 -42.74, -5.99 -50.38, -1.57 -63.53 M-11.13 -35.1 C-7.97 -44.48, -4.82 -53.87, -1.57 -63.53" stroke="#000000" stroke-width="1" fill="none"></path></g></g><g stroke-linecap="round"><g transform="translate(577.4174288444538 760.3742587735989) rotate(0 86.36946035863366 147.453483050017)"><path d="M0 0 C28.79 49.15, 143.95 245.76, 172.74 294.91 M0 0 C28.79 49.15, 143.95 245.76, 172.74 294.91" stroke="#000000" stroke-width="1" fill="none"></path></g><g transform="translate(577.4174288444538 760.3742587735989) rotate(0 86.36946035863366 147.453483050017)"><path d="M149.64 275.77 C154.94 280.16, 160.25 284.56, 172.74 294.91 M149.64 275.77 C157.03 281.9, 164.43 288.03, 172.74 294.91" stroke="#000000" stroke-width="1" fill="none"></path></g><g transform="translate(577.4174288444538 760.3742587735989) rotate(0 86.36946035863366 147.453483050017)"><path d="M167.34 265.4 C168.58 272.17, 169.82 278.95, 172.74 294.91 M167.34 265.4 C169.07 274.85, 170.8 284.3, 172.74 294.91" stroke="#000000" stroke-width="1" fill="none"></path></g></g><g stroke-linecap="round" transform="translate(759.6984126984125 1341.3620330465285) rotate(0 107 37.00000000000006)"><path d="M0 0 C62.11 0, 124.22 0, 214 0 M0 0 C84.81 0, 169.62 0, 214 0 M214 0 C214 28.92, 214 57.85, 214 74 M214 0 C214 23.41, 214 46.81, 214 74 M214 74 C137.89 74, 61.78 74, 0 74 M214 74 C129.44 74, 44.87 74, 0 74 M0 74 C0 51.61, 0 29.23, 0 0 M0 74 C0 48.65, 0 23.3, 0 0" stroke="#000000" stroke-width="1" fill="none"></path></g><g stroke-linecap="round"><g transform="translate(574.5821347179052 762.5593552989972) rotate(0 92.47651041964194 313.8295089265677)"><path d="M0 0 C30.83 104.61, 154.13 523.05, 184.95 627.66 M0 0 C30.83 104.61, 154.13 523.05, 184.95 627.66" stroke="#000000" stroke-width="1" fill="none"></path></g><g transform="translate(574.5821347179052 762.5593552989972) rotate(0 92.47651041964194 313.8295089265677)"><path d="M167.14 603.52 C174.25 613.15, 181.35 622.78, 184.95 627.66 M167.14 603.52 C173.37 611.96, 179.61 620.41, 184.95 627.66" stroke="#000000" stroke-width="1" fill="none"></path></g><g transform="translate(574.5821347179052 762.5593552989972) rotate(0 92.47651041964194 313.8295089265677)"><path d="M186.83 597.72 C186.08 609.66, 185.33 621.6, 184.95 627.66 M186.83 597.72 C186.17 608.19, 185.52 618.67, 184.95 627.66" stroke="#000000" stroke-width="1" fill="none"></path></g></g><g stroke-linecap="round"><g transform="translate(466.37983148504634 853.6999065296227) rotate(0 -1.717937232240189 40.39693152586102)"><path d="M0 0 C-0.57 13.47, -2.86 67.33, -3.44 80.79 M0 0 C-0.57 13.47, -2.86 67.33, -3.44 80.79" stroke="#364fc7" stroke-width="4" fill="none"></path></g><g transform="translate(466.37983148504634 853.6999065296227) rotate(0 -1.717937232240189 40.39693152586102)"><path d="M-12.49 52.19 C-9.18 62.66, -5.86 73.13, -3.44 80.79 M-12.49 52.19 C-10.39 58.84, -8.28 65.49, -3.44 80.79" stroke="#364fc7" stroke-width="4" fill="none"></path></g><g transform="translate(466.37983148504634 853.6999065296227) rotate(0 -1.717937232240189 40.39693152586102)"><path d="M8.01 53.06 C3.82 63.21, -0.37 73.36, -3.44 80.79 M8.01 53.06 C5.35 59.51, 2.69 65.96, -3.44 80.79" stroke="#364fc7" stroke-width="4" fill="none"></path></g></g><g stroke-linecap="round"><g transform="translate(446.6013246681881 933.7752265925667) rotate(0 -0.03823970545751365 -48.1173171460035)"><path d="M0 0 C-0.01 -16.04, -0.06 -80.2, -0.08 -96.23 M0 0 C-0.01 -16.04, -0.06 -80.2, -0.08 -96.23" stroke="#364fc7" stroke-width="4" fill="none"></path></g><g transform="translate(446.6013246681881 933.7752265925667) rotate(0 -0.03823970545751365 -48.1173171460035)"><path d="M10.21 -68.05 C7.3 -76.02, 4.39 -83.98, -0.08 -96.23 M10.21 -68.05 C7.77 -74.72, 5.34 -81.39, -0.08 -96.23" stroke="#364fc7" stroke-width="4" fill="none"></path></g><g transform="translate(446.6013246681881 933.7752265925667) rotate(0 -0.03823970545751365 -48.1173171460035)"><path d="M-10.31 -68.04 C-7.42 -76, -4.53 -83.97, -0.08 -96.23 M-10.31 -68.04 C-7.89 -74.71, -5.47 -81.38, -0.08 -96.23" stroke="#364fc7" stroke-width="4" fill="none"></path></g></g><g stroke-linecap="round"><g transform="translate(970.8003972478211 646.5104802198969) rotate(0 56.95318951345973 -28.4292196774322)"><path d="M0 0 C18.98 -9.48, 94.92 -47.38, 113.91 -56.86 M0 0 C18.98 -9.48, 94.92 -47.38, 113.91 -56.86" stroke="#364fc7" stroke-width="4" fill="none"></path></g><g transform="translate(970.8003972478211 646.5104802198969) rotate(0 56.95318951345973 -28.4292196774322)"><path d="M93.27 -35.09 C100.27 -42.47, 107.27 -49.85, 113.91 -56.86 M93.27 -35.09 C101.06 -43.31, 108.85 -51.52, 113.91 -56.86" stroke="#364fc7" stroke-width="4" fill="none"></path></g><g transform="translate(970.8003972478211 646.5104802198969) rotate(0 56.95318951345973 -28.4292196774322)"><path d="M84.1 -53.45 C94.21 -54.6, 104.32 -55.76, 113.91 -56.86 M84.1 -53.45 C95.35 -54.74, 106.6 -56.02, 113.91 -56.86" stroke="#364fc7" stroke-width="4" fill="none"></path></g></g><g stroke-linecap="round"><g transform="translate(942.6194729896883 779.95711908433) rotate(0 70.61898814439775 -88.63430490283088)"><path d="M0 0 C23.54 -29.54, 117.7 -147.72, 141.24 -177.27 M0 0 C23.54 -29.54, 117.7 -147.72, 141.24 -177.27" stroke="#364fc7" stroke-width="4" fill="none"></path></g><g transform="translate(942.6194729896883 779.95711908433) rotate(0 70.61898814439775 -88.63430490283088)"><path d="M131.7 -148.83 C134.03 -155.77, 136.36 -162.72, 141.24 -177.27 M131.7 -148.83 C135.26 -159.46, 138.83 -170.1, 141.24 -177.27" stroke="#364fc7" stroke-width="4" fill="none"></path></g><g transform="translate(942.6194729896883 779.95711908433) rotate(0 70.61898814439775 -88.63430490283088)"><path d="M115.65 -161.61 C121.9 -165.44, 128.15 -169.26, 141.24 -177.27 M115.65 -161.61 C125.22 -167.47, 134.78 -173.32, 141.24 -177.27" stroke="#364fc7" stroke-width="4" fill="none"></path></g></g><g stroke-linecap="round" transform="translate(1089.5 537.7301755427634) rotate(0 107 51)"><path d="M0 0 C52.11 0, 104.22 0, 214 0 M0 0 C70.56 0, 141.12 0, 214 0 M214 0 C214 22.71, 214 45.42, 214 102 M214 0 C214 39.17, 214 78.35, 214 102 M214 102 C146.76 102, 79.53 102, 0 102 M214 102 C144.54 102, 75.09 102, 0 102 M0 102 C0 64.97, 0 27.94, 0 0 M0 102 C0 68.57, 0 35.14, 0 0" stroke="#364fc7" stroke-width="4" fill="none"></path></g><g transform="translate(1123.5 568.7301755427634) rotate(0 80.5 25.5)"><text x="0" y="18.5" font-family="Virgil, Segoe UI Emoji" font-size="20px" fill="#364fc7" text-anchor="start" style="white-space: pre;" direction="ltr">Better decisions</text><text x="0" y="44" font-family="Virgil, Segoe UI Emoji" font-size="20px" fill="#364fc7" text-anchor="start" style="white-space: pre;" direction="ltr"></text></g><g stroke-linecap="round"><g transform="translate(578.1913831819859 553.6388237648775) rotate(0 98.70765546233315 112.07920847304834)"><path d="M0 0 C32.9 37.36, 164.51 186.8, 197.42 224.16 M0 0 C32.9 37.36, 164.51 186.8, 197.42 224.16" stroke="#000000" stroke-width="1" fill="none"></path></g><g transform="translate(578.1913831819859 553.6388237648775) rotate(0 98.70765546233315 112.07920847304834)"><path d="M171.08 209.78 C179.07 214.15, 187.06 218.51, 197.42 224.16 M171.08 209.78 C180.22 214.77, 189.35 219.75, 197.42 224.16" stroke="#000000" stroke-width="1" fill="none"></path></g><g transform="translate(578.1913831819859 553.6388237648775) rotate(0 98.70765546233315 112.07920847304834)"><path d="M186.48 196.22 C189.8 204.7, 193.12 213.17, 197.42 224.16 M186.48 196.22 C190.27 205.91, 194.07 215.6, 197.42 224.16" stroke="#000000" stroke-width="1" fill="none"></path></g></g><g stroke-linecap="round"><g transform="translate(970.1811837210253 1052.2895631969227) rotate(0 106.32459740047682 -63.84222110977163)"><path d="M0 0 C35.44 -21.28, 177.21 -106.4, 212.65 -127.68 M0 0 C35.44 -21.28, 177.21 -106.4, 212.65 -127.68" stroke="#000000" stroke-width="1" fill="none"></path></g><g transform="translate(970.1811837210253 1052.2895631969227) rotate(0 106.32459740047682 -63.84222110977163)"><path d="M193.76 -104.38 C199.59 -111.56, 205.41 -118.75, 212.65 -127.68 M193.76 -104.38 C198.89 -110.71, 204.03 -117.04, 212.65 -127.68" stroke="#000000" stroke-width="1" fill="none"></path></g><g transform="translate(970.1811837210253 1052.2895631969227) rotate(0 106.32459740047682 -63.84222110977163)"><path d="M183.2 -121.97 C192.28 -123.73, 201.37 -125.49, 212.65 -127.68 M183.2 -121.97 C191.2 -123.52, 199.2 -125.08, 212.65 -127.68" stroke="#000000" stroke-width="1" fill="none"></path></g></g><g stroke-linecap="round" transform="translate(1086 810.2301755427634) rotate(0 114 58)"><path d="M0 0 C76.11 0, 152.22 0, 228 0 M0 0 C56.04 0, 112.08 0, 228 0 M228 0 C228 30.46, 228 60.91, 228 116 M228 0 C228 37.26, 228 74.52, 228 116 M228 116 C176.42 116, 124.84 116, 0 116 M228 116 C148.62 116, 69.25 116, 0 116 M0 116 C0 91.33, 0 66.66, 0 0 M0 116 C0 90.17, 0 64.35, 0 0" stroke="#000000" stroke-width="1" fill="none"></path></g><g transform="translate(1118.5 858.7301755427634) rotate(0 80.5 13)"><text x="0" y="18" font-family="Virgil, Segoe UI Emoji" font-size="20px" fill="#000000" text-anchor="start" style="white-space: pre;" direction="ltr">Better judgment</text></g><g stroke-linecap="round"><g transform="translate(573.8695448670994 770.1572692315679) rotate(0 88.30675299017906 212.29784137582396)"><path d="M0 0 C29.44 70.77, 147.18 353.83, 176.61 424.6 M0 0 C29.44 70.77, 147.18 353.83, 176.61 424.6" stroke="#000000" stroke-width="1" fill="none"></path></g><g transform="translate(573.8695448670994 770.1572692315679) rotate(0 88.30675299017906 212.29784137582396)"><path d="M156.31 402.51 C163.22 410.03, 170.13 417.54, 176.61 424.6 M156.31 402.51 C160.44 406.99, 164.56 411.48, 176.61 424.6" stroke="#000000" stroke-width="1" fill="none"></path></g><g transform="translate(573.8695448670994 770.1572692315679) rotate(0 88.30675299017906 212.29784137582396)"><path d="M175.26 394.63 C175.72 404.83, 176.18 415.03, 176.61 424.6 M175.26 394.63 C175.54 400.71, 175.81 406.8, 176.61 424.6" stroke="#000000" stroke-width="1" fill="none"></path></g></g><g stroke-linecap="round" transform="translate(755.5 1153.2301755427634) rotate(0 117.00000000000003 51)"><path d="M0 0 C72.83 0, 145.66 0, 234 0 M0 0 C88.84 0, 177.69 0, 234 0 M234 0 C234 21.62, 234 43.25, 234 102 M234 0 C234 33.87, 234 67.75, 234 102 M234 102 C170.78 102, 107.56 102, 0 102 M234 102 C176.27 102, 118.55 102, 0 102 M0 102 C0 79.41, 0 56.82, 0 0 M0 102 C0 69.51, 0 37.02, 0 0" stroke="#000000" stroke-width="1" fill="none"></path></g><g transform="translate(767.5 1024.2301755427634) rotate(0 97 25.5)"><text x="0" y="18.5" font-family="Virgil, Segoe UI Emoji" font-size="20px" fill="#000000" text-anchor="start" style="white-space: pre;" direction="ltr">Improving users'</text><text x="0" y="44" font-family="Virgil, Segoe UI Emoji" font-size="20px" fill="#000000" text-anchor="start" style="white-space: pre;" direction="ltr">models of the world</text></g><g stroke-linecap="round"><g transform="translate(987.5781117847375 1210.6169878292687) rotate(0 103.02011087744847 -141.69340614325267)"><path d="M0 0 C34.34 -47.23, 171.7 -236.16, 206.04 -283.39 M0 0 C34.34 -47.23, 171.7 -236.16, 206.04 -283.39" stroke="#000000" stroke-width="1" fill="none"></path></g><g transform="translate(987.5781117847375 1210.6169878292687) rotate(0 103.02011087744847 -141.69340614325267)"><path d="M197.76 -254.55 C200.13 -262.8, 202.5 -271.05, 206.04 -283.39 M197.76 -254.55 C200.68 -264.71, 203.59 -274.87, 206.04 -283.39" stroke="#000000" stroke-width="1" fill="none"></path></g><g transform="translate(987.5781117847375 1210.6169878292687) rotate(0 103.02011087744847 -141.69340614325267)"><path d="M181.16 -266.62 C188.28 -271.42, 195.4 -276.21, 206.04 -283.39 M181.16 -266.62 C189.93 -272.53, 198.69 -278.43, 206.04 -283.39" stroke="#000000" stroke-width="1" fill="none"></path></g></g><g stroke-linecap="round"><g transform="translate(1197.2514094463022 794.938893764398) rotate(0 -0.2208484388662555 -72.2483516954025)"><path d="M0 0 C-0.07 -24.08, -0.37 -120.41, -0.44 -144.5 M0 0 C-0.07 -24.08, -0.37 -120.41, -0.44 -144.5" stroke="#000000" stroke-width="1" fill="none"></path></g><g transform="translate(1197.2514094463022 794.938893764398) rotate(0 -0.2208484388662555 -72.2483516954025)"><path d="M9.91 -116.34 C7.24 -123.59, 4.58 -130.84, -0.44 -144.5 M9.91 -116.34 C5.82 -127.47, 1.73 -138.59, -0.44 -144.5" stroke="#000000" stroke-width="1" fill="none"></path></g><g transform="translate(1197.2514094463022 794.938893764398) rotate(0 -0.2208484388662555 -72.2483516954025)"><path d="M-10.62 -116.27 C-8 -123.54, -5.38 -130.81, -0.44 -144.5 M-10.62 -116.27 C-6.6 -127.43, -2.57 -138.58, -0.44 -144.5" stroke="#000000" stroke-width="1" fill="none"></path></g></g><g stroke-linecap="round"><g transform="translate(1305.89788134405 584.9939835077023) rotate(0 104.35079064844615 182.37265913150605)"><path d="M0 0 C34.78 60.79, 173.92 303.95, 208.7 364.75 M0 0 C34.78 60.79, 173.92 303.95, 208.7 364.75" stroke="#364fc7" stroke-width="4" fill="none"></path></g><g transform="translate(1305.89788134405 584.9939835077023) rotate(0 104.35079064844615 182.37265913150605)"><path d="M185.8 345.37 C190.9 349.69, 196 354, 208.7 364.75 M185.8 345.37 C194.59 352.81, 203.39 360.25, 208.7 364.75" stroke="#364fc7" stroke-width="4" fill="none"></path></g><g transform="translate(1305.89788134405 584.9939835077023) rotate(0 104.35079064844615 182.37265913150605)"><path d="M203.61 335.18 C204.74 341.76, 205.88 348.35, 208.7 364.75 M203.61 335.18 C205.56 346.54, 207.52 357.89, 208.7 364.75" stroke="#364fc7" stroke-width="4" fill="none"></path></g></g><g stroke-linecap="round"><g transform="translate(448.2188519032356 1066.5502807320754) rotate(0 -0.004266057082766395 184.94891935436863)"><path d="M0 0 C0 61.65, -0.01 308.25, -0.01 369.9 M0 0 C0 61.65, -0.01 308.25, -0.01 369.9" stroke="#364fc7" stroke-width="4" fill="none"></path></g><g transform="translate(448.2188519032356 1066.5502807320754) rotate(0 -0.004266057082766395 184.94891935436863)"><path d="M-10.27 341.71 C-6.86 351.08, -3.45 360.45, -0.01 369.9 M-10.27 341.71 C-6.37 352.41, -2.48 363.11, -0.01 369.9" stroke="#364fc7" stroke-width="4" fill="none"></path></g><g transform="translate(448.2188519032356 1066.5502807320754) rotate(0 -0.004266057082766395 184.94891935436863)"><path d="M10.25 341.71 C6.84 351.08, 3.43 360.45, -0.01 369.9 M10.25 341.71 C6.36 352.41, 2.46 363.11, -0.01 369.9" stroke="#364fc7" stroke-width="4" fill="none"></path></g></g><g stroke-linecap="round" transform="translate(344.5 1446.2301755427634) rotate(0 129 55)"><path d="M0 0 C82.21 0, 164.42 0, 258 0 M0 0 C73.31 0, 146.62 0, 258 0 M258 0 C258 23.31, 258 46.61, 258 110 M258 0 C258 26.65, 258 53.31, 258 110 M258 110 C158.17 110, 58.35 110, 0 110 M258 110 C162.53 110, 67.07 110, 0 110 M0 110 C0 77.66, 0 45.33, 0 0 M0 110 C0 72.41, 0 34.83, 0 0" stroke="#364fc7" stroke-width="4" fill="none"></path></g><g transform="translate(366.5 1462.7301755427634) rotate(0 104 38.5)"><text x="0" y="17.666666666666668" font-family="Virgil, Segoe UI Emoji" font-size="20px" fill="#364fc7" text-anchor="start" style="white-space: pre;" direction="ltr">Forecasters go on</text><text x="0" y="43.333333333333336" font-family="Virgil, Segoe UI Emoji" font-size="20px" fill="#364fc7" text-anchor="start" style="white-space: pre;" direction="ltr">to do valuable stuff</text><text x="0" y="69" font-family="Virgil, Segoe UI Emoji" font-size="20px" fill="#364fc7" text-anchor="start" style="white-space: pre;" direction="ltr">in the world</text></g><g stroke-linecap="round"><g transform="translate(610.1521739130435 1500.6515449338476) rotate(0 71.45169082125605 2.2145118599341913)"><path d="M0 0 C23.82 0.74, 119.09 3.69, 142.9 4.43 M0 0 C23.82 0.74, 119.09 3.69, 142.9 4.43" stroke="#364fc7" stroke-width="2" fill="none"></path></g><g transform="translate(610.1521739130435 1500.6515449338476) rotate(0 71.45169082125605 2.2145118599341913)"><path d="M114.41 13.81 C121.89 11.35, 129.37 8.88, 142.9 4.43 M114.41 13.81 C123.56 10.8, 132.71 7.78, 142.9 4.43" stroke="#364fc7" stroke-width="2" fill="none"></path></g><g transform="translate(610.1521739130435 1500.6515449338476) rotate(0 71.45169082125605 2.2145118599341913)"><path d="M115.04 -6.7 C122.36 -3.78, 129.67 -0.86, 142.9 4.43 M115.04 -6.7 C123.99 -3.13, 132.94 0.45, 142.9 4.43" stroke="#364fc7" stroke-width="2" fill="none"></path></g></g><g stroke-linecap="round" transform="translate(755.5 1469.7301755427634) rotate(0 113.00000000000003 44)"><path d="M0 0 C80.38 0, 160.76 0, 226 0 M0 0 C89.31 0, 178.61 0, 226 0 M226 0 C226 26.62, 226 53.24, 226 88 M226 0 C226 30.15, 226 60.29, 226 88 M226 88 C170.48 88, 114.96 88, 0 88 M226 88 C148.3 88, 70.59 88, 0 88 M0 88 C0 70.24, 0 52.47, 0 0 M0 88 C0 65.69, 0 43.37, 0 0" stroke="#364fc7" stroke-width="4" fill="none"></path></g><g transform="translate(789.5 1498.7301755427634) rotate(0 8 13)"><text x="0" y="18" font-family="Virgil, Segoe UI Emoji" font-size="20px" fill="#000000" text-anchor="start" style="white-space: pre;" direction="ltr">...</text></g><g stroke-linecap="round"><g transform="translate(577.3239456207818 553.641879790189) rotate(0 99.22389890470774 41.2927117167759)"><path d="M0 0 C33.07 13.76, 165.37 68.82, 198.45 82.59 M0 0 C33.07 13.76, 165.37 68.82, 198.45 82.59" stroke="#000000" stroke-width="1" fill="none"></path></g><g transform="translate(577.3239456207818 553.641879790189) rotate(0 99.22389890470774 41.2927117167759)"><path d="M168.48 81.23 C174.83 81.52, 181.19 81.8, 198.45 82.59 M168.48 81.23 C178.43 81.68, 188.38 82.13, 198.45 82.59" stroke="#000000" stroke-width="1" fill="none"></path></g><g transform="translate(577.3239456207818 553.641879790189) rotate(0 99.22389890470774 41.2927117167759)"><path d="M176.36 62.28 C181.05 66.59, 185.73 70.89, 198.45 82.59 M176.36 62.28 C183.7 69.02, 191.03 75.77, 198.45 82.59" stroke="#000000" stroke-width="1" fill="none"></path></g></g><g stroke-linecap="round"><g transform="translate(983.920301874864 1369.622983547788) rotate(0 246.61731254302163 -145.8298750536743)"><path d="M0 0 C82.21 -48.61, 411.03 -243.05, 493.23 -291.66 M0 0 C82.21 -48.61, 411.03 -243.05, 493.23 -291.66" stroke="#000000" stroke-width="1" fill="none"></path></g><g transform="translate(983.920301874864 1369.622983547788) rotate(0 246.61731254302163 -145.8298750536743)"><path d="M474.19 -268.48 C479.92 -275.45, 485.65 -282.43, 493.23 -291.66 M474.19 -268.48 C481.38 -277.23, 488.57 -285.98, 493.23 -291.66" stroke="#000000" stroke-width="1" fill="none"></path></g><g transform="translate(983.920301874864 1369.622983547788) rotate(0 246.61731254302163 -145.8298750536743)"><path d="M463.75 -286.14 C472.62 -287.8, 481.49 -289.46, 493.23 -291.66 M463.75 -286.14 C474.88 -288.23, 486.01 -290.31, 493.23 -291.66" stroke="#000000" stroke-width="1" fill="none"></path></g></g><g stroke-linecap="round"><g transform="translate(992.4409318444359 1509.0361183549114) rotate(0 245.05682698437067 -200.28247837636206)"><path d="M0 0 C81.69 -66.76, 408.43 -333.8, 490.11 -400.56 M0 0 C81.69 -66.76, 408.43 -333.8, 490.11 -400.56" stroke="#364fc7" stroke-width="4" fill="none"></path></g><g transform="translate(992.4409318444359 1509.0361183549114) rotate(0 245.05682698437067 -200.28247837636206)"><path d="M474.78 -374.78 C478.17 -380.49, 481.57 -386.19, 490.11 -400.56 M474.78 -374.78 C478.23 -380.58, 481.67 -386.37, 490.11 -400.56" stroke="#364fc7" stroke-width="4" fill="none"></path></g><g transform="translate(992.4409318444359 1509.0361183549114) rotate(0 245.05682698437067 -200.28247837636206)"><path d="M461.79 -390.67 C468.06 -392.86, 474.33 -395.05, 490.11 -400.56 M461.79 -390.67 C468.16 -392.89, 474.52 -395.12, 490.11 -400.56" stroke="#364fc7" stroke-width="4" fill="none"></path></g></g><g stroke-linecap="round" transform="translate(10 712.2301755427634) rotate(0 121.25 48.75)"><path d="M0 0 C54.63 0, 109.27 0, 242.5 0 M0 0 C55.95 0, 111.91 0, 242.5 0 M242.5 0 C242.5 33.87, 242.5 67.73, 242.5 97.5 M242.5 0 C242.5 27.94, 242.5 55.88, 242.5 97.5 M242.5 97.5 C166.48 97.5, 90.46 97.5, 0 97.5 M242.5 97.5 C157.51 97.5, 72.53 97.5, 0 97.5 M0 97.5 C0 77.04, 0 56.59, 0 0 M0 97.5 C0 59.88, 0 22.25, 0 0" stroke="#000000" stroke-width="1" fill="none"></path></g><g stroke-linecap="round"><g transform="translate(357.8497240000583 747.220867554649) rotate(0 -51.54127536234077 -0.19461075273792972)"><path d="M0 0 C-17.18 -0.06, -85.9 -0.32, -103.08 -0.39 M0 0 C-17.18 -0.06, -85.9 -0.32, -103.08 -0.39" stroke="#000000" stroke-width="1" fill="none"></path></g><g transform="translate(357.8497240000583 747.220867554649) rotate(0 -51.54127536234077 -0.19461075273792972)"><path d="M-74.85 -10.54 C-83.72 -7.35, -92.59 -4.16, -103.08 -0.39 M-74.85 -10.54 C-84.02 -7.25, -93.18 -3.95, -103.08 -0.39" stroke="#000000" stroke-width="1" fill="none"></path></g><g transform="translate(357.8497240000583 747.220867554649) rotate(0 -51.54127536234077 -0.19461075273792972)"><path d="M-74.93 9.98 C-83.78 6.72, -92.62 3.46, -103.08 -0.39 M-74.93 9.98 C-84.07 6.61, -93.2 3.25, -103.08 -0.39" stroke="#000000" stroke-width="1" fill="none"></path></g></g><g stroke-linecap="round"><g transform="translate(263.01364675628275 771.6698636396127) rotate(0 55.340074385603664 2.340643821541306)"><path d="M0 0 C18.45 0.78, 92.23 3.9, 110.68 4.68 M0 0 C18.45 0.78, 92.23 3.9, 110.68 4.68" stroke="#000000" stroke-width="1" fill="none"></path></g><g transform="translate(263.01364675628275 771.6698636396127) rotate(0 55.340074385603664 2.340643821541306)"><path d="M82.08 13.74 C89.45 11.41, 96.81 9.07, 110.68 4.68 M82.08 13.74 C90.35 11.12, 98.62 8.5, 110.68 4.68" stroke="#000000" stroke-width="1" fill="none"></path></g><g transform="translate(263.01364675628275 771.6698636396127) rotate(0 55.340074385603664 2.340643821541306)"><path d="M82.95 -6.76 C90.09 -3.81, 97.23 -0.87, 110.68 4.68 M82.95 -6.76 C90.97 -3.45, 98.98 -0.14, 110.68 4.68" stroke="#000000" stroke-width="1" fill="none"></path></g></g><g stroke-linecap="round" transform="translate(767.5 409.73017554276345) rotate(0 110.00000000000003 67.5)"><path d="M0 0 C46.61 0, 93.22 0, 220 0 M0 0 C53.31 0, 106.61 0, 220 0 M220 0 C220 52.24, 220 104.47, 220 135 M220 0 C220 49.95, 220 99.91, 220 135 M220 135 C155.33 135, 90.65 135, 0 135 M220 135 C144.83 135, 69.65 135, 0 135 M0 135 C0 89.68, 0 44.36, 0 0 M0 135 C0 87.62, 0 40.23, 0 0" stroke="#364fc7" stroke-width="4" fill="none"></path></g><g transform="translate(800 427.73017554276345) rotate(0 79.50000000000003 64)"><text x="0" y="17.6" font-family="Virgil, Segoe UI Emoji" font-size="20px" fill="#364fc7" text-anchor="start" style="white-space: pre;" direction="ltr">Creating common</text><text x="0" y="43.2" font-family="Virgil, Segoe UI Emoji" font-size="20px" fill="#364fc7" text-anchor="start" style="white-space: pre;" direction="ltr">knowledge about</text><text x="0" y="68.80000000000001" font-family="Virgil, Segoe UI Emoji" font-size="20px" fill="#364fc7" text-anchor="start" style="white-space: pre;" direction="ltr">what is likely to</text><text x="0" y="94.4" font-family="Virgil, Segoe UI Emoji" font-size="20px" fill="#364fc7" text-anchor="start" style="white-space: pre;" direction="ltr">happen</text><text x="0" y="120" font-family="Virgil, Segoe UI Emoji" font-size="20px" fill="#364fc7" text-anchor="start" style="white-space: pre;" direction="ltr"></text></g><g stroke-linecap="round"><g transform="translate(996.1201627868693 468.2880605122978) rotate(0 43.18991860656536 56.971057515232815)"><path d="M0 0 C14.4 18.99, 71.98 94.95, 86.38 113.94 M0 0 C14.4 18.99, 71.98 94.95, 86.38 113.94" stroke="#364fc7" stroke-width="4" fill="none"></path></g><g transform="translate(996.1201627868693 468.2880605122978) rotate(0 43.18991860656536 56.971057515232815)"><path d="M61.17 97.68 C66.88 101.36, 72.58 105.04, 86.38 113.94 M61.17 97.68 C69.95 103.34, 78.72 109, 86.38 113.94" stroke="#364fc7" stroke-width="4" fill="none"></path></g><g transform="translate(996.1201627868693 468.2880605122978) rotate(0 43.18991860656536 56.971057515232815)"><path d="M77.53 85.28 C79.53 91.76, 81.53 98.25, 86.38 113.94 M77.53 85.28 C80.61 95.26, 83.69 105.24, 86.38 113.94" stroke="#364fc7" stroke-width="4" fill="none"></path></g></g><g stroke-linecap="round"><g transform="translate(583.1123831163632 553.98927932448) rotate(0 93.30785972496273 -34.90264004651091)"><path d="M0 0 C31.1 -11.63, 155.51 -58.17, 186.62 -69.81 M0 0 C31.1 -11.63, 155.51 -58.17, 186.62 -69.81" stroke="#000000" stroke-width="1" fill="none"></path></g><g transform="translate(583.1123831163632 553.98927932448) rotate(0 93.30785972496273 -34.90264004651091)"><path d="M163.81 -50.32 C170.71 -56.21, 177.61 -62.11, 186.62 -69.81 M163.81 -50.32 C171.62 -56.99, 179.43 -63.67, 186.62 -69.81" stroke="#000000" stroke-width="1" fill="none"></path></g><g transform="translate(583.1123831163632 553.98927932448) rotate(0 93.30785972496273 -34.90264004651091)"><path d="M156.62 -69.54 C165.69 -69.62, 174.77 -69.7, 186.62 -69.81 M156.62 -69.54 C166.89 -69.63, 177.17 -69.72, 186.62 -69.81" stroke="#000000" stroke-width="1" fill="none"></path></g></g><g stroke-linecap="round"><g transform="translate(578.1218066206076 756.6489799290973) rotate(0 96.60359885419848 -131.93323304085004)"><path d="M0 0 C32.2 -43.98, 161.01 -219.89, 193.21 -263.87 M0 0 C32.2 -43.98, 161.01 -219.89, 193.21 -263.87" stroke="#364fc7" stroke-width="4" fill="none"></path></g><g transform="translate(578.1218066206076 756.6489799290973) rotate(0 96.60359885419848 -131.93323304085004)"><path d="M184.83 -235.06 C187.01 -242.54, 189.18 -250.02, 193.21 -263.87 M184.83 -235.06 C187.94 -245.76, 191.06 -256.47, 193.21 -263.87" stroke="#364fc7" stroke-width="4" fill="none"></path></g><g transform="translate(578.1218066206076 756.6489799290973) rotate(0 96.60359885419848 -131.93323304085004)"><path d="M168.27 -247.18 C174.75 -251.52, 181.23 -255.85, 193.21 -263.87 M168.27 -247.18 C177.54 -253.38, 186.81 -259.58, 193.21 -263.87" stroke="#364fc7" stroke-width="4" fill="none"></path></g></g><g stroke-linecap="round" transform="translate(780 159.73017554276345) rotate(0 110 78.75)"><path d="M111 0 C140.45 21.34, 169.9 42.69, 220 79 M111 0 C137.89 19.49, 164.78 38.98, 220 79 M220 79 C195.86 96.38, 171.72 113.77, 111 157.5 M220 79 C185.28 104, 150.56 129.01, 111 157.5 M111 157.5 C84.18 138.54, 57.37 119.57, 0 79 M111 157.5 C69.43 128.1, 27.87 98.71, 0 79 M0 79 C28.04 59.05, 56.07 39.09, 111 0 M0 79 C29.64 57.9, 59.28 36.81, 111 0" stroke="#862e9c" stroke-width="1" fill="none"></path></g><g transform="translate(822.5 218.23017554276345) rotate(0 69 25.5)"><text x="0" y="18.5" font-family="Virgil, Segoe UI Emoji" font-size="20px" fill="#862e9c" text-anchor="start" style="white-space: pre;" direction="ltr">Popularization</text><text x="0" y="44" font-family="Virgil, Segoe UI Emoji" font-size="20px" fill="#862e9c" text-anchor="start" style="white-space: pre;" direction="ltr">  (e.g., SSC)</text></g><g stroke-linecap="round" transform="translate(1469.5 927.183005731443) rotate(0 116.75000000000011 112.34433962264166)"><path d="M158.75 7.52 C171.81 12.37, 184.75 20.03, 195.13 29.08 C205.5 38.12, 214.71 49.75, 221.01 61.78 C227.31 73.81, 231.55 87.85, 232.93 101.26 C234.31 114.66, 233.02 129.23, 229.3 142.22 C225.57 155.2, 218.92 168.35, 210.6 179.18 C202.27 190, 191.15 199.97, 179.33 207.19 C167.51 214.41, 153.41 219.85, 139.68 222.5 C125.96 225.15, 110.76 225.35, 96.97 223.06 C83.17 220.78, 68.92 215.71, 56.9 208.8 C44.88 201.9, 33.48 192.23, 24.85 181.63 C16.21 171.02, 9.19 158.06, 5.1 145.18 C1.01 132.29, -0.7 117.77, 0.3 104.33 C1.3 90.89, 5.14 76.75, 11.09 64.55 C17.05 52.36, 25.92 40.49, 36.03 31.18 C46.14 21.86, 58.86 13.86, 71.78 8.67 C84.7 3.48, 99.55 0.41, 113.55 0.04 C127.54 -0.33, 142.55 1.95, 155.74 6.45 C168.94 10.95, 182.09 18.27, 192.72 27.04 C203.35 35.81, 212.88 47.19, 219.53 59.05" stroke="#5c940d" stroke-width="4" fill="none"></path></g><g stroke-linecap="round"><g transform="translate(889.7093310950247 320.62245878275553) rotate(0 1.0633788777713562 46.80385838000397)"><path d="M0 0 C0.35 15.6, 1.77 78.01, 2.13 93.61 M0 0 C0.35 15.6, 1.77 78.01, 2.13 93.61" stroke="#000000" stroke-width="1" fill="none"></path></g><g transform="translate(889.7093310950247 320.62245878275553) rotate(0 1.0633788777713562 46.80385838000397)"><path d="M-8.77 65.66 C-4.99 75.37, -1.2 85.07, 2.13 93.61 M-8.77 65.66 C-5.65 73.67, -2.53 81.68, 2.13 93.61" stroke="#000000" stroke-width="1" fill="none"></path></g><g transform="translate(889.7093310950247 320.62245878275553) rotate(0 1.0633788777713562 46.80385838000397)"><path d="M11.74 65.19 C8.4 75.06, 5.06 84.93, 2.13 93.61 M11.74 65.19 C8.99 73.33, 6.23 81.48, 2.13 93.61" stroke="#000000" stroke-width="1" fill="none"></path></g></g><g stroke-linecap="round" transform="translate(355 667.2301755427634) rotate(0 110 91.25)"><path d="M111 0 C150.57 33.4, 190.14 66.8, 220 92 M111 0 C146.73 30.15, 182.45 60.31, 220 92 M220 92 C195.71 112.16, 171.43 132.33, 111 182.5 M220 92 C183.68 122.16, 147.36 152.31, 111 182.5 M111 182.5 C81.89 158.77, 52.78 135.03, 0 92 M111 182.5 C84.65 161.02, 58.3 139.53, 0 92 M0 92 C30.12 67.04, 60.24 42.07, 111 0 M0 92 C31.89 65.57, 63.78 39.14, 111 0" stroke="#862e9c" stroke-width="4" fill="none"></path></g><g stroke-linecap="round" transform="translate(770 147.23017554276345) rotate(0 121.25000000000003 90)"><path d="M122 0 C165.32 32.72, 208.65 65.44, 242.5 91 M122 0 C150.19 21.29, 178.38 42.58, 242.5 91 M242.5 91 C216.93 109.89, 191.36 128.77, 122 180 M242.5 91 C212.47 113.18, 182.44 135.36, 122 180 M122 180 C94.78 160.15, 67.57 140.29, 0 91 M122 180 C84.4 152.57, 46.81 125.15, 0 91 M0 91 C41.46 60.07, 82.92 29.15, 122 0 M0 91 C38.53 62.26, 77.05 33.53, 122 0" stroke="#862e9c" stroke-width="1" fill="none"></path></g><g stroke-linecap="round"><g transform="translate(439.91136956428716 1068.8534752130156) rotate(0 -80.52090438765765 70.95602128486831)"><path d="M0 0 C-26.84 23.65, -134.2 118.26, -161.04 141.91 M0 0 C-26.84 23.65, -134.2 118.26, -161.04 141.91" stroke="#000000" stroke-width="1" fill="none"></path></g><g transform="translate(439.91136956428716 1068.8534752130156) rotate(0 -80.52090438765765 70.95602128486831)"><path d="M-146.68 115.58 C-152.23 125.77, -157.79 135.96, -161.04 141.91 M-146.68 115.58 C-151.99 125.32, -157.31 135.07, -161.04 141.91" stroke="#000000" stroke-width="1" fill="none"></path></g><g transform="translate(439.91136956428716 1068.8534752130156) rotate(0 -80.52090438765765 70.95602128486831)"><path d="M-133.11 130.97 C-143.92 135.21, -154.72 139.44, -161.04 141.91 M-133.11 130.97 C-143.44 135.02, -153.78 139.07, -161.04 141.91" stroke="#000000" stroke-width="1" fill="none"></path></g></g><g stroke-linecap="round" transform="translate(200 1212.2301755427634) rotate(0 77.5 33.75)"><path d="M0 0 C47.6 0, 95.2 0, 155 0 M0 0 C32.69 0, 65.38 0, 155 0 M155 0 C155 20.16, 155 40.32, 155 67.5 M155 0 C155 17.39, 155 34.78, 155 67.5 M155 67.5 C113.48 67.5, 71.96 67.5, 0 67.5 M155 67.5 C121.49 67.5, 87.98 67.5, 0 67.5 M0 67.5 C0 44.12, 0 20.73, 0 0 M0 67.5 C0 44.62, 0 21.74, 0 0" stroke="#000000" stroke-width="1" fill="none"></path></g><g transform="translate(215 1233.2301755427634) rotate(0 59.5 13)"><text x="0" y="18" font-family="Virgil, Segoe UI Emoji" font-size="20px" fill="#000000" text-anchor="start" style="white-space: pre;" direction="ltr">Social bonds</text></g><g stroke-linecap="round"><g transform="translate(275.85383601680536 1280.7301755427634) rotate(0 83.48177033226534 77.84609878660166)"><path d="M0 0 C27.83 25.95, 139.14 129.74, 166.96 155.69 M0 0 C27.83 25.95, 139.14 129.74, 166.96 155.69" stroke="#000000" stroke-width="1" fill="none"></path></g><g transform="translate(275.85383601680536 1280.7301755427634) rotate(0 83.48177033226534 77.84609878660166)"><path d="M139.35 143.97 C146.13 146.85, 152.92 149.73, 166.96 155.69 M139.35 143.97 C148.84 148, 158.34 152.03, 166.96 155.69" stroke="#000000" stroke-width="1" fill="none"></path></g><g transform="translate(275.85383601680536 1280.7301755427634) rotate(0 83.48177033226534 77.84609878660166)"><path d="M153.34 128.96 C156.69 135.53, 160.04 142.1, 166.96 155.69 M153.34 128.96 C158.03 138.15, 162.71 147.34, 166.96 155.69" stroke="#000000" stroke-width="1" fill="none"></path></g></g><g stroke-linecap="round" transform="translate(60 1432.2301755427634) rotate(0 105 80)"><path d="M106 0 C128.49 17.51, 150.98 35.03, 210 81 M106 0 C133.74 21.6, 161.48 43.21, 210 81 M210 81 C187.02 98.46, 164.03 115.92, 106 160 M210 81 C170.76 110.81, 131.51 140.62, 106 160 M106 160 C82.71 142.65, 59.43 125.29, 0 81 M106 160 C83.02 142.88, 60.05 125.75, 0 81 M0 81 C30.93 57.37, 61.85 33.74, 106 0 M0 81 C35.64 53.77, 71.28 26.53, 106 0" stroke="#000000" stroke-width="1" fill="none"></path></g><g transform="translate(122.5 1473.2301755427634) rotate(0 57.5 38.5)"><text x="0" y="17.666666666666668" font-family="Virgil, Segoe UI Emoji" font-size="20px" fill="#000000" text-anchor="start" style="white-space: pre;" direction="ltr">Spare</text><text x="0" y="43.333333333333336" font-family="Virgil, Segoe UI Emoji" font-size="20px" fill="#000000" text-anchor="start" style="white-space: pre;" direction="ltr">coordination</text><text x="0" y="69" font-family="Virgil, Segoe UI Emoji" font-size="20px" fill="#000000" text-anchor="start" style="white-space: pre;" direction="ltr">capacity</text></g><g stroke-linecap="round"><g transform="translate(265 1512.2301755427634) rotate(0 38.75000000000001 -0.38977445358875684)"><path d="M0 0 C12.92 -0.13, 64.58 -0.65, 77.5 -0.78 M0 0 C12.92 -0.13, 64.58 -0.65, 77.5 -0.78" stroke="#000000" stroke-width="1" fill="none"></path></g><g transform="translate(265 1512.2301755427634) rotate(0 38.75000000000001 -0.38977445358875684)"><path d="M49.41 9.76 C56.83 6.98, 64.25 4.19, 77.5 -0.78 M49.41 9.76 C59.04 6.15, 68.66 2.54, 77.5 -0.78" stroke="#000000" stroke-width="1" fill="none"></path></g><g transform="translate(265 1512.2301755427634) rotate(0 38.75000000000001 -0.38977445358875684)"><path d="M49.21 -10.76 C56.68 -8.12, 64.15 -5.49, 77.5 -0.78 M49.21 -10.76 C58.9 -7.34, 68.6 -3.92, 77.5 -0.78" stroke="#000000" stroke-width="1" fill="none"></path></g></g><g transform="translate(422.5 1690.7301755427634) rotate(0 33.5 13)"><text x="0" y="18" font-family="Virgil, Segoe UI Emoji" font-size="20px" fill="#862e9c" text-anchor="start" style="white-space: pre;" direction="ltr">Funding</text></g><g stroke-linecap="round" transform="translate(400 1647.2301755427634) rotate(0 57.5 58.75)"><path d="M58 0 C75.87 18.5, 93.74 36.99, 115 59 M58 0 C77.98 20.68, 97.95 41.35, 115 59 M115 59 C103.04 71.27, 91.08 83.55, 58 117.5 M115 59 C93 81.57, 71.01 104.15, 58 117.5 M58 117.5 C44.95 104.34, 31.91 91.18, 0 59 M58 117.5 C39.11 98.45, 20.23 79.4, 0 59 M0 59 C20.67 37.98, 41.33 16.96, 58 0 M0 59 C15.4 43.34, 30.79 27.67, 58 0" stroke="#862e9c" stroke-width="1" fill="none"></path></g><g stroke-linecap="round"><g transform="translate(458.56509489797884 1642.6192915667484) rotate(0 -0.7263696535389528 -41.44455801199251)"><path d="M0 0 C-0.24 -13.81, -1.21 -69.07, -1.45 -82.89 M0 0 C-0.24 -13.81, -1.21 -69.07, -1.45 -82.89" stroke="#000000" stroke-width="1" fill="none"></path></g><g transform="translate(458.56509489797884 1642.6192915667484) rotate(0 -0.7263696535389528 -41.44455801199251)"><path d="M9.3 -54.88 C6.9 -61.12, 4.51 -67.36, -1.45 -82.89 M9.3 -54.88 C5.72 -64.21, 2.13 -73.55, -1.45 -82.89" stroke="#000000" stroke-width="1" fill="none"></path></g><g transform="translate(458.56509489797884 1642.6192915667484) rotate(0 -0.7263696535389528 -41.44455801199251)"><path d="M-11.22 -54.52 C-9.04 -60.84, -6.87 -67.16, -1.45 -82.89 M-11.22 -54.52 C-7.96 -63.98, -4.71 -73.43, -1.45 -82.89" stroke="#000000" stroke-width="1" fill="none"></path></g></g><g stroke-linecap="round" transform="translate(387.5 1637.2301755427634) rotate(0 70.00000000000003 67.5)"><path d="M71 0 C85.64 14.43, 100.28 28.86, 140 68 M71 0 C88.2 16.95, 105.39 33.89, 140 68 M140 68 C124.61 82.95, 109.21 97.89, 71 135 M140 68 C118.74 88.65, 97.47 109.29, 71 135 M71 135 C46.87 112.23, 22.74 89.46, 0 68 M71 135 C48.58 113.84, 26.16 92.69, 0 68 M0 68 C25.3 43.77, 50.6 19.54, 71 0 M0 68 C21.49 47.42, 42.98 26.83, 71 0" stroke="#862e9c" stroke-width="1" fill="none"></path></g><g stroke-linecap="round" transform="translate(47.5 1422.2301755427634) rotate(0 117.5 90)"><path d="M118 0 C152.39 26.46, 186.79 52.92, 235 90 M118 0 C157.98 30.75, 197.96 61.51, 235 90 M235 90 C195.72 120.21, 156.45 150.43, 118 180 M235 90 C193.93 121.59, 152.87 153.18, 118 180 M118 180 C73.92 146.38, 29.84 112.76, 0 90 M118 180 C82.04 152.58, 46.09 125.15, 0 90 M0 90 C27.63 68.93, 55.26 47.86, 118 0 M0 90 C25.54 70.52, 51.09 51.04, 118 0" stroke="#000000" stroke-width="1" fill="none"></path></g><g transform="translate(25 735.7301755427634) rotate(0 104 25.5)"><text x="0" y="18.5" font-family="Virgil, Segoe UI Emoji" font-size="20px" fill="#000000" text-anchor="start" style="white-space: pre;" direction="ltr">Proof of capabilities,</text><text x="0" y="44" font-family="Virgil, Segoe UI Emoji" font-size="20px" fill="#000000" text-anchor="start" style="white-space: pre;" direction="ltr">experience gains</text></g><g stroke-opacity="0.7" fill-opacity="0.7" stroke-linecap="round" transform="translate(138.44680851063853 898.6237925640407) rotate(0 64.46808510638299 61.24468085106383)"><path d="M95.19 7.4 C104.19 12.04, 112.9 19.67, 118.49 27.82 C124.08 35.97, 127.9 46.62, 128.73 56.31 C129.55 66.01, 127.57 77.1, 123.44 86 C119.3 94.9, 111.99 103.75, 103.89 109.7 C95.79 115.65, 84.93 120.13, 74.82 121.69 C64.71 123.26, 52.91 122.28, 43.24 119.08 C33.57 115.87, 23.69 109.67, 16.8 102.48 C9.9 95.28, 4.33 85.36, 1.88 75.91 C-0.58 66.47, -0.5 55.22, 2.08 45.8 C4.66 36.39, 10.38 26.53, 17.37 19.43 C24.36 12.32, 34.32 6.24, 44.04 3.16 C53.75 0.07, 65.56 -0.76, 75.64 0.93 C85.73 2.61, 96.53 7.23, 104.55 13.28" stroke="#c92a2a" stroke-width="4" fill="none"></path></g><g stroke-opacity="0.7" fill-opacity="0.7" stroke-linecap="round" transform="translate(122.32978723404256 885.7301755427634) rotate(0 80.58510638297874 75.75)"><path d="M115.3 7.39 C125.75 12.08, 135.97 19.66, 143.25 28.12 C150.52 36.58, 156.27 47.56, 158.96 58.14 C161.65 68.72, 161.81 80.96, 159.39 91.6 C156.97 102.24, 151.5 113.35, 144.44 121.96 C137.37 130.58, 127.35 138.39, 117.03 143.31 C106.7 148.23, 94.07 151.22, 82.51 151.48 C70.94 151.74, 58.17 149.32, 47.61 144.87 C37.05 140.42, 26.64 133.06, 19.15 124.77 C11.66 116.48, 5.63 105.63, 2.68 95.11 C-0.28 84.59, -0.75 72.36, 1.4 61.67 C3.56 50.98, 8.74 39.75, 15.58 30.98 C22.42 22.2, 32.25 14.17, 42.44 9.02 C52.64 3.87, 65.19 0.6, 76.75 0.09 C88.31 -0.43, 101.13 1.7, 111.8 5.91 C122.47 10.13, 133.06 17.24, 140.76 25.37" stroke="#c92a2a" stroke-width="4" fill="none"></path></g><g transform="translate(152.5 938.2301755427634) rotate(0 55.5 25.5)"><text x="0" y="18.5" font-family="Virgil, Segoe UI Emoji" font-size="20px" fill="#c92a2a" text-anchor="start" style="white-space: pre;" direction="ltr">Opportunity</text><text x="0" y="44" font-family="Virgil, Segoe UI Emoji" font-size="20px" fill="#c92a2a" text-anchor="start" style="white-space: pre;" direction="ltr">costs</text></g><g stroke-linecap="round"><g transform="translate(401.3842118737627 796.6332380435828) rotate(0 -67.17534211227485 57.26958684861333)"><path d="M0 0 C-22.39 19.09, -111.96 95.45, -134.35 114.54 M0 0 C-22.39 19.09, -111.96 95.45, -134.35 114.54" stroke="#000000" stroke-width="1" fill="none"></path></g><g transform="translate(401.3842118737627 796.6332380435828) rotate(0 -67.17534211227485 57.26958684861333)"><path d="M-119.55 88.44 C-123.13 94.75, -126.7 101.05, -134.35 114.54 M-119.55 88.44 C-125.1 98.21, -130.64 107.99, -134.35 114.54" stroke="#000000" stroke-width="1" fill="none"></path></g><g transform="translate(401.3842118737627 796.6332380435828) rotate(0 -67.17534211227485 57.26958684861333)"><path d="M-106.24 104.06 C-113.03 106.59, -119.82 109.12, -134.35 114.54 M-106.24 104.06 C-116.77 107.98, -127.29 111.91, -134.35 114.54" stroke="#000000" stroke-width="1" fill="none"></path></g></g><g stroke-linecap="round"><g transform="translate(142.11551665161429 706.3898108243066) rotate(0 2.6856445873576575 -89.99701788257806)"><path d="M0 0 C0.9 -30, 4.48 -150, 5.37 -179.99 M0 0 C0.9 -30, 4.48 -150, 5.37 -179.99" stroke="#000000" stroke-width="1" fill="none"></path></g><g transform="translate(142.11551665161429 706.3898108243066) rotate(0 2.6856445873576575 -89.99701788257806)"><path d="M14.79 -151.51 C12.28 -159.09, 9.77 -166.67, 5.37 -179.99 M14.79 -151.51 C11.69 -160.89, 8.59 -170.26, 5.37 -179.99" stroke="#000000" stroke-width="1" fill="none"></path></g><g transform="translate(142.11551665161429 706.3898108243066) rotate(0 2.6856445873576575 -89.99701788257806)"><path d="M-5.73 -152.12 C-2.77 -159.54, 0.18 -166.96, 5.37 -179.99 M-5.73 -152.12 C-2.07 -161.3, 1.58 -170.47, 5.37 -179.99" stroke="#000000" stroke-width="1" fill="none"></path></g></g><g stroke-linecap="round" transform="translate(35.995798319327605 441.3898108243065) rotate(0 117.5 41.25)"><path d="M0 0 C53.6 0, 107.19 0, 235 0 M0 0 C51.01 0, 102.01 0, 235 0 M235 0 C235 22.22, 235 44.44, 235 82.5 M235 0 C235 20.38, 235 40.77, 235 82.5 M235 82.5 C181.24 82.5, 127.49 82.5, 0 82.5 M235 82.5 C184.63 82.5, 134.27 82.5, 0 82.5 M0 82.5 C0 54.77, 0 27.04, 0 0 M0 82.5 C0 62.83, 0 43.16, 0 0" stroke="#000000" stroke-width="1" fill="none"></path></g><g transform="translate(70.9957983193276 467.3898108243065) rotate(0 81.5 13)"><text x="0" y="18" font-family="Virgil, Segoe UI Emoji" font-size="20px" fill="#000000" text-anchor="start" style="white-space: pre;" direction="ltr">Legible expertise</text></g><g stroke-linecap="round"><g transform="translate(358.49579831932755 1243.8898108243066) rotate(0 68.41061015061922 0.038163100630299596)"><path d="M0 0 C22.8 0.01, 114.02 0.06, 136.82 0.08 M0 0 C22.8 0.01, 114.02 0.06, 136.82 0.08" stroke="#000000" stroke-width="1" fill="none"></path></g><g transform="translate(358.49579831932755 1243.8898108243066) rotate(0 68.41061015061922 0.038163100630299596)"><path d="M108.62 10.32 C116.02 7.63, 123.41 4.95, 136.82 0.08 M108.62 10.32 C115.32 7.89, 122.01 5.46, 136.82 0.08" stroke="#000000" stroke-width="1" fill="none"></path></g><g transform="translate(358.49579831932755 1243.8898108243066) rotate(0 68.41061015061922 0.038163100630299596)"><path d="M108.64 -10.2 C116.03 -7.51, 123.42 -4.81, 136.82 0.08 M108.64 -10.2 C115.33 -7.76, 122.02 -5.32, 136.82 0.08" stroke="#000000" stroke-width="1" fill="none"></path></g></g><g stroke-linecap="round" transform="translate(508.49579831932755 1198.8898108243066) rotate(0 56.25 51.25)"><path d="M85.02 7.21 C93.26 11.68, 101.13 19.14, 105.7 26.82 C110.27 34.5, 112.84 44.57, 112.45 53.3 C112.07 62.03, 108.62 71.89, 103.39 79.21 C98.16 86.53, 89.67 93.39, 81.06 97.24 C72.45 101.1, 61.31 103.04, 51.75 102.34 C42.19 101.64, 31.52 98.1, 23.7 93.05 C15.88 87.99, 8.7 79.99, 4.81 72 C0.93 64, -0.74 53.78, 0.41 45.1 C1.56 36.43, 5.86 26.86, 11.72 19.94 C17.57 13.02, 26.64 6.81, 35.56 3.59 C44.48 0.38, 55.76 -0.74, 65.23 0.66 C74.7 2.05, 85.02 6.35, 92.37 11.96" stroke="#5c940d" stroke-width="1" fill="none"></path></g><g transform="translate(543.4957983193276 1237.3898108243066) rotate(0 16 13)"><text x="0" y="18" font-family="Virgil, Segoe UI Emoji" font-size="20px" fill="#5c940d" text-anchor="start" style="white-space: pre;" direction="ltr">Fun</text></g><g stroke-linecap="round"><g transform="translate(448.4957983193276 1066.3898108243066) rotate(0 45.20495200299642 58.63783802586562)"><path d="M0 0 C15.07 19.55, 75.34 97.73, 90.41 117.28 M0 0 C15.07 19.55, 75.34 97.73, 90.41 117.28" stroke="#000000" stroke-width="1" fill="none"></path></g><g transform="translate(448.4957983193276 1066.3898108243066) rotate(0 45.20495200299642 58.63783802586562)"><path d="M65.07 101.21 C71.86 105.52, 78.65 109.82, 90.41 117.28 M65.07 101.21 C70.55 104.69, 76.03 108.16, 90.41 117.28" stroke="#000000" stroke-width="1" fill="none"></path></g><g transform="translate(448.4957983193276 1066.3898108243066) rotate(0 45.20495200299642 58.63783802586562)"><path d="M81.32 88.68 C83.76 96.34, 86.19 104, 90.41 117.28 M81.32 88.68 C83.29 94.87, 85.25 101.05, 90.41 117.28" stroke="#000000" stroke-width="1" fill="none"></path></g></g><g stroke-linecap="round" transform="translate(498.49579831932755 1181.3898108243066) rotate(0 67.5 68.75)"><path d="M98.5 7.68 C107.68 12.51, 116.6 20.42, 122.58 29.01 C128.55 37.59, 132.91 48.79, 134.35 59.21 C135.78 69.63, 134.61 81.62, 131.18 91.55 C127.75 101.48, 121.31 111.57, 113.79 118.79 C106.26 126.01, 95.99 131.96, 86.05 134.85 C76.11 137.75, 64.3 138.22, 54.17 136.15 C44.04 134.07, 33.33 128.97, 25.27 122.38 C17.21 115.79, 9.99 106.25, 5.8 96.63 C1.61 87.01, -0.5 75.16, 0.12 64.65 C0.74 54.15, 4.21 42.64, 9.49 33.59 C14.78 24.55, 23.06 15.95, 31.83 10.38 C40.6 4.82, 51.83 1.05, 62.13 0.22 C72.43 -0.62, 84.11 1.29, 93.64 5.36 C103.16 9.44, 112.68 16.59, 119.3 24.67" stroke="#5c940d" stroke-width="1" fill="none"></path></g><g stroke-linecap="round"><g transform="translate(574.6063978647885 762.6117480360613) rotate(0 -6.5015660957401025 207.9256586710813)"><path d="M0 0 C-2.17 69.31, -10.84 346.54, -13 415.85 M0 0 C-2.17 69.31, -10.84 346.54, -13 415.85" stroke="#000000" stroke-width="1" fill="none"></path></g><g transform="translate(574.6063978647885 762.6117480360613) rotate(0 -6.5015660957401025 207.9256586710813)"><path d="M-22.38 387.35 C-19.6 395.81, -16.82 404.26, -13 415.85 M-22.38 387.35 C-18.73 398.45, -15.07 409.55, -13 415.85" stroke="#000000" stroke-width="1" fill="none"></path></g><g transform="translate(574.6063978647885 762.6117480360613) rotate(0 -6.5015660957401025 207.9256586710813)"><path d="M-1.87 387.99 C-5.17 396.26, -8.47 404.52, -13 415.85 M-1.87 387.99 C-6.2 398.85, -10.54 409.7, -13 415.85" stroke="#000000" stroke-width="1" fill="none"></path></g></g><g stroke-linecap="round"><g transform="translate(153.86385810451264 433.8898108243065) rotate(0 -0.46840733966628534 -51.24877938620603)"><path d="M0 0 C-0.16 -17.08, -0.78 -85.41, -0.94 -102.5 M0 0 C-0.16 -17.08, -0.78 -85.41, -0.94 -102.5" stroke="#000000" stroke-width="1" fill="none"></path></g><g transform="translate(153.86385810451264 433.8898108243065) rotate(0 -0.46840733966628534 -51.24877938620603)"><path d="M9.58 -74.4 C7.27 -80.57, 4.96 -86.75, -0.94 -102.5 M9.58 -74.4 C7.3 -80.49, 5.02 -86.58, -0.94 -102.5" stroke="#000000" stroke-width="1" fill="none"></path></g><g transform="translate(153.86385810451264 433.8898108243065) rotate(0 -0.46840733966628534 -51.24877938620603)"><path d="M-10.94 -74.21 C-8.74 -80.43, -6.54 -86.64, -0.94 -102.5 M-10.94 -74.21 C-8.77 -80.34, -6.6 -86.47, -0.94 -102.5" stroke="#000000" stroke-width="1" fill="none"></path></g></g><g transform="translate(123.49579831932758 264.8898108243065) rotate(0 28 13)"><text x="0" y="18" font-family="Virgil, Segoe UI Emoji" font-size="20px" fill="#2b8a3e" text-anchor="start" style="white-space: pre;" direction="ltr">Money</text></g><g stroke-linecap="round" transform="translate(105.99579831932758 231.3898108243065) rotate(0 46.25 45)"><path d="M71.72 7.44 C78.8 11.98, 85.42 19.69, 88.77 27.29 C92.11 34.88, 93.27 44.86, 91.77 52.99 C90.26 61.12, 85.58 70.08, 79.72 76.05 C73.87 82.03, 64.89 87, 56.62 88.85 C48.35 90.71, 38.04 90.05, 30.09 87.16 C22.13 84.28, 13.9 78.21, 8.9 71.54 C3.89 64.87, 0.46 55.39, 0.05 47.14 C-0.35 38.89, 2.14 29.14, 6.47 22.04 C10.81 14.94, 18.41 8.13, 26.04 4.52 C33.68 0.91, 43.87 -0.69, 52.29 0.38 C60.7 1.46, 70.12 5.58, 76.54 10.99" stroke="#2b8a3e" stroke-width="1" fill="none"></path></g><g stroke-linecap="round" transform="translate(98.49579831932758 221.3898108243065) rotate(0 53.75 53.75)"><path d="M81.26 7.57 C89.14 12.26, 96.65 20.09, 101.01 28.16 C105.38 36.22, 107.83 46.79, 107.45 55.95 C107.08 65.11, 103.77 75.45, 98.76 83.12 C93.75 90.8, 85.62 97.99, 77.39 102.02 C69.15 106.06, 58.49 108.07, 49.35 107.32 C40.22 106.57, 30.02 102.84, 22.56 97.52 C15.09 92.2, 8.24 83.79, 4.55 75.39 C0.86 67, -0.72 56.26, 0.4 47.16 C1.53 38.06, 5.67 28.04, 11.29 20.79 C16.91 13.55, 25.6 7.05, 34.14 3.71 C42.68 0.36, 53.47 -0.78, 62.51 0.72 C71.56 2.21, 81.41 6.76, 88.42 12.67" stroke="#2b8a3e" stroke-width="1" fill="none"></path></g><g stroke-linecap="round"><g transform="translate(259.13747884900397 1212.861650758149) rotate(0 80.92915973516176 -73.23591996692119)"><path d="M0 0 C26.98 -24.41, 134.88 -122.06, 161.86 -146.47 M0 0 C26.98 -24.41, 134.88 -122.06, 161.86 -146.47" stroke="#000000" stroke-width="1" fill="none"></path></g><g transform="translate(259.13747884900397 1212.861650758149) rotate(0 80.92915973516176 -73.23591996692119)"><path d="M147.84 -119.95 C150.99 -125.91, 154.15 -131.88, 161.86 -146.47 M147.84 -119.95 C152.4 -128.58, 156.97 -137.22, 161.86 -146.47" stroke="#000000" stroke-width="1" fill="none"></path></g><g transform="translate(259.13747884900397 1212.861650758149) rotate(0 80.92915973516176 -73.23591996692119)"><path d="M134.07 -135.16 C140.32 -137.71, 146.57 -140.25, 161.86 -146.47 M134.07 -135.16 C143.12 -138.85, 152.17 -142.53, 161.86 -146.47" stroke="#000000" stroke-width="1" fill="none"></path></g></g><g stroke-linecap="round"><g transform="translate(275.9957983193276 477.3801621961244) rotate(0 242.49999999999997 -0.7292905293146106)"><path d="M0 0 C80.83 -0.24, 404.17 -1.22, 485 -1.46 M0 0 C80.83 -0.24, 404.17 -1.22, 485 -1.46" stroke="#000000" stroke-width="1" fill="none"></path></g><g transform="translate(275.9957983193276 477.3801621961244) rotate(0 242.49999999999997 -0.7292905293146106)"><path d="M456.84 8.89 C464.48 6.08, 472.12 3.27, 485 -1.46 M456.84 8.89 C464.93 5.91, 473.02 2.94, 485 -1.46" stroke="#000000" stroke-width="1" fill="none"></path></g><g transform="translate(275.9957983193276 477.3801621961244) rotate(0 242.49999999999997 -0.7292905293146106)"><path d="M456.78 -11.63 C464.44 -8.87, 472.09 -6.11, 485 -1.46 M456.78 -11.63 C464.89 -8.71, 472.99 -5.79, 485 -1.46" stroke="#000000" stroke-width="1" fill="none"></path></g></g><g stroke-opacity="0.7" fill-opacity="0.7" stroke-linecap="round" transform="translate(1698.678249319235 26) rotate(0 38.75 38.75)"><path d="M39 0 C52.08 13.25, 65.17 26.51, 77.5 39 M39 0 C51.16 12.32, 63.32 24.63, 77.5 39 M77.5 39 C63.78 52.72, 50.06 66.44, 39 77.5 M77.5 39 C65.85 50.65, 54.19 62.31, 39 77.5 M39 77.5 C30.46 69.07, 21.91 60.63, 0 39 M39 77.5 C30.47 69.07, 21.93 60.65, 0 39 M0 39 C12.99 26.01, 25.99 13.01, 39 0 M0 39 C12.76 26.24, 25.52 13.48, 39 0" stroke="#862e9c" stroke-width="4" fill="none"></path></g><g stroke-opacity="0.7" fill-opacity="0.7" stroke-linecap="round" transform="translate(1684.1782493192354 10) rotate(0 53.75 53.75)"><path d="M54 0 C73.99 20.17, 93.97 40.35, 107.5 54 M54 0 C70.3 16.45, 86.6 32.91, 107.5 54 M107.5 54 C94.97 66.53, 82.45 79.05, 54 107.5 M107.5 54 C95.92 65.58, 84.34 77.16, 54 107.5 M54 107.5 C42.38 95.99, 30.76 84.48, 0 54 M54 107.5 C43.18 96.78, 32.35 86.05, 0 54 M0 54 C21.17 32.83, 42.34 11.66, 54 0 M0 54 C14.32 39.68, 28.64 25.36, 54 0" stroke="#862e9c" stroke-width="4" fill="none"></path></g><g stroke-opacity="0.7" fill-opacity="0.7" transform="translate(1803.678249319235 39.5) rotate(0 76.0769230769231 23)"><text x="0" y="32.999999999999986" font-family="Virgil, Segoe UI Emoji" font-size="35.38461538461538px" fill="#862e9c" text-anchor="start" style="white-space: pre;" direction="ltr">= Inputs</text></g><g stroke-opacity="0.7" fill-opacity="0.7" stroke-linecap="round" transform="translate(1693.1782493192354 161.9999999999999) rotate(0 47.5 28.75)"><path d="M0 0 C26.75 0, 53.51 0, 95 0 M0 0 C35.7 0, 71.4 0, 95 0 M95 0 C95 17.67, 95 35.33, 95 57.5 M95 0 C95 15.46, 95 30.92, 95 57.5 M95 57.5 C68.71 57.5, 42.42 57.5, 0 57.5 M95 57.5 C67.82 57.5, 40.64 57.5, 0 57.5 M0 57.5 C0 41.72, 0 25.94, 0 0 M0 57.5 C0 36.91, 0 16.31, 0 0" stroke="#000000" stroke-width="4" fill="none"></path></g><g stroke-opacity="0.7" fill-opacity="0.7" stroke-linecap="round" transform="translate(1718.1782493192354 265.3333333333332) rotate(0 24.999999999999545 14.583333333333343)"><path d="M0 0 C13.53 0, 27.06 0, 50 0 M0 0 C16.31 0, 32.62 0, 50 0 M50 0 C50 11.25, 50 22.5, 50 29.17 M50 0 C50 8.42, 50 16.85, 50 29.17 M50 29.17 C33.45 29.17, 16.89 29.17, 0 29.17 M50 29.17 C32.66 29.17, 15.32 29.17, 0 29.17 M0 29.17 C0 19.54, 0 9.9, 0 0 M0 29.17 C0 23.11, 0 17.05, 0 0" stroke="#000000" stroke-width="1" fill="none"></path></g><g stroke-opacity="0.7" fill-opacity="0.7" transform="translate(1805.678249319235 162.9999999999999) rotate(0 92 21.5)"><text x="0" y="30" font-family="Virgil, Segoe UI Emoji" font-size="33.46153846153847px" fill="#000000" text-anchor="start" style="white-space: pre;" direction="ltr">= Midpoints</text></g><g stroke-opacity="0.7" fill-opacity="0.7" transform="translate(1800.678249319234 262.99999999999994) rotate(0 176 15.5)"><text x="0" y="22" font-family="Virgil, Segoe UI Emoji" font-size="24.27758399118782px" fill="#000000" text-anchor="start" style="white-space: pre;" direction="ltr">= Uncertain or unknown steps</text></g><g stroke-opacity="0.7" fill-opacity="0.7" transform="translate(1814.178249319235 378.6666666666666) rotate(0 66 21.5)"><text x="0" y="30" font-family="Virgil, Segoe UI Emoji" font-size="33.46153846153847px" fill="#5c940d" text-anchor="start" style="white-space: pre;" direction="ltr">= Goals</text></g><g stroke-opacity="0.7" fill-opacity="0.7" transform="translate(1816.178249319235 524.6666666666665) rotate(0 99.5 21.5)"><text x="0" y="30" font-family="Virgil, Segoe UI Emoji" font-size="33.46153846153847px" fill="#c92a2a" text-anchor="start" style="white-space: pre;" direction="ltr">= Downsides</text></g><g stroke-opacity="0.7" fill-opacity="0.7" stroke-linecap="round" transform="translate(1691.6782493192354 355.1666666666666) rotate(0 50 47.5)"><path d="M76.73 7.36 C84.26 11.88, 91.36 19.5, 95.18 27.15 C99 34.8, 100.71 44.85, 99.63 53.25 C98.55 61.65, 94.35 71.01, 88.71 77.56 C83.07 84.12, 74.25 89.89, 65.8 92.57 C57.34 95.24, 46.64 95.64, 37.99 93.61 C29.34 91.58, 20.07 86.48, 13.9 80.37 C7.74 74.26, 2.77 65.24, 1 56.94 C-0.77 48.65, 0.1 38.5, 3.27 30.59 C6.45 22.68, 12.89 14.56, 20.03 9.48 C27.16 4.41, 37.18 0.81, 46.06 0.15 C54.94 -0.52, 65.44 1.53, 73.32 5.48" stroke="#5c940d" stroke-width="4" fill="none"></path></g><g stroke-opacity="0.7" fill-opacity="0.7" stroke-linecap="round" transform="translate(1693.6782493192354 501.1666666666666) rotate(0 50 47.5)"><path d="M76.73 7.36 C84.26 11.88, 91.36 19.5, 95.18 27.15 C99 34.8, 100.71 44.85, 99.63 53.25 C98.55 61.65, 94.35 71.01, 88.71 77.56 C83.07 84.12, 74.25 89.89, 65.8 92.57 C57.34 95.24, 46.64 95.64, 37.99 93.61 C29.34 91.58, 20.07 86.48, 13.9 80.37 C7.74 74.26, 2.77 65.24, 1 56.94 C-0.77 48.65, 0.1 38.5, 3.27 30.59 C6.45 22.68, 12.89 14.56, 20.03 9.48 C27.16 4.41, 37.18 0.81, 46.06 0.15 C54.94 -0.52, 65.44 1.53, 73.32 5.48" stroke="#c92a2a" stroke-width="4" fill="none"></path></g><g stroke-opacity="0.7" fill-opacity="0.7" stroke-linecap="round" transform="translate(1679.1782493192354 345.1666666666666) rotate(0 62.5 58.75)"><path d="M92.78 7.35 C101.61 11.95, 110.12 19.54, 115.48 27.58 C120.83 35.62, 124.37 46.13, 124.91 55.61 C125.45 65.08, 123.13 75.89, 118.72 84.42 C114.31 92.95, 106.71 101.35, 98.45 106.81 C90.19 112.27, 79.22 116.15, 69.18 117.16 C59.15 118.18, 47.54 116.58, 38.24 112.89 C28.94 109.21, 19.61 102.53, 13.37 95.07 C7.13 87.61, 2.42 77.51, 0.8 68.15 C-0.81 58.78, 0.27 47.8, 3.68 38.88 C7.1 29.95, 13.7 20.84, 21.29 14.58 C28.88 8.32, 39.35 3.36, 49.21 1.34 C59.08 -0.67, 70.8 -0.25, 80.46 2.48 C90.13 5.21, 100.16 10.92, 107.22 17.7" stroke="#5c940d" stroke-width="4" fill="none"></path></g><g stroke-opacity="0.7" fill-opacity="0.7" stroke-linecap="round" transform="translate(1681.1782493192354 491.1666666666666) rotate(0 62.5 58.75)"><path d="M92.78 7.35 C101.61 11.95, 110.12 19.54, 115.48 27.58 C120.83 35.62, 124.37 46.13, 124.91 55.61 C125.45 65.08, 123.13 75.89, 118.72 84.42 C114.31 92.95, 106.71 101.35, 98.45 106.81 C90.19 112.27, 79.22 116.15, 69.18 117.16 C59.15 118.18, 47.54 116.58, 38.24 112.89 C28.94 109.21, 19.61 102.53, 13.37 95.07 C7.13 87.61, 2.42 77.51, 0.8 68.15 C-0.81 58.78, 0.27 47.8, 3.68 38.88 C7.1 29.95, 13.7 20.84, 21.29 14.58 C28.88 8.32, 39.35 3.36, 49.21 1.34 C59.08 -0.67, 70.8 -0.25, 80.46 2.48 C90.13 5.21, 100.16 10.92, 107.22 17.7" stroke="#c92a2a" stroke-width="4" fill="none"></path></g><g stroke-linecap="round"><g transform="translate(1684.0470635115807 663.9497269406465) rotate(0 53.31246743321162 -0.04058246059344128)"><path d="M0 0 C17.77 -0.01, 88.85 -0.07, 106.62 -0.08 M0 0 C17.77 -0.01, 88.85 -0.07, 106.62 -0.08" stroke="#364fc7" stroke-width="4" fill="none"></path></g></g><g transform="translate(1817.1577862928598 641.8395849751316) rotate(0 119.5 19.5)"><text x="0" y="28" font-family="Virgil, Segoe UI Emoji" font-size="30.769230769230898px" fill="#364fc7" text-anchor="start" style="white-space: pre;" direction="ltr">= Key pathways</text></g><g stroke-linecap="round"><g transform="translate(1684.0470635115803 750.8108655956366) rotate(0 51.49288211781527 1.410209331461573)"><path d="M0 0 C17.16 0.47, 85.82 2.35, 102.99 2.82 M0 0 C17.16 0.47, 85.82 2.35, 102.99 2.82" stroke="#000000" stroke-width="1" fill="none"></path></g></g><g transform="translate(1821.701414624371 723.5787154099143) rotate(0 150.5 19.630434782608717)"><text x="0" y="28.260869565217405" font-family="Virgil, Segoe UI Emoji" font-size="30.871794871794854px" fill="#000000" text-anchor="start" style="white-space: pre;" direction="ltr">= Additional details</text></g><g transform="translate(1736.0115826525684 264.4166666666666) rotate(0 8 13)"><text x="8" y="18" font-family="Virgil, Segoe UI Emoji" font-size="20px" fill="#364fc7" text-anchor="middle" style="white-space: pre;" direction="ltr">...</text></g></svg>